<svg width="768" height="811" viewBox="0 0 768 811" fill="none" xmlns="http://www.w3.org/2000/svg">
<g clip-path="url(#clip0_442_2)">
<path d="M563.833 780.044L516.051 749.545L578.289 767.364C617.389 730.011 646.031 678.259 646.031 678.259C646.031 678.259 541.31 614.314 476.803 631.378C412.296 648.442 399.917 692.748 412.43 740.054C424.944 787.358 457.612 819.749 522.119 802.685C536.477 798.887 550.579 790.609 563.833 780.044Z" fill="#F2F2F2"/>
<path d="M511.298 739.708L508.118 740.549C471.109 750.137 440.623 751.532 417.082 744.673C416.737 744.579 416.404 744.465 416.059 744.371L416.531 742.781L417.004 741.258C442.52 749.026 474.784 745.628 507.067 737.273C508.11 737.014 509.169 736.751 510.219 736.456C523.854 732.799 537.438 728.313 550.495 723.427C551.509 723.058 552.535 722.669 553.56 722.28C570.761 715.742 586.959 708.594 600.921 701.97C601.91 701.507 602.895 701.027 603.864 700.552C627.449 689.243 644.163 679.651 647.854 677.496C648.309 677.241 648.555 677.091 648.614 677.059L649.435 678.442L649.455 678.454L650.279 679.852C650.221 679.885 649.394 680.39 647.842 681.272C642.054 684.605 626.29 693.457 605.107 703.659C604.149 704.114 603.164 704.594 602.176 705.057C590.851 710.445 578.113 716.155 564.593 721.584C561.2 722.954 557.841 724.263 554.516 725.513C553.495 725.918 552.47 726.307 551.456 726.676C537.341 731.96 523.955 736.303 511.298 739.708Z" fill="white"/>
<path d="M605.107 703.659C604.686 702.642 604.261 701.609 603.864 700.552C602.78 697.683 601.843 694.76 601.059 691.795C597.699 679.162 597.217 665.937 599.646 653.094C598.637 652.654 597.628 652.213 596.599 651.761C593.917 665.305 594.366 679.283 597.91 692.628C598.749 695.793 599.754 698.911 600.921 701.97C601.314 703.011 601.739 704.044 602.175 705.057C605.727 713.433 610.53 721.22 616.42 728.153C617.106 727.247 617.782 726.361 618.445 725.495C612.948 718.913 608.453 711.555 605.107 703.659Z" fill="white"/>
<path d="M554.517 725.513C554.167 724.444 553.848 723.366 553.56 722.28C553.457 721.953 553.366 721.607 553.278 721.276C549.656 707.584 549.398 693.219 552.528 679.405C555.657 665.592 562.08 652.74 571.249 641.945C570.154 641.561 569.058 641.177 567.952 640.813C558.737 651.974 552.314 665.169 549.215 679.307C546.116 693.445 546.429 708.117 550.13 722.109C550.247 722.55 550.363 722.991 550.496 723.427C550.803 724.525 551.122 725.603 551.456 726.676C556.763 743.255 566.732 757.955 580.173 769.018C580.968 768.268 581.764 767.519 582.555 766.754C569.395 756.028 559.651 741.695 554.517 725.513Z" fill="white"/>
<path d="M511.299 739.708C510.913 738.631 510.559 737.546 510.22 736.456C509.86 735.288 509.517 734.116 509.204 732.935C504.358 714.531 505.604 695.052 512.756 677.414C519.907 659.777 532.579 644.93 548.874 635.097C547.411 634.726 545.965 634.351 544.511 634.012C528.429 644.488 516.059 659.765 509.155 677.673C502.252 695.581 501.168 715.209 506.056 733.768C506.368 734.949 506.696 736.125 507.068 737.273C507.395 738.383 507.749 739.468 508.119 740.549C515.748 762.344 531.374 780.426 551.834 791.133C552.911 790.495 553.96 789.813 555.025 789.127C534.578 778.967 518.894 761.24 511.299 739.708Z" fill="white"/>
<path d="M448.077 804.248L211.786 709.137C197.626 703.419 186.313 692.318 180.328 678.269C174.343 664.22 174.175 648.37 179.861 634.198L420.61 36.0922C426.328 21.9325 437.429 10.6192 451.478 4.63416C465.527 -1.35083 481.376 -1.5187 495.549 4.16737L731.84 99.2786C745.999 104.997 757.313 116.098 763.298 130.147C769.282 144.196 769.45 160.045 763.764 174.218L523.016 772.324C517.298 786.483 506.196 797.797 492.147 803.782C478.098 809.767 462.249 809.934 448.077 804.248Z" fill="#3F3D56"/>
<path d="M722.518 114.802L696.216 104.215C693.867 103.272 691.241 103.3 688.913 104.292C686.585 105.283 684.746 107.158 683.798 109.505C681.862 114.302 678.101 118.135 673.342 120.163C668.582 122.191 663.212 122.247 658.411 120.32L529.775 68.5414C524.977 66.6051 521.144 62.8443 519.117 58.0847C517.089 53.3251 517.033 47.9554 518.96 43.1543C519.902 40.8059 519.875 38.1795 518.883 35.8515C517.891 33.5236 516.017 31.6841 513.67 30.737L490.478 21.4019C479.729 17.0911 467.709 17.2193 457.054 21.7584C446.399 26.2975 437.979 34.8769 433.641 45.6152L194.604 639.469C190.293 650.219 190.421 662.239 194.96 672.894C199.499 683.549 208.079 691.969 218.817 696.307L450.856 789.707C461.605 794.018 473.626 793.889 484.28 789.35C494.935 784.811 503.355 776.232 507.693 765.493L746.731 171.639C751.041 160.89 750.913 148.87 746.374 138.215C741.835 127.56 733.256 119.14 722.518 114.802Z" fill="white"/>
<path d="M632.542 92.4388L559.971 63.2279C559.284 62.9512 558.735 62.4128 558.444 61.7311C558.154 61.0494 558.146 60.2802 558.423 59.5928C558.699 58.9055 559.238 58.3561 559.92 58.0657C560.601 57.7753 561.37 57.7676 562.058 58.0443L634.628 87.2552C634.969 87.3922 635.279 87.5949 635.541 87.8517C635.803 88.1085 636.012 88.4145 636.155 88.752C636.299 89.0895 636.375 89.4521 636.379 89.819C636.382 90.1859 636.314 90.5499 636.177 90.8902C636.04 91.2306 635.837 91.5407 635.58 91.8027C635.323 92.0647 635.017 92.2736 634.68 92.4174C634.342 92.5612 633.98 92.6371 633.613 92.6408C633.246 92.6444 632.882 92.5758 632.542 92.4388Z" fill="white"/>
<path d="M644.989 96.6724C646.223 96.6724 647.224 95.6717 647.224 94.4373C647.224 93.2029 646.223 92.2022 644.989 92.2022C643.755 92.2022 642.754 93.2029 642.754 94.4373C642.754 95.6717 643.755 96.6724 644.989 96.6724Z" fill="white"/>
<path d="M692.409 357.474C691.173 356.975 690.185 356.006 689.663 354.779C689.14 353.553 689.125 352.169 689.622 350.931L726.344 259.7C726.843 258.464 727.812 257.477 729.039 256.955C730.265 256.433 731.649 256.42 732.885 256.917C734.122 257.415 735.11 258.383 735.633 259.609C736.156 260.835 736.171 262.219 735.675 263.456L698.952 354.687C698.453 355.923 697.484 356.911 696.257 357.434C695.03 357.956 693.647 357.971 692.409 357.474Z" fill="#3F3D56"/>
<path d="M374.306 151.127C373.069 150.628 372.082 149.659 371.559 148.432C371.036 147.205 371.022 145.821 371.518 144.584L379.864 123.85C380.11 123.236 380.475 122.677 380.937 122.204C381.399 121.731 381.95 121.354 382.558 121.094C383.166 120.835 383.819 120.698 384.48 120.691C385.141 120.684 385.797 120.807 386.411 121.054C387.024 121.301 387.583 121.666 388.055 122.129C388.526 122.592 388.903 123.144 389.161 123.752C389.42 124.361 389.556 125.014 389.562 125.676C389.567 126.337 389.443 126.992 389.195 127.605L380.849 148.34C380.35 149.576 379.38 150.564 378.154 151.086C376.927 151.609 375.543 151.624 374.306 151.127Z" fill="#3F3D56"/>
<path d="M358.864 189.486C357.628 188.987 356.64 188.017 356.118 186.791C355.595 185.564 355.58 184.18 356.077 182.943L364.423 162.208C364.669 161.594 365.033 161.035 365.495 160.562C365.957 160.089 366.508 159.712 367.116 159.452C367.724 159.193 368.378 159.055 369.039 159.048C369.7 159.041 370.356 159.165 370.97 159.412C371.583 159.659 372.142 160.024 372.614 160.487C373.086 160.95 373.462 161.502 373.72 162.111C373.979 162.719 374.115 163.373 374.121 164.034C374.126 164.695 374.002 165.351 373.753 165.964L365.407 186.698C364.908 187.935 363.939 188.923 362.712 189.445C361.486 189.968 360.102 189.982 358.864 189.486Z" fill="#3F3D56"/>
<path d="M580.582 277.543L480.203 237.139C478.146 236.305 476.503 234.691 475.633 232.649C474.763 230.608 474.737 228.304 475.56 226.244L499.651 166.392C500.485 164.336 502.099 162.693 504.14 161.823C506.182 160.953 508.485 160.927 510.545 161.75L610.924 202.154C612.981 202.988 614.624 204.602 615.494 206.643C616.364 208.684 616.391 210.987 615.568 213.048L591.476 272.9C590.642 274.956 589.028 276.599 586.987 277.469C584.946 278.339 582.643 278.366 580.582 277.543ZM508.853 165.96C507.909 165.583 506.853 165.596 505.917 165.995C504.982 166.394 504.242 167.146 503.86 168.089L479.771 227.936C479.394 228.881 479.406 229.936 479.805 230.872C480.204 231.808 480.957 232.548 481.899 232.93L582.271 273.331C583.216 273.709 584.272 273.696 585.209 273.298C586.145 272.899 586.885 272.145 587.268 271.202L611.357 211.356C611.734 210.411 611.721 209.356 611.322 208.42C610.923 207.485 610.17 206.745 609.228 206.363L508.853 165.96Z" fill="#3F3D56"/>
<path d="M581.177 239.458L581.171 239.456L503.686 208.266C502.605 207.828 501.686 207.069 501.053 206.09C500.42 205.111 500.103 203.961 500.146 202.796L501.609 166.505C501.646 165.6 501.899 164.718 502.347 163.932C502.796 163.146 503.426 162.478 504.186 161.986C504.945 161.494 505.812 161.192 506.713 161.104C507.614 161.017 508.523 161.147 509.363 161.483L611.909 202.557C613.295 203.113 614.405 204.195 614.997 205.566C615.588 206.937 615.614 208.486 615.067 209.876L615.403 210.213L612.188 213.415L612.188 213.414L587.275 238.218C586.492 239 585.497 239.535 584.413 239.755C583.328 239.976 582.203 239.872 581.177 239.458Z" fill="#3F3D56"/>
<path d="M522.99 242.098L488.528 228.226C487.679 227.884 487.001 227.219 486.643 226.377C486.285 225.535 486.275 224.585 486.617 223.736C486.959 222.888 487.623 222.209 488.465 221.85C489.307 221.492 490.256 221.482 491.105 221.823L525.568 235.694C526.416 236.037 527.094 236.702 527.453 237.544C527.811 238.386 527.82 239.335 527.479 240.184C527.137 241.033 526.472 241.711 525.631 242.07C524.789 242.429 523.839 242.439 522.99 242.098Z" fill="#3F3D56"/>
<path d="M544.327 230.616C548.986 230.616 552.763 226.839 552.763 222.18C552.763 217.521 548.986 213.744 544.327 213.744C539.668 213.744 535.891 217.521 535.891 222.18C535.891 226.839 539.668 230.616 544.327 230.616Z" fill="white"/>
<path d="M430.9 649.404L330.521 608.999C328.464 608.165 326.821 606.551 325.951 604.509C325.081 602.468 325.055 600.165 325.878 598.104L349.969 538.253C350.803 536.196 352.417 534.553 354.459 533.683C356.5 532.813 358.803 532.787 360.864 533.61L461.243 574.014C463.299 574.848 464.942 576.462 465.812 578.503C466.682 580.544 466.709 582.847 465.886 584.908L441.795 644.76C440.961 646.816 439.347 648.459 437.305 649.329C435.264 650.199 432.961 650.226 430.9 649.404ZM359.172 537.821C358.227 537.444 357.171 537.456 356.236 537.855C355.3 538.254 354.561 539.007 354.178 539.949L330.089 599.796C329.712 600.741 329.724 601.797 330.123 602.732C330.522 603.668 331.275 604.408 332.218 604.79L432.589 645.192C433.535 645.569 434.591 645.557 435.527 645.158C436.463 644.759 437.203 644.006 437.586 643.063L461.675 583.216C462.052 582.272 462.04 581.216 461.641 580.281C461.242 579.345 460.489 578.605 459.546 578.223L359.172 537.821Z" fill="#3F3D56"/>
<path d="M431.496 611.318L431.49 611.316L354.004 580.127C352.924 579.689 352.005 578.929 351.371 577.95C350.738 576.971 350.422 575.822 350.465 574.657L351.928 538.365C351.964 537.461 352.217 536.578 352.666 535.792C353.114 535.006 353.745 534.339 354.504 533.847C355.264 533.355 356.131 533.052 357.031 532.965C357.932 532.877 358.841 533.007 359.681 533.343L462.227 574.418C463.613 574.973 464.723 576.055 465.315 577.426C465.907 578.797 465.932 580.346 465.386 581.736L465.722 582.073L462.506 585.275L462.506 585.275L437.594 610.079C436.811 610.861 435.815 611.395 434.731 611.615C433.647 611.836 432.522 611.733 431.496 611.318Z" fill="#3F3D56"/>
<path d="M373.31 613.958L338.848 600.086C338 599.744 337.322 599.079 336.963 598.237C336.605 597.395 336.595 596.446 336.937 595.597C337.279 594.748 337.944 594.069 338.785 593.711C339.627 593.352 340.577 593.342 341.426 593.683L375.888 607.555C376.308 607.724 376.691 607.974 377.015 608.292C377.339 608.609 377.597 608.987 377.774 609.404C377.952 609.821 378.046 610.269 378.05 610.722C378.055 611.175 377.97 611.625 377.801 612.045C377.632 612.466 377.381 612.848 377.064 613.172C376.747 613.496 376.369 613.754 375.952 613.931C375.535 614.109 375.087 614.203 374.634 614.207C374.181 614.212 373.731 614.127 373.31 613.958Z" fill="#3F3D56"/>
<path d="M394.647 602.476C399.306 602.476 403.083 598.699 403.083 594.04C403.083 589.381 399.306 585.604 394.647 585.604C389.988 585.604 386.211 589.381 386.211 594.04C386.211 598.699 389.988 602.476 394.647 602.476Z" fill="white"/>
<path d="M470.669 497.826C521.629 497.826 562.941 456.515 562.941 405.554C562.941 354.594 521.629 313.282 470.669 313.282C419.708 313.282 378.396 354.594 378.396 405.554C378.396 456.515 419.708 497.826 470.669 497.826Z" fill="#536DFE"/>
<path d="M505.686 463.451L405.306 423.047C403.249 422.213 401.606 420.599 400.736 418.557C399.866 416.515 399.84 414.212 400.663 412.151L424.755 352.3C425.588 350.244 427.202 348.601 429.244 347.731C431.285 346.861 433.588 346.835 435.649 347.658L536.028 388.062C538.084 388.896 539.727 390.509 540.597 392.551C541.467 394.592 541.494 396.895 540.671 398.956L516.58 458.808C515.746 460.864 514.132 462.507 512.091 463.377C510.049 464.247 507.747 464.274 505.686 463.451ZM433.957 351.868C433.012 351.491 431.957 351.504 431.021 351.903C430.085 352.301 429.346 353.054 428.963 353.997L404.874 413.844C404.497 414.789 404.51 415.844 404.908 416.78C405.307 417.716 406.06 418.455 407.003 418.838L507.375 459.239C508.32 459.617 509.376 459.604 510.312 459.205C511.248 458.807 511.989 458.053 512.371 457.11L536.46 397.264C536.837 396.319 536.825 395.264 536.426 394.328C536.027 393.393 535.274 392.653 534.331 392.271L433.957 351.868Z" fill="#3F3D56"/>
<path d="M506.281 425.366L506.275 425.364L428.789 394.174C427.709 393.736 426.79 392.977 426.156 391.998C425.523 391.019 425.207 389.869 425.25 388.704L426.713 352.413C426.749 351.508 427.002 350.626 427.451 349.84C427.899 349.053 428.53 348.386 429.289 347.894C430.049 347.402 430.916 347.1 431.817 347.012C432.717 346.925 433.626 347.055 434.466 347.391L537.012 388.465C538.398 389.021 539.508 390.103 540.1 391.474C540.692 392.845 540.717 394.394 540.171 395.784L540.507 396.121L537.291 399.323L537.291 399.322L512.379 424.126C511.596 424.908 510.6 425.443 509.516 425.663C508.432 425.884 507.307 425.78 506.281 425.366Z" fill="#3F3D56"/>
<path d="M448.096 428.006L413.633 414.134C412.785 413.792 412.107 413.127 411.748 412.285C411.39 411.443 411.381 410.493 411.722 409.644C412.064 408.796 412.729 408.117 413.57 407.758C414.412 407.399 415.362 407.389 416.211 407.731L450.673 421.602C451.522 421.944 452.2 422.61 452.558 423.452C452.916 424.293 452.926 425.243 452.584 426.092C452.242 426.941 451.578 427.619 450.736 427.978C449.894 428.337 448.945 428.347 448.096 428.006Z" fill="#3F3D56"/>
<path d="M221.318 473.097C221.327 471.331 220.949 469.586 220.21 467.982C219.472 466.379 218.391 464.958 217.043 463.817C215.695 462.677 214.114 461.846 212.411 461.383C210.707 460.92 208.923 460.837 207.184 461.138L186.408 423.595L176.064 443.348L197.38 475.971C198.079 478.86 199.814 481.391 202.255 483.086C204.697 484.781 207.675 485.521 210.626 485.167C213.577 484.812 216.295 483.388 218.266 481.163C220.236 478.939 221.322 476.069 221.318 473.097Z" fill="#9E616A"/>
<path d="M207.896 321.452L186.531 319.953C186.531 319.953 183.899 319.595 176.662 331.072C169.424 342.549 144.615 400.748 144.615 400.748L188.079 463.835L202.196 449.782L176.958 399.019L201.149 365.044L207.896 321.452Z" fill="#CACACA"/>
<path d="M443.431 389.654C441.999 390.2 440.465 390.425 438.936 390.314C437.408 390.203 435.922 389.758 434.584 389.011C433.246 388.264 432.089 387.233 431.192 385.99C430.296 384.746 429.683 383.322 429.397 381.816L392.543 376.391L405.44 361.955L438.46 369.32C441.021 369.007 443.608 369.645 445.731 371.111C447.853 372.578 449.364 374.773 449.977 377.279C450.59 379.785 450.262 382.429 449.055 384.71C447.849 386.991 445.848 388.75 443.431 389.654Z" fill="#9E616A"/>
<path d="M301.766 793.352H317.515L325.007 732.606L301.764 732.607L301.766 793.352Z" fill="#9E616A"/>
<path d="M297.75 788.211L302.183 788.21L319.489 781.172L328.765 788.209H328.766C334.008 788.21 339.035 790.292 342.742 793.999C346.449 797.705 348.531 802.732 348.531 807.974V808.617L297.751 808.618L297.75 788.211Z" fill="#2F2E41"/>
<path d="M206.766 793.352H222.515L230.007 732.606L206.764 732.607L206.766 793.352Z" fill="#9E616A"/>
<path d="M202.75 788.211L207.183 788.21L224.489 781.172L233.765 788.209H233.766C239.008 788.21 244.035 790.292 247.742 793.999C251.449 797.705 253.531 802.732 253.531 807.974V808.617L202.751 808.618L202.75 788.211Z" fill="#2F2E41"/>
<path d="M212.841 494.222L202.432 556.966L205.932 758.659H231.551L270.911 545.313L299.224 755.152L324.983 754.037L337.838 542.227L326.287 488.162L212.841 494.222Z" fill="#2F2E41"/>
<path d="M306.971 307.628L279.55 303.588L273.72 288.451L235.09 288.397L226.411 308.162L186.936 320.08L219.641 432.428C219.641 432.428 201.617 474.179 206.05 474.358C210.482 474.537 212.666 480.875 209.574 484.206C206.482 487.537 200.279 485.418 203.38 490.478C205.157 493.216 206.348 496.292 206.876 499.513C206.876 499.513 337.676 527.438 330.43 491.43C329.53 486.953 318.6 424.938 318.6 424.938C318.6 424.938 328.117 414.407 324.05 410.222C319.982 406.037 322.13 361.838 322.13 361.838L306.971 307.628Z" fill="#CACACA"/>
<path d="M302.482 312.537L306.97 307.628L367.94 343.378L419.53 363.953L420.53 381.953L353.53 373.953L306.11 350.766L302.482 312.537Z" fill="#CACACA"/>
<path d="M285.531 245.039C285.531 249.278 284.696 253.475 283.074 257.391C281.452 261.306 279.075 264.864 276.078 267.861C273.081 270.858 269.523 273.236 265.607 274.858C261.691 276.479 257.494 277.314 253.256 277.314C250.714 277.31 248.182 277.014 245.708 276.431C239.813 275.016 234.435 271.97 230.191 267.641C225.946 263.313 223.006 257.877 221.707 251.955C220.408 246.034 220.802 239.866 222.845 234.158C224.887 228.45 228.495 223.433 233.256 219.68C238.017 215.927 243.739 213.59 249.766 212.937C255.793 212.284 261.882 213.341 267.336 215.987C272.791 218.633 277.39 222.761 280.608 227.899C283.825 233.037 285.531 238.977 285.531 245.039Z" fill="#9E616A"/>
<path d="M261.901 271.212L238.72 275.682C236.56 276.266 234.297 276.36 232.097 275.957C228.649 275.049 226.338 271.867 224.574 268.768C216.389 254.255 213.812 237.244 217.329 220.958C218.121 217.363 219.814 213.244 223.421 212.512C224.469 212.299 225.655 212.383 226.484 211.708C227.706 210.714 227.304 208.607 226.104 207.587C224.8 206.688 223.262 206.189 221.679 206.149C222.702 204.946 223.968 203.974 225.394 203.296C226.819 202.618 228.373 202.249 229.951 202.214L223.751 198.769C226.738 196.696 230.75 196.886 234.273 197.781C237.796 198.676 241.187 200.193 244.806 200.532C249.351 200.958 253.835 199.498 258.364 198.933C265.121 198.201 271.948 199.421 278.033 202.45C284.118 205.479 289.207 210.189 292.697 216.022C293.927 217.968 294.706 220.164 294.978 222.449C295.102 223.592 294.959 224.749 294.558 225.826C294.158 226.904 293.511 227.874 292.67 228.658C290.132 230.793 286.134 230.479 283.675 232.705C281.779 234.421 281.308 237.191 281.2 239.746C281.093 242.3 281.215 244.969 280.12 247.28C279.026 249.59 276.169 251.327 273.885 250.179C273.784 247.014 270.137 244.774 267.039 245.428C263.942 246.081 261.654 248.898 260.763 251.936C259.871 254.974 260.136 258.219 260.524 261.361C260.912 264.503 261.417 267.682 260.981 270.818" fill="#2F2E41"/>
<path d="M465.831 417.46C470.49 417.46 474.267 413.683 474.267 409.024C474.267 404.365 470.49 400.588 465.831 400.588C461.172 400.588 457.395 404.365 457.395 409.024C457.395 413.683 461.172 417.46 465.831 417.46Z" fill="#536DFE"/>
<path d="M648.485 810.136H1.19115C0.875955 810.135 0.573977 810.009 0.351425 809.786C0.128873 809.563 0.00390625 809.261 0.00390625 808.946C0.00390625 808.63 0.128873 808.328 0.351425 808.105C0.573977 807.882 0.875955 807.756 1.19115 807.755H648.485C648.801 807.755 649.104 807.88 649.327 808.104C649.55 808.327 649.676 808.63 649.676 808.946C649.676 809.261 649.55 809.564 649.327 809.787C649.104 810.011 648.801 810.136 648.485 810.136Z" fill="#CACACA"/>
</g>
<defs>
<clipPath id="clip0_442_2">
<rect width="767.931" height="810.136" fill="white"/>
</clipPath>
</defs>
</svg>
