<svg width="896" height="797" viewBox="0 0 896 797" fill="none" xmlns="http://www.w3.org/2000/svg">
<g clip-path="url(#clip0_524_1227)">
<path d="M175.051 793.28C184.044 785.682 189.506 773.678 188.073 761.992C186.641 750.307 177.769 739.564 166.26 737.083C154.752 734.601 141.633 741.47 138.137 752.712C136.213 731.038 133.996 708.455 122.473 689.997C112.039 673.284 93.9662 661.325 74.3799 659.186C54.7935 657.046 34.1715 665.127 21.9562 680.586C9.74094 696.045 6.75006 718.52 15.3053 736.269C21.6077 749.343 33.2189 759.074 45.3846 766.99C84.1972 792.245 132.344 800.778 178.157 794.036L175.051 793.28Z" fill="#F2F2F2"/>
<path d="M41.3223 665.575C57.4835 678.738 72.3096 693.461 85.5864 709.529C98.8652 725.581 110.556 742.883 120.494 761.192C126.049 771.462 131.039 782.028 135.442 792.843C136.34 795.043 132.768 796 131.88 793.825C124.081 774.759 114.432 756.503 103.072 739.32C91.767 722.198 78.8278 706.213 64.4362 691.59C56.2962 683.324 47.7079 675.511 38.7101 668.187C36.8658 666.685 39.4932 664.085 41.3223 665.575Z" fill="white"/>
<path d="M818.819 329.538H695.805C693.949 329.536 692.17 328.798 690.857 327.486C689.545 326.173 688.807 324.394 688.805 322.538V307.779C688.807 305.923 689.545 304.144 690.857 302.831C692.17 301.519 693.949 300.781 695.805 300.779H818.819C820.675 300.781 822.454 301.519 823.766 302.831C825.079 304.144 825.817 305.923 825.819 307.779V322.538C825.817 324.394 825.079 326.173 823.766 327.486C822.454 328.798 820.675 329.536 818.819 329.538Z" fill="#536DFE"/>
<path d="M802.222 306.97L749.797 259.701C748.668 258.682 747.216 258.092 745.696 258.034C744.176 257.975 742.684 258.452 741.48 259.382L626.749 297.263C625.113 297.805 623.759 298.974 622.984 300.513C622.209 302.053 622.076 303.836 622.615 305.473L627.242 319.489C627.509 320.3 627.933 321.051 628.49 321.699C629.047 322.346 629.726 322.877 630.489 323.261C631.252 323.645 632.083 323.874 632.935 323.937C633.787 323.999 634.642 323.892 635.453 323.623L740.696 288.873L783.633 327.587C784.823 328.666 786.372 329.262 787.978 329.26C788.092 329.26 788.206 329.257 788.321 329.251C789.174 329.209 790.011 328.998 790.782 328.631C791.553 328.264 792.243 327.748 792.814 327.112L802.697 316.151C803.849 314.869 804.447 313.183 804.358 311.462C804.269 309.741 803.501 308.126 802.222 306.97Z" fill="#536DFE"/>
<path d="M221.703 660.438C220.112 660.44 218.587 661.072 217.462 662.197C216.338 663.322 215.705 664.847 215.703 666.438V789.452C215.705 791.043 216.338 792.568 217.462 793.693C218.587 794.818 220.112 795.45 221.703 795.452H236.463C238.054 795.45 239.579 794.818 240.704 793.693C241.828 792.568 242.461 791.043 242.463 789.452V666.438C242.461 664.847 241.828 663.322 240.704 662.197C239.579 661.072 238.054 660.44 236.463 660.438H221.703Z" fill="#536DFE"/>
<path d="M267.658 796.452H252.898C251.043 796.45 249.263 795.712 247.951 794.4C246.639 793.087 245.901 791.308 245.898 789.452V666.438C245.901 664.582 246.639 662.803 247.951 661.491C249.263 660.178 251.043 659.44 252.898 659.438H267.658C269.514 659.44 271.293 660.178 272.605 661.491C273.918 662.803 274.656 664.582 274.658 666.438V789.452C274.656 791.308 273.918 793.087 272.605 794.4C271.293 795.712 269.514 796.45 267.658 796.452Z" fill="#536DFE"/>
<path d="M291.822 675.975C291.822 675.975 297.398 726.119 241.103 724.416C184.807 722.713 206.71 673.441 206.71 673.441C206.71 673.441 218.475 664.196 248.213 673.137C277.951 682.079 291.822 675.975 291.822 675.975Z" fill="#CCCCCC"/>
<path d="M267.629 590.638C264.537 590.644 261.525 589.652 259.041 587.811C256.557 585.969 254.733 583.376 253.84 580.415C252.946 577.455 253.031 574.286 254.082 571.377C255.132 568.469 257.092 565.977 259.671 564.271L356.099 500.451C356.866 499.944 357.725 499.592 358.627 499.417C359.529 499.241 360.457 499.245 361.358 499.429C362.259 499.612 363.115 499.971 363.877 500.485C364.639 500.999 365.293 501.659 365.8 502.425L373.946 514.733C374.968 516.282 375.335 518.173 374.964 519.991C374.594 521.81 373.518 523.408 371.972 524.434L275.544 588.254C273.198 589.81 270.444 590.64 267.629 590.638Z" fill="#536DFE"/>
<path d="M250.121 531.559C278.288 531.559 301.121 508.726 301.121 480.559C301.121 452.393 278.288 429.559 250.121 429.559C221.955 429.559 199.121 452.393 199.121 480.559C199.121 508.726 221.955 531.559 250.121 531.559Z" fill="#536DFE"/>
<path d="M250.157 501.968C253.463 501.876 257.577 501.762 260.747 499.446C261.691 498.728 262.467 497.813 263.019 496.764C263.572 495.715 263.889 494.558 263.947 493.373C264.005 492.532 263.866 491.688 263.544 490.909C263.221 490.129 262.722 489.435 262.087 488.88C260.431 487.481 258.014 487.153 255.409 487.919L258.108 468.193L256.126 467.922L252.953 491.112L254.608 490.352C256.526 489.472 259.16 489.025 260.796 490.408C261.198 490.769 261.511 491.218 261.711 491.721C261.911 492.223 261.992 492.764 261.949 493.303C261.9 494.184 261.662 495.045 261.251 495.826C260.841 496.608 260.266 497.291 259.567 497.831C257.101 499.633 253.821 499.865 250.102 499.969L250.157 501.968Z" fill="#2F2E41"/>
<path d="M278.682 469.894H267.91V471.894H278.682V469.894Z" fill="#2F2E41"/>
<path d="M244.682 469.894H233.91V471.894H244.682V469.894Z" fill="#2F2E41"/>
<path d="M198.604 686.54C198.604 686.54 194.201 536.825 255.848 547.099C317.495 557.374 291.809 701.951 291.809 701.951C291.809 701.951 278.599 728.372 246.307 699.016C214.016 669.66 198.604 686.54 198.604 686.54Z" fill="#2F2E41"/>
<path d="M221.356 437.483C231.279 430.745 243.803 435.322 253.446 440.13C262.81 444.8 273.362 450.742 283.958 446.244C288.096 444.487 291.459 441.051 292.044 436.454C292.74 430.977 289.429 425.85 285.745 422.127C281.742 418.296 277.079 415.223 271.98 413.055C266.982 410.806 261.716 409.205 256.312 408.29C245.607 406.441 234.615 407.176 224.251 410.434C213.887 413.692 204.452 419.379 196.731 427.022C189.262 434.64 183.491 443.753 179.798 453.763C176.105 463.772 174.574 474.45 175.306 485.094C176.148 496.439 179.772 508.008 187.041 516.914C193.862 525.27 204.074 531.145 214.974 531.635C217.645 531.76 220.321 531.543 222.937 530.988C224.82 530.587 225.625 533.478 223.734 533.881C212.382 536.302 200.621 532.705 191.617 525.623C182.139 518.167 176.323 506.88 173.773 495.251C168.894 472.996 175.007 449.045 189.015 431.229C195.932 422.354 204.893 415.284 215.133 410.62C225.708 405.897 237.261 403.778 248.824 404.437C260.356 405.016 271.543 408.561 281.303 414.728C290.034 420.371 299.874 432.331 292.753 442.914C290.091 446.871 285.67 449.282 281.081 450.272C275.815 451.297 270.367 450.822 265.357 448.902C253.951 444.875 243.402 435.875 230.634 437.238C227.852 437.527 225.184 438.501 222.87 440.073C221.268 441.16 219.766 438.562 221.356 437.483Z" fill="#2F2E41"/>
<path d="M657.085 205.201C654.775 203.717 652.957 201.582 651.861 199.065C650.765 196.548 650.44 193.762 650.927 191.061C651.414 188.359 652.692 185.863 654.597 183.887C656.503 181.911 658.952 180.545 661.635 179.961L774.623 155.365C776.307 155 778.067 155.318 779.517 156.25C780.967 157.181 781.988 158.65 782.356 160.333L785.496 174.755C785.678 175.589 785.693 176.451 785.542 177.291C785.39 178.131 785.075 178.933 784.613 179.651C784.152 180.369 783.554 180.99 782.853 181.477C782.151 181.963 781.361 182.308 780.527 182.489L667.539 207.085C667.049 207.192 666.554 207.272 666.056 207.326C662.91 207.669 659.742 206.919 657.085 205.201Z" fill="#536DFE"/>
<path d="M647.834 197.048C647.767 196.78 647.707 196.509 647.654 196.235C646.725 191.342 648.423 186.19 652.433 181.728C656.788 177.093 662.474 173.926 668.707 172.662L720.218 161.392C721.067 161.207 721.944 161.193 722.798 161.352C723.652 161.511 724.466 161.84 725.191 162.319C725.915 162.798 726.537 163.417 727.018 164.14C727.5 164.863 727.831 165.676 727.994 166.529L732.488 190.203C732.812 191.867 732.471 193.592 731.536 195.006C730.602 196.421 729.149 197.411 727.491 197.765L675.654 209.105C673.317 209.621 670.931 209.884 668.538 209.889C658.326 209.889 649.823 204.915 647.834 197.048Z" fill="#2F2E41"/>
<path d="M656.848 144.076C685.014 144.076 707.848 121.243 707.848 93.0764C707.848 64.9099 685.014 42.0764 656.848 42.0764C628.681 42.0764 605.848 64.9099 605.848 93.0764C605.848 121.243 628.681 144.076 656.848 144.076Z" fill="#536DFE"/>
<path d="M699.888 111.485C703.194 111.394 707.308 111.279 710.478 108.963C711.422 108.246 712.197 107.33 712.75 106.281C713.303 105.232 713.619 104.075 713.678 102.891C713.735 102.049 713.597 101.205 713.274 100.426C712.952 99.6465 712.453 98.9522 711.817 98.3974C710.162 96.9985 707.744 96.6704 705.139 97.436L707.838 77.7104L705.857 77.439L702.684 100.629L704.338 99.8696C706.257 98.9898 708.89 98.542 710.526 99.9248C710.928 100.286 711.241 100.736 711.441 101.238C711.641 101.74 711.722 102.282 711.679 102.82C711.631 103.702 711.393 104.562 710.982 105.344C710.571 106.125 709.997 106.809 709.298 107.348C706.831 109.15 703.552 109.382 699.832 109.486L699.888 111.485Z" fill="#2F2E41"/>
<path d="M694.408 79.4116H683.637V81.4116H694.408V79.4116Z" fill="#2F2E41"/>
<path d="M653.281 41.9256C652.906 35.8969 651.24 30.0192 648.395 24.6905C645.551 19.3619 641.594 14.7066 636.794 11.04C631.835 7.36735 626.111 4.85977 620.049 3.70362C613.987 2.54747 607.743 2.7725 601.779 4.36197C595.855 5.90154 590.357 8.76604 585.7 12.7395C581.043 16.713 577.35 21.6918 574.897 27.3006C572.428 32.8676 571.197 38.9038 571.287 44.993C571.559 51.6147 573.204 58.1077 576.118 64.0601C579.125 70.6122 582.918 76.7593 586.212 83.1643C589.456 89.4803 592.255 96.0152 594.589 102.721C599.337 116.386 602.138 130.65 602.91 145.095C604.135 167.866 601.956 201.109 576.25 209.848C569.714 212.07 562.662 212.484 555.808 212.466C548.59 212.554 541.391 211.711 534.388 209.957C522.253 206.717 510.733 199.107 505.562 187.285C504.37 184.555 503.571 181.67 503.189 178.716C503.081 177.906 503.955 177.224 504.689 177.216C505.084 177.226 505.46 177.387 505.739 177.666C506.018 177.945 506.179 178.321 506.189 178.716C507.863 191.314 518.36 200.975 529.758 205.318C536.418 207.732 543.415 209.086 550.494 209.33C557.54 209.686 564.856 209.63 571.756 208.009C577.897 206.68 583.485 203.503 587.769 198.906C591.589 194.509 594.437 189.356 596.129 183.784C600.186 171.399 600.612 157.782 599.899 144.873C599.092 130.476 596.23 116.267 591.401 102.68C588.961 95.8195 586.019 89.1487 582.597 82.7218C579.254 76.4356 575.543 70.327 572.727 63.7746C569.978 57.7521 568.467 51.2388 568.282 44.6212C568.26 38.5095 569.477 32.4567 571.858 26.8281C574.199 21.1771 577.709 16.0852 582.157 11.8867C586.606 7.68819 591.892 4.47811 597.668 2.46723C603.546 0.421405 609.786 -0.372974 615.988 0.135077C622.191 0.643127 628.218 2.44238 633.684 5.41736C638.884 8.40631 643.439 12.3962 647.088 17.1563C650.736 21.9165 653.405 27.3525 654.939 33.1503C655.685 36.0218 656.135 38.9623 656.281 41.9256C656.38 43.8551 653.38 43.8498 653.281 41.9256Z" fill="#2F2E41"/>
<path d="M643.306 42.9788C642.487 37.4146 639.699 32.3288 635.449 28.6459C630.931 24.859 625.14 22.9367 619.254 23.2704C617.324 23.3669 617.329 20.3667 619.254 20.2704C625.651 19.982 631.931 22.0549 636.899 26.0948C641.867 30.1348 645.177 35.8599 646.199 42.1813C646.487 44.0699 643.597 44.8842 643.306 42.9788Z" fill="#2F2E41"/>
<path d="M637.004 43.1524C636.547 41.7672 636.658 40.2572 637.314 38.9544C637.97 37.6517 639.117 36.6629 640.502 36.2056L654.746 31.5025C656.131 31.0451 657.641 31.1567 658.944 31.8127C660.247 32.4688 661.235 33.6154 661.693 35.0005C662.15 36.3856 662.038 37.8956 661.382 39.1984C660.726 40.5011 659.58 41.49 658.195 41.9473L643.951 46.6504C643.265 46.8771 642.541 46.9665 641.821 46.9134C641.101 46.8602 640.398 46.6657 639.753 46.3409C639.107 46.016 638.533 45.5672 638.061 45.0201C637.589 44.473 637.23 43.8383 637.004 43.1524Z" fill="#2F2E41"/>
<path d="M748.237 112.45C747.317 112.645 746.47 113.094 745.793 113.748C745.117 114.401 744.638 115.232 744.412 116.146C744.186 117.059 744.222 118.017 744.516 118.91C744.809 119.804 745.349 120.597 746.072 121.198L768.084 139.487C768.406 139.759 768.671 140.091 768.867 140.465C769.048 140.842 769.15 141.253 769.166 141.671L770.54 175.212C770.565 176.309 770.958 177.366 771.656 178.213C772.355 179.06 773.317 179.648 774.39 179.882L774.429 179.891C775.488 180.15 776.604 180.047 777.598 179.598C778.592 179.15 779.408 178.382 779.915 177.416L787.854 162.937C788.121 162.46 788.512 162.065 788.985 161.793C789.459 161.521 789.997 161.384 790.543 161.395C790.945 161.397 791.342 161.482 791.709 161.645C792.076 161.808 792.406 162.045 792.677 162.341L830.778 202.997C831.327 203.587 832.012 204.034 832.774 204.3C833.535 204.567 834.35 204.643 835.148 204.524C835.943 204.406 836.698 204.098 837.349 203.627C838.001 203.156 838.53 202.535 838.891 201.817L894.758 90.0453C895.18 89.2037 895.356 88.2601 895.266 87.3228C895.176 86.3855 894.824 85.4927 894.249 84.747C893.674 84.0013 892.9 83.4329 892.017 83.1074C891.133 82.7818 890.176 82.7122 889.254 82.9066L887.445 83.2847L748.237 112.45ZM747.345 119.662C746.911 119.3 746.588 118.824 746.413 118.287C746.238 117.75 746.217 117.175 746.354 116.627C746.49 116.079 746.778 115.581 747.185 115.189C747.591 114.797 748.1 114.527 748.653 114.411L887.817 85.2562L889.67 84.8675C890.221 84.7538 890.794 84.7974 891.322 84.9934C891.851 85.1893 892.313 85.5297 892.657 85.9757C893.002 86.4217 893.214 86.9555 893.27 87.5161C893.325 88.0768 893.222 88.6419 892.972 89.1469L837.106 200.919C836.889 201.35 836.572 201.723 836.18 202.006C835.788 202.288 835.334 202.472 834.856 202.541C834.378 202.611 833.891 202.564 833.435 202.405C832.979 202.245 832.568 201.978 832.238 201.626L794.137 160.971C793.765 160.565 793.325 160.225 792.837 159.968L889.65 89.7343C890.03 89.4639 890.304 89.0689 890.425 88.6177C890.545 88.1665 890.504 87.6874 890.308 87.2634C890.113 86.8393 889.775 86.4969 889.354 86.2954C888.933 86.0938 888.454 86.0458 888.002 86.1597C887.891 86.1861 887.783 86.2233 887.679 86.2708L770.13 138.742C769.903 138.45 769.643 138.184 769.356 137.951L747.345 119.662Z" fill="#CCCCCC"/>
<path d="M748.237 112.45C747.317 112.645 746.47 113.094 745.793 113.748C745.117 114.401 744.638 115.232 744.412 116.146C744.186 117.059 744.222 118.017 744.516 118.91C744.809 119.804 745.349 120.597 746.072 121.198L768.084 139.487C768.406 139.759 768.671 140.091 768.867 140.465C769.048 140.842 769.15 141.253 769.166 141.671L770.54 175.212C770.565 176.309 770.958 177.366 771.656 178.213C772.355 179.06 773.317 179.648 774.39 179.882L774.429 179.891C775.488 180.15 776.604 180.047 777.598 179.598C778.592 179.15 779.408 178.382 779.915 177.416L787.854 162.937C788.121 162.46 788.512 162.065 788.985 161.793C789.459 161.521 789.997 161.384 790.543 161.395C790.945 161.397 791.342 161.482 791.709 161.645C792.076 161.808 792.406 162.045 792.677 162.341L830.778 202.997C831.327 203.587 832.012 204.034 832.774 204.3C833.535 204.567 834.35 204.643 835.148 204.524C835.943 204.406 836.698 204.098 837.349 203.627C838.001 203.156 838.53 202.535 838.891 201.817L894.758 90.0453C895.18 89.2037 895.356 88.2601 895.266 87.3228C895.176 86.3855 894.824 85.4927 894.249 84.747C893.674 84.0013 892.9 83.4329 892.017 83.1074C891.133 82.7818 890.176 82.7122 889.254 82.9066L887.445 83.2847L748.237 112.45ZM747.345 119.662C746.911 119.3 746.588 118.824 746.413 118.287C746.238 117.75 746.217 117.175 746.354 116.627C746.49 116.079 746.778 115.581 747.185 115.189C747.591 114.797 748.1 114.527 748.653 114.411L887.817 85.2562L889.67 84.8675C890.221 84.7538 890.794 84.7974 891.322 84.9934C891.851 85.1893 892.313 85.5297 892.657 85.9757C893.002 86.4217 893.214 86.9555 893.27 87.5161C893.325 88.0768 893.222 88.6419 892.972 89.1469L837.106 200.919C836.889 201.35 836.572 201.723 836.18 202.006C835.788 202.288 835.334 202.472 834.856 202.541C834.378 202.611 833.891 202.564 833.435 202.405C832.979 202.245 832.568 201.978 832.238 201.626L794.137 160.971C793.765 160.565 793.325 160.225 792.837 159.968C792.139 159.594 791.361 159.395 790.569 159.39C790.457 159.386 790.343 159.39 790.229 159.395L790.219 159.393C789.37 159.437 788.547 159.697 787.827 160.149C787.106 160.601 786.514 161.229 786.104 161.974L778.163 176.464C777.859 177.045 777.368 177.507 776.769 177.775C776.17 178.043 775.499 178.1 774.863 177.938L774.843 177.934C774.198 177.798 773.618 177.447 773.199 176.938C772.78 176.429 772.547 175.792 772.537 175.133L771.164 141.592C771.153 141.238 771.102 140.886 771.012 140.542L771.015 140.533C770.93 140.203 770.81 139.884 770.658 139.58C770.512 139.282 770.335 139.002 770.13 138.742C769.903 138.45 769.643 138.184 769.356 137.951L747.345 119.662Z" fill="#3F3D56"/>
<path d="M770.128 138.742L887.677 86.2708C887.781 86.2233 887.889 86.1861 888 86.1597C888.453 86.0458 888.931 86.0938 889.352 86.2953C889.774 86.4969 890.111 86.8393 890.307 87.2633C890.502 87.6874 890.543 88.1665 890.423 88.6177C890.303 89.0689 890.028 89.4639 889.648 89.7343L792.836 159.968L791.127 161.21L789.958 159.59L790.218 159.393L790.227 159.395L888.468 88.1124L771.013 140.533L771.011 140.542L770.499 140.765L769.684 138.938L770.128 138.742Z" fill="#3F3D56"/>
<path d="M623.266 297.96C621.807 297.962 620.409 298.542 619.378 299.573C618.347 300.604 617.767 302.002 617.766 303.46V323.46C617.767 324.918 618.347 326.316 619.378 327.347C620.409 328.378 621.807 328.958 623.266 328.96H687.266C688.724 328.958 690.122 328.378 691.153 327.347C692.184 326.316 692.764 324.918 692.766 323.46V303.46C692.764 302.002 692.184 300.604 691.153 299.573C690.122 298.542 688.724 297.962 687.266 297.96H623.266Z" fill="#2F2E41"/>
<path d="M615.72 196.51C612.664 205.367 612.095 214.892 614.073 224.05C619.159 248.984 617.265 278.461 612.266 309.96C612.266 313.274 614.574 315.96 617.421 315.96H695.61C698.458 315.96 700.766 313.274 700.766 309.96V216.46C700.766 188.83 681.983 166.22 658.492 165.02C657.839 164.98 657.177 164.96 656.516 164.96C638.189 164.96 622.43 177.99 615.72 196.51Z" fill="#2F2E41"/>
<path d="M640.621 317.861V202.227C640.621 198.545 642.083 195.015 644.686 192.412C647.289 189.809 650.82 188.347 654.501 188.347C658.182 188.347 661.713 189.809 664.316 192.412C666.919 195.015 668.381 198.545 668.381 202.227V317.861C668.379 319.584 667.693 321.236 666.475 322.455C665.256 323.673 663.604 324.359 661.881 324.361H647.121C645.398 324.359 643.746 323.673 642.527 322.455C641.308 321.236 640.623 319.584 640.621 317.861Z" fill="#536DFE"/>
<path d="M664.362 235.038L643.382 234.114C641.66 234.036 640.04 233.279 638.876 232.008C637.712 230.737 637.1 229.056 637.174 227.334L638.648 193.867C638.741 191.633 639.274 189.439 640.216 187.412C641.158 185.384 642.491 183.563 644.138 182.051C645.785 180.539 647.714 179.367 649.815 178.602C651.916 177.837 654.147 177.494 656.381 177.592C658.614 177.69 660.806 178.228 662.832 179.175C664.857 180.122 666.676 181.459 668.184 183.11C669.692 184.76 670.859 186.692 671.62 188.795C672.38 190.897 672.718 193.129 672.615 195.362L671.141 228.83C671.068 230.502 670.352 232.08 669.144 233.238C667.936 234.395 666.328 235.042 664.655 235.044C664.558 235.044 664.46 235.042 664.362 235.038Z" fill="#2F2E41"/>
<path d="M700.766 256.46C703.251 256.46 705.266 249.968 705.266 241.96C705.266 233.952 703.251 227.46 700.766 227.46C698.28 227.46 696.266 233.952 696.266 241.96C696.266 249.968 698.28 256.46 700.766 256.46Z" fill="#2F2E41"/>
<path d="M454.148 422.46C467.956 422.46 479.148 411.267 479.148 397.46C479.148 383.653 467.956 372.46 454.148 372.46C440.341 372.46 429.148 383.653 429.148 397.46C429.148 411.267 440.341 422.46 454.148 422.46Z" fill="#CCCCCC"/>
<path d="M701.379 422.46H509.379C507.257 422.46 505.222 421.617 503.722 420.117C502.222 418.616 501.379 416.582 501.379 414.46C501.379 412.338 502.222 410.303 503.722 408.803C505.222 407.303 507.257 406.46 509.379 406.46H701.379C703.501 406.46 705.535 407.303 707.036 408.803C708.536 410.303 709.379 412.338 709.379 414.46C709.379 416.582 708.536 418.616 707.036 420.117C705.535 421.617 703.501 422.46 701.379 422.46Z" fill="#CCCCCC"/>
<path d="M649.379 388.46H509.379C507.257 388.46 505.222 387.617 503.722 386.117C502.222 384.617 501.379 382.582 501.379 380.46C501.379 378.338 502.222 376.303 503.722 374.803C505.222 373.303 507.257 372.46 509.379 372.46H649.379C651.501 372.46 653.535 373.303 655.036 374.803C656.536 376.303 657.379 378.338 657.379 380.46C657.379 382.582 656.536 384.617 655.036 386.117C653.535 387.617 651.501 388.46 649.379 388.46Z" fill="#CCCCCC"/>
<path d="M454.148 517.46C467.956 517.46 479.148 506.267 479.148 492.46C479.148 478.653 467.956 467.46 454.148 467.46C440.341 467.46 429.148 478.653 429.148 492.46C429.148 506.267 440.341 517.46 454.148 517.46Z" fill="#CCCCCC"/>
<path d="M701.379 517.46H509.379C507.257 517.46 505.222 516.617 503.722 515.117C502.222 513.617 501.379 511.582 501.379 509.46C501.379 507.338 502.222 505.303 503.722 503.803C505.222 502.303 507.257 501.46 509.379 501.46H701.379C703.501 501.46 705.535 502.303 707.036 503.803C708.536 505.303 709.379 507.338 709.379 509.46C709.379 511.582 708.536 513.617 707.036 515.117C705.535 516.617 703.501 517.46 701.379 517.46Z" fill="#CCCCCC"/>
<path d="M649.379 483.46H509.379C507.257 483.46 505.222 482.617 503.722 481.117C502.222 479.617 501.379 477.582 501.379 475.46C501.379 473.338 502.222 471.303 503.722 469.803C505.222 468.303 507.257 467.46 509.379 467.46H649.379C651.501 467.46 653.535 468.303 655.036 469.803C656.536 471.303 657.379 473.338 657.379 475.46C657.379 477.582 656.536 479.617 655.036 481.117C653.535 482.617 651.501 483.46 649.379 483.46Z" fill="#CCCCCC"/>
<path d="M454.148 613.46C467.956 613.46 479.148 602.267 479.148 588.46C479.148 574.653 467.956 563.46 454.148 563.46C440.341 563.46 429.148 574.653 429.148 588.46C429.148 602.267 440.341 613.46 454.148 613.46Z" fill="#CCCCCC"/>
<path d="M701.379 613.46H509.379C507.257 613.46 505.222 612.617 503.722 611.117C502.222 609.617 501.379 607.582 501.379 605.46C501.379 603.338 502.222 601.303 503.722 599.803C505.222 598.303 507.257 597.46 509.379 597.46H701.379C703.501 597.46 705.535 598.303 707.036 599.803C708.536 601.303 709.379 603.338 709.379 605.46C709.379 607.582 708.536 609.617 707.036 611.117C705.535 612.617 703.501 613.46 701.379 613.46Z" fill="#CCCCCC"/>
<path d="M649.379 579.46H509.379C507.257 579.46 505.222 578.617 503.722 577.117C502.222 575.617 501.379 573.582 501.379 571.46C501.379 569.338 502.222 567.303 503.722 565.803C505.222 564.303 507.257 563.46 509.379 563.46H649.379C651.501 563.46 653.535 564.303 655.036 565.803C656.536 567.303 657.379 569.338 657.379 571.46C657.379 573.582 656.536 575.617 655.036 577.117C653.535 578.617 651.501 579.46 649.379 579.46Z" fill="#CCCCCC"/>
<path d="M768.266 658.46H370.266C365.759 658.455 361.437 656.662 358.25 653.475C355.063 650.288 353.271 645.967 353.266 641.46V344.46C353.271 339.953 355.063 335.632 358.25 332.445C361.437 329.258 365.759 327.465 370.266 327.46H768.266C772.773 327.465 777.094 329.258 780.281 332.445C783.468 335.632 785.261 339.953 785.266 344.46V641.46C785.261 645.967 783.468 650.288 780.281 653.475C777.094 656.662 772.773 658.455 768.266 658.46ZM370.266 329.46C366.289 329.464 362.476 331.046 359.664 333.858C356.852 336.67 355.27 340.483 355.266 344.46V641.46C355.27 645.437 356.852 649.25 359.664 652.062C362.476 654.874 366.289 656.455 370.266 656.46H768.266C772.243 656.455 776.055 654.874 778.867 652.062C781.679 649.25 783.261 645.437 783.266 641.46V344.46C783.261 340.483 781.679 336.67 778.867 333.858C776.055 331.046 772.243 329.464 768.266 329.46H370.266Z" fill="#3F3D56"/>
<path d="M360.266 388.46C391.194 388.46 416.266 363.388 416.266 332.46C416.266 301.532 391.194 276.46 360.266 276.46C329.338 276.46 304.266 301.532 304.266 332.46C304.266 363.388 329.338 388.46 360.266 388.46Z" fill="#536DFE"/>
<path d="M354.711 353.823C353.451 353.825 352.225 353.418 351.217 352.662L351.154 352.615L337.994 342.539C337.384 342.072 336.873 341.489 336.489 340.825C336.104 340.16 335.854 339.426 335.754 338.665C335.653 337.904 335.703 337.13 335.901 336.388C336.099 335.647 336.442 334.951 336.909 334.342C337.376 333.732 337.958 333.221 338.623 332.836C339.288 332.452 340.022 332.202 340.783 332.101C341.544 332.001 342.317 332.051 343.059 332.249C343.801 332.447 344.497 332.79 345.106 333.257L353.63 339.793L373.775 313.522C374.242 312.913 374.824 312.401 375.489 312.017C376.154 311.633 376.888 311.383 377.649 311.283C378.41 311.182 379.184 311.233 379.926 311.431C380.667 311.63 381.363 311.972 381.972 312.44L381.847 312.61L381.975 312.442C383.205 313.387 384.009 314.78 384.212 316.317C384.414 317.854 383.999 319.409 383.058 320.64L359.363 351.541C358.815 352.253 358.11 352.829 357.304 353.225C356.497 353.621 355.61 353.825 354.711 353.823Z" fill="white"/>
<path d="M359.835 667.297C358.851 667.298 357.878 667.089 356.98 666.684L251.476 619.354C249.752 618.582 248.196 617.478 246.899 616.104C245.602 614.731 244.588 613.116 243.915 611.35C243.242 609.585 242.924 607.704 242.979 605.816C243.033 603.927 243.459 602.068 244.232 600.345C245.006 598.621 246.111 597.066 247.485 595.77C248.859 594.474 250.476 593.461 252.242 592.79C254.007 592.118 255.888 591.801 257.777 591.857C259.665 591.913 261.524 592.34 263.247 593.115L368.752 640.444C369.59 640.82 370.347 641.358 370.978 642.027C371.609 642.695 372.102 643.482 372.429 644.341C372.756 645.2 372.91 646.115 372.884 647.034C372.857 647.952 372.65 648.857 372.273 649.696L366.232 663.163C365.677 664.394 364.778 665.44 363.644 666.173C362.509 666.907 361.187 667.297 359.835 667.297Z" fill="#536DFE"/>
<path d="M382 796.46H1C0.734784 796.46 0.480429 796.355 0.292892 796.167C0.105356 795.98 0 795.725 0 795.46C0 795.195 0.105356 794.94 0.292892 794.753C0.480429 794.565 0.734784 794.46 1 794.46H382C382.265 794.46 382.52 794.565 382.707 794.753C382.895 794.94 383 795.195 383 795.46C383 795.725 382.895 795.98 382.707 796.167C382.52 796.355 382.265 796.46 382 796.46Z" fill="#3F3D56"/>
</g>
<defs>
<clipPath id="clip0_524_1227">
<rect width="895.287" height="796.46" fill="white"/>
</clipPath>
</defs>
</svg>
