<svg width="827" height="574" viewBox="0 0 827 574" fill="none" xmlns="http://www.w3.org/2000/svg">
<g clip-path="url(#clip0_444_70)">
<path d="M93.1079 60.318C95.5126 60.318 97.4619 58.3686 97.4619 55.964C97.4619 53.5593 95.5126 51.61 93.1079 51.61C90.7033 51.61 88.7539 53.5593 88.7539 55.964C88.7539 58.3686 90.7033 60.318 93.1079 60.318Z" fill="white"/>
<path d="M109.633 60.318C112.038 60.318 113.987 58.3686 113.987 55.964C113.987 53.5593 112.038 51.61 109.633 51.61C107.229 51.61 105.279 53.5593 105.279 55.964C105.279 58.3686 107.229 60.318 109.633 60.318Z" fill="white"/>
<path d="M126.159 60.318C128.563 60.318 130.513 58.3686 130.513 55.964C130.513 53.5593 128.563 51.61 126.159 51.61C123.754 51.61 121.805 53.5593 121.805 55.964C121.805 58.3686 123.754 60.318 126.159 60.318Z" fill="white"/>
<path d="M635.428 66.193H82.5293V69.266H635.428V66.193Z" fill="white"/>
<path d="M635.902 0.359985H0.271484V407.446H635.902V0.359985Z" fill="#E6E6E6"/>
<path d="M635.631 0H0V27.004H635.631V0Z" fill="#536DFE"/>
<path d="M618.253 48.785H18.9727V203.97H618.253V48.785Z" fill="white"/>
<path d="M618.632 229.471H19.3516V384.656H618.632V229.471Z" fill="white"/>
<path d="M545.671 83.115H221.34V97.57H545.671V83.115Z" fill="#E6E6E6"/>
<path d="M336.979 119.252H221.34V133.707H336.979V119.252Z" fill="#E6E6E6"/>
<path d="M451.715 155.389H221.34V169.844H451.715V155.389Z" fill="#E6E6E6"/>
<path d="M196.947 306.269C196.964 316.793 193.9 327.092 188.134 335.896C186.925 337.753 185.601 339.531 184.169 341.221C180.81 345.2 176.898 348.676 172.552 351.543C171.37 352.326 170.155 353.06 168.907 353.743C162.411 357.336 155.241 359.544 147.85 360.228C146.17 360.392 144.462 360.47 142.739 360.47C138.016 360.475 133.313 359.86 128.751 358.641C126.165 357.961 123.635 357.083 121.184 356.014C119.931 355.473 118.707 354.884 117.511 354.249C114.634 352.738 111.901 350.968 109.346 348.96C108.157 348.035 107.011 347.059 105.908 346.034C99.3062 339.917 94.3319 332.252 91.4337 323.731C88.5356 315.21 87.805 306.102 89.3078 297.228C90.8107 288.354 94.4997 279.994 100.042 272.903C105.584 265.811 112.805 260.212 121.053 256.609C129.3 253.007 138.315 251.515 147.284 252.268C156.253 253.022 164.892 255.997 172.423 260.925C179.955 265.853 186.14 272.578 190.422 280.495C194.703 288.412 196.946 297.27 196.947 306.27V306.269Z" fill="#536DFE"/>
<path d="M146.065 280.966H139.42V331.558H146.065V280.966Z" fill="white"/>
<path d="M168.037 302.94H117.445V309.585H168.037V302.94Z" fill="white"/>
<path d="M537.54 263.801H213.209V278.256H537.54V263.801Z" fill="#E6E6E6"/>
<path d="M328.848 299.938H213.209V314.393H328.848V299.938Z" fill="#E6E6E6"/>
<path d="M443.584 336.075H213.209V350.53H443.584V336.075Z" fill="#E6E6E6"/>
<path d="M42.0393 17.9C44.5063 17.9 46.5063 15.9001 46.5063 13.433C46.5063 10.9659 44.5063 8.966 42.0393 8.966C39.5722 8.966 37.5723 10.9659 37.5723 13.433C37.5723 15.9001 39.5722 17.9 42.0393 17.9Z" fill="white"/>
<path d="M58.9943 17.9C61.4614 17.9 63.4613 15.9001 63.4613 13.433C63.4613 10.9659 61.4614 8.966 58.9943 8.966C56.5273 8.966 54.5273 10.9659 54.5273 13.433C54.5273 15.9001 56.5273 17.9 58.9943 17.9Z" fill="white"/>
<path d="M25.0393 17.9C27.5063 17.9 29.5063 15.9001 29.5063 13.433C29.5063 10.9659 27.5063 8.966 25.0393 8.966C22.5722 8.966 20.5723 10.9659 20.5723 13.433C20.5723 15.9001 22.5722 17.9 25.0393 17.9Z" fill="white"/>
<path d="M175.237 169.971C170.5 167.474 165.554 165.393 160.457 163.751L159.807 156.561L133.447 153.721L130.097 162.911L120.637 166.461C120.299 166.59 119.976 166.757 119.677 166.961H119.667C119.139 167.318 118.689 167.779 118.345 168.315C118.002 168.852 117.771 169.452 117.667 170.081C117.566 170.706 117.59 171.345 117.737 171.961L118.237 174.011C118.957 174.441 119.697 174.851 120.437 175.241L120.907 175.481C121.987 176.041 123.087 176.571 124.217 177.061C124.447 177.161 124.697 177.261 124.927 177.361C124.947 177.371 124.957 177.371 124.977 177.381C125.507 177.601 126.037 177.811 126.577 178.011C128.351 178.689 130.16 179.269 131.997 179.751C136.685 181.001 141.516 181.633 146.367 181.631C148.137 181.631 149.887 181.551 151.617 181.381C155.57 181.016 159.472 180.228 163.257 179.031C163.267 179.031 163.277 179.021 163.287 179.021C165.678 178.259 168.014 177.334 170.277 176.251C170.287 176.241 170.307 176.241 170.317 176.231C170.827 175.991 171.317 175.731 171.817 175.481L172.057 175.361C172.457 175.151 172.857 174.941 173.257 174.721C174.257 174.171 175.237 173.591 176.207 172.971C176.477 172.811 176.737 172.641 177.007 172.461C177.387 172.211 177.767 171.951 178.137 171.681C177.207 171.081 176.237 170.511 175.237 169.971Z" fill="#3F3D56"/>
<path d="M125.768 174.401L124.118 166.951H119.808C119.764 166.952 119.721 166.955 119.678 166.961H119.667C118.119 167.092 116.627 167.608 115.328 168.461C114.446 169.024 113.663 169.726 113.008 170.541C114.288 171.511 115.618 172.411 116.988 173.271L117.048 173.301C117.438 173.541 117.838 173.781 118.238 174.011C118.958 174.441 119.698 174.851 120.438 175.241L120.908 175.481C121.988 176.041 123.088 176.571 124.218 177.061C124.448 177.161 124.698 177.261 124.928 177.361C124.948 177.371 124.958 177.371 124.978 177.381C125.508 177.601 126.038 177.811 126.578 178.011L125.768 174.401Z" fill="#3F3D56"/>
<path d="M145.594 149.176C156.079 149.176 164.579 140.676 164.579 130.191C164.579 119.706 156.079 111.206 145.594 111.206C135.109 111.206 126.609 119.706 126.609 130.191C126.609 140.676 135.109 149.176 145.594 149.176Z" fill="#FFB8B8"/>
<path d="M132.848 120.944C134.814 123.27 138.14 123.926 141.208 124.195C148.38 124.591 155.574 124.004 162.587 122.449C163.022 126.661 161.837 131.203 164.318 134.668C165.481 130.473 166.157 126.158 166.334 121.809C166.519 119.943 166.275 118.059 165.621 116.301C165.272 115.421 164.682 114.656 163.919 114.093C163.156 113.531 162.251 113.194 161.306 113.12C162.72 112.047 164.377 111.339 166.13 111.058L160.102 108.029L161.65 106.439L150.737 105.771L153.898 103.763C149.14 103.11 144.327 102.958 139.538 103.31C137.314 103.474 134.989 103.787 133.187 105.075C131.385 106.364 130.344 108.925 131.463 110.817C130.062 111.047 128.743 111.63 127.632 112.513C126.52 113.395 125.652 114.546 125.109 115.858C124.424 117.942 124.258 120.163 124.627 122.327C125.038 125.797 125.845 129.21 127.031 132.498L132.848 120.944Z" fill="#2F2E41"/>
<path d="M198.978 109.611C196.315 101.959 192.014 94.9799 186.376 89.1607C180.738 83.3414 173.898 78.8221 166.334 75.9178C158.77 73.0134 150.664 71.7941 142.58 72.3447C134.496 72.8953 126.63 75.2026 119.529 79.1057C112.429 83.0088 106.265 88.4138 101.468 94.9438C96.6715 101.474 93.3567 108.972 91.7552 116.914C90.1538 124.857 90.3042 133.053 92.1959 140.932C94.0876 148.81 97.6752 156.181 102.708 162.531C103.208 163.161 103.728 163.791 104.259 164.401C104.299 164.441 104.328 164.481 104.369 164.521C105.672 166.023 107.057 167.452 108.518 168.801C108.899 169.151 109.299 169.511 109.699 169.851C110.458 170.531 111.239 171.181 112.049 171.801C112.369 172.051 112.679 172.301 113.009 172.541C114.288 173.511 115.619 174.411 116.989 175.271L117.049 175.301C117.438 175.541 117.839 175.781 118.239 176.011C118.958 176.441 119.699 176.851 120.438 177.241L120.909 177.481C121.989 178.041 123.089 178.571 124.219 179.061C124.449 179.161 124.699 179.261 124.929 179.361C124.949 179.371 124.958 179.371 124.978 179.381C125.509 179.601 126.039 179.811 126.579 180.011C128.352 180.689 130.162 181.269 131.999 181.751C136.686 183 141.517 183.633 146.369 183.631C148.139 183.631 149.889 183.551 151.619 183.381C155.572 183.016 159.474 182.228 163.259 181.031C163.269 181.031 163.279 181.021 163.289 181.021C165.679 180.259 168.015 179.334 170.279 178.251C170.289 178.241 170.309 178.241 170.319 178.231C170.829 177.991 171.319 177.731 171.819 177.481L172.059 177.361C172.458 177.151 172.859 176.941 173.259 176.721C174.259 176.171 175.239 175.591 176.208 174.971C176.478 174.811 176.739 174.641 177.009 174.461C177.389 174.211 177.768 173.951 178.139 173.681C178.628 173.341 179.119 172.991 179.599 172.631C179.749 172.521 179.909 172.411 180.059 172.291C189.427 165.18 196.304 155.285 199.703 144.025C203.102 132.765 202.848 120.718 198.978 109.611ZM178.219 169.861C177.889 170.121 177.549 170.371 177.208 170.601C176.878 170.851 176.549 171.091 176.208 171.311C175.918 171.521 175.628 171.721 175.328 171.911L175.239 171.971C175.018 172.121 174.799 172.261 174.578 172.401C173.748 172.921 172.908 173.421 172.058 173.901C171.969 173.951 171.878 174.001 171.788 174.051C171.409 174.261 171.029 174.461 170.649 174.661C170.599 174.691 170.538 174.711 170.489 174.741L170.429 174.771C169.949 175.021 169.458 175.261 168.969 175.491C167.078 176.402 165.13 177.19 163.139 177.851C162.878 177.941 162.619 178.031 162.359 178.111C158.776 179.251 155.082 180.002 151.339 180.351C149.699 180.501 148.038 180.581 146.368 180.581C141.78 180.591 137.21 179.992 132.779 178.801C130.504 178.208 128.275 177.452 126.109 176.541C125.998 176.491 125.878 176.451 125.768 176.401C125.649 176.351 125.538 176.311 125.429 176.261C125.308 176.211 125.199 176.161 125.078 176.101C124.139 175.691 123.208 175.241 122.299 174.771L121.859 174.541C120.748 173.961 119.659 173.341 118.599 172.681C118.288 172.491 117.969 172.291 117.668 172.081C117.589 172.031 117.518 171.981 117.438 171.931C116.728 171.461 116.018 170.971 115.328 170.461C114.859 170.111 114.389 169.761 113.929 169.401C113.159 168.821 112.418 168.201 111.699 167.561C111.319 167.241 110.949 166.891 110.589 166.561C109.171 165.252 107.829 163.863 106.569 162.401C106.149 161.921 105.739 161.441 105.348 160.941C105.26 160.842 105.176 160.739 105.098 160.631C98.6012 152.432 94.6931 142.484 93.8727 132.055C93.0523 121.626 95.3567 111.189 100.492 102.075C105.627 92.9612 113.361 85.5833 122.706 80.8824C132.052 76.1815 142.586 74.3706 152.964 75.6807C163.343 76.9908 173.097 81.3626 180.981 88.2384C188.865 95.1142 194.522 104.182 197.232 114.287C199.941 124.391 199.58 135.073 196.193 144.971C192.807 154.869 186.55 163.534 178.219 169.861Z" fill="#3F3D56"/>
<path d="M673.068 376.971C670.405 369.319 666.104 362.34 660.466 356.521C654.828 350.701 647.988 346.182 640.424 343.278C632.86 340.374 624.753 339.154 616.67 339.705C608.586 340.255 600.72 342.563 593.619 346.466C586.519 350.369 580.355 355.774 575.558 362.304C570.761 368.834 567.447 376.332 565.845 384.274C564.244 392.217 564.394 400.413 566.286 408.292C568.177 416.17 571.765 423.542 576.798 429.891C577.298 430.521 577.818 431.151 578.348 431.761C578.388 431.801 578.418 431.841 578.458 431.881C579.762 433.383 581.147 434.812 582.608 436.161C582.988 436.511 583.388 436.871 583.788 437.211C584.548 437.891 585.328 438.541 586.138 439.161C587.72 440.408 589.369 441.566 591.078 442.631L591.138 442.661C592.248 443.351 593.378 443.991 594.528 444.601L594.998 444.841C596.078 445.401 597.178 445.931 598.308 446.421C598.538 446.521 598.788 446.621 599.018 446.721C599.038 446.731 599.048 446.731 599.068 446.741C601.351 447.691 603.697 448.482 606.088 449.111C610.776 450.361 615.607 450.993 620.458 450.991C622.228 450.991 623.978 450.911 625.708 450.741C629.661 450.376 633.563 449.588 637.348 448.391C637.358 448.391 637.368 448.381 637.378 448.381C639.769 447.62 642.104 446.694 644.368 445.611C644.378 445.601 644.398 445.601 644.408 445.591C644.918 445.351 645.408 445.091 645.908 444.841L646.148 444.721C646.548 444.511 646.948 444.301 647.348 444.081C648.348 443.531 649.328 442.951 650.298 442.331C650.568 442.171 650.828 442.001 651.098 441.821C651.978 441.241 652.848 440.621 653.688 439.991C653.838 439.881 653.998 439.771 654.148 439.651C663.517 432.54 670.393 422.645 673.792 411.385C677.191 400.125 676.937 388.078 673.068 376.971Z" fill="white"/>
<path d="M638.841 418.246C643.452 418.246 647.19 414.508 647.19 409.897C647.19 405.286 643.452 401.548 638.841 401.548C634.23 401.548 630.492 405.286 630.492 409.897C630.492 414.508 634.23 418.246 638.841 418.246Z" fill="#2F2E41"/>
<path d="M641.168 401.778C642.613 401.778 644.034 402.153 645.29 402.866C646.547 403.579 647.597 404.607 648.338 405.847C649.079 407.088 649.485 408.5 649.516 409.945C649.548 411.389 649.204 412.818 648.518 414.09C649.242 413.184 649.769 412.137 650.066 411.017C650.363 409.896 650.423 408.726 650.243 407.581C650.063 406.436 649.646 405.341 649.019 404.366C648.392 403.39 647.569 402.557 646.602 401.917C645.635 401.278 644.546 400.846 643.403 400.651C642.26 400.456 641.089 400.501 639.965 400.783C638.841 401.066 637.787 401.579 636.872 402.291C635.957 403.003 635.201 403.897 634.65 404.918C635.431 403.938 636.422 403.146 637.551 402.603C638.68 402.059 639.917 401.777 641.169 401.778H641.168Z" fill="#2F2E41"/>
<path d="M623.239 409.879C636.784 409.879 647.765 398.898 647.765 385.353C647.765 371.807 636.784 360.827 623.239 360.827C609.694 360.827 598.713 371.807 598.713 385.353C598.713 398.898 609.694 409.879 623.239 409.879Z" fill="#2F2E41"/>
<path d="M603.991 370.135C608.217 365.383 614.124 362.458 620.466 361.978C626.807 361.498 633.087 363.501 637.981 367.564C637.781 367.373 637.581 367.181 637.374 366.996C632.529 362.655 626.158 360.417 619.663 360.774C613.168 361.131 607.081 364.053 602.741 368.898C598.4 373.743 596.163 380.114 596.519 386.609C596.876 393.103 599.798 399.191 604.643 403.531C604.69 403.573 604.737 403.614 604.783 403.655C604.991 403.84 605.205 404.015 605.418 404.192C600.811 399.809 598.086 393.807 597.82 387.452C597.554 381.098 599.766 374.889 603.991 370.135Z" fill="#2F2E41"/>
<path d="M623.032 409.671C631.756 409.671 638.828 402.598 638.828 393.875C638.828 385.151 631.756 378.079 623.032 378.079C614.308 378.079 607.236 385.151 607.236 393.875C607.236 402.598 614.308 409.671 623.032 409.671Z" fill="#A0616A"/>
<path d="M651.297 435.031V440.331C650.327 440.951 649.347 441.531 648.347 442.081C647.947 442.301 647.547 442.511 647.147 442.721L646.907 442.841C646.407 443.091 645.917 443.351 645.407 443.591C645.397 443.601 645.377 443.601 645.367 443.611C643.104 444.694 640.768 445.62 638.377 446.381C638.367 446.381 638.357 446.391 638.347 446.391C634.562 447.588 630.66 448.376 626.707 448.741C624.977 448.911 623.227 448.991 621.457 448.991C616.606 448.993 611.775 448.361 607.087 447.111C604.696 446.482 602.351 445.691 600.067 444.741C600.047 444.731 600.037 444.731 600.017 444.721C599.787 444.621 599.537 444.521 599.307 444.421C598.177 443.931 597.077 443.401 595.997 442.841L595.527 442.601C594.377 441.991 593.247 441.351 592.137 440.661L592.077 440.631C590.368 439.566 588.719 438.408 587.137 437.161C586.327 436.541 585.547 435.891 584.787 435.211C584.387 434.871 583.987 434.511 583.607 434.161C582.146 432.812 580.761 431.383 579.457 429.881C579.63 428.84 579.884 427.813 580.217 426.811L580.227 426.801C580.287 426.63 580.357 426.463 580.437 426.301C580.492 426.158 580.556 426.017 580.627 425.881C582.417 422.531 585.657 421.701 589.677 421.521C591.947 421.421 594.457 421.531 597.107 421.501C598.507 421.491 599.957 421.441 601.407 421.311C610.557 420.481 608.898 415.081 609.307 412.171C609.717 409.351 612.257 411.791 612.427 411.951L612.437 411.961C617.615 414.384 623.344 415.389 629.037 414.871C630.017 414.751 630.997 414.681 631.977 414.651C634.557 414.621 633.997 415.361 633.107 415.971C632.676 416.255 632.224 416.509 631.757 416.731C631.757 416.731 631.347 419.231 630.927 422.971C630.527 426.551 637.387 428.231 637.957 428.361C637.969 428.369 637.983 428.373 637.997 428.371C640.502 427.721 643.14 427.791 645.607 428.571H645.617C647.027 429.09 648.285 429.952 649.277 431.08C650.269 432.208 650.964 433.566 651.297 435.031Z" fill="#536DFE"/>
<path d="M600.167 441.461C600.167 442.201 600.148 442.911 600.117 443.581C600.107 443.981 600.087 444.371 600.067 444.741C600.047 444.731 600.037 444.731 600.017 444.721C599.787 444.621 599.537 444.521 599.307 444.421C598.177 443.931 597.077 443.401 595.997 442.841L595.527 442.601C594.377 441.991 593.247 441.351 592.137 440.661C592.167 440.311 592.217 439.961 592.267 439.611C592.377 438.841 592.467 438.061 592.527 437.291C592.92 431.882 591.94 426.46 589.677 421.531V421.521C589.477 421.121 589.357 420.901 589.357 420.901C589.357 420.901 592.267 418.401 596.417 420.901C596.682 421.057 596.916 421.26 597.107 421.501C599.607 424.451 600.287 434.371 600.167 441.461Z" fill="#2F2E41"/>
<path d="M645.578 440.101C645.538 441.221 645.477 442.391 645.408 443.581V443.591C645.398 443.601 645.377 443.601 645.368 443.611C643.104 444.694 640.768 445.619 638.377 446.381C638.368 446.381 638.358 446.391 638.348 446.391L638.238 443.581L638.227 443.211L637.698 429.531C637.684 429.221 637.732 428.912 637.841 428.622C637.95 428.331 638.116 428.066 638.33 427.842C638.544 427.618 638.801 427.439 639.086 427.317C639.371 427.195 639.678 427.131 639.988 427.131H645.058C645.308 427.131 645.488 427.641 645.608 428.561V428.571C645.854 432.411 645.844 436.263 645.578 440.101Z" fill="#2F2E41"/>
<path d="M609.521 374.13V389.93H613.18L617.834 384.942L617.211 389.93H633.381L632.381 384.942L634.381 389.93H636.959V374.13H609.521Z" fill="#2F2E41"/>
<path d="M607.028 392.836C607.717 392.836 608.275 391.812 608.275 390.55C608.275 389.287 607.717 388.264 607.028 388.264C606.34 388.264 605.781 389.287 605.781 390.55C605.781 391.812 606.34 392.836 607.028 392.836Z" fill="#A0616A"/>
<path d="M639.036 392.836C639.725 392.836 640.283 391.812 640.283 390.55C640.283 389.287 639.725 388.264 639.036 388.264C638.347 388.264 637.789 389.287 637.789 390.55C637.789 391.812 638.347 392.836 639.036 392.836Z" fill="#A0616A"/>
<path d="M654.688 437.991C653.848 438.621 652.978 439.241 652.098 439.821C651.828 440.001 651.568 440.171 651.298 440.331C650.328 440.951 649.348 441.531 648.348 442.081C647.948 442.301 647.548 442.511 647.148 442.721V431.701C647.148 431.701 648.748 432.981 651.298 435.111C651.618 435.381 651.948 435.661 652.298 435.961C653.038 436.581 653.838 437.261 654.688 437.991Z" fill="#536DFE"/>
<path d="M673.068 376.971C670.405 369.319 666.104 362.34 660.466 356.521C654.828 350.701 647.988 346.182 640.424 343.278C632.86 340.374 624.753 339.154 616.67 339.705C608.586 340.255 600.72 342.563 593.619 346.466C586.519 350.369 580.355 355.774 575.558 362.304C570.761 368.834 567.447 376.332 565.845 384.274C564.244 392.217 564.394 400.413 566.286 408.292C568.177 416.17 571.765 423.542 576.798 429.891C577.298 430.521 577.818 431.151 578.348 431.761C578.388 431.801 578.418 431.841 578.458 431.881C579.762 433.383 581.147 434.812 582.608 436.161C582.988 436.511 583.388 436.871 583.788 437.211C584.548 437.891 585.328 438.541 586.138 439.161C587.72 440.408 589.369 441.566 591.078 442.631L591.138 442.661C592.248 443.351 593.378 443.991 594.528 444.601L594.998 444.841C596.078 445.401 597.178 445.931 598.308 446.421C598.538 446.521 598.788 446.621 599.018 446.721C599.038 446.731 599.048 446.731 599.068 446.741C601.351 447.691 603.697 448.482 606.088 449.111C610.776 450.361 615.607 450.993 620.458 450.991C622.228 450.991 623.978 450.911 625.708 450.741C629.661 450.376 633.563 449.588 637.348 448.391C637.358 448.391 637.368 448.381 637.378 448.381C639.769 447.62 642.104 446.694 644.368 445.611C644.378 445.601 644.398 445.601 644.408 445.591C644.918 445.351 645.408 445.091 645.908 444.841L646.148 444.721C646.548 444.511 646.948 444.301 647.348 444.081C648.348 443.531 649.328 442.951 650.298 442.331C650.568 442.171 650.828 442.001 651.098 441.821C651.978 441.241 652.848 440.621 653.688 439.991C653.838 439.881 653.998 439.771 654.148 439.651C663.517 432.54 670.393 422.645 673.792 411.385C677.191 400.125 676.937 388.078 673.068 376.971ZM652.308 437.221C651.978 437.481 651.638 437.731 651.298 437.961C650.968 438.211 650.638 438.451 650.298 438.671C650.008 438.881 649.718 439.081 649.418 439.271C649.168 439.441 648.918 439.601 648.668 439.761C647.838 440.281 646.998 440.781 646.148 441.261C646.058 441.311 645.968 441.361 645.878 441.411C645.498 441.621 645.118 441.821 644.738 442.021C644.688 442.051 644.628 442.071 644.578 442.101L644.518 442.131C644.038 442.381 643.548 442.621 643.058 442.851C641.167 443.762 639.22 444.55 637.228 445.211C636.968 445.301 636.708 445.391 636.448 445.471C632.866 446.611 629.171 447.362 625.428 447.711C623.788 447.861 622.128 447.941 620.458 447.941C615.869 447.951 611.299 447.352 606.868 446.161C604.594 445.567 602.365 444.812 600.198 443.901C599.968 443.811 599.738 443.711 599.518 443.621C599.398 443.571 599.288 443.521 599.168 443.461C598.228 443.051 597.298 442.601 596.388 442.131L595.948 441.901C594.838 441.321 593.748 440.701 592.688 440.041C592.298 439.801 591.908 439.551 591.528 439.291C590.328 438.501 589.158 437.651 588.018 436.761C587.248 436.181 586.508 435.561 585.788 434.921C585.408 434.601 585.038 434.251 584.678 433.921C583.26 432.612 581.918 431.223 580.658 429.761C580.238 429.281 579.828 428.801 579.438 428.301C579.349 428.202 579.266 428.099 579.188 427.991C572.691 419.792 568.782 409.844 567.962 399.415C567.142 388.986 569.446 378.549 574.581 369.435C579.717 360.321 587.45 352.943 596.796 348.242C606.141 343.542 616.675 341.731 627.054 343.041C637.433 344.351 647.186 348.723 655.07 355.598C662.954 362.474 668.612 371.543 671.321 381.647C674.031 391.751 673.669 402.433 670.283 412.331C666.896 422.229 660.639 430.894 652.308 437.221Z" fill="#3F3D56"/>
<path d="M669.93 372.603C671.312 372.102 672.568 371.304 673.608 370.265C674.648 369.227 675.448 367.972 675.951 366.591C676.454 365.21 676.649 363.735 676.52 362.27C676.391 360.806 675.943 359.387 675.207 358.115L698.566 331.072L680.152 328.675L660.793 354.723C658.737 356.101 657.258 358.186 656.637 360.581C656.015 362.977 656.294 365.518 657.42 367.722C658.546 369.926 660.442 371.64 662.748 372.539C665.053 373.439 667.609 373.462 669.93 372.603Z" fill="#FFB8B8"/>
<path d="M801.595 378.318C802.564 377.212 803.279 375.908 803.69 374.496C804.1 373.085 804.196 371.6 803.971 370.147C803.746 368.695 803.205 367.309 802.386 366.088C801.567 364.867 800.491 363.84 799.233 363.08L806.658 328.125L789.37 334.904L784.969 367.059C783.832 369.257 783.542 371.797 784.152 374.195C784.763 376.594 786.232 378.685 788.281 380.073C790.331 381.461 792.818 382.049 795.272 381.725C797.726 381.402 799.975 380.189 801.595 378.318Z" fill="#FFB8B8"/>
<path d="M717.932 560.49L705.672 560.489L699.84 513.201L717.934 513.202L717.932 560.49Z" fill="#FFB8B8"/>
<path d="M721.058 572.374L681.527 572.373V571.873C681.527 569.852 681.925 567.851 682.698 565.984C683.472 564.118 684.605 562.421 686.034 560.993C687.463 559.564 689.159 558.431 691.026 557.657C692.892 556.884 694.893 556.486 696.914 556.486L721.059 556.487L721.058 572.374Z" fill="#2F2E41"/>
<path d="M777.932 560.49L765.672 560.489L759.84 513.201L777.934 513.202L777.932 560.49Z" fill="#FFB8B8"/>
<path d="M781.058 572.374L741.527 572.373V571.873C741.527 569.852 741.925 567.851 742.698 565.984C743.472 564.118 744.605 562.421 746.034 560.993C747.463 559.564 749.159 558.431 751.026 557.657C752.892 556.884 754.893 556.486 756.914 556.486L781.059 556.487L781.058 572.374Z" fill="#2F2E41"/>
<path d="M719.208 535.798L701.853 535.103C700.669 535.052 699.553 534.538 698.745 533.671C697.937 532.804 697.502 531.654 697.535 530.47L702.424 370.091L702.744 369.975C733.16 358.972 758.322 359.804 779.67 372.515L779.908 372.658L782.837 528.86C782.849 529.458 782.741 530.052 782.52 530.608C782.299 531.164 781.969 531.67 781.55 532.097C781.131 532.524 780.631 532.863 780.08 533.095C779.528 533.326 778.936 533.445 778.338 533.445H763.704C762.662 533.443 761.652 533.08 760.847 532.418C760.042 531.756 759.491 530.836 759.288 529.813L739.353 428.404C739.284 428.054 739.093 427.739 738.813 427.517C738.533 427.296 738.183 427.181 737.826 427.194C737.469 427.207 737.129 427.347 736.866 427.589C736.603 427.831 736.435 428.159 736.393 428.513L723.854 531.843C723.717 532.933 723.187 533.935 722.365 534.663C721.543 535.391 720.484 535.796 719.385 535.801C719.326 535.801 719.267 535.8 719.208 535.798Z" fill="#2F2E41"/>
<path d="M736.092 229.443C749.657 229.443 760.653 218.447 760.653 204.882C760.653 191.318 749.657 180.321 736.092 180.321C722.528 180.321 711.531 191.318 711.531 204.882C711.531 218.447 722.528 229.443 736.092 229.443Z" fill="#FFB8B8"/>
<path d="M678.232 353.081C677.38 352.745 676.651 352.157 676.142 351.396L671.396 344.294C670.884 343.524 670.621 342.615 670.642 341.691C670.663 340.766 670.968 339.87 671.515 339.125L690.647 313.157L702.633 255.646C703.322 253.87 704.355 252.248 705.672 250.872C706.989 249.496 708.564 248.392 710.307 247.625C712.051 246.858 713.928 246.442 715.833 246.401C717.737 246.36 719.631 246.694 721.406 247.385C723.181 248.077 724.802 249.111 726.177 250.429C727.552 251.747 728.654 253.323 729.42 255.067C730.185 256.811 730.6 258.689 730.639 260.594C730.679 262.498 730.342 264.391 729.65 266.166L723.985 302.767C722.267 313.876 716.573 323.983 707.961 331.208L682.776 352.343C682.291 352.749 681.727 353.048 681.119 353.222C680.511 353.395 679.874 353.439 679.248 353.35C678.9 353.301 678.559 353.211 678.232 353.081Z" fill="#3F3D56"/>
<path d="M800.546 355.687C799.685 355.998 798.749 356.038 797.863 355.803L789.609 353.608C788.716 353.368 787.918 352.86 787.323 352.152C786.728 351.444 786.365 350.57 786.283 349.649L783.486 317.516L754.484 266.427C753.828 264.639 753.531 262.738 753.61 260.835C753.689 258.931 754.142 257.062 754.944 255.334C755.746 253.606 756.88 252.052 758.283 250.763C759.685 249.474 761.328 248.473 763.117 247.819C764.906 247.165 766.807 246.87 768.71 246.951C770.614 247.032 772.483 247.488 774.21 248.291C775.937 249.095 777.489 250.231 778.777 251.635C780.065 253.039 781.063 254.683 781.715 256.473L801.646 287.69C807.697 297.164 810.101 308.513 808.41 319.626L803.469 352.13C803.374 352.755 803.148 353.353 802.806 353.885C802.465 354.417 802.015 354.871 801.487 355.218C801.193 355.411 800.877 355.568 800.546 355.687Z" fill="#3F3D56"/>
<path d="M709.228 248.499C713.447 243.873 718.65 240.253 724.455 237.906C730.259 235.559 736.516 234.546 742.765 234.94C743.176 234.965 743.585 234.994 743.992 235.026C749.914 235.494 755.669 237.221 760.87 240.092C766.071 242.963 770.599 246.911 774.152 251.672C777.764 256.5 780.304 262.044 781.602 267.932C782.899 273.82 782.925 279.918 781.677 285.817C776.915 308.361 778.12 331.757 785.174 353.693L791.763 374.152C791.974 374.807 792.032 375.503 791.932 376.184C791.832 376.866 791.577 377.515 791.186 378.082C790.796 378.65 790.28 379.12 789.679 379.456C789.078 379.793 788.408 379.987 787.721 380.024L754.035 381.835L745.415 366.945V382.298L704.474 384.499C704.393 384.504 704.312 384.506 704.231 384.506C703.61 384.506 702.996 384.377 702.427 384.128C701.858 383.878 701.346 383.514 700.925 383.057C700.504 382.601 700.182 382.062 699.979 381.474C699.776 380.887 699.698 380.264 699.747 379.645L704.375 322.263L698.571 283.29C697.631 277.063 698.101 270.705 699.945 264.684C701.79 258.662 704.962 253.132 709.228 248.499Z" fill="#3F3D56"/>
<path d="M753.162 228.329C750.888 229.638 741.899 230.505 741.259 227.961L741.245 227.905C740.8 226.041 741.17 224.094 741.298 222.182C741.426 220.27 741.239 218.169 739.936 216.763C737.508 214.141 733.188 215.531 729.678 214.868C727.621 214.409 725.802 213.216 724.562 211.513C723.321 209.81 722.744 207.713 722.938 205.615C722.988 205.218 723.066 204.82 723.154 204.422C723.373 203.414 723.356 202.37 723.104 201.37C722.852 200.37 722.372 199.442 721.7 198.659C721.029 197.876 720.186 197.259 719.236 196.857C718.286 196.454 717.257 196.278 716.227 196.341C712.679 196.544 708.849 197.619 705.914 194.991C703.643 192.958 703.09 187.668 704.087 184.789C705.763 179.951 716.501 177.418 721.189 176.026C726.987 174.35 733.086 173.988 739.042 174.965C744.997 175.943 750.66 178.235 755.619 181.675C758.58 183.762 761.346 186.385 762.608 189.781C763.87 193.177 763.261 197.461 760.415 199.703C762.621 202.039 764.175 204.913 764.92 208.038C765.665 211.163 765.576 214.43 764.661 217.509C763.256 222.039 756.547 226.381 753.162 228.329Z" fill="#2F2E41"/>
<path d="M825.682 573.951H612.682C612.416 573.951 612.162 573.846 611.975 573.658C611.787 573.471 611.682 573.216 611.682 572.951C611.682 572.686 611.787 572.432 611.975 572.244C612.162 572.057 612.416 571.951 612.682 571.951H825.682C825.947 571.951 826.201 572.057 826.389 572.244C826.576 572.432 826.682 572.686 826.682 572.951C826.682 573.216 826.576 573.471 826.389 573.658C826.201 573.846 825.947 573.951 825.682 573.951Z" fill="#CCCCCC"/>
</g>
<defs>
<clipPath id="clip0_444_70">
<rect width="826.681" height="573.951" fill="white"/>
</clipPath>
</defs>
</svg>
