<svg width="829" height="771" viewBox="0 0 829 771" fill="none" xmlns="http://www.w3.org/2000/svg">
<g clip-path="url(#clip0_115_74)">
<path d="M254.161 297.216L37.2798 264.555L34.4613 264.132C33.0259 263.914 31.5318 263.984 30.1506 264.332C28.7694 264.681 27.5572 265.295 26.6536 266.103C25.7499 266.912 25.1914 267.882 25.0423 268.902C24.8932 269.922 25.1595 270.951 25.8107 271.87L111.921 393.948C112.479 394.733 113.298 395.412 114.31 395.929C115.322 396.447 116.497 396.786 117.736 396.92C118.979 397.056 120.251 396.977 121.441 396.692C122.631 396.407 123.704 395.925 124.567 395.285L184.378 351.259C184.803 350.938 185.319 350.682 185.893 350.507C186.468 350.332 187.088 350.242 187.714 350.242C188.566 350.234 189.405 350.387 190.141 350.686C190.877 350.985 191.483 351.418 191.894 351.939L204.145 367.758C204.927 368.812 206.192 369.654 207.739 370.149C209.285 370.644 211.025 370.763 212.68 370.488L212.741 370.479C214.416 370.231 215.923 369.597 217.02 368.679C218.117 367.761 218.74 366.613 218.789 365.418L221.243 328.902C221.272 328.446 221.435 327.999 221.722 327.59C222.029 327.184 222.447 326.824 222.951 326.53L257.457 306.756C258.591 306.106 259.44 305.246 259.906 304.275C260.372 303.304 260.437 302.261 260.093 301.265C259.749 300.269 259.011 299.361 257.961 298.645C256.912 297.929 255.595 297.434 254.161 297.216H254.161ZM255.486 305.075L220.981 324.849C220.531 325.102 220.124 325.389 219.766 325.705L36.8879 267.805C36.7266 267.753 36.5583 267.712 36.3855 267.682C35.6801 267.555 34.9333 267.605 34.2744 267.821C33.6154 268.038 33.0857 268.409 32.7768 268.869C32.4679 269.33 32.3992 269.851 32.5827 270.343C32.7662 270.835 33.1903 271.267 33.7817 271.564L184.149 348.674C183.386 348.951 182.697 349.317 182.112 349.758L122.302 393.784C121.783 394.165 121.14 394.453 120.428 394.624C119.715 394.794 118.954 394.842 118.209 394.763C117.464 394.685 116.757 394.482 116.149 394.171C115.541 393.861 115.048 393.453 114.714 392.982L28.6036 270.903C28.2187 270.352 28.0634 269.736 28.1554 269.125C28.2475 268.515 28.5832 267.935 29.1243 267.452C29.6655 266.968 30.3903 266.601 31.2161 266.391C32.042 266.181 32.9357 266.137 33.7955 266.264L36.681 266.7L253.495 299.349C254.356 299.479 255.147 299.776 255.777 300.205C256.408 300.634 256.852 301.179 257.06 301.776C257.268 302.374 257.231 303 256.952 303.584C256.674 304.167 256.166 304.684 255.486 305.075V305.075Z" fill="#536DFE"/>
<path d="M300.393 732.71C280.938 729.041 257.263 713.785 262.331 692.815C264.845 682.415 274.494 675.683 284.498 671.33C298.336 665.309 314.096 663.04 329.283 662.466C346.801 661.805 364.299 663.472 381.686 665.235C398.851 666.976 416.017 668.534 433.258 669.486C500.724 673.18 568.602 669.662 634.546 659.052C650.822 656.43 667 653.354 683.08 649.824C698.319 646.693 713.217 642.805 727.661 638.192C746.78 631.784 777.871 619.315 775.335 596.223C773.991 583.979 763.662 574.2 753.244 567.387C740.647 559.149 726.07 553.729 711.794 548.465C645.387 523.983 578.85 499.791 512.378 475.456C496.864 469.777 481.248 464.249 466.191 457.594C452.095 451.362 438.065 444.124 426.721 434.116C416.813 425.374 407.959 413.639 408.271 400.52C408.53 389.641 415.622 380.409 424.308 373.509C445.812 356.427 476.231 349.501 503.725 345.873C537.882 341.365 572.534 341.389 606.713 337.036C634.311 333.522 663.799 326.738 686.244 310.84C695.739 304.373 702.455 296.182 705.633 287.192C708.499 277.776 707.105 267.971 701.646 259.131C695.566 248.993 685.867 240.917 675.669 234.303C663.955 226.813 650.669 220.616 636.271 215.928C605.957 205.844 574.081 200.593 543.029 192.854C527.801 189.059 512.419 184.897 498.278 178.378C486.299 172.855 473.248 165.411 466.583 154.34C452.832 131.498 485.639 117.885 504.228 112.729C516.863 109.383 529.877 106.782 543.134 104.953C545.937 104.533 544.748 100.627 541.958 101.045C528.003 102.944 514.327 105.732 501.102 109.373C489.892 112.625 478.325 116.898 469.52 124.251C465.511 127.571 462.547 131.442 460.82 135.613C459.094 139.785 458.643 144.163 459.497 148.464C461.829 159.424 471.967 167.868 481.489 173.985C494.08 182.074 508.436 187.356 522.992 191.662C538.321 196.197 553.976 199.731 569.626 203.198C600.898 210.125 633.572 216.299 661.802 231.04C681.55 241.351 708.377 260.685 701.808 284.65C698.892 295.288 690.037 303.605 680.481 309.723C669.26 316.695 656.319 322.188 642.288 325.935C579.731 343.51 510.882 330.942 449.937 354.813C429.215 362.929 404.046 377.707 403.843 400.958C403.738 413.036 410.673 424.114 419.247 432.87C429.516 443.357 442.815 451.112 456.345 457.593C470.591 464.168 485.384 470.147 500.645 475.499C517.316 481.612 533.991 487.717 550.669 493.813L651.884 530.867L702.173 549.278C717.521 554.897 733.264 560.287 747.219 568.535C758.645 575.289 772.145 586.369 770.979 600.127C770.054 611.053 759.656 618.938 750.155 624.209C737.853 631.036 724.033 635.451 710.282 639.12C694.422 643.352 678.301 646.862 662.149 650.018C629.062 656.474 595.295 661.088 561.164 663.817C527.117 666.554 492.818 667.446 458.574 666.487C441.272 666.001 423.997 665.034 406.749 663.588C388.969 662.093 371.266 659.79 353.441 658.768C337.317 657.844 321.039 658.058 305.16 661.029C291.902 663.509 277.896 667.93 267.832 676.557C260.414 683.143 256.699 691.394 257.387 699.758C258.068 708.105 262.331 716.115 269.621 722.748C277.026 729.523 287.431 734.399 299.217 736.618C301.996 737.142 303.185 733.236 300.393 732.71L300.393 732.71Z" fill="#E6E6E6"/>
<path d="M802 734.56H296.531V737H802V734.56Z" fill="#3F3D56"/>
<path d="M761.501 619.612C779.738 619.612 794.522 609.291 794.522 596.56C794.522 583.828 779.738 573.508 761.501 573.508C743.264 573.508 728.48 583.828 728.48 596.56C728.48 609.291 743.264 619.612 761.501 619.612Z" fill="#E6E6E6"/>
<path d="M701.259 294.704C719.496 294.704 734.28 284.384 734.28 271.652C734.28 258.921 719.496 248.6 701.259 248.6C683.022 248.6 668.238 258.921 668.238 271.652C668.238 284.384 683.022 294.704 701.259 294.704Z" fill="#E6E6E6"/>
<path d="M626.602 33.9643L534.914 61.7901C530.865 63.0228 527.681 65.3266 526.062 68.196C524.442 71.0654 524.519 74.266 526.276 77.0957L554.747 122.816C556.512 125.643 559.812 127.865 563.923 128.996C568.033 130.126 572.618 130.072 576.671 128.846L668.359 101.02C672.409 99.7876 675.592 97.4838 677.212 94.6144C678.831 91.745 678.754 88.5444 676.997 85.7146L648.527 39.9947C646.761 37.1677 643.461 34.9451 639.351 33.8146C635.24 32.6841 630.656 32.7379 626.602 33.9643V33.9643ZM630.398 40.0603C630.947 39.8957 631.523 39.7799 632.112 39.7158L601.114 80.5448L537.446 68.3816C537.842 68.1869 538.266 68.0209 538.71 67.8861L630.398 40.0603ZM664.563 94.9243L572.875 122.75C571.138 123.276 569.173 123.299 567.411 122.814C565.65 122.33 564.236 121.377 563.479 120.166L535.264 74.8562L602.278 87.6589C603.322 87.8582 604.431 87.8034 605.424 87.5037C606.417 87.2039 607.235 86.6769 607.741 86.0096L640.187 43.2744L668.265 88.3647C669.018 89.5774 669.051 90.9491 668.357 92.1789C667.663 93.4086 666.299 94.396 664.563 94.9243V94.9243Z" fill="#E6E6E6"/>
<path d="M523.762 430.547C569.87 430.547 607.248 404.453 607.248 372.265C607.248 340.076 569.87 313.982 523.762 313.982C477.653 313.982 440.275 340.076 440.275 372.265C440.275 404.453 477.653 430.547 523.762 430.547Z" fill="#536DFE"/>
<path d="M510.607 735.277H487.583C484.895 735.275 482.317 734.529 480.417 733.202C478.516 731.875 477.446 730.076 477.443 728.199V594.237C477.446 592.36 478.516 590.561 480.417 589.234C482.317 587.907 484.895 587.161 487.583 587.159H510.607C513.295 587.161 515.873 587.907 517.773 589.234C519.674 590.561 520.744 592.36 520.747 594.237V728.199C520.744 730.076 519.674 731.875 517.773 733.202C515.873 734.529 513.295 735.275 510.607 735.277Z" fill="#2F2E41"/>
<path d="M556.145 735.277H533.121C530.433 735.275 527.856 734.529 525.955 733.202C524.054 731.875 522.985 730.076 522.981 728.199V594.237C522.985 592.36 524.054 590.561 525.955 589.234C527.856 587.907 530.433 587.161 533.121 587.159H556.145C558.833 587.161 561.411 587.907 563.312 589.234C565.212 590.561 566.282 592.36 566.285 594.237V728.199C566.282 730.076 565.212 731.875 563.312 733.202C561.411 734.529 558.833 735.275 556.145 735.277Z" fill="#2F2E41"/>
<path d="M651.556 580.229C650.544 580.228 649.539 580.122 648.572 579.915C647.297 579.645 646.112 579.201 645.085 578.609C644.058 578.016 643.209 577.288 642.588 576.465L552.634 458.133C552.01 457.312 551.624 456.413 551.497 455.488C551.371 454.563 551.506 453.629 551.897 452.741C552.287 451.852 552.924 451.026 553.772 450.309C554.62 449.592 555.661 448.999 556.837 448.563L577.174 441.028C578.351 440.592 579.638 440.322 580.964 440.234C582.289 440.145 583.627 440.24 584.9 440.513C586.173 440.785 587.357 441.23 588.384 441.822C589.411 442.414 590.261 443.141 590.885 443.963L680.837 562.295C681.461 563.116 681.848 564.014 681.975 564.94C682.101 565.865 681.966 566.799 681.575 567.688C681.185 568.576 680.548 569.403 679.7 570.119C678.852 570.836 677.81 571.429 676.634 571.865L656.297 579.399C654.838 579.943 653.21 580.228 651.556 580.229V580.229Z" fill="#536DFE"/>
<path d="M464.297 471.158C463.08 471.158 461.874 471.004 460.735 470.704H460.734L281.221 423.361C279.975 423.032 278.835 422.536 277.865 421.899C276.895 421.263 276.114 420.499 275.567 419.652C275.02 418.805 274.718 417.89 274.678 416.961C274.637 416.033 274.859 415.107 275.331 414.238L283.452 399.202C284.411 397.448 286.325 396.031 288.777 395.26C291.228 394.489 294.018 394.427 296.534 395.088L476.044 442.42C478.554 443.088 480.585 444.421 481.692 446.13C482.798 447.839 482.891 449.784 481.95 451.541L473.814 466.579C473.079 467.926 471.775 469.085 470.076 469.902C468.376 470.72 466.361 471.158 464.297 471.158V471.158Z" fill="#536DFE"/>
<path d="M575.12 440.672H470.507C465.338 440.672 461.147 443.598 461.147 447.206V602.362C461.147 605.971 465.338 608.896 470.507 608.896H575.12C580.289 608.896 584.479 605.971 584.479 602.362V447.206C584.479 443.598 580.289 440.672 575.12 440.672Z" fill="#2F2E41"/>
<path d="M585.428 315.189C590.333 322.704 595.029 331.786 589.749 339.825C587.811 343.072 584.177 345.684 579.584 347.13C574.142 348.645 568.21 347.78 563.168 345.948C552.551 342.091 545.707 334.924 536.228 330.013C531.912 327.667 526.808 326.132 521.402 325.553C515.173 324.986 508.989 326.012 502.897 326.804C496.417 327.646 489.72 328.09 483.723 325.796C478.447 323.643 474.318 320.35 471.96 316.414C470.725 314.501 466.691 316.16 467.919 318.063C473.019 325.966 483.565 331.351 496.236 330.728C502.94 330.399 509.416 328.887 516.132 328.671C522.259 328.529 528.267 329.87 533.14 332.467C543.548 337.646 550.612 345.6 562.552 349.362C568.186 351.137 574.637 351.876 580.577 350.348C585.7 348.956 589.968 346.362 592.646 343.01C600.482 333.591 595.45 322.703 589.469 313.54C588.221 311.63 584.187 313.288 585.428 315.189V315.189Z" fill="#2F2E41"/>
<path d="M532.991 391.725C527.835 391.624 521.415 391.498 516.472 388.977C515 388.195 513.79 387.198 512.928 386.056C512.065 384.914 511.571 383.654 511.48 382.364C511.39 381.447 511.606 380.529 512.109 379.68C512.612 378.831 513.39 378.075 514.382 377.471C516.962 375.947 520.733 375.59 524.8 376.424L520.588 354.943L523.68 354.647L528.63 379.9L526.049 379.075C523.059 378.116 518.949 377.628 516.396 379.134C515.769 379.528 515.281 380.017 514.969 380.564C514.657 381.111 514.53 381.7 514.598 382.287C514.674 383.247 515.045 384.184 515.685 385.035C516.326 385.886 517.222 386.63 518.312 387.218C522.16 389.18 527.276 389.434 533.08 389.547L532.991 391.725Z" fill="#2F2E41"/>
<path d="M505.303 356.795H488.5V358.973H505.303V356.795Z" fill="#2F2E41"/>
<path d="M558.341 356.795H541.538V358.973H558.341V356.795Z" fill="#2F2E41"/>
<path d="M461.009 470.195L387.234 454.49C384.933 454.001 382.991 452.911 381.81 451.448C380.629 449.985 380.3 448.261 380.892 446.633L389.505 422.943C389.845 422.007 390.478 421.135 391.358 420.391C392.239 419.646 393.344 419.047 394.596 418.636C395.848 418.226 397.214 418.014 398.597 418.016C399.98 418.018 401.346 418.234 402.595 418.649L475.768 442.93C478.087 443.544 479.963 444.775 480.985 446.353C482.007 447.931 482.091 449.727 481.22 451.348L473.083 466.388C472.203 468.009 470.438 469.321 468.174 470.035C465.91 470.748 463.333 470.806 461.009 470.195V470.195Z" fill="#2F2E41"/>
<path d="M553.96 456.793L585.6 505.898C586.587 507.429 588.38 508.637 590.608 509.27C592.836 509.903 595.328 509.912 597.566 509.297L630.141 500.338C631.427 499.985 632.586 499.436 633.533 498.732C634.48 498.028 635.191 497.187 635.616 496.268C636.042 495.35 636.17 494.376 635.992 493.419C635.814 492.461 635.335 491.543 634.588 490.731L590.837 443.126C589.671 441.598 587.685 440.455 585.313 439.946C582.942 439.438 580.379 439.606 578.186 440.415L557.844 447.951C555.651 448.765 554.01 450.153 553.282 451.811C552.554 453.469 552.798 455.261 553.96 456.793V456.793Z" fill="#2F2E41"/>
<path d="M254.161 297.216L37.2798 264.555L34.4613 264.132C33.0259 263.914 31.5318 263.984 30.1506 264.332C28.7694 264.681 27.5572 265.295 26.6536 266.103C25.7499 266.912 25.1914 267.882 25.0423 268.902C24.8932 269.922 25.1595 270.951 25.8107 271.87L111.921 393.948C112.479 394.733 113.298 395.412 114.31 395.929C115.322 396.447 116.497 396.786 117.736 396.92C118.979 397.056 120.251 396.977 121.441 396.692C122.631 396.407 123.704 395.925 124.567 395.285L184.378 351.259C184.803 350.938 185.319 350.682 185.893 350.507C186.468 350.332 187.088 350.242 187.714 350.242C188.566 350.234 189.405 350.387 190.141 350.686C190.877 350.985 191.483 351.418 191.894 351.939L204.145 367.758C204.927 368.812 206.192 369.654 207.739 370.149C209.285 370.644 211.025 370.763 212.68 370.488L212.741 370.479C214.416 370.231 215.923 369.597 217.02 368.679C218.117 367.761 218.74 366.613 218.789 365.418L221.243 328.902C221.272 328.446 221.435 327.999 221.722 327.59C222.029 327.184 222.447 326.824 222.951 326.53L257.457 306.756C258.591 306.106 259.44 305.246 259.906 304.275C260.372 303.304 260.437 302.261 260.093 301.265C259.749 300.269 259.011 299.361 257.961 298.645C256.912 297.929 255.595 297.434 254.161 297.216H254.161ZM255.486 305.075L220.981 324.849C220.531 325.102 220.124 325.389 219.766 325.705C219.444 325.987 219.166 326.292 218.936 326.615C218.695 326.945 218.506 327.292 218.37 327.65L218.373 327.661C218.23 328.034 218.148 328.417 218.128 328.803L215.674 365.319C215.654 366.037 215.284 366.728 214.625 367.28C213.967 367.832 213.059 368.211 212.051 368.354L212.021 368.359C211.027 368.531 209.98 368.464 209.048 368.169C208.117 367.874 207.355 367.367 206.887 366.732L194.633 350.902C194.002 350.088 193.083 349.4 191.963 348.903C190.844 348.406 189.562 348.118 188.238 348.064L188.223 348.066C188.045 348.061 187.867 348.055 187.693 348.059C186.458 348.06 185.241 348.27 184.149 348.674C183.386 348.951 182.697 349.317 182.112 349.758L122.302 393.784C121.783 394.165 121.14 394.453 120.428 394.624C119.715 394.794 118.954 394.842 118.209 394.763C117.464 394.685 116.757 394.482 116.149 394.171C115.541 393.861 115.049 393.453 114.714 392.982L28.6036 270.903C28.2187 270.352 28.0634 269.736 28.1554 269.125C28.2475 268.515 28.5832 267.935 29.1243 267.452C29.6655 266.968 30.3903 266.601 31.2161 266.391C32.042 266.181 32.9357 266.137 33.7955 266.264L36.681 266.7L253.495 299.349C254.356 299.479 255.147 299.776 255.777 300.205C256.408 300.634 256.852 301.179 257.06 301.776C257.268 302.374 257.231 303 256.952 303.584C256.674 304.167 256.166 304.684 255.486 305.075V305.075Z" fill="#3F3D56"/>
<path d="M220.459 325.922L219.17 327.906L218.374 327.661L218.371 327.65L35.6368 269.806L188.223 348.066L188.238 348.064L188.642 348.281L186.802 350.037L184.149 348.673L33.7821 271.564C33.1908 271.267 32.7667 270.835 32.5832 270.343C32.3997 269.851 32.4683 269.33 32.7772 268.869C33.0861 268.409 33.6159 268.038 34.2748 267.821C34.9338 267.604 35.6805 267.555 36.3859 267.682C36.5587 267.712 36.727 267.753 36.8883 267.805L219.767 325.705L220.459 325.922Z" fill="#3F3D56"/>
</g>
<defs>
<clipPath id="clip0_115_74">
<rect width="777" height="704" fill="white" transform="translate(25 33)"/>
</clipPath>
</defs>
</svg>
