<svg width="45" height="41" viewBox="0 0 45 41" fill="none" xmlns="http://www.w3.org/2000/svg">
<path d="M22.0781 12.9965L28.4737 19.65V19.3131C28.4737 17.6378 27.836 16.0312 26.7009 14.8466C25.5658 13.662 24.0263 12.9965 22.4211 12.9965H22.0781ZM13.4026 14.6809L16.5298 17.9445C16.429 18.3867 16.3684 18.8288 16.3684 19.3131C16.3684 20.9884 17.0061 22.595 18.1412 23.7796C19.2763 24.9642 20.8158 25.6297 22.4211 25.6297C22.8649 25.6297 23.3088 25.5666 23.7325 25.4613L26.8597 28.7249C25.5079 29.4197 24.0149 29.8408 22.4211 29.8408C19.7456 29.8408 17.1798 28.7316 15.288 26.7573C13.3962 24.783 12.3333 22.1052 12.3333 19.3131C12.3333 17.6497 12.7369 16.0916 13.4026 14.6809M2.24563 3.03731L6.84563 7.83794L7.75353 8.78543C4.42458 11.5226 1.80177 15.102 0.228088 19.3131C3.71844 28.5564 12.3333 35.1046 22.4211 35.1046C25.5483 35.1046 28.5342 34.473 31.2579 33.336L32.1255 34.2203L38.0167 40.3685L40.579 37.6944L4.80791 0.363281M22.4211 8.78543C25.0965 8.78543 27.6623 9.89459 29.5542 11.8689C31.446 13.8432 32.5088 16.521 32.5088 19.3131C32.5088 20.6607 32.2465 21.9661 31.7825 23.1452L37.6939 29.3144C40.7202 26.6825 43.1412 23.2294 44.614 19.3131C41.1237 10.0698 32.5088 3.52159 22.4211 3.52159C19.5965 3.52159 16.893 4.04797 14.3509 4.99546L18.729 9.52236C19.879 9.05915 21.1097 8.78543 22.4211 8.78543Z" fill="black"/>
</svg>
