<svg width="48" height="48" viewBox="0 0 48 48" fill="none" xmlns="http://www.w3.org/2000/svg">
<path d="M26.5191 6.00002C16.3391 5.72002 7.99908 13.9 7.99908 24H4.41908C3.51908 24 3.07908 25.08 3.71908 25.7L9.29908 31.3C9.69908 31.7 10.3191 31.7 10.7191 31.3L16.2991 25.7C16.4373 25.559 16.5307 25.3803 16.5675 25.1863C16.6042 24.9923 16.5828 24.7918 16.5058 24.61C16.4288 24.4282 16.2997 24.2733 16.1348 24.1647C15.9699 24.0562 15.7765 23.9989 15.5791 24H11.9991C11.9991 16.2 18.3591 9.90002 26.1991 10C33.6391 10.1 39.8991 16.36 39.9991 23.8C40.0991 31.62 33.7991 38 25.9991 38C22.7791 38 19.7991 36.9 17.4391 35.04C17.056 34.7383 16.5754 34.5878 16.0886 34.6173C15.6019 34.6468 15.1429 34.8542 14.7991 35.2C13.9591 36.04 14.0191 37.46 14.9591 38.18C18.1013 40.665 21.993 42.0115 25.9991 42C36.0991 42 44.2791 33.66 43.9991 23.48C43.7391 14.1 35.8991 6.26002 26.5191 6.00002ZM25.4991 16C24.6791 16 23.9991 16.68 23.9991 17.5V24.86C23.9991 25.56 24.3791 26.22 24.9791 26.58L31.2191 30.28C31.9391 30.7 32.8591 30.46 33.2791 29.76C33.6991 29.04 33.4591 28.12 32.7591 27.7L26.9991 24.28V17.48C26.9991 16.68 26.3191 16 25.4991 16Z" fill="black" fill-opacity="0.5"/>
</svg>
