<svg width="49" height="51" viewBox="0 0 49 51" fill="none" xmlns="http://www.w3.org/2000/svg">
<path d="M24.3016 38.9364C25.9068 38.9364 27.4464 38.4293 28.5814 37.5268C29.7165 36.6242 30.3542 35.4001 30.3542 34.1237C30.3542 32.8473 29.7165 31.6232 28.5814 30.7206C27.4464 29.8181 25.9068 29.311 24.3016 29.311C22.6963 29.311 21.1568 29.8181 20.0217 30.7206C18.8866 31.6232 18.249 32.8473 18.249 34.1237C18.249 35.4001 18.8866 36.6242 20.0217 37.5268C21.1568 38.4293 22.6963 38.9364 24.3016 38.9364ZM42.4595 17.2794C44.0647 17.2794 45.6043 17.7865 46.7393 18.689C47.8744 19.5916 48.5121 20.8157 48.5121 22.0921V46.1553C48.5121 47.4317 47.8744 48.6559 46.7393 49.5584C45.6043 50.4609 44.0647 50.968 42.4595 50.968H6.1437C4.53844 50.968 2.99893 50.4609 1.86384 49.5584C0.72875 48.6559 0.0910645 47.4317 0.0910645 46.1553V22.0921C0.0910645 20.8157 0.72875 19.5916 1.86384 18.689C2.99893 17.7865 4.53844 17.2794 6.1437 17.2794H9.17001V12.4668C9.17001 9.27577 10.7642 6.21547 13.6019 3.9591C16.4397 1.70273 20.2884 0.43512 24.3016 0.43512C26.2887 0.43512 28.2563 0.746327 30.0922 1.35097C31.928 1.95562 33.5961 2.84186 35.0012 3.9591C36.4063 5.07635 37.5209 6.4027 38.2813 7.86245C39.0418 9.32219 39.4332 10.8867 39.4332 12.4668V17.2794H42.4595ZM24.3016 5.24777C21.8937 5.24777 19.5844 6.00834 17.8818 7.36217C16.1792 8.71599 15.2226 10.5522 15.2226 12.4668V17.2794H33.3805V12.4668C33.3805 10.5522 32.424 8.71599 30.7214 7.36217C29.0187 6.00834 26.7095 5.24777 24.3016 5.24777Z" fill="#151414"/>
</svg>
