<svg width="577" height="494" viewBox="0 0 577 494" fill="none" xmlns="http://www.w3.org/2000/svg">
<g clip-path="url(#clip0_613_2)">
<path d="M169.422 488.35C178.677 480.53 184.298 468.177 182.824 456.151C181.35 444.125 172.219 433.069 160.375 430.515C148.531 427.962 135.03 435.031 131.432 446.601C129.452 424.295 127.171 401.054 115.312 382.058C104.574 364.858 85.9745 352.551 65.8175 350.349C45.6604 348.147 24.4376 356.463 11.8664 372.373C-0.70481 388.283 -3.78281 411.412 5.02174 429.678C11.5077 443.133 23.4573 453.147 35.9774 461.294C76.4343 487.398 124.957 498.013 172.618 491.187" fill="#F2F2F2"/>
<path d="M31.7995 356.924C48.4316 370.471 63.6897 385.623 77.3533 402.159C98.7367 427.95 116.04 456.866 128.662 487.9C129.586 490.164 125.909 491.15 124.996 488.911C116.969 469.29 107.04 450.502 95.3484 432.818C77.1173 405.192 54.7817 380.507 29.1112 359.613C27.2132 358.067 29.9172 355.391 31.7995 356.924Z" fill="white"/>
<path d="M175.815 488.35C166.561 480.53 160.939 468.177 162.413 456.151C163.888 444.125 173.018 433.069 184.862 430.515C196.706 427.962 210.208 435.031 213.805 446.601C215.785 424.295 218.066 401.054 229.925 382.058C240.664 364.858 259.263 352.551 279.42 350.349C299.577 348.147 320.8 356.463 333.371 372.373C345.942 388.283 349.02 411.412 340.215 429.678C333.729 443.133 321.78 453.147 309.26 461.294C268.803 487.398 220.28 498.013 172.619 491.187" fill="#F2F2F2"/>
<path d="M313.436 356.924C296.804 370.471 281.545 385.623 267.882 402.159C246.498 427.95 229.195 456.866 216.573 487.9C215.65 490.164 219.326 491.15 220.24 488.911C240.89 438.474 273.856 394.019 316.124 359.613C318.022 358.067 315.318 355.391 313.436 356.924Z" fill="white"/>
<path d="M203.277 222C220.398 222 234.277 208.121 234.277 191C234.277 173.879 220.398 160 203.277 160C186.157 160 172.277 173.879 172.277 191C172.277 208.121 186.157 222 203.277 222Z" fill="#F2F2F2"/>
<path d="M107.696 84.1377H321.277V95.823H134.961C124.007 95.823 113.159 97.9806 103.039 102.173C92.9178 106.365 83.7218 112.509 75.9756 120.256C68.2295 128.002 62.0849 137.198 57.8928 147.319C53.7006 157.439 51.5429 168.287 51.5429 179.241V312H28.1724C27.1394 312 26.1487 311.59 25.4182 310.859C24.6877 310.129 24.2774 309.138 24.2773 308.105V167.556C24.2773 156.601 26.435 145.754 30.6272 135.633C34.8194 125.512 40.9639 116.316 48.7101 108.57C56.4562 100.824 65.6522 94.6796 75.773 90.4875C85.8938 86.2953 96.7412 84.1377 107.696 84.1377Z" fill="#F2F2F2"/>
<path d="M148.777 489V311.5H200.777V489C200.776 490.193 200.301 491.337 199.458 492.18C198.614 493.024 197.47 493.499 196.277 493.5H153.277C152.084 493.499 150.94 493.024 150.097 492.18C149.253 491.337 148.779 490.193 148.777 489Z" fill="#3F3D56"/>
<path d="M13.2773 308V163.666C13.3033 140.688 22.4424 118.66 38.6897 102.412C54.9369 86.1652 76.9655 77.026 99.9426 77H320.277V313H18.2773C16.9517 312.998 15.6809 312.471 14.7435 311.534C13.8061 310.597 13.2789 309.326 13.2773 308ZM318.277 79H99.9426C77.4958 79.0254 55.9756 87.9537 40.1032 103.826C24.2309 119.698 15.3027 141.219 15.2773 163.666V308C15.2782 308.795 15.5946 309.558 16.157 310.12C16.7194 310.683 17.482 310.999 18.2773 311H318.277V79Z" fill="#3F3D56"/>
<path d="M203.277 207C198.505 206.995 193.93 205.096 190.555 201.722C187.181 198.347 185.283 193.772 185.277 189V60C185.276 59.2046 184.96 58.4421 184.398 57.8796C183.835 57.3172 183.073 57.0009 182.277 57H112.277C110.952 56.9985 109.681 56.4712 108.744 55.5338C107.806 54.5965 107.279 53.3256 107.277 52V5C107.279 3.67439 107.806 2.40351 108.744 1.46616C109.681 0.528807 110.952 0.00153504 112.277 0H216.277C217.603 0.00151655 218.874 0.528787 219.811 1.46614C220.749 2.40349 221.276 3.67438 221.277 5V189C221.272 193.772 219.374 198.347 215.999 201.722C212.625 205.096 208.05 206.995 203.277 207Z" fill="#536DFE"/>
<path d="M328.277 75C343.363 74.9684 357.843 80.9308 368.533 91.5757C379.223 102.22 385.246 116.676 385.277 131.761V296.071H497.277C501.777 296.062 506.095 297.84 509.283 301.015C512.471 304.19 514.268 308.501 514.277 313H271.277V131.761C271.309 116.676 277.332 102.22 288.022 91.5757C298.711 80.9308 313.192 74.9684 328.277 75Z" fill="#3F3D56"/>
<path d="M314.599 168.568L326.402 217.324L557.283 161.432L545.48 112.676C545.338 112.08 545.047 111.529 544.635 111.076C544.222 110.622 543.702 110.28 543.123 110.081C542.695 109.93 542.242 109.862 541.789 109.88L408.329 40.7782C407.547 40.3788 406.648 40.2722 405.794 40.4774C404.941 40.6826 404.188 41.1863 403.673 41.8974L339.353 131.591L315.105 165.414C315.061 165.473 315.031 165.541 315.015 165.613C315 165.686 315 165.76 315.016 165.832C314.523 166.654 314.373 167.636 314.599 168.568Z" fill="white"/>
<path d="M315.016 165.832C315.028 165.896 315.052 165.956 315.086 166.01C315.121 166.065 315.166 166.111 315.219 166.148C315.282 166.191 315.353 166.221 315.427 166.235C315.502 166.25 315.578 166.25 315.653 166.234C315.773 166.201 315.879 166.128 315.952 166.026L316.035 165.911L317.297 164.145L340.226 132.181L404.527 42.508C404.894 41.9998 405.431 41.64 406.04 41.4939C406.65 41.3478 407.292 41.4251 407.849 41.7117L540.274 110.278L541.463 110.895C541.511 110.915 541.56 110.933 541.61 110.947C541.7 110.931 541.791 110.922 541.882 110.921C542.006 110.879 542.11 110.792 542.171 110.676C542.204 110.615 542.224 110.549 542.23 110.48C542.236 110.411 542.229 110.342 542.209 110.276C542.189 110.211 542.156 110.149 542.112 110.096C542.068 110.043 542.014 109.999 541.953 109.967L541.789 109.88L408.329 40.7782C407.547 40.3788 406.648 40.2722 405.794 40.4774C404.941 40.6826 404.188 41.1863 403.673 41.8974L339.353 131.591L315.105 165.414C315.061 165.473 315.031 165.541 315.015 165.613C315 165.686 315 165.76 315.016 165.832Z" fill="#3F3D56"/>
<path d="M384.355 170.804L389.494 171.374L427.637 175.599L452.923 178.399L454.416 178.565L485.968 153.92L487.177 152.976L494.63 147.156L521.143 126.449L521.302 124.995L530.733 39.8809C530.861 38.7089 530.52 37.5337 529.783 36.613C529.047 35.6924 527.975 35.1013 526.804 34.9694L400.948 21.0276C399.776 20.8996 398.601 21.2413 397.68 21.9777C396.76 22.7142 396.169 23.7854 396.036 24.9568L389.386 84.9944L385.697 118.28L382.397 148.059L380.867 161.888L380.421 165.894C380.293 167.066 380.636 168.241 381.373 169.162C382.111 170.082 383.183 170.672 384.355 170.804Z" fill="#E6E6E6"/>
<path d="M418.943 96.1978L473.46 102.236L492.793 104.377C493.647 104.471 494.51 104.397 495.335 104.157C496.16 103.918 496.93 103.518 497.6 102.982C498.27 102.445 498.829 101.782 499.243 101.029C499.657 100.277 499.918 99.4501 500.013 98.5965C500.107 97.7429 500.033 96.8791 499.794 96.0543C499.554 95.2295 499.155 94.4599 498.618 93.7895C498.081 93.119 497.418 92.5609 496.665 92.1469C495.913 91.7329 495.086 91.4712 494.233 91.3766L470.186 88.7134L420.387 83.1915C418.662 83.001 416.933 83.5031 415.579 84.5872C414.225 85.6714 413.356 87.249 413.165 88.9732C412.974 90.6973 413.475 92.4269 414.558 93.7817C415.642 95.1364 417.219 96.0055 418.943 96.1978Z" fill="white"/>
<path d="M415.84 120.314C415.981 120.339 416.121 120.364 416.264 120.378L479.55 127.389L490.116 128.562C491.84 128.752 493.57 128.25 494.925 127.166C496.279 126.081 497.147 124.503 497.338 122.778C497.528 121.054 497.026 119.324 495.942 117.97C494.857 116.615 493.279 115.747 491.554 115.557L476.276 113.866L426.146 108.312L417.709 107.377C416.022 107.188 414.328 107.664 412.985 108.702C411.642 109.74 410.755 111.26 410.513 112.94C410.27 114.62 410.69 116.329 411.684 117.705C412.678 119.081 414.169 120.017 415.84 120.314Z" fill="white"/>
<path d="M408.675 141.698C409.194 142.559 409.904 143.288 410.75 143.831C411.596 144.373 412.557 144.712 413.555 144.823L439.494 147.696L485.691 152.814L485.701 152.811L487.179 152.976L494.631 147.156C494.677 146.714 494.677 146.268 494.632 145.826C494.475 144.341 493.816 142.955 492.763 141.896C491.711 140.837 490.329 140.168 488.845 140.002L482.428 139.289L456.971 136.472L438.654 134.44L414.994 131.818C413.781 131.684 412.555 131.891 411.455 132.417C410.354 132.943 409.422 133.767 408.765 134.795C408.108 135.822 407.751 137.013 407.735 138.233C407.719 139.453 408.045 140.653 408.675 141.698Z" fill="white"/>
<path d="M445.107 66.7196L458.672 68.2219L464.663 68.8872L473.713 69.8888C475.438 70.0796 477.167 69.5775 478.522 68.4929C479.876 67.4083 480.744 65.8302 480.935 64.1056C481.125 62.381 480.623 60.6513 479.539 59.297C478.454 57.9426 476.876 57.0746 475.152 56.8838L446.552 53.7184C444.828 53.5268 443.099 54.0279 441.744 55.1115C440.389 56.1951 439.521 57.7724 439.329 59.4964C439.137 61.2205 439.639 62.9501 440.722 64.3047C441.806 65.6593 443.383 66.5279 445.107 66.7196Z" fill="white"/>
<path d="M334.195 102.932L350.732 171.246L378.333 176.494L403.865 181.355L431.259 186.567L440.012 188.233C440.524 188.33 441.051 188.316 441.558 188.194C442.065 188.071 442.54 187.842 442.951 187.521L449.973 182.037L454.419 178.565L485.972 153.92L465.91 71.0463C465.711 70.2218 465.279 69.4721 464.665 68.8872C464.127 68.3697 463.467 67.9961 462.746 67.8009C462.025 67.6056 461.266 67.595 460.54 67.77L337.471 97.5627C336.325 97.8409 335.336 98.5626 334.722 99.5693C334.107 100.576 333.918 101.785 334.195 102.932Z" fill="#536DFE"/>
<path d="M372.112 157.278C372.522 158.963 373.583 160.417 375.063 161.32C376.544 162.223 378.322 162.502 380.008 162.096L452.222 144.614C453.907 144.204 455.36 143.142 456.263 141.662C457.167 140.182 457.446 138.404 457.04 136.718C457.022 136.635 456.998 136.553 456.97 136.472C456.509 134.846 455.436 133.463 453.978 132.611C452.519 131.758 450.787 131.504 449.145 131.9L376.93 149.382C375.245 149.792 373.791 150.853 372.888 152.333C371.985 153.814 371.706 155.592 372.112 157.278Z" fill="white"/>
<path d="M378.332 176.494L403.864 181.355L457.949 168.262C459.635 167.854 461.089 166.793 461.993 165.312C462.896 163.831 463.175 162.052 462.767 160.366C462.358 158.68 461.297 157.225 459.817 156.322C458.336 155.418 456.557 155.14 454.871 155.548L382.656 173.03C381.147 173.392 379.818 174.283 378.909 175.541C378.69 175.842 378.497 176.161 378.332 176.494Z" fill="white"/>
<path d="M431.258 186.567L440.011 188.233C440.523 188.33 441.05 188.316 441.557 188.194C442.064 188.071 442.539 187.842 442.95 187.521L449.972 182.037L431.258 186.567Z" fill="white"/>
<path d="M386.664 120.647C387.073 122.332 388.135 123.786 389.615 124.689C391.096 125.592 392.874 125.871 394.56 125.465L422.53 118.694C424.215 118.283 425.668 117.222 426.571 115.742C427.474 114.261 427.754 112.484 427.348 110.798C427.13 109.892 426.719 109.044 426.143 108.312C425.369 107.322 424.327 106.576 423.141 106.162C421.954 105.749 420.674 105.685 419.452 105.98L391.482 112.751C389.796 113.159 388.342 114.22 387.438 115.701C386.535 117.182 386.256 118.961 386.664 120.647Z" fill="white"/>
<path d="M403.862 181.354L431.26 186.568L440.011 188.234C440.523 188.33 441.049 188.316 441.556 188.193C442.062 188.071 442.537 187.842 442.949 187.523L449.976 182.037L447.51 182.634L442.304 186.695C442.01 186.923 441.671 187.087 441.309 187.174C440.947 187.262 440.571 187.272 440.205 187.203L433.726 185.971L406.328 180.757L403.862 181.354ZM485.7 152.815L485.967 153.917L487.182 152.972L485.7 152.815ZM403.862 181.354L431.26 186.568L440.011 188.234C440.523 188.33 441.049 188.316 441.556 188.193C442.062 188.071 442.537 187.842 442.949 187.523L449.976 182.037L447.51 182.634L442.304 186.695C442.01 186.923 441.671 187.087 441.309 187.174C440.947 187.262 440.571 187.272 440.205 187.203L433.726 185.971L406.328 180.757L403.862 181.354ZM403.862 181.354L431.26 186.568L440.011 188.234C440.523 188.33 441.049 188.316 441.556 188.193C442.062 188.071 442.537 187.842 442.949 187.523L449.976 182.037L447.51 182.634L442.304 186.695C442.01 186.923 441.671 187.087 441.309 187.174C440.947 187.262 440.571 187.272 440.205 187.203L433.726 185.971L406.328 180.757L403.862 181.354ZM314.599 168.567L345.515 296.278C345.744 297.221 346.339 298.036 347.168 298.541C347.997 299.047 348.993 299.204 349.937 298.976L573.698 244.808C574.642 244.579 575.456 243.984 575.962 243.155C576.468 242.326 576.624 241.33 576.396 240.386L545.48 112.676C545.338 112.08 545.047 111.529 544.635 111.076C544.222 110.622 543.702 110.28 543.123 110.081C542.695 109.93 542.242 109.862 541.789 109.88C541.26 109.895 540.742 110.032 540.274 110.278C540.058 110.381 539.855 110.507 539.667 110.655L521.303 124.995L494.633 145.829L485.698 152.808L485.7 152.815L485.692 152.817L452.926 178.395L447.51 182.634L442.304 186.695C442.01 186.923 441.671 187.087 441.309 187.174C440.947 187.262 440.571 187.272 440.205 187.203L433.726 185.971L406.328 180.757L378.906 175.542L318.845 164.112C318.333 164.01 317.805 164.022 317.297 164.145C316.614 164.312 315.994 164.672 315.509 165.181C315.324 165.381 315.159 165.599 315.016 165.832C314.523 166.654 314.373 167.636 314.599 168.567ZM403.862 181.354L431.26 186.568L440.011 188.234C440.523 188.33 441.049 188.316 441.556 188.193C442.062 188.071 442.537 187.842 442.949 187.523L449.976 182.037L447.51 182.634L442.304 186.695C442.01 186.923 441.671 187.087 441.309 187.174C440.947 187.262 440.571 187.272 440.205 187.203L433.726 185.971L406.328 180.757L403.862 181.354ZM403.862 181.354L431.26 186.568L440.011 188.234C440.523 188.33 441.049 188.316 441.556 188.193C442.062 188.071 442.537 187.842 442.949 187.523L449.976 182.037L447.51 182.634L442.304 186.695C442.01 186.923 441.671 187.087 441.309 187.174C440.947 187.262 440.571 187.272 440.205 187.203L433.726 185.971L406.328 180.757L403.862 181.354ZM403.862 181.354L431.26 186.568L440.011 188.234C440.523 188.33 441.049 188.316 441.556 188.193C442.062 188.071 442.537 187.842 442.949 187.523L449.976 182.037L447.51 182.634L442.304 186.695C442.01 186.923 441.671 187.087 441.309 187.174C440.947 187.262 440.571 187.272 440.205 187.203L433.726 185.971L406.328 180.757L403.862 181.354Z" fill="white"/>
<path d="M403.862 181.354L431.26 186.568L440.011 188.234C440.523 188.33 441.049 188.316 441.556 188.193C442.062 188.071 442.537 187.842 442.949 187.523L449.976 182.037L447.51 182.634L442.304 186.695C442.01 186.923 441.671 187.087 441.309 187.174C440.947 187.262 440.571 187.272 440.205 187.203L433.726 185.971L406.328 180.757L403.862 181.354ZM485.7 152.815L485.967 153.917L487.182 152.972L485.7 152.815ZM403.862 181.354L431.26 186.568L440.011 188.234C440.523 188.33 441.049 188.316 441.556 188.193C442.062 188.071 442.537 187.842 442.949 187.523L449.976 182.037L447.51 182.634L442.304 186.695C442.01 186.923 441.671 187.087 441.309 187.174C440.947 187.262 440.571 187.272 440.205 187.203L433.726 185.971L406.328 180.757L403.862 181.354ZM403.862 181.354L431.26 186.568L440.011 188.234C440.523 188.33 441.049 188.316 441.556 188.193C442.062 188.071 442.537 187.842 442.949 187.523L449.976 182.037L447.51 182.634L442.304 186.695C442.01 186.923 441.671 187.087 441.309 187.174C440.947 187.262 440.571 187.272 440.205 187.203L433.726 185.971L406.328 180.757L403.862 181.354ZM316.035 165.911L316.171 166.013C316.193 165.976 316.233 165.942 316.263 165.903C316.566 165.588 316.943 165.353 317.359 165.219C317.775 165.085 318.218 165.056 318.648 165.136L378.334 176.49L403.862 181.354L431.26 186.568L440.011 188.234C440.523 188.33 441.049 188.316 441.556 188.193C442.062 188.071 442.537 187.842 442.949 187.523L449.976 182.037L447.51 182.634L442.304 186.695C442.01 186.923 441.671 187.087 441.309 187.174C440.947 187.262 440.571 187.272 440.205 187.203L433.726 185.971L406.328 180.757L378.906 175.542L318.845 164.112C318.333 164.01 317.805 164.022 317.297 164.145L316.035 165.911ZM314.599 168.567L345.515 296.278C345.744 297.221 346.339 298.036 347.168 298.541C347.997 299.047 348.993 299.204 349.937 298.976L573.698 244.808C574.642 244.579 575.456 243.984 575.962 243.155C576.468 242.326 576.624 241.33 576.396 240.386L545.48 112.676C545.338 112.08 545.047 111.529 544.635 111.076C544.222 110.622 543.702 110.28 543.123 110.081C542.695 109.93 542.242 109.862 541.789 109.88C541.26 109.895 540.742 110.032 540.274 110.278C540.058 110.381 539.855 110.507 539.667 110.655L521.303 124.995L494.633 145.829L485.698 152.808L485.7 152.815L485.692 152.817L452.926 178.395L447.51 182.634L442.304 186.695C442.01 186.923 441.671 187.087 441.309 187.174C440.947 187.262 440.571 187.272 440.205 187.203L433.726 185.971L406.328 180.757L378.906 175.542L318.845 164.112C318.333 164.01 317.805 164.022 317.297 164.145C316.614 164.312 315.994 164.672 315.509 165.181C315.324 165.381 315.159 165.599 315.016 165.832C314.523 166.654 314.373 167.636 314.599 168.567ZM315.619 168.321C315.527 167.944 315.521 167.552 315.601 167.173C315.681 166.794 315.845 166.438 316.08 166.13C316.101 166.085 316.132 166.045 316.171 166.013C316.193 165.976 316.233 165.942 316.263 165.903C316.566 165.588 316.943 165.353 317.359 165.219C317.775 165.085 318.218 165.056 318.648 165.136L378.334 176.49L403.862 181.354L431.26 186.568L440.011 188.234C440.523 188.33 441.049 188.316 441.556 188.193C442.062 188.071 442.537 187.842 442.949 187.523L449.976 182.037L454.42 178.565L485.967 153.917L487.182 152.972L494.628 147.155L521.147 126.445L540.318 111.474C540.609 111.247 540.946 111.084 541.305 110.997C541.405 110.972 541.507 110.956 541.61 110.947C541.7 110.93 541.79 110.922 541.882 110.921C542.188 110.918 542.493 110.968 542.782 111.068C543.195 111.212 543.566 111.457 543.861 111.78C544.155 112.104 544.364 112.496 544.468 112.921L575.384 240.631C575.466 240.966 575.48 241.313 575.427 241.653C575.374 241.994 575.254 242.32 575.075 242.614C574.896 242.908 574.66 243.164 574.382 243.367C574.103 243.57 573.788 243.716 573.453 243.796L349.692 297.964C349.017 298.126 348.305 298.014 347.713 297.651C347.121 297.289 346.697 296.706 346.535 296.031L315.619 168.321ZM403.862 181.354L431.26 186.568L440.011 188.234C440.523 188.33 441.049 188.316 441.556 188.193C442.062 188.071 442.537 187.842 442.949 187.523L449.976 182.037L447.51 182.634L442.304 186.695C442.01 186.923 441.671 187.087 441.309 187.174C440.947 187.262 440.571 187.272 440.205 187.203L433.726 185.971L406.328 180.757L403.862 181.354ZM403.862 181.354L431.26 186.568L440.011 188.234C440.523 188.33 441.049 188.316 441.556 188.193C442.062 188.071 442.537 187.842 442.949 187.523L449.976 182.037L447.51 182.634L442.304 186.695C442.01 186.923 441.671 187.087 441.309 187.174C440.947 187.262 440.571 187.272 440.205 187.203L433.726 185.971L406.328 180.757L403.862 181.354ZM403.862 181.354L431.26 186.568L440.011 188.234C440.523 188.33 441.049 188.316 441.556 188.193C442.062 188.071 442.537 187.842 442.949 187.523L449.976 182.037L447.51 182.634L442.304 186.695C442.01 186.923 441.671 187.087 441.309 187.174C440.947 187.262 440.571 187.272 440.205 187.203L433.726 185.971L406.328 180.757L403.862 181.354Z" fill="#3F3D56"/>
<path d="M515.378 219.717C514.874 217.625 515.221 215.418 516.342 213.58C517.463 211.743 519.268 210.425 521.359 209.916L549.601 203.079C551.691 202.581 553.893 202.932 555.725 204.054C557.556 205.176 558.869 206.979 559.374 209.067C559.88 211.155 559.537 213.358 558.421 215.194C557.305 217.03 555.507 218.349 553.421 218.861L525.18 225.698C523.087 226.202 520.88 225.856 519.042 224.734C517.205 223.613 515.887 221.809 515.378 219.717Z" fill="#536DFE"/>
<path d="M203.277 196C207.143 196 210.277 192.866 210.277 189C210.277 185.134 207.143 182 203.277 182C199.411 182 196.277 185.134 196.277 189C196.277 192.866 199.411 196 203.277 196Z" fill="white"/>
</g>
<defs>
<clipPath id="clip0_613_2">
<rect width="576.499" height="493.5" fill="white"/>
</clipPath>
</defs>
</svg>
