<svg width="57" height="51" viewBox="0 0 57 51" fill="none" xmlns="http://www.w3.org/2000/svg">
<path d="M50.9332 12.9361L28.3367 28.7276L5.74019 12.9361V6.61947L28.3367 22.411L50.9332 6.61947M50.9332 0.302856H5.74019C2.60492 0.302856 0.0910645 3.11375 0.0910645 6.61947V44.5191C0.0910645 46.1944 0.686238 47.801 1.74565 48.9856C2.80507 50.1702 4.24195 50.8357 5.74019 50.8357H50.9332C52.4314 50.8357 53.8683 50.1702 54.9277 48.9856C55.9871 47.801 56.5823 46.1944 56.5823 44.5191V6.61947C56.5823 4.9442 55.9871 3.33754 54.9277 2.15295C53.8683 0.968354 52.4314 0.302856 50.9332 0.302856V0.302856Z" fill="#151414"/>
</svg>
