<svg width="973" height="640" viewBox="0 0 973 640" fill="none" xmlns="http://www.w3.org/2000/svg">
<g clip-path="url(#clip0_607_3)">
<path d="M634.375 279.406C633.255 285.296 631.911 291.126 630.344 296.896C630.175 297.566 629.985 298.226 629.795 298.896H608.005C606.149 298.898 604.369 299.636 603.057 300.948C601.745 302.261 601.007 304.04 601.005 305.896V368.016C600.344 369.246 599.675 370.466 599.005 371.686C595.545 377.986 591.945 384.216 588.264 390.366C528.258 490.322 444.565 573.966 344.574 633.916L350.495 620.556C348.324 620.406 346.145 620.256 343.975 620.106C296.725 616.876 249.315 613.296 203.175 602.676C154.905 591.566 107.685 572.296 69.8547 540.346C32.0144 508.386 4.27461 462.746 0.42451 413.366C-0.859292 396.395 0.85705 379.331 5.49482 362.956C14.3645 331.436 33.7448 303.076 61.7048 286.296C105.625 259.946 162.915 265.316 209.215 287.236C255.505 309.146 293.185 345.416 329.975 381.056C292.83 317.358 241.112 263.375 179.065 223.536C158.505 210.376 136.685 198.656 119.205 181.606C101.735 164.566 88.8445 140.676 91.9348 116.466C95.4446 89.0057 117.935 68.1657 140.465 52.0957C149.465 45.6757 158.755 39.5857 168.335 33.9857C195.365 18.1457 224.605 6.19567 255.485 1.76567C297.315 -4.24433 342.495 4.87568 374.565 32.3957C410.695 63.4057 425.514 113.416 424.105 161.256C446.364 128.896 480.695 104.126 519.465 103.076C559.715 101.996 597.975 127.426 618.135 162.286C638.285 197.136 641.904 239.856 634.375 279.406Z" fill="#E6E6E6"/>
<path d="M379.716 413.801C403.291 411.725 425.068 409.299 447.912 402.835C470.056 396.569 491.363 386.08 507.127 368.953C524.081 350.531 533.234 326.607 539.691 302.792C543.291 289.514 546.25 276.05 549.041 262.582C552.07 247.968 554.761 233.291 557.114 218.548C561.799 189.203 565.143 159.685 567.147 129.995C567.389 126.391 567.611 122.785 567.813 119.179C567.938 116.954 564.478 116.961 564.353 119.179C562.707 148.445 559.745 177.598 555.468 206.636C551.247 235.166 545.847 263.573 538.996 291.591C533.191 315.328 525.676 339.435 510.79 359.194C496.83 377.723 476.668 389.832 454.897 397.071C432.745 404.438 409.387 407.379 386.238 409.566C383.398 409.835 382.557 410.091 379.716 410.341C377.515 410.535 377.495 413.997 379.716 413.801Z" fill="white"/>
<path d="M7.49135 365.508C37.235 367.158 66.6761 372.346 95.1922 380.962C123.72 389.561 151.135 401.494 176.868 416.514C201.733 431.039 224.816 448.419 245.648 468.3C265.866 487.607 283.885 509.091 299.376 532.362C314.937 555.691 327.833 580.692 337.822 606.895C339.04 610.102 340.213 613.326 341.342 616.566C342.071 618.655 345.415 617.756 344.678 615.646C335.333 588.889 323.013 563.266 307.95 539.259C292.89 515.249 275.215 492.983 255.249 472.867C234.964 452.44 212.388 434.423 187.969 419.175C136.698 387.237 78.5824 367.917 18.3948 362.799C14.7642 362.495 11.1297 362.245 7.49138 362.048C5.26639 361.927 5.27318 365.387 7.49135 365.508Z" fill="white"/>
<path d="M169.269 38.0416C188.286 44.0899 206.313 52.8986 222.77 64.1858C239.587 75.798 254.925 89.4187 268.442 104.746C282.687 120.87 295.352 138.323 306.262 156.867C317.834 176.447 327.887 196.885 336.332 218.003C345.028 239.683 352.342 261.892 358.23 284.498C364.216 307.371 368.891 330.567 372.233 353.973C375.558 377.13 377.571 400.457 378.261 423.842C378.956 446.203 378.295 468.586 376.281 490.867C374.439 511.654 371.076 532.278 366.218 552.573C361.904 570.903 355.824 588.772 348.063 605.929C346.265 609.823 344.358 613.663 342.341 617.45C341.294 619.414 344.28 621.164 345.329 619.196C353.905 602.808 360.753 585.572 365.762 567.767C371.383 547.946 375.457 527.719 377.948 507.267C380.709 485.079 382.054 462.737 381.974 440.378C381.924 416.888 380.526 393.42 377.786 370.09C375.045 346.469 370.975 323.021 365.596 299.858C360.23 276.657 353.423 253.813 345.215 231.459C337.304 209.819 327.832 188.782 316.874 168.514C306.436 149.173 294.273 130.815 280.532 113.663C267.483 97.3315 252.585 82.5676 236.136 69.6664C220.275 57.2636 202.748 47.1537 184.071 39.6339C179.506 37.8172 174.879 36.1743 170.189 34.7051C168.06 34.0353 167.149 37.3746 169.269 38.0416Z" fill="white"/>
<path d="M374.504 639.896C511.194 639.896 622.004 635.419 622.004 629.896C622.004 624.373 511.194 619.896 374.504 619.896C237.813 619.896 127.004 624.373 127.004 629.896C127.004 635.419 237.813 639.896 374.504 639.896Z" fill="#E6E6E6"/>
<path d="M593.174 316.685C593.051 317.225 592.971 317.773 592.934 318.325L549.977 343.107L539.535 337.096L528.404 351.669L550.741 367.589L599.749 328.926C601.748 329.666 603.925 329.78 605.99 329.252C608.055 328.725 609.91 327.581 611.309 325.973C612.708 324.365 613.585 322.37 613.822 320.252C614.06 318.134 613.647 315.994 612.638 314.116C611.629 312.239 610.073 310.713 608.176 309.741C606.279 308.77 604.131 308.399 602.018 308.677C599.906 308.956 597.928 309.872 596.348 311.302C594.768 312.733 593.661 314.61 593.174 316.685Z" fill="#FFB8B8"/>
<path d="M495.341 331.889L529.165 355.997L544.293 337.029L511.413 310.647C509.998 309.512 508.367 308.677 506.619 308.195C504.87 307.713 503.042 307.592 501.245 307.841C499.449 308.09 497.722 308.703 496.171 309.643C494.62 310.582 493.277 311.829 492.224 313.306C490.173 316.184 489.349 319.758 489.934 323.243C490.518 326.728 492.463 329.838 495.341 331.889Z" fill="#536DFE"/>
<path d="M425.519 606.957L437.379 610.064L455.009 565.8L437.506 561.213L425.519 606.957Z" fill="#FFB8B8"/>
<path d="M457.365 627.07L420.093 617.303L423.866 602.903L446.738 608.896C450.557 609.896 453.823 612.373 455.816 615.782C457.809 619.19 458.366 623.25 457.365 627.07Z" fill="#2F2E41"/>
<path d="M530.942 615.401L543.011 613.245L540.439 565.668L522.627 568.85L530.942 615.401Z" fill="#FFB8B8"/>
<path d="M568.288 620.294L530.358 627.07L527.74 612.415L551.015 608.257C552.94 607.913 554.913 607.952 556.823 608.371C558.732 608.79 560.541 609.581 562.145 610.698C563.749 611.816 565.117 613.239 566.171 614.885C567.225 616.532 567.944 618.37 568.288 620.294Z" fill="#2F2E41"/>
<path d="M507.177 265.508C510.151 266.232 512.57 269.263 514.023 272.773C515.364 276.461 516.271 280.291 516.727 284.188C517.869 291.445 518.966 299.301 516.604 306.022C513.837 313.899 506.462 318.025 500.065 316.086C493.669 314.147 488.581 306.869 486.843 298.492C485.26 290.027 486.28 281.281 489.767 273.407C491.584 269.27 494.089 265.454 497.418 263.587C499.05 262.6 500.996 262.267 502.864 262.656C504.732 263.046 506.383 264.128 507.486 265.685" fill="#2F2E41"/>
<path d="M524.004 396.896L546.981 602.69L528.004 609.896L493.004 471.896L444.276 598.074L423.504 599.228C423.504 599.228 452.004 402.896 473.125 398.434L524.004 396.896Z" fill="#2F2E41"/>
<path d="M504.705 291.772C518.269 291.772 529.266 280.775 529.266 267.211C529.266 253.646 518.269 242.65 504.705 242.65C491.14 242.65 480.144 253.646 480.144 267.211C480.144 280.775 491.14 291.772 504.705 291.772Z" fill="#FFB8B8"/>
<path d="M515.247 302.076L488.705 298.614C488.705 298.614 471.395 319.385 472.549 355.159C473.703 390.933 469.664 401.896 469.664 401.896L525.005 402.896C517.005 391.896 550.466 328.719 515.247 302.076Z" fill="#536DFE"/>
<path d="M529.504 407.896C528.951 407.9 528.398 407.947 527.853 408.038L493.897 371.892L497.359 360.352L480.626 352.851L470.24 378.239L519.092 417.098C518.83 419.213 519.217 421.358 520.203 423.248C521.189 425.137 522.727 426.681 524.613 427.676C526.498 428.67 528.641 429.066 530.757 428.813C532.873 428.559 534.862 427.667 536.459 426.256C538.056 424.844 539.185 422.98 539.697 420.911C540.209 418.842 540.078 416.666 539.323 414.673C538.568 412.68 537.224 410.964 535.47 409.753C533.716 408.543 531.635 407.895 529.504 407.896Z" fill="#FFB8B8"/>
<path d="M492.315 316.139L476.588 354.582L498.514 364.968L516.672 326.923C517.453 325.286 517.892 323.507 517.961 321.695C518.031 319.882 517.73 318.075 517.076 316.383C516.423 314.691 515.431 313.151 514.161 311.855C512.891 310.56 511.371 309.538 509.692 308.852C508.072 308.189 506.338 307.852 504.589 307.86C502.839 307.867 501.108 308.219 499.494 308.896C497.88 309.573 496.416 310.561 495.184 311.803C493.952 313.046 492.977 314.519 492.315 316.139Z" fill="#536DFE"/>
<path d="M498.28 289.54C502.128 287.32 502.539 281.964 502.016 277.552C501.493 273.14 500.619 268.222 503.213 264.614C506.308 260.309 512.526 260.223 517.827 260.082C523.128 259.942 529.583 258.39 530.957 253.268C531.864 249.884 529.922 246.252 527.136 244.128C524.35 242.004 520.864 241.064 517.476 240.172C509.896 238.175 502.07 236.162 494.31 237.259C486.623 238.346 479.673 242.416 474.964 248.588C470.254 254.76 468.165 262.538 469.147 270.239C470.403 280.09 472.225 284.392 471.029 288.735C468.802 296.825 459.198 302.023 459.007 310.412C458.857 316.974 464.653 322.036 470.308 325.368C474.794 328.011 479.635 330.253 484.804 330.872C489.974 331.491 495.539 330.306 499.39 326.802C504.357 322.283 505.585 314.734 504.161 308.172C502.737 301.609 499.084 295.782 495.47 290.123" fill="#2F2E41"/>
<path d="M963.004 296.896H608.004C605.618 296.899 603.331 297.849 601.644 299.536C599.957 301.223 599.007 303.51 599.004 305.896V533.896C599.007 536.281 599.957 538.569 601.644 540.256C603.331 541.943 605.618 542.892 608.004 542.896H963.004C965.39 542.892 967.677 541.943 969.364 540.256C971.051 538.569 972 536.281 972.004 533.896V305.896C972 303.51 971.051 301.223 969.364 299.536C967.677 297.849 965.39 296.899 963.004 296.896ZM970.004 533.896C970.002 535.752 969.264 537.531 967.951 538.843C966.639 540.155 964.86 540.894 963.004 540.896H608.004C606.148 540.894 604.369 540.155 603.056 538.843C601.744 537.531 601.006 535.752 601.004 533.896V305.896C601.006 304.04 601.744 302.26 603.056 300.948C604.369 299.636 606.148 298.898 608.004 298.896H963.004C964.86 298.898 966.639 299.636 967.951 300.948C969.264 302.26 970.002 304.04 970.004 305.896V533.896Z" fill="#3F3D56"/>
<path d="M683.779 410.391H627.779C625.526 410.388 623.365 409.492 621.772 407.899C620.178 406.305 619.282 404.145 619.279 401.891V345.891C619.282 343.638 620.178 341.477 621.772 339.884C623.365 338.29 625.526 337.394 627.779 337.391H683.779C686.033 337.394 688.193 338.29 689.787 339.884C691.38 341.477 692.277 343.638 692.279 345.891V401.891C692.277 404.145 691.38 406.305 689.787 407.899C688.193 409.492 686.033 410.388 683.779 410.391Z" fill="#536DFE"/>
<path d="M944.516 469.901H626.516C624.792 469.901 623.138 469.216 621.919 467.997C620.7 466.778 620.016 465.124 620.016 463.401C620.016 461.677 620.7 460.023 621.919 458.804C623.138 457.585 624.792 456.901 626.516 456.901H944.516C946.24 456.901 947.893 457.585 949.112 458.804C950.331 460.023 951.016 461.677 951.016 463.401C951.016 465.124 950.331 466.778 949.112 467.997C947.893 469.216 946.24 469.901 944.516 469.901Z" fill="#CCCCCC"/>
<path d="M944.729 438.401H626.729C625.005 438.401 623.351 437.716 622.132 436.497C620.913 435.278 620.229 433.624 620.229 431.901C620.229 430.177 620.913 428.523 622.132 427.304C623.351 426.085 625.005 425.401 626.729 425.401H944.729C946.452 425.401 948.106 426.085 949.325 427.304C950.544 428.523 951.229 430.177 951.229 431.901C951.229 433.624 950.544 435.278 949.325 436.497C948.106 437.716 946.452 438.401 944.729 438.401Z" fill="#CCCCCC"/>
<path d="M787.729 395.391H740.729C739.005 395.391 737.351 394.706 736.132 393.487C734.913 392.268 734.229 390.615 734.229 388.891C734.229 387.167 734.913 385.514 736.132 384.295C737.351 383.076 739.005 382.391 740.729 382.391H787.729C789.452 382.391 791.106 383.076 792.325 384.295C793.544 385.514 794.229 387.167 794.229 388.891C794.229 390.615 793.544 392.268 792.325 393.487C791.106 394.706 789.452 395.391 787.729 395.391Z" fill="#CCCCCC"/>
<path d="M944.729 363.401H740.729C739.005 363.401 737.351 362.716 736.132 361.497C734.913 360.278 734.229 358.624 734.229 356.901C734.229 355.177 734.913 353.523 736.132 352.304C737.351 351.085 739.005 350.401 740.729 350.401H944.729C946.452 350.401 948.106 351.085 949.325 352.304C950.544 353.523 951.229 355.177 951.229 356.901C951.229 358.624 950.544 360.278 949.325 361.497C948.106 362.716 946.452 363.401 944.729 363.401Z" fill="#CCCCCC"/>
<path d="M779.729 501.901H626.516C624.792 501.901 623.138 501.216 621.919 499.997C620.7 498.778 620.016 497.124 620.016 495.401C620.016 493.677 620.7 492.023 621.919 490.804C623.138 489.585 624.792 488.901 626.516 488.901H779.729C781.453 488.901 783.106 489.585 784.325 490.804C785.544 492.023 786.229 493.677 786.229 495.401C786.229 497.124 785.544 498.778 784.325 499.997C783.106 501.216 781.453 501.901 779.729 501.901Z" fill="#CCCCCC"/>
</g>
<defs>
<clipPath id="clip0_607_3">
<rect width="972.004" height="639.896" fill="white"/>
</clipPath>
</defs>
</svg>
