<svg width="56" height="56" viewBox="0 0 56 56" fill="none" xmlns="http://www.w3.org/2000/svg">
<path d="M26.6351 30.7323C24.7184 31.569 22.5728 31.7231 20.5562 31.1689C18.5397 30.6148 16.7741 29.3859 15.5541 27.6873C14.371 26.0109 13.8352 23.9626 14.0458 21.9216C14.2565 19.8805 15.1992 17.9849 16.6997 16.5853C18.2298 15.1548 20.2027 14.2898 22.2915 14.1337C24.3803 13.9775 26.4598 14.5395 28.1856 15.7267C29.8878 16.8765 31.1176 18.6021 31.649 20.5863C32.1804 22.5706 31.9775 24.6799 31.0777 26.5265M26.7587 30.7347L31.5211 35.4982H34.1986V38.0532H36.8131V40.6758L38.0264 41.8903H42.0001V38.066L30.9132 26.9792" stroke="black" stroke-linecap="round" stroke-linejoin="round"/>
<path d="M20.4144 22.8959C21.8887 22.8959 23.0838 21.7008 23.0838 20.2265C23.0838 18.7523 21.8887 17.5572 20.4144 17.5572C18.9402 17.5572 17.7451 18.7523 17.7451 20.2265C17.7451 21.7008 18.9402 22.8959 20.4144 22.8959Z" stroke="black" stroke-linecap="round" stroke-linejoin="round"/>
<path d="M27.9998 53.0834C41.853 53.0834 53.0832 41.8532 53.0832 28C53.0832 14.1469 41.853 2.91669 27.9998 2.91669C14.1467 2.91669 2.9165 14.1469 2.9165 28C2.9165 41.8532 14.1467 53.0834 27.9998 53.0834Z" stroke="black" stroke-linecap="round" stroke-linejoin="round"/>
</svg>
