<svg width="532" height="532" viewBox="0 0 532 532" fill="none" xmlns="http://www.w3.org/2000/svg">
<g clip-path="url(#clip0_407_18)">
<path d="M270.759 347.278C318.448 347.278 357.108 308.619 357.108 260.929C357.108 213.24 318.448 174.58 270.759 174.58C223.07 174.58 184.41 213.24 184.41 260.929C184.41 308.619 223.07 347.278 270.759 347.278Z" fill="#A0616A"/>
<path d="M199.288 366.614L217.288 320.614L310.288 306.614L320.28 408.44L226.28 410.44L199.288 366.614Z" fill="#A0616A"/>
<path d="M357.944 276.861C356.823 281.351 354.558 292.041 351.02 292.094C348.13 292.136 345.364 245.759 348.251 238.088C351.567 229.275 342.852 218.127 336.287 212.405C324.482 202.115 298.28 224.209 271.636 214.201C270.929 213.936 271.07 213.966 262.656 210.609C236.767 200.279 235.406 199.981 233.922 199.834C221.372 198.592 206.055 208.862 199.801 221.384C193.299 234.401 198.731 245.565 192.617 277.056C191.905 280.727 190.786 285.958 189.026 286.035C185.807 286.176 182.665 268.987 181.842 264.485C178.394 245.623 175.07 227.438 181.842 207.017C182.581 204.79 187.134 196.523 196.209 180.079C209.284 156.391 215.859 144.502 217.76 142.366C231.388 127.04 256.195 113.059 277.023 119.02C287.55 122.033 285.663 126.877 298.573 131.591C321.582 139.991 341.578 129.718 345.266 136.978C347.22 140.824 341.754 143.995 341.674 151.345C341.538 163.957 357.489 167.601 366.816 180.079C371.831 186.787 380.414 186.859 357.944 276.861Z" fill="#2F2E41"/>
<path d="M464.92 442.61C461.44 446.521 457.83 450.351 454.09 454.091C403.85 504.33 337.05 532 266 532C204.59 532 146.36 511.33 99.2502 473.28C99.2202 473.261 99.2002 473.24 99.1704 473.21C92.9204 468.171 86.8704 462.811 81.0303 457.15C81.1401 456.271 81.2603 455.4 81.3901 454.54C82.2102 448.74 83.1204 443.21 84.1401 438.12C92.4902 396.4 202.36 352.601 205.22 351.46C205.26 351.45 205.28 351.44 205.28 351.44C205.28 351.44 219.42 403.561 280.01 402.891C321.28 402.44 313.28 351.44 313.28 351.44C313.28 351.44 313.78 351.54 314.72 351.74C326.64 354.271 409.4 372.45 442.05 397.261C452 404.82 459.14 420.921 464.27 440.12C464.49 440.94 464.7 441.78 464.92 442.61Z" fill="#536DFE" fill-opacity="1"/>
<path d="M454.09 77.9102C403.85 27.6709 337.05 0 266 0C194.95 0 128.15 27.6709 77.9099 77.9102C27.6702 128.15 0 194.95 0 266C0 330.851 23.05 392.16 65.29 440.57C69.3201 445.2 73.53 449.71 77.9099 454.091C78.9399 455.12 79.98 456.15 81.03 457.15C86.8701 462.811 92.9202 468.171 99.1702 473.21C99.2 473.24 99.22 473.261 99.25 473.28C146.36 511.33 204.59 532 266 532C337.05 532 403.85 504.33 454.09 454.091C457.83 450.351 461.44 446.521 464.92 442.61C508.29 393.891 532 331.771 532 266C532 194.95 504.33 128.15 454.09 77.9102ZM464.27 440.12C456.4 449.07 447.94 457.49 438.94 465.301C421.87 480.15 402.87 492.83 382.38 502.931C375.19 506.48 367.82 509.71 360.28 512.601C330.99 523.841 299.2 530 266 530C233.96 530 203.24 524.261 174.81 513.761C163.14 509.46 151.86 504.351 141.03 498.5C139.44 497.641 137.86 496.771 136.29 495.881C128.03 491.2 120.04 486.091 112.37 480.57C101.38 472.69 91.02 463.98 81.3899 454.54C75.99 449.25 70.8301 443.74 65.9001 438.011C26.0901 391.771 2 331.65 2 266C2 120.431 120.43 2 266 2C411.57 2 530 120.431 530 266C530 332.66 505.17 393.62 464.27 440.12Z" fill="#3F3D56"/>
</g>
<defs>
<clipPath id="clip0_407_18">
<rect width="532" height="532" fill="white"/>
</clipPath>
</defs>
</svg>
