<svg width="539" height="521" viewBox="0 0 539 521" fill="none" xmlns="http://www.w3.org/2000/svg">
<g clip-path="url(#clip0_614_2)">
<path d="M490.837 497.713C490.262 497.74 489.693 497.589 489.206 497.281C488.72 496.973 488.34 496.523 488.118 495.992C487.896 495.461 487.843 494.874 487.965 494.312C488.087 493.749 488.38 493.238 488.802 492.847L488.995 492.083C488.969 492.021 488.944 491.96 488.918 491.899C488.339 490.531 487.368 489.364 486.128 488.546C484.888 487.727 483.434 487.294 481.948 487.299C480.462 487.305 479.011 487.749 477.777 488.577C476.543 489.404 475.581 490.578 475.012 491.951C472.737 497.429 469.841 502.916 469.128 508.708C468.814 511.269 468.947 513.864 469.52 516.379C464.178 504.726 461.403 492.06 461.386 479.24C461.384 476.023 461.563 472.809 461.921 469.612C462.217 466.991 462.627 464.389 463.152 461.805C466.015 447.788 472.162 434.649 481.09 423.468C485.41 421.111 488.905 417.485 491.101 413.081C491.897 411.498 492.46 409.807 492.771 408.063C492.284 408.127 490.934 400.704 491.301 400.248C490.622 399.218 489.406 398.705 488.664 397.7C484.975 392.697 479.892 393.571 477.238 400.368C471.57 403.229 471.515 407.974 474.993 412.537C477.206 415.441 477.51 419.369 479.452 422.477C479.252 422.733 479.044 422.981 478.844 423.236C475.193 427.932 472.01 432.974 469.342 438.29C469.991 432.334 469.217 426.31 467.083 420.712C464.92 415.494 460.866 411.1 457.297 406.59C453.009 401.172 444.216 403.537 443.461 410.404C443.454 410.471 443.446 410.537 443.44 410.604C443.97 410.903 444.489 411.22 444.997 411.556C445.635 411.982 446.129 412.592 446.415 413.304C446.701 414.015 446.765 414.797 446.599 415.546C446.433 416.295 446.045 416.977 445.485 417.502C444.925 418.026 444.22 418.369 443.461 418.486L443.384 418.498C443.573 420.409 443.906 422.303 444.382 424.163C439.803 441.873 449.69 448.324 463.807 448.614C464.118 448.773 464.422 448.933 464.734 449.085C462.053 456.681 460.372 464.594 459.732 472.624C459.369 477.362 459.391 482.121 459.796 486.855L459.772 486.687C458.749 481.423 455.941 476.673 451.821 473.24C445.703 468.214 437.059 466.363 430.459 462.323C429.757 461.873 428.942 461.632 428.108 461.63C427.274 461.628 426.458 461.865 425.754 462.312C425.05 462.759 424.489 463.397 424.137 464.153C423.784 464.908 423.655 465.749 423.764 466.575C423.773 466.634 423.782 466.693 423.791 466.752C424.775 467.152 425.733 467.614 426.66 468.134C427.19 468.433 427.709 468.75 428.217 469.086C428.855 469.512 429.349 470.121 429.635 470.833C429.921 471.545 429.985 472.327 429.819 473.076C429.653 473.825 429.265 474.507 428.705 475.031C428.145 475.556 427.44 475.899 426.682 476.016L426.604 476.028C426.548 476.036 426.5 476.044 426.444 476.052C428.125 480.066 430.485 483.761 433.42 486.975C436.283 502.435 448.582 503.902 461.737 499.4H461.745C463.189 505.672 465.28 511.777 467.986 517.617H490.278C490.358 517.37 490.43 517.114 490.502 516.866C488.439 516.996 486.367 516.873 484.334 516.499C485.988 514.469 487.642 512.424 489.296 510.394C489.333 510.356 489.367 510.316 489.4 510.274C490.239 509.236 491.086 508.205 491.924 507.166L491.925 507.165C491.97 503.981 491.604 500.804 490.837 497.713Z" fill="#F2F2F2"/>
<path d="M453.693 299.478C459.602 278.026 470.623 259.755 488.417 245.7C489.121 244.612 490.227 243.848 491.494 243.575C492.761 243.303 494.084 243.544 495.173 244.245L535.788 270.469C536.875 271.173 537.639 272.28 537.912 273.546C538.185 274.813 537.944 276.136 537.242 277.225L502.519 331.004C501.815 332.091 500.708 332.855 499.442 333.128C498.175 333.401 496.852 333.16 495.763 332.458L455.148 306.235C454.06 305.531 453.296 304.424 453.024 303.157C452.751 301.891 452.992 300.567 453.693 299.478Z" fill="#F2F2F2"/>
<path d="M467.298 285.246C468.82 273.912 478.197 262.325 489.621 250.673C490.281 249.654 491.317 248.939 492.503 248.683C493.689 248.428 494.929 248.653 495.949 249.31L530.854 271.848C531.872 272.507 532.588 273.543 532.843 274.73C533.099 275.916 532.873 277.155 532.216 278.175L501.317 326.031C500.658 327.049 499.621 327.765 498.435 328.02C497.249 328.276 496.01 328.05 494.989 327.393L473.367 313.432C468.829 310.495 465.642 305.878 464.504 300.594C463.367 295.31 464.371 289.791 467.298 285.246Z" fill="white"/>
<path d="M470.412 331.461C465.258 309.815 466.117 288.495 474.942 267.607C475.036 266.315 475.638 265.112 476.616 264.263C477.595 263.414 478.871 262.988 480.163 263.078L528.387 266.5C529.679 266.593 530.882 267.195 531.731 268.174C532.58 269.152 533.006 270.428 532.916 271.72L528.385 335.574C528.292 336.866 527.69 338.069 526.711 338.918C525.732 339.767 524.457 340.193 523.164 340.103L474.94 336.681C473.648 336.588 472.445 335.986 471.596 335.007C470.747 334.029 470.321 332.753 470.412 331.461Z" fill="#F2F2F2"/>
<path d="M475.478 312.437C471.354 301.77 473.991 287.1 478.391 271.386C478.478 270.175 479.042 269.049 479.959 268.254C480.875 267.459 482.07 267.06 483.28 267.144L524.724 270.085C525.935 270.172 527.061 270.736 527.856 271.653C528.651 272.569 529.05 273.764 528.966 274.974L524.934 331.795C524.847 333.006 524.283 334.132 523.366 334.927C522.45 335.722 521.255 336.121 520.045 336.037L494.371 334.215C488.98 333.826 483.963 331.315 480.421 327.232C476.879 323.15 475.102 317.828 475.478 312.437Z" fill="white"/>
<path d="M474.57 197.834L453.911 121.367C453.026 118.13 450.904 115.371 448.002 113.684C445.101 111.998 441.653 111.52 438.402 112.354C436.72 112.785 435.144 113.554 433.77 114.615C432.395 115.675 431.251 117.004 430.406 118.521C429.562 120.038 429.036 121.711 428.859 123.438C428.683 125.165 428.86 126.91 429.38 128.566L453.275 207.339L465.777 255.816C463.956 257.206 462.607 259.123 461.914 261.307C461.221 263.49 461.216 265.834 461.901 268.02C462.587 270.206 463.928 272.129 465.744 273.526C467.56 274.923 469.761 275.727 472.05 275.829C474.339 275.931 476.603 275.326 478.536 274.096C480.469 272.867 481.977 271.072 482.854 268.955C483.731 266.839 483.936 264.504 483.44 262.267C482.943 260.031 481.771 258.001 480.081 256.454L474.57 197.834Z" fill="#FFB6B6"/>
<path d="M325.577 211.062L346.763 134.74C347.651 131.504 347.231 128.048 345.594 125.119C343.957 122.189 341.233 120.021 338.012 119.082C336.345 118.597 334.597 118.455 332.874 118.667C331.15 118.879 329.489 119.44 327.989 120.315C326.49 121.19 325.185 122.361 324.153 123.757C323.121 125.153 322.384 126.745 321.987 128.435L302.41 208.39L288.466 256.472C286.191 256.741 284.054 257.703 282.345 259.229C280.636 260.754 279.437 262.769 278.913 264.999C278.389 267.229 278.564 269.567 279.414 271.694C280.265 273.821 281.75 275.635 283.667 276.889C285.584 278.143 287.841 278.776 290.131 278.703C292.42 278.63 294.632 277.854 296.465 276.48C298.298 275.106 299.664 273.201 300.377 271.023C301.09 268.846 301.115 266.502 300.449 264.31L325.577 211.062Z" fill="#FFB6B6"/>
<path d="M446.818 504.239L433.317 504.238L426.895 452.165L446.82 452.166L446.818 504.239Z" fill="#FFB6B6"/>
<path d="M447.293 518.323L405.777 518.321V517.796C405.778 513.511 407.48 509.401 410.51 506.37C413.541 503.34 417.651 501.638 421.936 501.637L429.521 495.884L443.669 501.638L447.294 501.638L447.293 518.323Z" fill="#2F2E41"/>
<path d="M351.811 504.375L338.52 502.004L341.338 449.611L360.954 453.11L351.811 504.375Z" fill="#FFB6B6"/>
<path d="M349.804 518.323L308.934 511.034L309.026 510.517C309.778 506.298 312.176 502.551 315.691 500.1C319.206 497.648 323.551 496.694 327.77 497.446L336.247 493.113L349.166 501.261L352.734 501.898L349.804 518.323Z" fill="#2F2E41"/>
<path d="M353.127 264.814C353.127 264.814 340.545 282.635 341.058 288.615C341.571 294.596 346.015 289.825 341.571 294.596C337.128 299.367 334.539 296.166 336.722 302.06C338.905 307.954 339.794 304.138 338.905 307.954C338.016 311.771 339.794 457.759 339.794 457.759H362.931C362.931 457.759 375.978 373.109 374.327 369.157C372.675 365.205 372.713 366.925 374.471 362.725C376.23 358.525 377.885 353.529 377.885 353.529L396.173 302.06L410.28 374.528L426.885 460.64H449.057C449.057 460.64 452.854 334.01 454.532 332.432C456.211 330.855 454.203 327.308 452.097 325.265C449.99 323.221 450.41 321.146 451.089 316.936C451.768 312.725 454.631 310.377 454.532 307.734C454.434 305.092 460.655 263.108 450.879 256.429C441.104 249.75 353.127 264.814 353.127 264.814Z" fill="#2F2E41"/>
<path d="M430.485 87.2994L404.605 80.593L392.524 63.9306L363.833 67.4576L357.726 90.1852L337.301 102.041C373.915 102.26 354.197 208.335 359.579 215.178C363.958 220.748 337.72 233.997 345.944 242.449C354.167 250.901 351.126 247.519 349.218 256.721C347.31 265.922 333.4 275.66 349.218 275.564C365.036 275.467 460.483 274.103 457.756 263.195C455.029 252.287 455.072 255.057 450.96 248.218C446.848 241.379 444.08 245.2 445.464 235.108C446.848 225.016 442.354 217.21 445.484 212.744C450.29 205.89 445.447 156.407 440.916 157.728L430.485 87.2994Z" fill="#536DFE"/>
<path d="M423.098 87.6532C423.098 87.6532 442.029 79.6104 448.847 94.6093C451.024 99.3998 452.858 111.433 454.625 108.764C456.391 106.096 454.687 111.946 455.78 111.953C456.756 111.959 458.257 110.38 457.123 115.82C456.767 117.604 456.87 119.449 457.42 121.183C457.971 122.917 458.951 124.484 460.27 125.736L427.367 145.443L423.098 87.6532Z" fill="#536DFE"/>
<path d="M351.968 101.288C351.968 101.288 333.037 93.2457 326.219 108.245C324.302 112.463 324.779 121.836 321.045 120.784C317.311 119.731 319.962 123.696 319.469 125.073C318.92 126.609 321.317 130.953 317.951 129.433C314.584 127.912 314.796 139.372 314.796 139.372L347.699 159.078L351.968 101.288Z" fill="#536DFE"/>
<path d="M360.943 78.8253L355.489 88.37C355.489 88.37 340.49 96.5512 340.49 97.9147C340.49 99.2782 343.217 110.412 340.49 119.162C337.763 127.912 345.696 144.368 347.308 157.91C354.126 215.178 333.852 235.987 329.582 272.447L372.85 285.084C372.85 285.084 380.033 189.271 380.033 167.455C380.033 145.638 360.943 78.8253 360.943 78.8253Z" fill="#2F2E41"/>
<path d="M400.488 74.7346L411.635 81.0744C411.635 81.0744 426.221 84.2905 426.396 85.6429C426.57 86.9952 426.622 101.368 430.444 109.699C434.266 118.029 433.213 122.458 443.508 147.084C448.767 159.666 460.842 260.334 460.842 260.334L419.543 278.394C419.543 278.394 400.181 184.284 397.394 162.647C394.607 141.009 400.488 74.7346 400.488 74.7346Z" fill="#2F2E41"/>
<path d="M372.616 61.7346C388.187 61.7346 400.81 49.1117 400.81 33.5407C400.81 17.9696 388.187 5.3468 372.616 5.3468C357.045 5.3468 344.422 17.9696 344.422 33.5407C344.422 49.1117 357.045 61.7346 372.616 61.7346Z" fill="#FFB6B6"/>
<path d="M391.169 55.4462C384.505 50.2369 393.615 27.3205 382.609 32.2119C382.609 32.2119 369.158 23.6519 366.455 29.277C363.326 35.7904 352.197 32.8356 345.361 30.5366C345.898 29.2877 346.28 27.9776 346.498 26.6357C345.236 27.6299 343.899 28.5253 342.5 29.3138C341.561 28.8121 340.73 28.1306 340.054 27.3082C339.387 26.5445 338.97 25.5951 338.858 24.5873C338.747 23.5796 338.946 22.5619 339.43 21.6709C340.567 19.9222 342.915 19.3841 344.297 17.8311C344.457 17.6127 344.561 17.3588 344.601 17.0913C344.641 16.8237 344.615 16.5504 344.527 16.2949C344.362 15.67 344.337 15.0166 344.454 14.381C344.571 13.7454 344.826 13.1435 345.202 12.6179C345.578 12.0924 346.065 11.6562 346.629 11.3406C347.193 11.0249 347.819 10.8374 348.464 10.7916C348.723 10.7995 348.98 10.7434 349.213 10.6284C350.373 9.91839 351.445 9.07274 352.405 8.10933C350.803 8.1827 352.762 -1.62317 368.644 0.234105C372.643 0.0873746 374.731 4.49747 378.669 5.19451C388.213 -0.259622 396.733 7.60799 400.879 15.1285C405.024 22.6492 409.512 46.8862 391.169 55.4462Z" fill="#2F2E41"/>
<path d="M270.87 15H18.14C13.3319 15.004 8.72177 16.9151 5.32101 20.314C1.92026 23.7129 0.00665358 28.3219 0 33.13V260.86C0.00625236 265.669 1.91942 270.279 5.31998 273.68C8.72053 277.081 13.3309 278.994 18.14 279H270.87C275.678 278.993 280.287 277.08 283.686 273.679C287.085 270.278 288.996 265.668 289 260.86V33.13C288.996 28.323 287.084 23.7141 283.685 20.315C280.286 16.9159 275.677 15.0044 270.87 15Z" fill="white"/>
<path d="M155.395 67.2677H128.395C127.068 67.2677 125.797 66.7409 124.859 65.8033C123.921 64.8656 123.395 63.5938 123.395 62.2677C123.395 60.9416 123.921 59.6699 124.859 58.7322C125.797 57.7945 127.068 57.2677 128.395 57.2677H155.395C156.721 57.2677 157.992 57.7945 158.93 58.7322C159.868 59.6699 160.395 60.9416 160.395 62.2677C160.395 63.5938 159.868 64.8656 158.93 65.8033C157.992 66.7409 156.721 67.2677 155.395 67.2677Z" fill="#536DFE"/>
<path d="M513.395 297H486.395C485.068 297 483.797 296.473 482.859 295.536C481.921 294.598 481.395 293.326 481.395 292C481.395 290.674 481.921 289.402 482.859 288.464C483.797 287.527 485.068 287 486.395 287H513.395C514.721 287 515.992 287.527 516.93 288.464C517.868 289.402 518.395 290.674 518.395 292C518.395 293.326 517.868 294.598 516.93 295.536C515.992 296.473 514.721 297 513.395 297Z" fill="#536DFE"/>
<path d="M225.395 172H58.3945C57.0684 172 55.7967 171.473 54.859 170.536C53.9213 169.598 53.3945 168.326 53.3945 167C53.3945 165.674 53.9213 164.402 54.859 163.464C55.7967 162.527 57.0684 162 58.3945 162H225.395C226.721 162 227.992 162.527 228.93 163.464C229.868 164.402 230.395 165.674 230.395 167C230.395 168.326 229.868 169.598 228.93 170.536C227.992 171.473 226.721 172 225.395 172Z" fill="#E6E6E6"/>
<path d="M225.395 205H58.3945C57.0684 205 55.7967 204.473 54.859 203.536C53.9213 202.598 53.3945 201.326 53.3945 200C53.3945 198.674 53.9213 197.402 54.859 196.464C55.7967 195.527 57.0684 195 58.3945 195H225.395C226.721 195 227.992 195.527 228.93 196.464C229.868 197.402 230.395 198.674 230.395 200C230.395 201.326 229.868 202.598 228.93 203.536C227.992 204.473 226.721 205 225.395 205Z" fill="#E6E6E6"/>
<path d="M225.395 238H58.3945C57.0684 238 55.7967 237.473 54.859 236.536C53.9213 235.598 53.3945 234.326 53.3945 233C53.3945 231.674 53.9213 230.402 54.859 229.464C55.7967 228.527 57.0684 228 58.3945 228H225.395C226.721 228 227.992 228.527 228.93 229.464C229.868 230.402 230.395 231.674 230.395 233C230.395 234.326 229.868 235.598 228.93 236.536C227.992 237.473 226.721 238 225.395 238Z" fill="#E6E6E6"/>
<path d="M191.261 82.2699H92.5306C87.7225 82.2739 83.1124 84.185 79.7117 87.5839C76.3109 90.9828 74.3973 95.5918 74.3906 100.4V130.13C74.3969 134.939 76.31 139.549 79.7106 142.95C83.1112 146.35 87.7215 148.264 92.5306 148.27H191.261C196.069 148.263 200.678 146.35 204.077 142.949C207.476 139.548 209.387 134.938 209.391 130.13V100.4C209.386 95.5929 207.475 90.984 204.076 87.5849C200.677 84.1858 196.068 82.2743 191.261 82.2699ZM207.391 130.13C207.391 134.41 205.69 138.516 202.663 141.543C199.637 144.569 195.531 146.27 191.251 146.27H120.378C108.712 146.27 97.5234 141.636 89.2742 133.386C81.025 125.137 76.3906 113.949 76.3906 102.283V100.4C76.3974 96.1223 78.1004 92.022 81.126 88.9983C84.1517 85.9745 88.253 84.2741 92.5306 84.2699H191.261C195.537 84.2744 199.637 85.9753 202.661 88.9993C205.685 92.0233 207.386 96.1234 207.391 100.4V130.13Z" fill="#E6E6E6"/>
<path d="M143 126C152.389 126 160 118.389 160 109C160 99.6112 152.389 92 143 92C133.611 92 126 99.6112 126 109C126 118.389 133.611 126 143 126Z" fill="#E6E6E6"/>
<path d="M182.11 148.27L106 148L130 142L132.99 132.13L156 132L162.89 141.76L180.29 146.27L181.87 146.68L182.11 148.27Z" fill="#E6E6E6"/>
<path d="M133.338 119.854C136.986 117.003 132 104.459 138.024 107.136C138.024 107.136 145.387 102.451 146.866 105.53C148.579 109.095 154.671 107.478 158.413 106.219C158.119 105.536 157.91 104.818 157.79 104.084C158.481 104.628 159.213 105.118 159.979 105.55C160.493 105.275 160.948 104.902 161.318 104.452C161.683 104.034 161.911 103.514 161.972 102.963C162.033 102.411 161.924 101.854 161.659 101.366C161.037 100.409 159.752 100.115 158.995 99.2644C158.908 99.1449 158.851 99.0059 158.829 98.8595C158.807 98.713 158.821 98.5634 158.87 98.4236C158.96 98.0815 158.973 97.7238 158.909 97.3759C158.845 97.0281 158.706 96.6986 158.5 96.4109C158.294 96.1232 158.027 95.8845 157.719 95.7117C157.41 95.5389 157.067 95.4363 156.714 95.4112C156.572 95.4155 156.432 95.3848 156.304 95.3219C155.669 94.9332 155.083 94.4703 154.557 93.943C155.434 93.9832 154.362 88.6157 145.668 89.6323C143.479 89.552 142.336 91.9659 140.181 92.3475C134.956 89.362 130.293 93.6686 128.024 97.7851C125.755 101.902 123.298 115.169 133.338 119.854Z" fill="#E6E6E6"/>
<path d="M270.87 15H18.14C13.3319 15.004 8.72177 16.9151 5.32101 20.314C1.92026 23.7129 0.00665358 28.3219 0 33.13V260.86C0.00625236 265.669 1.91942 270.279 5.31998 273.68C8.72053 277.081 13.3309 278.994 18.14 279H270.87C275.678 278.993 280.287 277.08 283.686 273.679C287.085 270.278 288.996 265.668 289 260.86V33.13C288.996 28.323 287.084 23.7141 283.685 20.315C280.286 16.9159 275.677 15.0044 270.87 15ZM287 260.86C287 265.141 285.3 269.246 282.273 272.273C279.246 275.3 275.141 277 270.86 277H132.201C115.103 277 98.1718 273.632 82.3751 267.089C66.5784 260.546 52.2252 250.955 40.1349 238.865C28.0447 226.775 18.4541 212.422 11.9109 196.625C5.36772 180.828 1.99999 163.897 2 146.799V33.13C2.00681 28.8524 3.70976 24.7521 6.73541 21.7283C9.76106 18.7046 13.8624 17.0042 18.14 17H270.87C275.147 17.0046 279.247 18.7054 282.271 21.7294C285.295 24.7534 286.995 28.8535 287 33.13V260.86Z" fill="#E6E6E6"/>
<path d="M534.906 519.943L219.548 520.25C219.233 520.248 218.932 520.122 218.71 519.899C218.488 519.676 218.363 519.374 218.363 519.059C218.363 518.744 218.488 518.442 218.71 518.219C218.932 517.996 219.233 517.87 219.548 517.869L534.906 517.561C535.22 517.563 535.522 517.689 535.744 517.912C535.966 518.135 536.09 518.437 536.09 518.752C536.09 519.067 535.966 519.369 535.744 519.592C535.522 519.815 535.22 519.941 534.906 519.943Z" fill="#CACACA"/>
</g>
<defs>
<clipPath id="clip0_614_2">
<rect width="538.022" height="520.25" fill="white"/>
</clipPath>
</defs>
</svg>
