<svg width="58" height="58" viewBox="0 0 58 58" fill="none" xmlns="http://www.w3.org/2000/svg">
<path fill-rule="evenodd" clip-rule="evenodd" d="M28.9997 50.75C41.0117 50.75 50.7497 41.0121 50.7497 29C50.7497 16.988 41.0117 7.25004 28.9997 7.25004C16.9876 7.25004 7.24967 16.988 7.24967 29C7.24967 41.0121 16.9876 50.75 28.9997 50.75ZM28.9997 53.1667C42.3469 53.1667 53.1663 42.3473 53.1663 29C53.1663 15.6528 42.3469 4.83337 28.9997 4.83337C15.6524 4.83337 4.83301 15.6528 4.83301 29C4.83301 42.3473 15.6524 53.1667 28.9997 53.1667Z" fill="white"/>
<path d="M14.5 43.053C14.5 41.8048 15.4328 40.7499 16.675 40.6122C25.9973 39.5803 32.045 39.6733 41.3467 40.6351C41.8112 40.6839 42.2515 40.8669 42.6137 41.1618C42.9759 41.4566 43.2444 41.8506 43.3864 42.2955C43.5284 42.7405 43.5377 43.2171 43.4133 43.6673C43.2888 44.1175 43.036 44.5216 42.6856 44.8305C31.7079 54.3993 25.4342 54.2676 15.2733 44.8401C14.7779 44.381 14.5 43.7285 14.5 43.0542V43.053Z" fill="white"/>
<path fill-rule="evenodd" clip-rule="evenodd" d="M41.2217 41.8362C31.9936 40.8816 26.0329 40.7922 16.8061 41.8132C16.5023 41.8486 16.2223 41.9948 16.0197 42.2237C15.817 42.4527 15.7059 42.7484 15.7077 43.0542C15.7077 43.3997 15.8515 43.7272 16.0944 43.9544C21.1307 48.6258 24.9466 50.7367 28.6767 50.75C32.4201 50.7633 36.4415 48.6693 41.8911 43.9205C42.0642 43.7664 42.1888 43.5654 42.2498 43.3418C42.3108 43.1182 42.3055 42.8817 42.2346 42.661C42.1637 42.4403 42.0302 42.245 41.8504 42.0988C41.6706 41.9526 41.4521 41.8618 41.2217 41.8374V41.8362ZM16.5414 39.411C25.9616 38.3682 32.0975 38.4625 41.4718 39.4328C42.1706 39.5057 42.8329 39.7808 43.3778 40.2244C43.9226 40.668 44.3263 41.2608 44.5394 41.9303C44.7525 42.5997 44.7658 43.3168 44.5776 43.9937C44.3895 44.6707 44.0081 45.278 43.48 45.7415C37.9519 50.5603 33.3481 53.1848 28.6695 53.1667C23.9775 53.1498 19.5768 50.4806 14.4522 45.7258C14.0853 45.384 13.7928 44.9703 13.593 44.5104C13.3932 44.0505 13.2904 43.5544 13.291 43.053C13.2893 42.1521 13.6199 41.2822 14.2197 40.6099C14.8195 39.9377 15.6462 39.5104 16.5414 39.4098V39.411Z" fill="white"/>
<path d="M38.6663 24.1667C38.6663 26.7304 37.6479 29.1892 35.835 31.002C34.0222 32.8149 31.5634 33.8333 28.9997 33.8333C26.4359 33.8333 23.9772 32.8149 22.1643 31.002C20.3515 29.1892 19.333 26.7304 19.333 24.1667C19.333 21.6029 20.3515 19.1442 22.1643 17.3313C23.9772 15.5184 26.4359 14.5 28.9997 14.5C31.5634 14.5 34.0222 15.5184 35.835 17.3313C37.6479 19.1442 38.6663 21.6029 38.6663 24.1667V24.1667Z" fill="white"/>
<path fill-rule="evenodd" clip-rule="evenodd" d="M28.9997 31.4167C30.9225 31.4167 32.7666 30.6528 34.1262 29.2932C35.4858 27.9336 36.2497 26.0895 36.2497 24.1667C36.2497 22.2438 35.4858 20.3998 34.1262 19.0401C32.7666 17.6805 30.9225 16.9167 28.9997 16.9167C27.0769 16.9167 25.2328 17.6805 23.8731 19.0401C22.5135 20.3998 21.7497 22.2438 21.7497 24.1667C21.7497 26.0895 22.5135 27.9336 23.8731 29.2932C25.2328 30.6528 27.0769 31.4167 28.9997 31.4167V31.4167ZM28.9997 33.8333C31.5634 33.8333 34.0222 32.8149 35.835 31.002C37.6479 29.1892 38.6663 26.7304 38.6663 24.1667C38.6663 21.6029 37.6479 19.1442 35.835 17.3313C34.0222 15.5184 31.5634 14.5 28.9997 14.5C26.4359 14.5 23.9772 15.5184 22.1643 17.3313C20.3515 19.1442 19.333 21.6029 19.333 24.1667C19.333 26.7304 20.3515 29.1892 22.1643 31.002C23.9772 32.8149 26.4359 33.8333 28.9997 33.8333V33.8333Z" fill="white"/>
</svg>
