<svg width="829" height="771" viewBox="0 0 829 771" fill="none" xmlns="http://www.w3.org/2000/svg">
<g clip-path="url(#clip0_22_419)">
<path d="M520.583 190.811H479.241V518.54C479.241 523.682 478.151 528.774 476.035 533.525C473.919 538.275 470.817 542.591 466.906 546.227C462.996 549.863 458.354 552.747 453.245 554.715C448.135 556.683 442.659 557.696 437.129 557.696H121.05V558.07C121.05 563.212 122.139 568.304 124.256 573.055C126.372 577.805 129.474 582.122 133.384 585.758C137.295 589.393 141.937 592.278 147.046 594.245C152.155 596.213 157.631 597.226 163.161 597.226H520.583C526.113 597.226 531.589 596.213 536.698 594.245C541.807 592.278 546.449 589.393 550.36 585.758C554.27 582.122 557.372 577.805 559.488 573.055C561.605 568.304 562.694 563.212 562.694 558.07V229.967C562.694 219.582 558.257 209.623 550.36 202.28C542.462 194.937 531.751 190.811 520.583 190.811Z" fill="#F2F2F2"/>
<path d="M716.565 711.623C717.296 711.654 718.021 711.476 718.64 711.111C719.259 710.747 719.743 710.214 720.025 709.586C720.308 708.957 720.376 708.263 720.22 707.598C720.064 706.932 719.692 706.327 719.154 705.864L718.909 704.959C718.942 704.887 718.974 704.814 719.007 704.742C719.744 703.123 720.98 701.742 722.558 700.774C724.137 699.805 725.988 699.292 727.879 699.298C729.77 699.305 731.617 699.831 733.188 700.81C734.758 701.79 735.983 703.179 736.707 704.803C739.602 711.286 743.288 717.781 744.196 724.636C744.595 727.666 744.427 730.737 743.697 733.714C750.497 719.922 754.028 704.932 754.051 689.761C754.052 685.954 753.825 682.149 753.369 678.366C752.993 675.264 752.471 672.185 751.803 669.127C748.159 652.537 740.334 636.988 728.971 623.756C723.472 620.966 719.024 616.675 716.228 611.463C715.215 609.589 714.499 607.589 714.103 605.524C714.723 605.6 716.442 596.815 715.974 596.276C716.838 595.056 718.386 594.45 719.33 593.259C724.026 587.339 730.496 588.373 733.873 596.418C741.088 599.804 741.158 605.419 736.731 610.82C733.914 614.256 733.527 618.905 731.056 622.583C731.31 622.886 731.575 623.179 731.829 623.482C736.477 629.039 740.528 635.006 743.923 641.297C743.098 634.249 744.083 627.119 746.799 620.493C749.552 614.319 754.711 609.119 759.255 603.781C760.457 602.347 762.089 601.277 763.945 600.705C765.8 600.133 767.797 600.086 769.682 600.569C771.566 601.052 773.255 602.044 774.533 603.419C775.812 604.794 776.624 606.491 776.865 608.295C776.875 608.374 776.884 608.453 776.892 608.531C776.218 608.885 775.557 609.261 774.911 609.658C774.099 610.163 773.469 610.884 773.106 611.726C772.742 612.569 772.66 613.494 772.871 614.381C773.082 615.267 773.577 616.074 774.289 616.694C775.002 617.315 775.9 617.721 776.865 617.86L776.964 617.874C776.723 620.136 776.298 622.377 775.692 624.579C781.521 645.538 768.937 653.172 750.969 653.515C750.572 653.704 750.186 653.893 749.789 654.073C753.201 663.063 755.341 672.428 756.156 681.931C756.617 687.538 756.59 693.17 756.074 698.773L756.105 698.574C757.407 692.344 760.981 686.723 766.224 682.659C774.011 676.711 785.013 674.521 793.415 669.74C794.307 669.207 795.346 668.922 796.407 668.92C797.468 668.917 798.507 669.197 799.403 669.726C800.299 670.255 801.013 671.011 801.461 671.905C801.91 672.799 802.074 673.794 801.935 674.772L801.901 674.981C800.648 675.455 799.429 676.001 798.25 676.616C797.575 676.971 796.914 677.346 796.268 677.744C795.456 678.248 794.827 678.969 794.463 679.812C794.099 680.654 794.017 681.579 794.228 682.466C794.44 683.352 794.934 684.159 795.647 684.78C796.359 685.401 797.257 685.807 798.222 685.945L798.321 685.959C798.392 685.969 798.453 685.978 798.524 685.988C796.384 690.738 793.381 695.111 789.646 698.914C786.001 717.211 770.348 718.947 753.603 713.619H753.593C751.756 721.042 749.094 728.268 745.65 735.179H717.276C717.174 734.886 717.082 734.584 716.991 734.29C719.617 734.444 722.254 734.298 724.842 733.856C722.737 731.454 720.632 729.033 718.526 726.631C718.48 726.586 718.435 726.539 718.394 726.489C717.326 725.26 716.248 724.04 715.18 722.811L715.18 722.809C715.123 719.041 715.588 715.282 716.564 711.624L716.565 711.623Z" fill="#F2F2F2"/>
<path d="M404.043 146.231C405.079 147.69 406.443 148.923 408.042 149.844C409.641 150.765 411.436 151.352 413.302 151.564C415.169 151.777 417.063 151.61 418.853 151.074C420.644 150.539 422.288 149.649 423.671 148.465L482.664 173.212L494.037 159.723L423.74 130.807C421.423 128.789 418.391 127.632 415.218 127.554C412.045 127.476 408.951 128.483 406.523 130.384C404.096 132.285 402.502 134.949 402.045 137.869C401.588 140.79 402.299 143.765 404.043 146.231H404.043Z" fill="#A0616A"/>
<path d="M657.212 161.662L663.062 192.49C663.335 193.929 663.282 195.404 662.905 196.822C662.529 198.24 661.837 199.569 660.876 200.723C659.914 201.878 658.704 202.833 657.322 203.527C655.94 204.221 654.417 204.639 652.851 204.754L553.433 212.023L436.572 163.393L450.53 138.756L551.976 168.627L657.212 161.662Z" fill="#536DFE"/>
<path d="M424.533 139.569H67.111C43.8538 139.569 25 157.099 25 178.724V506.828C25 528.453 43.8538 545.983 67.111 545.983H424.533C447.79 545.983 466.644 528.453 466.644 506.828V178.724C466.644 157.099 447.79 139.569 424.533 139.569Z" fill="#F2F2F2"/>
<path d="M67.1115 147.621C62.7187 147.621 58.3688 148.425 54.3104 149.988C50.2519 151.551 46.5644 153.843 43.4582 156.731C40.352 159.619 37.888 163.048 36.2069 166.821C34.5258 170.595 33.6606 174.639 33.6606 178.724V506.828C33.6606 515.077 37.1849 522.988 43.4582 528.821C49.7314 534.654 58.2398 537.931 67.1115 537.931H295.227C316.6 537.931 337.764 534.017 357.511 526.411C377.257 518.806 395.199 507.659 410.313 493.606C425.426 479.554 437.415 462.871 445.594 444.51C453.773 426.15 457.983 406.471 457.983 386.597V178.724C457.983 174.639 457.118 170.595 455.437 166.821C453.756 163.048 451.292 159.619 448.186 156.731C445.08 153.843 441.392 151.551 437.333 149.988C433.275 148.425 428.925 147.621 424.532 147.621H67.1115Z" fill="white"/>
<path d="M345.738 247.195H145.124C143.284 247.195 141.518 246.515 140.217 245.305C138.915 244.094 138.184 242.453 138.184 240.741C138.184 239.029 138.915 237.388 140.217 236.178C141.518 234.967 143.284 234.287 145.124 234.287H345.738C347.578 234.287 349.344 234.967 350.645 236.178C351.947 237.388 352.678 239.029 352.678 240.741C352.678 242.453 351.947 244.094 350.645 245.305C349.344 246.515 347.578 247.195 345.738 247.195Z" fill="#F2F2F2"/>
<path d="M345.738 384.818H145.124C143.284 384.818 141.518 384.138 140.217 382.928C138.915 381.718 138.184 380.076 138.184 378.365C138.184 376.653 138.915 375.011 140.217 373.801C141.518 372.591 143.284 371.911 145.124 371.911H345.738C347.578 371.911 349.344 372.591 350.645 373.801C351.947 375.011 352.678 376.653 352.678 378.365C352.678 380.076 351.947 381.718 350.645 382.928C349.344 384.138 347.578 384.818 345.738 384.818Z" fill="#F2F2F2"/>
<path d="M427.202 316.052H63.6596C61.8188 316.052 60.0533 315.372 58.7517 314.161C57.45 312.951 56.7188 311.31 56.7188 309.598C56.7188 307.886 57.45 306.245 58.7517 305.035C60.0533 303.824 61.8188 303.144 63.6596 303.144H427.202C429.043 303.144 430.808 303.824 432.11 305.035C433.412 306.245 434.143 307.886 434.143 309.598C434.143 311.31 433.412 312.951 432.11 314.161C430.808 315.372 429.043 316.052 427.202 316.052Z" fill="#F2F2F2"/>
<path d="M644.651 297.54L608.435 369.28L747.75 356.16L718.669 287.292L644.651 297.54Z" fill="#A0616A"/>
<path d="M677.04 709.873L663.831 709.769L657.984 661.292L677.478 661.446L677.04 709.873Z" fill="#A0616A"/>
<path d="M634.731 729.403C634.719 730.859 635.329 732.26 636.426 733.298C637.524 734.336 639.02 734.927 640.586 734.942L666.848 735.146L671.445 726.48L673.134 735.19L683.043 735.273L680.541 704.21L677.093 703.997L663.031 703.096L658.494 702.813L658.415 711.602L637.318 724.907C636.528 725.406 635.88 726.075 635.429 726.858C634.978 727.642 634.739 728.515 634.731 729.403Z" fill="#2F2E41"/>
<path d="M530.863 709.929L518.27 706.22L527.999 658.286L546.585 663.758L530.863 709.929Z" fill="#A0616A"/>
<path d="M484.25 717.038C483.778 718.426 483.919 719.932 484.64 721.224C485.361 722.517 486.604 723.49 488.096 723.932L513.135 731.301L520.267 724.275L519.129 733.061L528.575 735.848L535.999 705.472L532.771 704.327L519.614 699.623L515.367 698.114L512.513 706.493L488.144 713.447C487.231 713.708 486.399 714.171 485.721 714.797C485.043 715.422 484.538 716.191 484.25 717.038Z" fill="#2F2E41"/>
<path d="M741.405 335.986L614.734 357.568C614.734 357.568 594.416 371.699 599.851 376.76C605.287 381.82 606.13 381.037 602.559 384.357C598.988 387.677 591.267 392.115 591.191 395.02C591.115 397.925 534.43 528.228 534.43 528.228C534.43 528.228 540.728 525.3 536.004 529.693C531.281 534.085 531.281 537.714 531.281 537.714L509.236 676.1L545.037 678.06L580.093 551.896L658.286 434.032C658.286 434.032 666.045 539.137 666.37 546.127C666.696 553.118 671.419 544.333 666.696 553.118C661.972 561.902 658.823 556.046 661.972 561.902C665.121 567.759 650.627 686.985 650.627 686.985H683.305L753.39 439.862C753.39 439.862 778.325 369.212 741.405 335.986Z" fill="#2F2E41"/>
<path d="M704.089 138.318L653.349 133.416L640.202 149.285L624.888 156.869C618.407 160.079 613.057 164.956 609.479 170.918C605.9 176.88 604.245 183.674 604.71 190.488L622.607 287.292C622.607 287.292 607.489 318.944 617.883 326.822C628.277 334.7 609.847 354.211 632.055 344.391C654.262 334.571 750.149 345.855 750.149 345.855L729.679 291.684L744.971 238.454L746.654 193.821C746.968 185.48 744.306 177.278 739.083 170.491C733.86 163.704 726.368 158.715 717.777 156.301L715.639 155.7L704.089 138.318Z" fill="#536DFE"/>
<path d="M773.945 102.149C774.278 115.447 768.933 128.324 761.254 139.634C758.973 133.031 754.872 127.022 750.594 121.293C752.75 133.686 750.454 146.393 744.06 157.449C743.834 157.599 743.601 157.739 743.36 157.867C737.101 161.367 729.166 162.785 722.396 160.257C736.385 146.236 738.165 123.005 726.437 107.278C723.116 102.816 718.822 98.8688 716.765 93.7903C713.518 85.6873 716.64 76.7658 718.609 68.3176C720.45 60.4548 720.772 51.0981 715.099 45.3358C715.705 44.5305 716.53 43.8895 717.491 43.4784C718.451 43.0674 719.511 42.9011 720.563 42.9966C724.061 43.456 726.607 46.2829 728.229 49.1945C729.85 52.106 730.92 55.3329 733.18 57.8477C737.365 62.5547 744.492 63.6675 750.498 66.1483C765.043 72.1724 773.597 87.3514 773.945 102.149Z" fill="#2F2E41"/>
<path d="M399.203 735.258C399.202 735.487 399.25 735.714 399.344 735.925C399.438 736.137 399.576 736.329 399.75 736.491C399.925 736.653 400.131 736.781 400.359 736.869C400.587 736.956 400.831 737.001 401.077 737H799.905C800.402 737 800.879 736.816 801.23 736.49C801.582 736.163 801.779 735.72 801.779 735.258C801.779 734.796 801.582 734.352 801.23 734.026C800.879 733.699 800.402 733.516 799.905 733.516H401.077C400.831 733.515 400.587 733.559 400.359 733.647C400.131 733.734 399.925 733.862 399.75 734.024C399.576 734.186 399.438 734.378 399.344 734.59C399.25 734.802 399.202 735.029 399.203 735.258Z" fill="#CCCCCC"/>
<path d="M777.085 410.363C784.912 410.363 791.257 404.464 791.257 397.187C791.257 389.909 784.912 384.01 777.085 384.01C769.259 384.01 762.914 389.909 762.914 397.187C762.914 404.464 769.259 410.363 777.085 410.363Z" fill="#536DFE"/>
<path d="M651.509 94.5453C652.34 91.8403 646.611 108.376 649.375 108.674C661.967 110.017 679.251 117.009 688.021 120.271C688.416 120.229 688.811 120.186 689.195 120.133C690.135 120.037 691.053 119.898 691.959 119.738C712.379 116.146 720.232 86.9793 720.232 86.7128C720.232 85.4017 716.848 49.3891 711.516 48.8561C710.116 48.7149 708.708 48.6437 707.3 48.6429H694.069C691.332 48.0944 688.557 47.7204 685.764 47.5236H685.741C659.106 45.6368 638.105 60.7314 640.068 79.0989C640.08 79.1201 640.103 79.1415 640.115 79.1628C640.684 79.9517 641.183 80.6979 641.625 81.4121C642.054 82.0837 642.414 82.7233 642.728 83.3309C645.156 88.0214 638.915 93.9235 643.053 95.0251C648.557 96.4903 628.579 144.648 650.362 144.648C639.766 147.449 649.216 102.007 651.509 94.5453Z" fill="#2F2E41"/>
<path d="M675.285 122.802C692.585 122.802 706.609 109.762 706.609 93.6765C706.609 77.5908 692.585 64.5508 675.285 64.5508C657.985 64.5508 643.961 77.5908 643.961 93.6765C643.961 109.762 657.985 122.802 675.285 122.802Z" fill="#A0616A"/>
<path d="M640.068 80.6872C640.591 80.943 641.102 81.1775 641.624 81.412C642.17 81.6572 642.716 81.9024 643.262 82.1263C653.751 86.5502 662.289 87.0406 667.469 80.6872C667.608 77.3441 668.415 74.0544 669.85 70.9864C669.597 74.4149 670.569 77.8252 672.615 80.6872H683.046C693.79 87.3177 699.308 88.0106 691.85 109.779C689.771 115.844 681.504 151.14 684.756 156.374C685.697 156.278 695.707 117.618 696.613 117.459C717.033 113.866 730.008 82.5846 728.347 80.8151C728.355 75.7829 727.111 70.8172 724.711 66.3067C721.676 60.5921 716.943 55.8053 711.074 52.5125C707.576 50.9352 703.929 49.6613 700.179 48.7068C700.086 48.6855 700.005 48.6641 699.912 48.6428C698.762 48.355 697.589 48.0885 696.415 47.8646C693.992 47.3888 691.541 47.0435 689.074 46.8306C688.9 46.8199 688.726 46.8093 688.563 46.8093C687.578 46.8114 686.612 47.058 685.764 47.5235C685.752 47.5235 685.752 47.5342 685.741 47.5342C685.135 47.8634 684.605 48.302 684.184 48.824C683.442 49.7024 683.041 50.7879 683.046 51.9048H671.43C671 51.9048 670.571 51.9154 670.141 51.9367C662.388 52.1831 655.014 55.1105 649.46 60.146C643.907 65.1816 640.574 71.9629 640.114 79.1628C640.079 79.6744 640.068 80.1754 640.068 80.6872Z" fill="#2F2E41"/>
<path d="M708.557 71.3764C719.954 71.3764 729.193 62.7856 729.193 52.1882C729.193 41.5909 719.954 33 708.557 33C697.159 33 687.92 41.5909 687.92 52.1882C687.92 62.7856 697.159 71.3764 708.557 71.3764Z" fill="#2F2E41"/>
<path d="M777.245 402.62C778.252 401.143 778.902 399.481 779.15 397.747C779.399 396.014 779.239 394.251 778.682 392.581C778.126 390.911 777.186 389.373 775.927 388.074C774.668 386.774 773.121 385.745 771.393 385.056L771.495 324.881L753.601 320.762L754.042 392.235C753.011 395.026 753.119 398.073 754.342 400.796C755.566 403.519 757.822 405.73 760.682 407.01C763.542 408.29 766.808 408.55 769.861 407.741C772.913 406.932 775.541 405.11 777.245 402.62V402.62Z" fill="#A0616A"/>
<path d="M688.633 181.571L716.478 163.975C717.777 163.154 719.247 162.595 720.792 162.333C722.337 162.071 723.924 162.113 725.451 162.455C726.978 162.797 728.411 163.433 729.658 164.321C730.906 165.208 731.94 166.329 732.694 167.61L780.567 248.952L780.75 367.997L750.861 366.255L738.591 267.972L688.633 181.571Z" fill="#536DFE"/>
<path d="M474.775 451.547H177.177C170.704 451.547 164.496 453.938 159.919 458.194C155.342 462.45 152.771 468.222 152.771 474.241C152.771 480.259 155.342 486.031 159.919 490.287C164.496 494.543 170.704 496.934 177.177 496.934H474.775C481.248 496.934 487.456 494.543 492.033 490.287C496.61 486.031 499.181 480.259 499.181 474.241C499.181 468.222 496.61 462.45 492.033 458.194C487.456 453.938 481.248 451.547 474.775 451.547Z" fill="white"/>
<path d="M474.775 498.398H177.178C170.287 498.398 163.679 495.853 158.806 491.323C153.934 486.792 151.197 480.648 151.197 474.241C151.197 467.834 153.934 461.689 158.806 457.159C163.679 452.629 170.287 450.083 177.178 450.083H474.775C481.666 450.083 488.274 452.629 493.147 457.159C498.019 461.689 500.756 467.834 500.756 474.241C500.756 480.648 498.019 486.792 493.147 491.323C488.274 495.853 481.666 498.398 474.775 498.398ZM177.178 453.012C171.122 453.012 165.315 455.248 161.033 459.229C156.751 463.211 154.346 468.61 154.346 474.241C154.346 479.871 156.751 485.271 161.033 489.252C165.315 493.233 171.122 495.47 177.178 495.47H474.775C480.831 495.47 486.638 493.233 490.92 489.252C495.202 485.271 497.607 479.871 497.607 474.241C497.607 468.61 495.202 463.211 490.92 459.229C486.638 455.248 480.831 453.012 474.775 453.012H177.178Z" fill="#536DFE"/>
<path d="M492.324 550.582H360.993C359.152 550.582 357.386 549.902 356.085 548.692C354.783 547.481 354.052 545.84 354.052 544.128C354.052 542.417 354.783 540.775 356.085 539.565C357.386 538.354 359.152 537.674 360.993 537.674H492.324C494.164 537.674 495.93 538.354 497.232 539.565C498.533 540.775 499.264 542.417 499.264 544.128C499.264 545.84 498.533 547.481 497.232 548.692C495.93 549.902 494.164 550.582 492.324 550.582Z" fill="#536DFE"/>
</g>
<defs>
<clipPath id="clip0_22_419">
<rect width="777" height="704" fill="white" transform="translate(25 33)"/>
</clipPath>
</defs>
</svg>
