<svg width="811" height="711" viewBox="0 0 811 711" fill="none" xmlns="http://www.w3.org/2000/svg">
<g clip-path="url(#clip0_607_29)">
<path d="M810.572 168.892H806.672V61.915C806.672 45.4941 800.149 29.7458 788.538 18.1345C776.927 6.52317 761.178 8.0765e-09 744.757 8.07646e-09H518.107C509.977 -0.000131315 501.925 1.60122 494.413 4.71262C486.902 7.82401 480.076 12.3845 474.327 18.1338C468.577 23.883 464.016 30.7084 460.905 38.2202C457.793 45.7321 456.192 53.7832 456.191 61.914V648.798C456.191 665.219 462.715 680.967 474.326 692.579C485.937 704.19 501.686 710.713 518.106 710.713H744.754C761.175 710.713 776.924 704.19 788.535 692.579C800.146 680.967 806.669 665.219 806.669 648.798V245.04H810.569L810.572 168.892Z" fill="#3F3D56"/>
<path d="M794.045 57.768V652.943C794.043 665.393 789.097 677.333 780.295 686.137C771.492 694.942 759.553 699.89 747.103 699.895H515.803C503.348 699.897 491.402 694.951 482.594 686.146C473.785 677.341 468.834 665.398 468.83 652.943V57.768C468.834 45.3135 473.784 33.3704 482.593 24.5657C491.401 15.7609 503.347 10.8154 515.801 10.817H543.859C542.481 14.205 541.957 17.8795 542.332 21.5176C542.707 25.1557 543.97 28.646 546.01 31.6817C548.05 34.7174 550.804 37.2056 554.031 38.9275C557.257 40.6494 560.858 41.5524 564.515 41.557H696.383C700.04 41.5524 703.641 40.6494 706.867 38.9275C710.094 37.2056 712.848 34.7174 714.888 31.6817C716.928 28.646 718.191 25.1557 718.566 21.5176C718.941 17.8795 718.417 14.205 717.039 10.817H747.094C759.544 10.8191 771.484 15.7652 780.288 24.5678C789.092 33.3704 794.041 45.309 794.045 57.759V57.768Z" fill="white"/>
<path d="M633.918 295.875C607.584 295.885 582.324 285.434 563.695 266.82C545.066 248.207 534.593 222.955 534.581 196.621V196.533C534.581 196.325 534.581 196.106 534.593 195.898C534.893 141.498 579.456 97.198 633.918 97.198C660.264 97.1965 685.531 107.661 704.162 126.289C722.792 144.918 733.259 170.184 733.261 196.53C733.262 222.875 722.798 248.143 704.169 266.773C685.541 285.403 660.275 295.871 633.929 295.872H633.918V295.875ZM633.918 99.288C608.244 99.3454 583.63 109.532 565.423 127.634C547.217 145.736 536.89 170.292 536.685 195.965C536.674 196.187 536.674 196.365 536.674 196.534C536.672 215.77 542.373 234.574 553.058 250.57C563.743 266.565 578.931 279.033 596.702 286.396C614.473 293.76 634.028 295.688 652.894 291.938C671.761 288.187 689.092 278.926 702.695 265.326C716.299 251.726 725.564 234.398 729.319 215.532C733.074 196.666 731.15 177.111 723.791 159.338C716.432 141.566 703.968 126.374 687.976 115.686C671.983 104.997 653.18 99.2904 633.944 99.288H633.918Z" fill="#E6E6E6"/>
<path d="M736.639 400.316H531.102C530.093 400.315 529.125 399.914 528.412 399.2C527.698 398.487 527.297 397.519 527.296 396.51V345.526C527.297 344.517 527.699 343.55 528.412 342.836C529.126 342.123 530.093 341.721 531.102 341.72H736.639C737.648 341.721 738.615 342.123 739.329 342.836C740.042 343.55 740.444 344.517 740.445 345.526V396.511C740.444 397.52 740.042 398.487 739.329 399.201C738.615 399.914 737.648 400.316 736.639 400.317V400.316ZM531.102 343.242C530.496 343.243 529.916 343.483 529.487 343.912C529.059 344.34 528.818 344.92 528.818 345.526V396.511C528.818 397.117 529.059 397.697 529.487 398.125C529.916 398.554 530.496 398.794 531.102 398.795H736.639C737.245 398.794 737.825 398.554 738.253 398.125C738.682 397.697 738.922 397.117 738.923 396.511V345.526C738.922 344.92 738.682 344.34 738.253 343.912C737.825 343.483 737.245 343.243 736.639 343.242H531.102Z" fill="#E6E6E6"/>
<path d="M594.666 360.361C593.96 360.361 593.282 360.642 592.782 361.141C592.283 361.641 592.002 362.319 592.002 363.025C592.002 363.732 592.283 364.41 592.782 364.91C593.282 365.409 593.96 365.69 594.666 365.69H720.271C720.621 365.703 720.97 365.648 721.298 365.526C721.627 365.405 721.928 365.22 722.184 364.982C722.441 364.744 722.649 364.458 722.795 364.14C722.941 363.822 723.023 363.479 723.037 363.129C723.05 362.779 722.994 362.43 722.873 362.102C722.751 361.774 722.567 361.473 722.329 361.216C722.091 360.959 721.805 360.752 721.487 360.606C721.169 360.459 720.825 360.377 720.476 360.364C720.437 360.362 720.397 360.362 720.358 360.362H594.666V360.361Z" fill="#E6E6E6"/>
<path d="M594.666 376.347C593.96 376.347 593.282 376.628 592.782 377.127C592.283 377.627 592.002 378.305 592.002 379.011C592.002 379.718 592.283 380.396 592.782 380.896C593.282 381.395 593.96 381.676 594.666 381.676H720.271C720.621 381.689 720.97 381.634 721.298 381.512C721.627 381.391 721.928 381.206 722.184 380.968C722.441 380.73 722.649 380.444 722.795 380.126C722.941 379.808 723.023 379.465 723.037 379.115C723.05 378.765 722.994 378.416 722.873 378.088C722.751 377.76 722.567 377.459 722.329 377.202C722.091 376.945 721.805 376.738 721.487 376.592C721.169 376.445 720.825 376.363 720.476 376.35C720.437 376.348 720.397 376.348 720.358 376.348L594.666 376.347Z" fill="#E6E6E6"/>
<path d="M736.639 485.576H531.102C530.093 485.575 529.125 485.174 528.412 484.46C527.698 483.747 527.297 482.779 527.296 481.77V430.786C527.297 429.777 527.699 428.81 528.412 428.096C529.126 427.383 530.093 426.981 531.102 426.98H736.639C737.648 426.981 738.615 427.383 739.329 428.096C740.042 428.81 740.444 429.777 740.445 430.786V481.771C740.443 482.78 740.042 483.747 739.328 484.46C738.615 485.173 737.648 485.575 736.639 485.576ZM531.102 428.502C530.496 428.503 529.916 428.743 529.487 429.172C529.059 429.6 528.818 430.18 528.818 430.786V481.771C528.818 482.377 529.059 482.957 529.487 483.385C529.916 483.814 530.496 484.054 531.102 484.055H736.639C737.245 484.054 737.825 483.814 738.253 483.385C738.682 482.957 738.922 482.377 738.923 481.771V430.786C738.922 430.18 738.682 429.6 738.253 429.172C737.825 428.743 737.245 428.503 736.639 428.502H531.102Z" fill="#E6E6E6"/>
<path d="M594.666 445.617C593.96 445.617 593.282 445.898 592.782 446.397C592.283 446.897 592.002 447.575 592.002 448.281C592.002 448.988 592.283 449.666 592.782 450.166C593.282 450.665 593.96 450.946 594.666 450.946H720.271C720.968 450.942 721.635 450.665 722.131 450.175C722.626 449.686 722.91 449.021 722.921 448.325C722.932 447.628 722.67 446.955 722.192 446.449C721.713 445.943 721.055 445.645 720.358 445.618L594.666 445.617Z" fill="#E6E6E6"/>
<path d="M594.666 461.607C593.96 461.607 593.282 461.888 592.782 462.387C592.283 462.887 592.002 463.565 592.002 464.272C592.002 464.978 592.283 465.656 592.782 466.156C593.282 466.655 593.96 466.936 594.666 466.936H720.271C720.968 466.932 721.635 466.656 722.131 466.166C722.626 465.676 722.91 465.011 722.921 464.315C722.932 463.618 722.67 462.945 722.192 462.439C721.713 461.933 721.055 461.635 720.358 461.608L594.666 461.607Z" fill="#E6E6E6"/>
<path d="M736.639 570.834H531.102C530.093 570.833 529.125 570.432 528.412 569.718C527.698 569.005 527.297 568.037 527.296 567.028V516.044C527.297 515.035 527.699 514.068 528.412 513.354C529.126 512.641 530.093 512.239 531.102 512.238H736.639C737.648 512.239 738.615 512.641 739.329 513.354C740.042 514.068 740.444 515.035 740.445 516.044V567.029C740.444 568.038 740.042 569.005 739.329 569.719C738.615 570.432 737.648 570.834 736.639 570.835V570.834ZM531.102 513.76C530.496 513.761 529.916 514.001 529.487 514.43C529.059 514.858 528.818 515.438 528.818 516.044V567.029C528.818 567.635 529.059 568.215 529.487 568.643C529.916 569.072 530.496 569.312 531.102 569.313H736.639C737.245 569.312 737.825 569.072 738.253 568.643C738.682 568.215 738.922 567.635 738.923 567.029V516.044C738.922 515.438 738.682 514.858 738.253 514.43C737.825 514.001 737.245 513.761 736.639 513.76H531.102Z" fill="#E6E6E6"/>
<path d="M594.666 530.878C593.96 530.878 593.282 531.159 592.782 531.658C592.283 532.158 592.002 532.836 592.002 533.542C592.002 534.249 592.283 534.927 592.782 535.427C593.282 535.926 593.96 536.207 594.666 536.207H720.271C720.621 536.22 720.97 536.165 721.298 536.043C721.627 535.922 721.928 535.737 722.184 535.499C722.441 535.261 722.649 534.975 722.795 534.657C722.941 534.339 723.023 533.996 723.037 533.646C723.05 533.296 722.994 532.947 722.873 532.619C722.751 532.291 722.567 531.99 722.329 531.733C722.091 531.476 721.805 531.269 721.487 531.123C721.169 530.976 720.825 530.894 720.476 530.881C720.437 530.879 720.397 530.879 720.358 530.879L594.666 530.878Z" fill="#E6E6E6"/>
<path d="M594.666 546.865C593.96 546.865 593.282 547.146 592.782 547.645C592.283 548.145 592.002 548.823 592.002 549.529C592.002 550.236 592.283 550.914 592.782 551.414C593.282 551.913 593.96 552.194 594.666 552.194H720.271C720.621 552.207 720.97 552.152 721.298 552.03C721.627 551.909 721.928 551.724 722.184 551.486C722.441 551.248 722.649 550.962 722.795 550.644C722.941 550.326 723.023 549.983 723.037 549.633C723.05 549.283 722.994 548.934 722.873 548.606C722.751 548.278 722.567 547.977 722.329 547.72C722.091 547.463 721.805 547.256 721.487 547.11C721.169 546.963 720.825 546.881 720.476 546.868C720.437 546.866 720.397 546.866 720.358 546.866L594.666 546.865Z" fill="#E6E6E6"/>
<path d="M665.307 194.123H636.337V165.152H631.508V194.123H602.538V198.951H631.508V227.922H636.337V198.951H665.307V194.123Z" fill="#536DFE"/>
<path d="M220.424 558.435C220.424 558.435 196.736 584.379 193.352 644.162C189.968 703.945 188.84 710.713 188.84 710.713H273.44L289.224 670.11L307.276 710.71H387.363C387.363 710.71 396.387 586.631 387.363 583.247C378.339 579.863 220.424 558.435 220.424 558.435Z" fill="#2F2E41"/>
<path d="M333.784 253.313C356.21 253.313 374.391 235.133 374.391 212.706C374.391 190.279 356.21 172.099 333.784 172.099C311.357 172.099 293.177 190.279 293.177 212.706C293.177 235.133 311.357 253.313 333.784 253.313Z" fill="#FFB8B8"/>
<path d="M509.187 559.567L447.148 446.767L411.048 388.112L453.915 368.935L477.603 415.183C477.603 415.183 509.187 461.43 517.082 499.783C524.977 538.136 532.874 556.183 532.874 556.183L509.187 559.567Z" fill="#FFB8B8"/>
<path d="M167.401 526.851L259.896 445.636L255.389 380.212H229.445L221.545 414.052L147.098 512.187L167.401 526.851Z" fill="#FFB8B8"/>
<path d="M286.971 273.056C286.971 273.056 320.471 287.1 345.455 269.926C345.455 269.926 406.537 279.826 409.921 283.208C413.305 286.59 406.537 388.108 406.537 388.108L393.003 445.638C393.003 445.638 412.179 533.621 383.979 556.181L389.619 586.637C389.619 586.637 264.413 595.661 214.781 565.205L223.803 534.747L247.491 438.868L232.827 305.768C232.827 305.768 244.103 275.312 286.971 273.056Z" fill="#E4E4E4"/>
<path d="M381.159 288.282L410.487 283.774C410.487 283.774 425.151 286.03 438.687 314.23C452.223 342.43 466.887 379.653 466.887 379.653L416.128 402.213L374.393 336.79L381.159 288.282Z" fill="#E4E4E4"/>
<path d="M239.598 300.127L232.83 305.767C232.83 305.767 223.806 338.479 223.806 361.038V391.494L264.414 396.006L239.598 300.127Z" fill="#E4E4E4"/>
<path d="M293.188 223.727C293.188 223.727 287.668 217.766 288.227 210.304C288.595 206.059 288.324 201.783 287.422 197.619C287.422 197.619 289.15 185.406 291.701 178.326C294.252 171.246 292.101 168.783 303.067 164.918C314.033 161.053 307.052 147.077 339.381 158.218C340.61 159.46 342.18 160.309 343.892 160.659C345.604 161.01 347.381 160.845 349 160.186C354.969 158 358.566 166.2 358.566 166.2C358.566 166.2 362.289 163.145 364.378 166.321C366.467 169.497 376.571 162.259 380.278 185.362C383.985 208.465 371.264 229.068 371.264 229.068C371.264 229.068 369.479 192.098 348.483 191.427C327.487 190.756 303.743 182.804 300.798 198.372C297.853 213.94 293.188 223.727 293.188 223.727Z" fill="#2F2E41"/>
<path d="M152.604 544.128C162.269 544.128 170.104 536.293 170.104 526.628C170.104 516.963 162.269 509.128 152.604 509.128C142.94 509.128 135.104 516.963 135.104 526.628C135.104 536.293 142.94 544.128 152.604 544.128Z" fill="#FFB8B8"/>
<path d="M26.4454 644.824L314.661 587.292L290.575 466.632L2.35938 524.161L26.4454 644.824Z" fill="white"/>
<path d="M317.02 588.868L24.872 647.188L0 522.588L292.148 464.271L317.02 588.868ZM28.02 642.468L312.304 585.721L289.001 468.988L4.718 525.737L28.02 642.468Z" fill="#E4E4E4"/>
<path d="M120.419 606.472L120.3 606.522C119.361 606.909 118.408 607.275 117.429 607.596C117.1 607.707 116.76 607.811 116.429 607.911C116.099 608.01 115.757 608.116 115.415 608.209C114.858 608.369 114.288 608.511 113.715 608.643C113.47 608.705 113.212 608.76 112.964 608.813L112.816 608.844C112.509 608.91 112.202 608.975 111.892 609.031L111.093 609.17C110.944 609.202 110.798 609.223 110.653 609.243C104.297 610.24 97.7973 609.784 91.6433 607.907C85.4893 606.031 79.8409 602.783 75.1227 598.41C70.4046 594.036 66.7395 588.649 64.4032 582.654C62.0669 576.66 61.1201 570.213 61.6341 563.8C62.148 557.387 64.1094 551.174 67.3706 545.628C70.6318 540.082 75.1079 535.348 80.4625 531.781C85.817 528.214 91.9106 525.908 98.2849 525.035C104.659 524.163 111.148 524.747 117.264 526.744C111.729 531.744 107.605 538.111 105.306 545.208C103.008 552.304 102.614 559.88 104.166 567.176C105.718 574.472 109.16 581.232 114.148 586.778C119.135 592.325 125.493 596.463 132.584 598.778C128.999 602.019 124.885 604.622 120.421 606.476L120.419 606.472Z" fill="#536DFE"/>
<path d="M181.261 584.828C183.121 585.76 185.048 586.552 187.027 587.196C181.488 592.215 174.718 595.677 167.407 597.232L166.872 597.346C160.489 598.627 153.897 598.427 147.604 596.761C141.311 595.095 135.483 592.007 130.571 587.735C125.658 583.463 121.791 578.121 119.266 572.12C116.742 566.119 115.629 559.619 116.011 553.12C116.393 546.621 118.262 540.296 121.472 534.633C124.682 528.969 129.149 524.118 134.529 520.451C139.909 516.785 146.058 514.402 152.503 513.485C158.948 512.568 165.518 513.142 171.707 515.163C166.547 519.8 162.602 525.63 160.215 532.143C157.828 538.657 157.073 545.656 158.016 552.528C158.958 559.401 161.57 565.938 165.622 571.569C169.674 577.199 175.043 581.751 181.261 584.828Z" fill="#536DFE"/>
<path d="M254.612 535.18C256.363 543.413 255.633 551.98 252.515 559.799C249.397 567.617 244.031 574.335 237.094 579.103C230.158 583.871 221.964 586.476 213.547 586.587C205.131 586.698 196.871 584.311 189.811 579.728C182.751 575.144 177.209 568.57 173.886 560.837C170.562 553.104 169.607 544.559 171.139 536.283C172.672 528.006 176.625 520.37 182.498 514.34C188.37 508.311 195.899 504.157 204.132 502.406C209.599 501.244 215.241 501.169 220.736 502.187C226.231 503.205 231.472 505.295 236.16 508.339C240.847 511.382 244.889 515.319 248.055 519.924C251.222 524.53 253.449 529.713 254.612 535.18Z" fill="#536DFE"/>
<path d="M236.791 573.156C237.193 575.04 237.403 576.96 237.418 578.886C232.732 582.166 227.434 584.47 221.839 585.66C216.244 586.849 210.466 586.901 204.851 585.812C204.081 584.047 203.492 582.207 203.093 580.323C201.01 570.531 204.238 561.194 210.516 556.97C207.528 556.4 204.83 554.814 202.879 552.481C200.928 550.147 199.845 547.211 199.813 544.17C199.781 541.129 200.803 538.17 202.704 535.796C204.606 533.423 207.27 531.78 210.245 531.147C213.219 530.515 216.322 530.931 219.024 532.325C221.727 533.72 223.864 536.007 225.073 538.798C226.281 541.589 226.487 544.712 225.654 547.637C224.822 550.562 223.003 553.109 220.506 554.846C227.962 556.149 234.708 563.364 236.791 573.156Z" fill="white"/>
<path d="M181.262 584.831L181.289 584.96C181.647 587.325 181.809 589.716 181.774 592.109C177.365 595.201 172.438 596.094 166.873 597.35L166.338 597.464C160.744 598.66 154.965 598.712 149.35 597.616C149.274 597.455 149.208 597.289 149.152 597.12C148.474 595.509 147.952 593.837 147.593 592.126C145.511 582.335 148.738 572.998 155.016 568.774C152.028 568.205 149.33 566.619 147.379 564.286C145.428 561.953 144.344 559.016 144.312 555.975C144.28 552.933 145.302 549.975 147.204 547.601C149.106 545.228 151.77 543.586 154.745 542.954C155.753 542.736 156.784 542.643 157.815 542.674C156.991 551.249 158.792 559.873 162.98 567.402C167.167 574.93 173.543 581.009 181.263 584.833L181.262 584.831Z" fill="white"/>
<path d="M127.872 596.921C128.21 598.617 128.386 600.342 128.398 602.071C125.029 604.435 121.335 606.295 117.431 607.594C117.102 607.705 116.761 607.809 116.431 607.909C116.1 608.009 115.759 608.114 115.417 608.207C114.86 608.368 114.29 608.509 113.717 608.641C113.6 608.677 113.472 608.704 113.353 608.729L112.818 608.843C112.51 608.908 112.203 608.974 111.894 609.029L111.095 609.169C110.946 609.2 110.799 609.221 110.654 609.242C105.737 610.036 100.718 609.953 95.8299 608.997C95.8171 608.976 95.8087 608.953 95.8054 608.929C95.7374 608.791 95.6792 608.647 95.6313 608.5C94.953 606.89 94.431 605.217 94.0726 603.507C91.9901 593.715 95.2178 584.379 101.496 580.155C98.5079 579.585 95.8094 577.999 93.8583 575.666C91.9072 573.333 90.8236 570.397 90.7917 567.355C90.7598 564.314 91.7815 561.355 93.6833 558.982C95.585 556.608 98.2496 554.966 101.225 554.334C101.939 554.181 102.664 554.089 103.394 554.059C102.506 562.862 104.388 571.723 108.776 579.406C113.164 587.089 119.839 593.211 127.872 596.92L127.872 596.921Z" fill="white"/>
<path d="M566.359 378.666C566.36 379.629 566.263 380.59 566.07 381.534C563.437 382.651 560.605 383.226 557.745 383.226C554.884 383.226 552.053 382.651 549.42 381.534C549.227 380.59 549.13 379.629 549.131 378.666C549.131 373.66 551.68 369.429 555.191 368.015C553.789 367.425 552.634 366.369 551.923 365.025C551.211 363.68 550.987 362.131 551.287 360.641C551.588 359.15 552.396 357.809 553.573 356.846C554.749 355.882 556.223 355.356 557.744 355.356C559.265 355.356 560.739 355.882 561.916 356.846C563.093 357.809 563.901 359.15 564.201 360.641C564.502 362.131 564.278 363.68 563.566 365.025C562.855 366.369 561.7 367.425 560.298 368.015C563.81 369.429 566.359 373.66 566.359 378.666Z" fill="#536DFE"/>
<path d="M566.359 465.653C566.36 466.616 566.263 467.577 566.07 468.521C563.437 469.638 560.605 470.213 557.745 470.213C554.884 470.213 552.053 469.638 549.42 468.521C549.227 467.577 549.13 466.616 549.131 465.653C549.131 460.647 551.68 456.416 555.191 455.002C553.789 454.412 552.634 453.356 551.923 452.012C551.211 450.668 550.987 449.118 551.287 447.628C551.588 446.137 552.396 444.796 553.573 443.833C554.749 442.869 556.223 442.343 557.744 442.343C559.265 442.343 560.739 442.869 561.916 443.833C563.093 444.796 563.901 446.137 564.201 447.628C564.502 449.118 564.278 450.668 563.566 452.012C562.855 453.356 561.7 454.412 560.298 455.002C563.81 456.416 566.359 460.647 566.359 465.653Z" fill="#536DFE"/>
<path d="M566.359 550.91C566.36 551.873 566.263 552.834 566.07 553.778C563.437 554.895 560.605 555.47 557.745 555.47C554.884 555.47 552.053 554.895 549.42 553.778C549.227 552.834 549.13 551.873 549.131 550.91C549.131 545.904 551.68 541.673 555.191 540.259C553.789 539.669 552.634 538.613 551.923 537.269C551.211 535.924 550.987 534.376 551.287 532.885C551.588 531.394 552.396 530.053 553.573 529.09C554.749 528.126 556.223 527.6 557.744 527.6C559.265 527.6 560.739 528.126 561.916 529.09C563.093 530.053 563.901 531.394 564.201 532.885C564.502 534.376 564.278 535.924 563.566 537.269C562.855 538.613 561.7 539.669 560.298 540.259C563.81 541.673 566.359 545.904 566.359 550.91Z" fill="#536DFE"/>
<path d="M522.105 580.128C530.941 580.128 538.105 572.964 538.105 564.128C538.105 555.291 530.941 548.128 522.105 548.128C513.268 548.128 506.104 555.291 506.104 564.128C506.104 572.964 513.268 580.128 522.105 580.128Z" fill="#FFB8B8"/>
</g>
<defs>
<clipPath id="clip0_607_29">
<rect width="810.572" height="710.713" fill="white"/>
</clipPath>
</defs>
</svg>
