<svg width="866" height="602" viewBox="0 0 866 602" fill="none" xmlns="http://www.w3.org/2000/svg">
<g clip-path="url(#clip0_617_2)">
<path d="M187.514 586.351H200.987L207.397 534.384L187.512 534.385L187.514 586.351Z" fill="#A0616A"/>
<path d="M184.074 581.953L210.607 581.951H210.608C215.093 581.952 219.393 583.733 222.564 586.904C225.735 590.075 227.517 594.376 227.517 598.86V599.41L184.075 599.411L184.074 581.953Z" fill="#2F2E41"/>
<path d="M276.514 586.351H289.987L296.397 534.384L276.512 534.385L276.514 586.351Z" fill="#A0616A"/>
<path d="M273.074 581.953L299.607 581.951H299.608C304.093 581.952 308.393 583.733 311.564 586.904C314.735 590.075 316.517 594.376 316.517 598.86V599.41L273.075 599.411L273.074 581.953Z" fill="#2F2E41"/>
<path d="M606.096 599.492H0V601.492H606.096V599.492Z" fill="#E6E6E6"/>
<path d="M176.23 575.082H211.131L233.438 379.759L274.452 575.082H298.001V342.166L186.037 308.658L176.23 575.082Z" fill="#2F2E41"/>
<path d="M235.741 136.801C252.55 136.801 266.177 123.175 266.177 106.365C266.177 89.5559 252.55 75.9293 235.741 75.9293C218.931 75.9293 205.305 89.5559 205.305 106.365C205.305 123.175 218.931 136.801 235.741 136.801Z" fill="#A0616A"/>
<path d="M188.489 313.562C221.147 339.102 257.195 351.976 298.001 347.069C280.767 286.558 275.655 226.505 292.28 167.274L257.955 151.746L219.372 149.294L191.33 157.542C187.385 158.704 183.931 161.13 181.501 164.447C179.07 167.764 177.798 171.788 177.879 175.899C178.869 226.413 175.51 273.686 188.489 313.562Z" fill="#E6E6E6"/>
<path d="M206.611 91.0597C209.539 85.5352 213.26 74.5249 219.17 72.4829C222.452 71.3947 225.844 70.672 229.284 70.3282L239.33 74.1918L233.863 69.9397C234.927 69.8762 235.991 69.8244 237.054 69.7841L243.832 72.3909L240.364 69.6939C246.683 69.6291 253.205 70.2861 258.102 74.1327C262.276 77.412 266.411 89.8345 267.08 95.1002C267.795 100.138 267.544 105.265 266.342 110.209L264.626 111.841C264.026 110.464 263.574 109.027 263.279 107.554C262.664 104.802 261.482 102.209 259.809 99.9392C258.136 97.6694 256.008 95.773 253.562 94.371L253.468 94.3183C250.59 92.6981 247.096 92.7728 243.795 92.8916L228.116 93.4558C224.344 93.5915 220.281 93.8302 217.341 96.1965C215.354 97.7945 214.164 100.153 213.032 102.438C211.571 105.387 208.715 116.512 208.715 116.512C208.715 116.512 207.1 114.412 206.325 115.975C205.084 111.897 204.329 107.686 204.076 103.431C203.829 99.1569 204.703 94.8923 206.611 91.0597Z" fill="#2F2E41"/>
<path d="M842.72 287.603H491.355C485.348 287.596 479.588 285.206 475.34 280.958C471.092 276.71 468.702 270.951 468.695 264.943V22.6597C468.702 16.652 471.092 10.8924 475.34 6.64432C479.588 2.39628 485.348 0.00677149 491.355 3.8147e-06H842.72C848.728 0.00677149 854.488 2.39628 858.736 6.64432C862.984 10.8924 865.373 16.652 865.38 22.6597V264.943C865.373 270.951 862.984 276.71 858.736 280.958C854.488 285.206 848.728 287.596 842.72 287.603ZM491.355 2C485.878 2.00621 480.627 4.18482 476.753 8.05791C472.88 11.931 470.702 17.1823 470.695 22.6597V264.943C470.702 270.42 472.88 275.672 476.753 279.545C480.627 283.418 485.878 285.596 491.355 285.603H842.72C848.198 285.596 853.449 283.418 857.322 279.545C861.195 275.672 863.374 270.42 863.38 264.943V22.6597C863.374 17.1823 861.195 11.931 857.322 8.05791C853.449 4.18482 848.198 2.00621 842.72 2H491.355Z" fill="#F0F0F0"/>
<path d="M431.695 307.943V65.6597C431.702 59.9172 433.986 54.4116 438.047 50.351C442.107 46.2904 447.613 44.0063 453.355 43.9998H804.72C810.463 44.0063 815.968 46.2904 820.029 50.351C824.089 54.4116 826.374 59.9172 826.38 65.6597V307.943C826.374 313.685 824.089 319.191 820.029 323.252C815.968 327.312 810.463 329.596 804.72 329.603H453.355C447.613 329.596 442.107 327.312 438.047 323.252C433.986 319.191 431.702 313.685 431.695 307.943Z" fill="#E4E4E4"/>
<path d="M445.516 308.369V65.2333C445.518 63.4631 446.222 61.7659 447.473 60.5142C448.725 59.2625 450.422 58.5584 452.193 58.5564H805.885C807.655 58.5584 809.352 59.2625 810.604 60.5142C811.855 61.7659 812.56 63.4631 812.562 65.2333V308.369C812.56 310.139 811.855 311.837 810.604 313.088C809.352 314.34 807.655 315.044 805.885 315.046H452.193C450.422 315.044 448.725 314.34 447.474 313.088C446.222 311.837 445.518 310.14 445.516 308.369Z" fill="white"/>
<path d="M588.027 379.776C593.463 379.776 597.87 375.369 597.87 369.933C597.87 364.496 593.463 360.09 588.027 360.09C582.59 360.09 578.184 364.496 578.184 369.933C578.184 375.369 582.59 379.776 588.027 379.776Z" fill="#E6E6E6"/>
<path d="M629.038 379.776C634.474 379.776 638.881 375.369 638.881 369.933C638.881 364.496 634.474 360.09 629.038 360.09C623.602 360.09 619.195 364.496 619.195 369.933C619.195 375.369 623.602 379.776 629.038 379.776Z" fill="#E6E6E6"/>
<path d="M670.05 379.776C675.486 379.776 679.893 375.369 679.893 369.933C679.893 364.496 675.486 360.09 670.05 360.09C664.614 360.09 660.207 364.496 660.207 369.933C660.207 375.369 664.614 379.776 670.05 379.776Z" fill="#E6E6E6"/>
<path d="M629.039 258.262C614.905 258.262 601.089 254.071 589.337 246.219C577.586 238.367 568.427 227.206 563.018 214.148C557.609 201.09 556.194 186.722 558.951 172.86C561.709 158.998 568.515 146.265 578.508 136.271C588.502 126.277 601.235 119.471 615.097 116.714C628.959 113.956 643.328 115.372 656.386 120.78C669.443 126.189 680.604 135.348 688.456 147.1C696.308 158.851 700.499 172.668 700.499 186.801C700.478 205.747 692.942 223.911 679.545 237.308C666.149 250.705 647.985 258.241 629.039 258.262Z" fill="#536DFE"/>
<path d="M657.235 179.752H636.088V158.605C636.085 156.737 635.341 154.947 634.019 153.628C632.697 152.308 630.906 151.567 629.039 151.567C627.171 151.567 625.38 152.308 624.058 153.628C622.737 154.947 621.993 156.737 621.99 158.605V179.752H600.842C598.974 179.755 597.185 180.499 595.865 181.821C594.546 183.143 593.805 184.934 593.805 186.801C593.805 188.669 594.546 190.46 595.865 191.782C597.185 193.103 598.974 193.847 600.842 193.851H621.99V214.998C621.993 216.866 622.737 218.656 624.058 219.975C625.38 221.294 627.171 222.035 629.039 222.035C630.906 222.035 632.697 221.294 634.019 219.975C635.341 218.656 636.085 216.866 636.088 214.998V193.851H657.235C658.161 193.853 659.079 193.672 659.936 193.32C660.792 192.967 661.571 192.449 662.227 191.795C662.883 191.141 663.404 190.365 663.76 189.51C664.116 188.654 664.3 187.737 664.301 186.811C664.302 185.885 664.121 184.967 663.767 184.111C663.414 183.255 662.895 182.477 662.241 181.821C661.586 181.166 660.809 180.646 659.954 180.291C659.098 179.936 658.181 179.753 657.255 179.752H657.235Z" fill="white"/>
<path d="M108.429 539.818C106.874 529.797 103.842 520.062 99.4307 510.931L98.7876 509.601L94.0112 514.897L97.5503 507.009L97.3188 506.551C94.1958 500.369 90.7347 494.364 86.9511 488.562L86.2495 487.488L85.3135 488.526L85.9688 487.065L85.6406 486.572C80.9546 479.544 77.3545 475.098 77.3189 475.054L76.3008 473.801L75.646 475.295C75.5259 475.568 63.627 502.987 62.0508 530.081L62.0259 530.503L70.0342 540.183L61.8672 535.056L61.8813 536.917C61.9062 540.101 62.1229 543.281 62.5303 546.439C62.8899 549.156 63.3133 551.808 63.8003 554.396C64.5723 554.42 65.3232 554.654 65.9719 555.074C65.4078 552.182 64.9212 549.21 64.5123 546.158C64.1968 543.721 63.9981 541.245 63.919 538.777L79.7159 548.695L64.0723 529.786C65.4966 506.879 74.3369 483.8 76.8189 477.708C78.1509 479.436 80.6636 482.789 83.6695 487.269L78.2051 499.451L85.9956 490.813C89.3732 496.071 92.4844 501.495 95.3174 507.065L86.9029 525.823L98.2799 513.207C102.254 521.752 105.004 530.815 106.451 540.127C108.442 555.168 108.053 569.617 105.356 580.813C102.773 591.538 98.2193 598.13 92.8634 598.901C91.761 599.053 90.6395 598.986 89.563 598.704C88.6997 599.318 87.6609 599.635 86.6022 599.608H86.3101C87.9715 600.53 89.8339 601.03 91.7338 601.065C92.2032 601.065 92.672 601.031 93.1366 600.964C99.4335 600.059 104.462 593.083 107.296 581.321C110.054 569.872 110.457 555.141 108.429 539.818Z" fill="#E6E6E6"/>
<path d="M90.8032 600.274C82.5664 600.274 70.6904 595.743 58.9111 587.495C57.1773 586.271 55.5217 584.94 53.9541 583.509L52.6348 582.304L57.623 580.868L50.9809 580.624L50.7007 580.33C38.2505 567.291 30.5029 548.873 30.4258 548.69L29.8203 547.235L31.3945 547.306C31.5513 547.313 35.2939 547.49 40.9189 548.287L41.2695 548.337V548.334L42.5029 548.522C47.0962 549.22 51.6466 550.176 56.1323 551.386L56.6113 551.516L58.1079 555.203L57.8809 551.896L59.254 552.292C65.7617 554.171 71.9428 557.037 77.5816 560.789C95.4952 573.333 105.407 589.011 100.168 596.494C98.3764 599.051 95.0795 600.273 90.8032 600.274ZM56.6601 583.226C57.7543 584.153 58.893 585.035 60.061 585.858C76.4677 597.347 94.084 601.692 98.5287 595.347C102.973 589.001 92.8632 573.932 76.454 562.442C71.3916 559.074 65.8762 556.443 60.0732 554.627L60.9604 567.544L55.1323 553.189C51.2939 552.17 47.3671 551.332 43.436 550.693L44.08 560.068L40.0688 550.188C36.9608 549.761 34.4555 549.53 32.9316 549.411C35.0092 553.974 41.8744 568.063 51.8681 578.656L70.1982 579.327L56.6601 583.226Z" fill="#E6E6E6"/>
<path d="M207.634 333.514C207.627 331.989 207.285 330.484 206.634 329.105C205.982 327.726 205.036 326.507 203.862 325.533C202.688 324.559 201.315 323.855 199.84 323.469C198.364 323.083 196.822 323.026 195.322 323.301L177.056 291.039L169.52 306.486L186.976 336.199C187.604 338.689 189.124 340.861 191.248 342.305C193.371 343.749 195.951 344.363 198.497 344.032C201.044 343.701 203.38 342.448 205.064 340.509C206.748 338.571 207.662 336.082 207.634 333.514Z" fill="#A0616A"/>
<path d="M289.305 369.379C288.584 368.035 288.167 366.549 288.082 365.027C287.998 363.504 288.248 361.981 288.816 360.565C289.383 359.15 290.255 357.876 291.368 356.833C292.481 355.791 293.809 355.005 295.259 354.531L295.934 317.464L311.821 328.361L308.745 361.89C309.379 364.378 309.078 367.013 307.9 369.294C306.722 371.576 304.748 373.346 302.351 374.269C299.955 375.192 297.304 375.204 294.899 374.303C292.495 373.402 290.504 371.65 289.305 369.379Z" fill="#A0616A"/>
<path d="M178.685 329.09L191.761 316.831L185.05 250.633L192.814 157.058C175.949 162.359 157.84 176.597 154.857 194.023L144.188 256.354L178.685 329.09Z" fill="#E6E6E6"/>
<path opacity="0.2" d="M186.273 215.083L175.648 257.58L191.757 317.884L181.369 260.849L186.273 215.083Z" fill="black"/>
<path d="M291.464 351.973L312.712 354.424L307.737 196.64C307.515 189.59 305.267 182.753 301.262 176.946C297.257 171.139 291.665 166.609 285.154 163.896L277.57 160.736L279.613 234.697L291.464 351.973Z" fill="#E6E6E6"/>
<path opacity="0.2" d="M283.51 237.114L291.711 328.176L277.824 237.749L283.51 237.114Z" fill="black"/>
</g>
<defs>
<clipPath id="clip0_617_2">
<rect width="865.381" height="601.492" fill="white"/>
</clipPath>
</defs>
</svg>
