<svg width="24" height="24" viewBox="0 0 24 24" fill="none" xmlns="http://www.w3.org/2000/svg">
<path d="M18 13V11H22V13H18ZM19.2 20L16 17.6L17.2 16L20.4 18.4L19.2 20ZM17.2 8L16 6.4L19.2 4L20.4 5.6L17.2 8ZM5 19V15H4C3.45 15 2.97933 14.804 2.588 14.412C2.196 14.0207 2 13.55 2 13V11C2 10.45 2.196 9.979 2.588 9.587C2.97933 9.19567 3.45 9 4 9H8L13 6V18L8 15H7V19H5ZM14 15.35V8.65C14.45 9.05 14.8127 9.53767 15.088 10.113C15.3627 10.6877 15.5 11.3167 15.5 12C15.5 12.6833 15.3627 13.3123 15.088 13.887C14.8127 14.4623 14.45 14.95 14 15.35Z" fill="black" fill-opacity="0.5"/>
</svg>
