<svg width="32" height="32" viewBox="0 0 32 32" fill="none" xmlns="http://www.w3.org/2000/svg">
<path d="M16 2C13.0837 2.00344 10.2878 3.16347 8.22564 5.22563C6.16348 7.28778 5.00345 10.0837 5.00001 13C4.99652 15.3832 5.77499 17.7018 7.21601 19.6C7.21601 19.6 7.51601 19.995 7.56501 20.052L16 30L24.439 20.047C24.483 19.994 24.784 19.6 24.784 19.6L24.785 19.597C26.2253 17.6996 27.0034 15.3821 27 13C26.9966 10.0837 25.8365 7.28778 23.7744 5.22563C21.7122 3.16347 18.9163 2.00344 16 2ZM17 18H15V16H17V18ZM17 14H15V12H17V14ZM21 18H19V10H13V18H11V10C11.0005 9.46973 11.2114 8.96133 11.5864 8.58637C11.9613 8.21141 12.4697 8.00053 13 8H19C19.5303 8.00053 20.0387 8.21141 20.4136 8.58637C20.7886 8.96133 20.9995 9.46973 21 10V18Z" fill="black" fill-opacity="0.5"/>
</svg>
