<svg width="104" height="104" viewBox="0 0 104 104" fill="none" xmlns="http://www.w3.org/2000/svg">
<path d="M38.9993 60.6667C38.9993 49.8334 42.791 40.625 50.3743 33.0417C57.9577 25.4584 67.166 21.6667 77.9993 21.6667V30.3334C69.5493 30.3334 62.382 33.2757 56.4973 39.1604C50.6098 45.0479 47.666 52.2167 47.666 60.6667H38.9993ZM56.3327 60.6667C56.3327 54.6722 58.4459 49.5618 62.6723 45.3354C66.8959 41.1118 72.0049 39 77.9993 39V47.6667C74.3882 47.6667 71.3188 48.9306 68.791 51.4584C66.2632 53.9861 64.9993 57.0556 64.9993 60.6667H56.3327ZM21.666 26C19.2827 26 17.2417 25.1507 15.543 23.452C13.8472 21.7562 12.9993 19.7167 12.9993 17.3334C12.9993 14.95 13.8472 12.909 15.543 11.2104C17.2417 9.51458 19.2827 8.66669 21.666 8.66669C24.0493 8.66669 26.0889 9.51458 27.7847 11.2104C29.4833 12.909 30.3327 14.95 30.3327 17.3334C30.3327 19.7167 29.4833 21.7562 27.7847 23.452C26.0889 25.1507 24.0493 26 21.666 26ZM8.66602 47.6667V36.8334C8.66602 35.0278 9.29868 33.4938 10.564 32.2314C11.8265 30.966 13.3605 30.3334 15.166 30.3334H28.166C31.416 30.3334 34.2153 29.3035 36.564 27.2437C38.9098 25.1868 40.3716 22.6056 40.9493 19.5H49.616C49.1827 23.8334 47.5938 27.6611 44.8493 30.9834C42.1049 34.3056 38.7105 36.6167 34.666 37.9167V47.6667H8.66602ZM82.3327 73.6667C79.9493 73.6667 77.9083 72.8188 76.2097 71.123C74.5139 69.4244 73.666 67.3834 73.666 65C73.666 62.6167 74.5139 60.5757 76.2097 58.877C77.9083 57.1812 79.9493 56.3334 82.3327 56.3334C84.716 56.3334 86.757 57.1812 88.4557 58.877C90.1515 60.5757 90.9993 62.6167 90.9993 65C90.9993 67.3834 90.1515 69.4244 88.4557 71.123C86.757 72.8188 84.716 73.6667 82.3327 73.6667ZM69.3327 95.3333V85.5834C65.2882 84.2833 61.8938 81.9722 59.1493 78.65C56.4049 75.3278 54.816 71.5 54.3827 67.1667H63.0493C63.6271 70.2722 65.0889 72.8549 67.4347 74.9147C69.7833 76.9716 72.5827 78 75.8327 78H88.8327C90.6382 78 92.1722 78.6327 93.4347 79.898C94.7 81.1605 95.3327 82.6945 95.3327 84.5V95.3333H69.3327Z" fill="black" fill-opacity="0.5"/>
</svg>
