<svg width="466" height="379" viewBox="0 0 466 379" fill="none" xmlns="http://www.w3.org/2000/svg">
<g clip-path="url(#clip0_606_44)">
<path d="M466 37.9359V341.064C466 362.018 446.962 379 423.472 379H42.5284C19.0376 379 0 362.018 0 341.064V37.9359C0 16.9817 19.0376 0 42.5284 0H423.472C446.962 0 466 16.9817 466 37.9359Z" fill="#F2F2F2"/>
<path d="M155.404 378L182.669 372.09L214.261 365.235C214.261 365.235 215.972 370.469 218.372 378H155.404Z" fill="#2F2E41"/>
<path d="M224.422 374.605C224.422 374.605 224.167 375.97 223.644 378H96.3561C94.952 373.724 94.3266 369.32 95.9987 365.682C96.2799 365.047 96.6355 364.447 97.0581 363.895C97.3713 363.461 97.7215 363.056 98.1048 362.683C100.607 360.206 102.138 354.871 103.057 348.795C104.161 340.486 104.617 332.105 104.423 323.725C104.436 323.713 104.436 323.713 104.423 323.713C104.398 321.734 104.347 320.547 104.347 320.547C104.347 320.547 103.862 313.233 103.313 302.179C103.326 302.179 103.313 302.166 103.313 302.166C101.807 272.335 99.7642 215.227 105.061 200.088C105.399 198.812 106.084 197.655 107.04 196.744C114.171 191.597 121.76 187.115 129.71 183.354C130.169 183.15 130.412 183.035 130.412 183.035L147.886 182.703L169.586 178.874L184.661 176.116C184.661 176.116 185.771 176.193 187.507 176.436C193.277 177.227 205.965 179.818 207.752 187.324C207.752 187.337 207.765 187.349 207.765 187.362C207.991 188.346 208.03 189.363 207.88 190.362C206.169 202.871 218.244 279.7 221.921 283.543C225.597 287.385 224.627 301.426 215.538 310.348C213.937 311.998 212.77 314.02 212.143 316.232C208.709 327.274 214.096 345.31 219.368 353.747C223.198 359.998 224.966 367.294 224.422 374.605Z" fill="#3F3D56"/>
<path d="M293.935 128.986L293.569 115.629L293.079 97.717L278.799 97.057L276.801 114.854L274.938 131.392L293.935 128.986Z" fill="#A0616A"/>
<path d="M147.67 185.543L167.703 207.042C167.703 207.042 252.584 220.751 253.152 213.553C253.72 206.354 248.129 204.269 257.294 204.909C266.459 205.549 268.662 212.06 270.059 205.833C271.455 199.605 263.771 199.452 272.668 198.57C281.566 197.687 301 120 301 120L270 125C270 125 263.975 162.562 260.196 167.362C256.418 172.162 252.627 175.607 250.296 175.815C247.965 176.022 147.67 185.543 147.67 185.543Z" fill="#3F3D56"/>
<path d="M159.158 157.748C175.411 157.748 188.587 144.572 188.587 128.318C188.587 112.065 175.411 98.8888 159.158 98.8888C142.905 98.8888 129.729 112.065 129.729 128.318C129.729 144.572 142.905 157.748 159.158 157.748Z" fill="#A0616A"/>
<path d="M136.224 153.664L147.891 155.898C147.891 155.898 137.041 138.385 137.68 130.369C138.318 122.352 147.049 119.48 147.049 119.48C147.049 119.48 151.886 120.527 156.979 121.114C157.589 119.397 158.381 117.749 159.341 116.2C159.53 118.2 160.415 120.071 161.843 121.485C163.709 121.645 165.589 121.428 167.37 120.846C169.387 119.927 169.348 118.332 168.684 116.838C178.398 117.31 187.601 122.033 187.601 122.033C187.895 118.115 187.745 114.175 187.155 110.29C186.874 110.213 186.593 110.124 186.312 110.035C184.573 109.484 182.895 108.753 181.309 107.852C183.075 107.618 184.725 106.842 186.031 105.631C184.959 102.491 183.249 99.7721 180.556 98.4446C177.957 97.1738 175.116 96.4762 172.224 96.3991C169.333 96.322 166.458 96.8673 163.796 97.9979C163.796 97.9979 170.038 93.4409 167.74 91.5773C167.587 91.7305 167.434 91.8709 167.268 92.0113C167.051 92.1899 166.808 92.3814 166.578 92.5602C165.162 93.7089 163.043 92.0879 162.762 90.3519C162.732 90.1326 162.689 89.9153 162.634 89.7009C162.596 89.5222 162.545 89.3435 162.494 89.1775C162.45 89.0303 162.399 88.8854 162.34 88.7435C158.09 87.7223 145.236 91.8708 140.296 101.01C140.296 101.01 105.768 117.604 136.224 153.664Z" fill="#3F3D56"/>
<path d="M122.115 378H105.623L105.061 377.068L97.0576 363.895L92.6406 356.619L103.057 348.795L107.959 345.119L118.77 370.226L122.115 378Z" fill="#A0616A"/>
<path d="M129.715 183.354L170.868 278.437L187.512 176.436C185.776 176.193 184.666 176.117 184.666 176.117L177.582 162.356L137.003 164.463L130.417 183.035C130.417 183.035 130.174 183.15 129.715 183.354Z" fill="#536DFE"/>
<path d="M183.856 378H151.447L172.139 319.283L182.669 372.09L183.856 378Z" fill="#536DFE"/>
<path opacity="0.5" d="M380.903 197.816H287.744C272.974 197.816 261 209.789 261 224.56V258.24C261 273.01 272.974 284.984 287.744 284.984H380.903C395.674 284.984 407.648 273.01 407.648 258.24V224.56C407.648 209.789 395.674 197.816 380.903 197.816Z" fill="white"/>
<path d="M380.903 285.983H287.744C280.389 285.975 273.337 283.049 268.135 277.848C262.934 272.647 260.008 265.595 260 258.239V224.56C260.008 217.204 262.934 210.152 268.135 204.951C273.337 199.75 280.389 196.824 287.744 196.815H380.903C388.259 196.824 395.311 199.75 400.512 204.951C405.713 210.152 408.639 217.204 408.647 224.56V258.239C408.639 265.595 405.713 272.647 400.512 277.848C395.311 283.049 388.259 285.975 380.903 285.983ZM287.744 198.815C280.919 198.823 274.375 201.538 269.549 206.364C264.723 211.191 262.008 217.734 262 224.56V258.239C262.008 265.065 264.723 271.608 269.549 276.435C274.375 281.261 280.919 283.976 287.744 283.983H380.903C387.729 283.976 394.272 281.261 399.099 276.435C403.925 271.608 406.64 265.065 406.647 258.239V224.56C406.64 217.734 403.925 211.191 399.099 206.364C394.272 201.538 387.729 198.823 380.903 198.815L287.744 198.815Z" fill="white"/>
<path d="M334.203 266.095C346 266.095 355.563 256.532 355.563 244.735C355.563 232.939 346 223.376 334.203 223.376C322.407 223.376 312.844 232.939 312.844 244.735C312.844 256.532 322.407 266.095 334.203 266.095Z" fill="#A0616A"/>
<path d="M338.888 265.974C336.265 260.127 350.474 247.995 341.37 247.38C341.37 247.38 335.385 236.888 331.585 239.701C327.185 242.958 320.774 237.042 317.007 233.084C317.809 232.437 318.528 231.695 319.149 230.873C317.951 231.092 316.739 231.22 315.522 231.253C315.071 230.585 314.755 229.834 314.593 229.044C314.416 228.297 314.473 227.513 314.754 226.798C315.036 226.084 315.53 225.472 316.169 225.047C317.549 224.277 319.313 224.747 320.788 224.195C320.972 224.105 321.132 223.972 321.253 223.807C321.375 223.642 321.454 223.45 321.485 223.247C321.596 222.77 321.81 222.324 322.113 221.939C322.416 221.555 322.8 221.242 323.238 221.023C323.676 220.803 324.156 220.684 324.646 220.672C325.135 220.659 325.621 220.755 326.069 220.953C326.24 221.05 326.432 221.103 326.629 221.108C327.657 221.043 328.674 220.855 329.658 220.549C328.554 220.033 327.491 219.433 326.478 218.755C326.269 218.614 326.061 218.472 325.857 218.323C326.774 217.578 327.842 217.039 328.986 216.745C330.131 216.451 331.325 216.407 332.488 216.617C334.927 217.091 337.278 217.94 339.457 219.133C340.749 219.762 342.037 220.39 343.323 221.016C346.1 222.239 348.739 223.751 351.197 225.529C353.761 227.544 355.849 230.101 357.311 233.017C358.772 235.933 359.572 239.135 359.652 242.396C359.77 248.901 354.205 266.726 338.888 265.974Z" fill="#2F2E41"/>
<path opacity="0.5" d="M207.256 282.832H114.097C99.3263 282.832 87.3525 294.806 87.3525 309.576V343.256C87.3525 358.026 99.3263 370 114.097 370H207.256C222.026 370 234 358.026 234 343.256V309.576C234 294.806 222.026 282.832 207.256 282.832Z" fill="white"/>
<path d="M207.256 371H114.097C106.741 370.992 99.6891 368.066 94.4878 362.865C89.2866 357.663 86.3609 350.612 86.3525 343.256V309.576C86.3609 302.221 89.2866 295.169 94.4878 289.967C99.6891 284.766 106.741 281.84 114.097 281.832H207.256C214.612 281.84 221.664 284.766 226.865 289.967C232.066 295.169 234.992 302.221 235 309.576V343.256C234.992 350.612 232.066 357.663 226.865 362.865C221.663 368.066 214.612 370.992 207.256 371ZM114.097 283.832C107.271 283.84 100.728 286.555 95.9014 291.381C91.0751 296.207 88.3603 302.751 88.3525 309.576V343.256C88.3603 350.081 91.0751 356.625 95.9014 361.451C100.728 366.277 107.271 368.992 114.097 369H207.256C214.081 368.992 220.625 366.277 225.451 361.451C230.277 356.625 232.992 350.081 233 343.256V309.576C232.992 302.751 230.277 296.207 225.451 291.381C220.625 286.555 214.081 283.84 207.256 283.832H114.097Z" fill="white"/>
<path d="M162.107 354.216C174.093 354.216 183.809 344.499 183.809 332.513C183.809 320.527 174.093 310.811 162.107 310.811C150.121 310.811 140.404 320.527 140.404 332.513C140.404 344.499 150.121 354.216 162.107 354.216Z" fill="#FFB6B6"/>
<path d="M147.969 338.089C147.699 337.998 147.413 337.967 147.13 337.996C146.846 338.025 146.573 338.115 146.327 338.259C146.082 338.404 145.87 338.599 145.706 338.832C145.542 339.065 145.431 339.331 145.378 339.61C145.307 340.185 145.353 340.769 145.515 341.325C145.677 341.881 145.951 342.398 146.319 342.845C147.06 343.732 147.724 344.681 148.304 345.681C148.587 346.187 148.72 346.763 148.687 347.342C148.653 347.921 148.455 348.478 148.116 348.948C147.746 349.308 147.282 349.555 146.777 349.662C146.272 349.768 145.747 349.729 145.264 349.55C144.301 349.173 143.449 348.558 142.79 347.762C138.641 343.261 134.313 335.788 136.434 330.045C136.61 329.431 136.68 328.792 136.641 328.154C136.681 327.424 136.817 326.323 136.128 326.074C134.208 325.381 139.597 314.154 147.915 311.712C147.509 307.879 167.52 302.365 166.428 307.177C166.232 308.041 168.164 307.572 169.049 307.62C175.838 307.987 183.506 309.693 182.888 317.562C182.648 320.61 183.909 319.907 184.921 322.791C183.344 323.731 182.827 325.792 181.612 324.417C180.396 323.041 179.358 321.318 177.616 320.741C175.761 320.125 173.748 321.046 172.166 322.193C170.584 323.34 169.132 324.766 167.272 325.367C165.186 326.041 162.912 325.572 160.737 325.845C157.634 326.377 154.832 328.023 152.856 330.474C150.909 332.911 149.265 335.576 147.961 338.41" fill="#2F2E41"/>
<path d="M135.765 196.508L106.406 197.784C106.406 197.784 63.0071 271.819 68.1129 276.924C73.2187 282.03 78.4348 279.132 71.9974 285.687C65.56 292.242 59.1778 289.689 63.0071 294.795C66.8365 299.901 71.9423 294.155 66.8365 301.495C61.7307 308.836 103.215 378 103.215 378L121.086 369.065C121.086 369.065 103.696 323.369 102.498 317.379C101.301 311.389 101.143 306.269 102.498 304.361C103.854 302.453 135.765 196.508 135.765 196.508Z" fill="#3F3D56"/>
<path d="M286.117 219.776C289.919 219.776 293 216.695 293 212.893C293 209.092 289.919 206.01 286.117 206.01C282.316 206.01 279.234 209.092 279.234 212.893C279.234 216.695 282.316 219.776 286.117 219.776Z" fill="#536DFE"/>
<path d="M285.178 216.476C285.059 216.476 284.942 216.448 284.835 216.395C284.729 216.341 284.637 216.264 284.565 216.169L282.687 213.665C282.626 213.585 282.582 213.493 282.556 213.396C282.531 213.298 282.525 213.196 282.539 213.096C282.553 212.996 282.586 212.9 282.637 212.813C282.689 212.726 282.757 212.65 282.838 212.589C282.918 212.529 283.01 212.485 283.108 212.46C283.206 212.435 283.308 212.43 283.408 212.444C283.508 212.459 283.604 212.493 283.69 212.545C283.777 212.597 283.852 212.666 283.912 212.747L285.141 214.385L288.296 209.652C288.409 209.483 288.584 209.365 288.783 209.326C288.982 209.286 289.189 209.327 289.358 209.439C289.527 209.552 289.644 209.727 289.684 209.926C289.724 210.125 289.683 210.332 289.57 210.501L285.815 216.135C285.747 216.236 285.656 216.321 285.548 216.38C285.441 216.439 285.321 216.472 285.199 216.475L285.178 216.476Z" fill="white"/>
<path d="M118.117 305.776C121.919 305.776 125 302.695 125 298.893C125 295.092 121.919 292.01 118.117 292.01C114.316 292.01 111.234 295.092 111.234 298.893C111.234 302.695 114.316 305.776 118.117 305.776Z" fill="#536DFE"/>
<path d="M117.178 302.475C117.059 302.475 116.942 302.448 116.835 302.395C116.729 302.341 116.637 302.264 116.565 302.169L114.687 299.665C114.626 299.585 114.582 299.493 114.556 299.396C114.531 299.298 114.525 299.196 114.539 299.096C114.553 298.996 114.586 298.9 114.637 298.813C114.689 298.726 114.757 298.65 114.838 298.589C114.918 298.529 115.01 298.485 115.108 298.46C115.206 298.435 115.308 298.43 115.408 298.444C115.508 298.459 115.604 298.493 115.69 298.545C115.777 298.597 115.852 298.665 115.912 298.747L117.141 300.385L120.296 295.652C120.352 295.568 120.424 295.496 120.507 295.44C120.591 295.384 120.685 295.345 120.783 295.326C120.882 295.306 120.983 295.306 121.082 295.325C121.181 295.345 121.274 295.384 121.358 295.439C121.442 295.495 121.514 295.567 121.569 295.65C121.625 295.734 121.664 295.828 121.684 295.926C121.704 296.025 121.704 296.126 121.684 296.225C121.665 296.324 121.626 296.417 121.57 296.501L117.815 302.134C117.747 302.236 117.655 302.321 117.548 302.38C117.441 302.439 117.321 302.472 117.199 302.475L117.178 302.475Z" fill="white"/>
<path d="M385.117 223.45C383.773 223.45 382.459 223.052 381.341 222.305C380.224 221.559 379.353 220.497 378.839 219.255C378.324 218.014 378.19 216.647 378.452 215.329C378.714 214.011 379.361 212.8 380.312 211.85C381.262 210.899 382.473 210.252 383.791 209.99C385.109 209.728 386.476 209.862 387.717 210.377C388.959 210.891 390.021 211.762 390.767 212.879C391.514 213.997 391.913 215.311 391.912 216.655C391.912 218.457 391.197 220.186 389.922 221.46C388.648 222.735 386.919 223.45 385.117 223.45Z" fill="#E6E6E6"/>
<path d="M387.487 218.077L386.065 216.655L387.487 215.233C387.55 215.171 387.6 215.097 387.634 215.015C387.668 214.934 387.686 214.846 387.686 214.758C387.687 214.67 387.669 214.582 387.636 214.5C387.602 214.419 387.553 214.344 387.49 214.282C387.428 214.219 387.353 214.17 387.272 214.136C387.19 214.103 387.102 214.085 387.014 214.086C386.926 214.086 386.838 214.104 386.757 214.138C386.675 214.172 386.601 214.222 386.539 214.285L385.117 215.707L383.695 214.285C383.569 214.16 383.399 214.09 383.221 214.09C383.044 214.09 382.874 214.161 382.748 214.286C382.623 214.412 382.552 214.582 382.552 214.759C382.552 214.937 382.622 215.107 382.747 215.233L384.169 216.655L382.747 218.077C382.684 218.139 382.634 218.213 382.6 218.294C382.566 218.376 382.548 218.463 382.548 218.552C382.548 218.64 382.565 218.728 382.598 218.809C382.632 218.891 382.682 218.965 382.744 219.028C382.807 219.09 382.881 219.14 382.963 219.174C383.044 219.207 383.132 219.224 383.22 219.224C383.309 219.224 383.396 219.206 383.478 219.172C383.559 219.138 383.633 219.088 383.695 219.025L385.117 217.603L386.539 219.025C386.601 219.087 386.675 219.137 386.757 219.171C386.838 219.205 386.925 219.223 387.014 219.223C387.102 219.223 387.189 219.205 387.271 219.172C387.352 219.138 387.426 219.089 387.488 219.026C387.551 218.964 387.6 218.89 387.634 218.808C387.668 218.727 387.685 218.64 387.685 218.551C387.685 218.463 387.667 218.376 387.633 218.294C387.599 218.213 387.55 218.139 387.487 218.077Z" fill="white"/>
<path d="M209.117 305.451C207.773 305.451 206.459 305.052 205.341 304.305C204.224 303.559 203.353 302.497 202.839 301.255C202.324 300.014 202.19 298.647 202.452 297.329C202.714 296.011 203.361 294.8 204.312 293.85C205.262 292.899 206.473 292.252 207.791 291.99C209.109 291.728 210.476 291.862 211.717 292.377C212.959 292.891 214.021 293.762 214.767 294.879C215.514 295.997 215.913 297.311 215.912 298.655C215.912 300.457 215.197 302.186 213.922 303.46C212.648 304.735 210.919 305.451 209.117 305.451Z" fill="#E6E6E6"/>
<path d="M211.487 300.077L210.065 298.655L211.487 297.233C211.612 297.107 211.681 296.937 211.681 296.76C211.68 296.583 211.609 296.413 211.484 296.288C211.359 296.163 211.189 296.092 211.012 296.091C210.835 296.091 210.665 296.16 210.539 296.285L209.117 297.707L207.695 296.285C207.569 296.16 207.399 296.09 207.221 296.09C207.044 296.09 206.874 296.161 206.748 296.286C206.623 296.412 206.552 296.582 206.552 296.759C206.552 296.937 206.622 297.107 206.747 297.233L208.169 298.655L206.747 300.077C206.684 300.139 206.634 300.213 206.6 300.294C206.566 300.376 206.548 300.463 206.548 300.552C206.548 300.64 206.565 300.728 206.598 300.809C206.632 300.891 206.682 300.965 206.744 301.028C206.807 301.09 206.881 301.14 206.963 301.174C207.044 301.207 207.132 301.224 207.22 301.224C207.309 301.224 207.396 301.206 207.478 301.172C207.559 301.138 207.633 301.088 207.695 301.025L209.117 299.603L210.539 301.025C210.665 301.15 210.835 301.22 211.013 301.22C211.19 301.22 211.36 301.149 211.486 301.024C211.611 300.898 211.682 300.728 211.682 300.551C211.682 300.373 211.612 300.203 211.487 300.077Z" fill="white"/>
<path d="M286 103C292.627 103 298 97.6274 298 91C298 84.3726 292.627 79 286 79C279.373 79 274 84.3726 274 91C274 97.6274 279.373 103 286 103Z" fill="#A0616A"/>
<path opacity="0.5" d="M380.579 87.7994H287.42C272.65 87.7994 260.676 99.7732 260.676 114.544V148.223C260.676 162.994 272.65 174.968 287.42 174.968H380.579C395.35 174.968 407.323 162.994 407.323 148.223V114.544C407.323 99.7732 395.35 87.7994 380.579 87.7994Z" fill="white"/>
<path d="M380.58 175.968H287.42C280.064 175.959 273.012 173.034 267.811 167.832C262.61 162.631 259.684 155.579 259.676 148.224V114.543C259.684 107.188 262.61 100.136 267.811 94.9346C273.012 89.7334 280.064 86.8077 287.42 86.7993H380.58C387.936 86.8077 394.988 89.7334 400.189 94.9346C405.39 100.136 408.316 107.188 408.324 114.543V148.224C408.316 155.579 405.39 162.631 400.189 167.832C394.988 173.034 387.936 175.959 380.58 175.968ZM287.42 88.7993C280.595 88.8071 274.051 91.5219 269.225 96.3481C264.398 101.174 261.684 107.718 261.676 114.543V148.224C261.684 155.049 264.398 161.593 269.225 166.419C274.051 171.245 280.595 173.96 287.42 173.968H380.58C387.405 173.96 393.949 171.245 398.775 166.419C403.602 161.593 406.316 155.049 406.324 148.224V114.543C406.316 107.718 403.602 101.174 398.775 96.3481C393.949 91.5219 387.405 88.8071 380.58 88.7993H287.42Z" fill="white"/>
<path d="M361.833 133.886C361.895 139.483 363.676 151.136 362.399 156.618L362.193 156.16C361.131 157.001 360.004 157.755 358.821 158.415C357.968 156.34 356.692 154.465 355.074 152.91C355.287 155.483 354.983 158.072 354.179 160.526C349.4 162.246 341.012 156.825 335.813 156.71C327.448 156.519 319.297 154.439 311.306 152.237C308.47 151.457 305.35 150.44 304.066 148.085C302.781 145.73 305.08 143.188 304.929 140.53C303.858 121.601 312.874 118.429 321.453 113.371C323.341 112.258 324.267 109.861 326.4 108.928C329.36 107.636 332.884 108.255 336.104 108.905C335.304 108.642 334.586 108.177 334.018 107.556C333.45 106.934 333.052 106.177 332.862 105.357C332.727 104.554 332.818 103.729 333.123 102.973C333.427 102.217 333.935 101.561 334.59 101.075C335.566 100.437 336.67 100.02 337.825 99.8549C338.98 99.6897 340.157 99.7801 341.273 100.12C343.459 100.803 345.527 101.82 347.405 103.132C348.68 103.832 349.819 104.753 350.769 105.854C351.217 106.375 351.495 107.021 351.566 107.704C351.637 108.387 351.498 109.076 351.167 109.678C350.759 110.194 350.239 110.611 349.648 110.898C349.056 111.185 348.407 111.335 347.749 111.337C346.735 111.366 345.722 111.261 344.736 111.023C349.255 112.138 353.328 114.602 356.412 118.088C360.243 122.546 361.765 128.289 361.833 133.886Z" fill="#2F2E41"/>
<path d="M331.827 152.11C342.065 152.11 350.365 143.81 350.365 133.572C350.365 123.334 342.065 115.034 331.827 115.034C321.589 115.034 313.289 123.334 313.289 133.572C313.289 143.81 321.589 152.11 331.827 152.11Z" fill="#FFB6B6"/>
<path d="M352.054 130.774C349.875 133.412 346.633 133.274 343.75 132.854C342.84 132.724 341.93 132.578 341.021 132.41C340.86 131.898 340.676 131.385 340.47 130.888C339.617 128.813 338.341 126.938 336.723 125.383C336.894 127.416 336.736 129.463 336.257 131.447C334.567 131.057 332.885 130.621 331.21 130.139C329.729 129.898 328.396 129.097 327.488 127.902C326.58 126.707 326.166 125.208 326.332 123.716C323.923 125.551 321.301 127.142 318.548 127.172C316.996 127.132 315.498 126.596 314.274 125.642C313.049 124.689 312.162 123.368 311.743 121.873C311.104 119.453 310.992 116.924 311.414 114.456C311.781 111.513 312.607 108.278 314.595 107.093C316.193 106.13 318.036 106.818 319.68 107.598C323.301 109.336 326.735 111.442 329.926 113.883L329.964 114.686C330.79 110.733 333.519 107.682 336.494 107.376C338.497 107.177 340.455 108.102 342.343 109.035C344.812 110.124 347.107 111.569 349.156 113.325C351.471 115.43 353.079 118.2 353.759 121.254C354.47 124.565 353.935 128.495 352.054 130.774Z" fill="#2F2E41"/>
<path d="M333.704 105.047C333.894 105.063 333.427 104.956 333.579 105.019C333.504 104.985 333.433 104.945 333.365 104.9C333.353 104.892 333.203 104.771 333.301 104.855C333.074 104.679 332.904 104.44 332.809 104.169C332.599 103.509 332.501 102.819 332.519 102.127C332.557 101.217 332.402 100.309 332.064 99.4635C331.964 99.2345 331.811 99.0324 331.618 98.8735C331.425 98.7146 331.198 98.6034 330.954 98.549C330.71 98.4946 330.456 98.4985 330.214 98.5604C329.972 98.6223 329.748 98.7404 329.56 98.9051C329.032 99.6171 328.776 100.495 328.84 101.38C328.793 102.235 328.883 103.093 329.109 103.92C329.497 105.28 330.272 106.498 331.34 107.425C332.573 108.505 334.122 109.159 335.756 109.289C335.981 109.284 336.199 109.214 336.384 109.087C336.57 108.96 336.714 108.782 336.8 108.575C336.886 108.367 336.91 108.139 336.869 107.918C336.827 107.698 336.722 107.494 336.567 107.331L334.515 105.383C334.299 105.17 334.008 105.051 333.705 105.052C333.402 105.053 333.112 105.174 332.898 105.388C332.684 105.602 332.563 105.892 332.562 106.195C332.561 106.498 332.68 106.789 332.893 107.005L334.945 108.953L335.756 106.995C335.418 106.965 335.083 106.896 334.76 106.792C334.409 106.694 334.074 106.547 333.764 106.355C333.461 106.189 333.177 105.991 332.917 105.763C332.75 105.616 332.591 105.462 332.44 105.299C332.386 105.24 332.332 105.18 332.28 105.119C332.283 105.124 332.064 104.848 332.158 104.974C331.921 104.649 331.714 104.303 331.541 103.941C331.48 103.812 331.43 103.679 331.391 103.542C331.318 103.317 331.259 103.088 331.213 102.856C331.125 102.369 331.099 101.873 331.134 101.379C331.144 101.17 331.165 100.961 331.197 100.754C331.226 100.645 331.247 100.534 331.261 100.422C331.265 100.143 331.223 100.57 331.078 100.635L330.499 100.792C330.405 100.784 330.313 100.755 330.232 100.708C330.15 100.66 330.08 100.594 330.027 100.516C330.003 100.42 330.01 100.437 330.048 100.567C330.091 100.719 330.125 100.874 330.149 101.03C330.193 101.394 330.218 101.76 330.225 102.126C330.233 102.903 330.323 103.676 330.495 104.433C330.655 105.194 331.052 105.885 331.628 106.407C332.205 106.929 332.931 107.256 333.704 107.341C334.007 107.338 334.298 107.217 334.512 107.002C334.727 106.788 334.849 106.497 334.851 106.194C334.845 105.891 334.722 105.603 334.508 105.389C334.294 105.176 334.006 105.053 333.704 105.047Z" fill="#2F2E41"/>
<path d="M288.117 109.776C291.919 109.776 295 106.695 295 102.893C295 99.0918 291.919 96.0102 288.117 96.0102C284.316 96.0102 281.234 99.0918 281.234 102.893C281.234 106.695 284.316 109.776 288.117 109.776Z" fill="#536DFE"/>
<path d="M287.178 106.476C287.059 106.476 286.942 106.448 286.835 106.395C286.729 106.341 286.637 106.264 286.565 106.169L284.687 103.665C284.626 103.585 284.582 103.493 284.556 103.396C284.531 103.298 284.525 103.196 284.539 103.096C284.553 102.996 284.586 102.9 284.637 102.813C284.689 102.726 284.757 102.65 284.838 102.589C284.918 102.529 285.01 102.485 285.108 102.46C285.206 102.435 285.308 102.43 285.408 102.444C285.508 102.459 285.604 102.493 285.69 102.545C285.777 102.597 285.852 102.666 285.912 102.747L287.141 104.385L290.296 99.6517C290.409 99.4828 290.584 99.3655 290.783 99.3257C290.982 99.2858 291.189 99.3267 291.358 99.4394C291.527 99.552 291.644 99.7272 291.684 99.9263C291.724 100.125 291.683 100.332 291.57 100.501L287.815 106.135C287.747 106.236 287.656 106.321 287.548 106.38C287.441 106.439 287.321 106.472 287.199 106.475L287.178 106.476Z" fill="white"/>
<path d="M382.117 110.45C380.773 110.45 379.459 110.052 378.341 109.305C377.224 108.559 376.353 107.497 375.839 106.255C375.324 105.014 375.19 103.647 375.452 102.329C375.714 101.011 376.361 99.8001 377.312 98.8497C378.262 97.8993 379.473 97.2521 380.791 96.9899C382.109 96.7277 383.476 96.8622 384.717 97.3766C385.959 97.8909 387.021 98.7619 387.767 99.8795C388.514 100.997 388.913 102.311 388.912 103.655C388.912 105.457 388.197 107.186 386.922 108.46C385.648 109.735 383.919 110.45 382.117 110.45Z" fill="#E6E6E6"/>
<path d="M384.487 105.077L383.065 103.655L384.487 102.233C384.55 102.171 384.6 102.097 384.634 102.015C384.668 101.934 384.686 101.846 384.686 101.758C384.687 101.67 384.669 101.582 384.636 101.5C384.602 101.419 384.553 101.344 384.49 101.282C384.428 101.219 384.353 101.17 384.272 101.136C384.19 101.103 384.102 101.085 384.014 101.086C383.926 101.086 383.838 101.104 383.757 101.138C383.675 101.172 383.601 101.222 383.539 101.285L382.117 102.707L380.695 101.285C380.569 101.16 380.399 101.09 380.221 101.09C380.044 101.09 379.874 101.161 379.748 101.286C379.623 101.412 379.552 101.582 379.552 101.759C379.552 101.937 379.622 102.107 379.747 102.233L381.169 103.655L379.747 105.077C379.684 105.139 379.634 105.213 379.6 105.294C379.566 105.376 379.548 105.463 379.548 105.552C379.548 105.64 379.565 105.728 379.598 105.809C379.632 105.891 379.682 105.965 379.744 106.028C379.807 106.09 379.881 106.14 379.963 106.174C380.044 106.207 380.132 106.224 380.22 106.224C380.309 106.224 380.396 106.206 380.478 106.172C380.559 106.138 380.633 106.088 380.695 106.025L382.117 104.603L383.539 106.025C383.601 106.087 383.675 106.137 383.757 106.171C383.838 106.205 383.925 106.223 384.014 106.223C384.102 106.223 384.189 106.205 384.271 106.172C384.352 106.138 384.426 106.089 384.488 106.026C384.551 105.964 384.6 105.89 384.634 105.808C384.668 105.727 384.685 105.64 384.685 105.551C384.685 105.463 384.667 105.376 384.633 105.294C384.599 105.213 384.55 105.139 384.487 105.077Z" fill="white"/>
<path d="M428.365 46H26.6348C26.3695 46 26.1152 45.8946 25.9277 45.7071C25.7401 45.5196 25.6348 45.2652 25.6348 45C25.6348 44.7348 25.7401 44.4804 25.9277 44.2929C26.1152 44.1054 26.3695 44 26.6348 44H428.365C428.63 44 428.885 44.1054 429.072 44.2929C429.26 44.4804 429.365 44.7348 429.365 45C429.365 45.2652 429.26 45.5196 429.072 45.7071C428.885 45.8946 428.63 46 428.365 46Z" fill="white"/>
<path d="M71.6547 30C75.9227 30 79.3826 26.463 79.3826 22.0998C79.3826 17.7367 75.9227 14.1997 71.6547 14.1997C67.3867 14.1997 63.9268 17.7367 63.9268 22.0998C63.9268 26.463 67.3867 30 71.6547 30Z" fill="white"/>
<path d="M98.351 30C102.619 30 106.079 26.463 106.079 22.0998C106.079 17.7367 102.619 14.1997 98.351 14.1997C94.083 14.1997 90.623 17.7367 90.623 22.0998C90.623 26.463 94.083 30 98.351 30Z" fill="white"/>
<path d="M125.047 30C129.315 30 132.775 26.463 132.775 22.0998C132.775 17.7367 129.315 14.1997 125.047 14.1997C120.779 14.1997 117.319 17.7367 117.319 22.0998C117.319 26.463 120.779 30 125.047 30Z" fill="white"/>
<path d="M155.489 28.3439C155.367 28.344 155.246 28.3198 155.134 28.2726C155.022 28.2254 154.92 28.1561 154.835 28.069L149.621 22.7386C149.454 22.5679 149.36 22.3385 149.36 22.0996C149.36 21.8607 149.454 21.6314 149.621 21.4607L154.835 16.1307C154.919 16.0449 155.019 15.9765 155.13 15.9293C155.24 15.8822 155.359 15.8572 155.479 15.8559C155.599 15.8546 155.718 15.8769 155.829 15.9216C155.94 15.9663 156.042 16.0325 156.128 16.1164C156.213 16.2003 156.282 16.3003 156.329 16.4106C156.376 16.521 156.401 16.6396 156.402 16.7595C156.404 16.8795 156.381 16.9986 156.337 17.11C156.292 17.2213 156.226 17.3228 156.142 17.4086L151.553 22.0996L156.142 26.791C156.268 26.9196 156.353 27.0825 156.386 27.2592C156.42 27.4359 156.401 27.6186 156.331 27.7844C156.261 27.9502 156.144 28.0917 155.994 28.1912C155.844 28.2907 155.669 28.3439 155.489 28.3439Z" fill="white"/>
<path d="M164.251 28.3439C164.071 28.3439 163.895 28.2908 163.745 28.1912C163.595 28.0917 163.478 27.9502 163.408 27.7844C163.339 27.6186 163.319 27.4359 163.353 27.2592C163.387 27.0825 163.472 26.9197 163.597 26.7911L168.186 22.0996L163.597 17.4086C163.428 17.2354 163.334 17.0019 163.337 16.7596C163.34 16.5172 163.438 16.2859 163.612 16.1164C163.785 15.947 164.018 15.8532 164.261 15.8559C164.503 15.8586 164.734 15.9574 164.904 16.1307L170.118 21.4607C170.285 21.6314 170.379 21.8608 170.379 22.0997C170.379 22.3386 170.285 22.5679 170.118 22.7386L164.904 28.069C164.819 28.1562 164.717 28.2254 164.605 28.2726C164.493 28.3198 164.372 28.344 164.251 28.3439Z" fill="white"/>
<path d="M366.674 15.1143H356.978C356.715 15.1142 356.455 15.166 356.212 15.2665C355.969 15.3671 355.748 15.5145 355.563 15.7003C355.377 15.8862 355.229 16.1068 355.129 16.3497C355.028 16.5925 354.976 16.8528 354.977 17.1156V26.8205C354.976 27.0834 355.028 27.3436 355.129 27.5865C355.229 27.8293 355.377 28.05 355.563 28.2358C355.748 28.4217 355.969 28.5691 356.212 28.6696C356.455 28.7702 356.715 28.8219 356.978 28.8218H366.674C367.205 28.8224 367.716 28.612 368.093 28.2368C368.469 27.8616 368.682 27.3523 368.684 26.8205V17.1156C368.682 16.5839 368.469 16.0745 368.093 15.6994C367.716 15.3242 367.205 15.1138 366.674 15.1143Z" fill="white"/>
<path d="M342.915 15.1143H333.219C332.956 15.1142 332.696 15.166 332.453 15.2665C332.21 15.3671 331.99 15.5145 331.804 15.7003C331.618 15.8862 331.47 16.1068 331.37 16.3497C331.269 16.5925 331.218 16.8528 331.218 17.1156V26.8205C331.218 27.0834 331.269 27.3436 331.37 27.5865C331.47 27.8293 331.618 28.05 331.804 28.2358C331.99 28.4217 332.21 28.5691 332.453 28.6696C332.696 28.7702 332.956 28.8219 333.219 28.8218H342.915C343.447 28.8224 343.957 28.612 344.334 28.2368C344.711 27.8616 344.923 27.3523 344.925 26.8205V17.1156C344.923 16.5839 344.711 16.0745 344.334 15.6994C343.957 15.3242 343.447 15.1138 342.915 15.1143Z" fill="white"/>
<path d="M389.063 15.5712H379.368C379.105 15.5712 378.844 15.6229 378.602 15.7234C378.359 15.824 378.138 15.9714 377.952 16.1572C377.766 16.3431 377.619 16.5637 377.518 16.8066C377.418 17.0494 377.366 17.3097 377.366 17.5725V27.2775C377.366 27.5403 377.418 27.8006 377.518 28.0434C377.619 28.2863 377.766 28.5069 377.952 28.6928C378.138 28.8786 378.359 29.026 378.602 29.1266C378.844 29.2271 379.105 29.2788 379.368 29.2787H389.063C389.595 29.2793 390.105 29.0689 390.482 28.6937C390.859 28.3186 391.072 27.8092 391.074 27.2775V17.5725C391.072 17.0408 390.859 16.5314 390.482 16.1563C390.105 15.7811 389.595 15.5707 389.063 15.5712Z" fill="white"/>
<path d="M283.13 19.2631H205.628C205.306 19.2611 204.987 19.3226 204.689 19.4443C204.391 19.566 204.12 19.7454 203.892 19.9722C203.664 20.199 203.483 20.4687 203.359 20.7657C203.235 21.0628 203.172 21.3813 203.172 21.7031C203.172 22.0248 203.235 22.3433 203.359 22.6404C203.483 22.9375 203.664 23.2071 203.892 23.4339C204.12 23.6607 204.391 23.8401 204.689 23.9618C204.987 24.0835 205.306 24.1451 205.628 24.143H283.13C283.774 24.1389 284.391 23.88 284.845 23.4229C285.299 22.9657 285.554 22.3475 285.554 21.7031C285.554 21.0586 285.299 20.4404 284.845 19.9832C284.391 19.5261 283.774 19.2672 283.13 19.2631Z" fill="white"/>
</g>
<defs>
<clipPath id="clip0_606_44">
<rect width="466" height="379" fill="white"/>
</clipPath>
</defs>
</svg>
