<svg width="813" height="424" viewBox="0 0 813 424" fill="none" xmlns="http://www.w3.org/2000/svg">
<g clip-path="url(#clip0_616_2)">
<path d="M757.582 414.024C756.533 416.736 755.227 419.341 753.682 421.804C753.252 422.484 752.802 423.154 752.322 423.804H712.482C712.202 423.594 711.932 423.374 711.652 423.164C710.252 423.054 708.862 422.914 707.502 422.764C707.642 422.644 707.792 422.524 707.932 422.404C707.212 422.464 706.492 422.524 705.772 422.554C706.342 422.624 706.922 422.694 707.502 422.764C707.072 423.114 706.632 423.464 706.182 423.804H704.442L705.612 422.554C704.682 422.584 703.762 422.604 702.832 422.584L705.742 421.804L708.882 420.964C709.002 421.064 709.132 421.164 709.252 421.264C714.611 416.554 718.969 410.815 722.065 404.387C725.162 397.96 726.935 390.975 727.278 383.849C727.621 376.722 726.528 369.6 724.064 362.904C721.599 356.209 717.814 350.077 712.932 344.874C720.79 350.147 727.52 356.93 732.73 364.83C737.941 372.729 741.528 381.585 743.282 390.884C744.184 395.43 744.319 400.094 743.682 404.684C744.032 404.294 744.382 403.904 744.722 403.504C749.787 397.369 753.438 390.192 755.415 382.485C757.392 374.778 757.647 366.731 756.162 358.914C760.04 367.547 762.163 376.865 762.407 386.326C762.651 395.787 761.011 405.203 757.582 414.024Z" fill="#E6E6E6"/>
<path d="M558.844 79.5649C574.353 79.5649 586.925 66.9923 586.925 51.4832C586.925 35.9741 574.353 23.4014 558.844 23.4014C543.334 23.4014 530.762 35.9741 530.762 51.4832C530.762 66.9923 543.334 79.5649 558.844 79.5649Z" fill="#2F2E41"/>
<path d="M649.905 412.099L637.645 412.098L631.812 364.81L649.907 364.811L649.905 412.099Z" fill="#FFB8B8"/>
<path d="M628.891 408.595H652.535V423.482H614.004C614.004 421.527 614.389 419.591 615.137 417.785C615.885 415.979 616.982 414.338 618.364 412.955C619.747 411.573 621.388 410.476 623.194 409.728C625 408.98 626.936 408.595 628.891 408.595Z" fill="#2F2E41"/>
<path d="M524.845 410.494L513.008 407.302L519.685 360.126L537.155 364.837L524.845 410.494Z" fill="#FFB8B8"/>
<path d="M505.463 401.641L528.292 407.796L524.417 422.169L487.214 412.139C488.242 408.327 490.742 405.079 494.165 403.11C497.587 401.141 501.651 400.613 505.463 401.641Z" fill="#2F2E41"/>
<path d="M548.077 193.296L511.57 400.165L530.291 403.909L589.263 257.884L633.258 402.973L655.723 400.165C655.723 400.165 645.427 192.36 612.665 174.575L548.077 193.296Z" fill="#2F2E41"/>
<path d="M490.181 267.299C491.497 266.644 492.654 265.709 493.569 264.558C494.484 263.408 495.137 262.071 495.479 260.642C495.822 259.212 495.847 257.725 495.553 256.284C495.259 254.844 494.653 253.486 493.777 252.305L513.91 222.782L495.343 222.494L479.07 250.574C477.184 252.177 475.952 254.416 475.607 256.866C475.261 259.317 475.827 261.81 477.197 263.871C478.566 265.933 480.644 267.421 483.037 268.052C485.43 268.684 487.972 268.416 490.181 267.299Z" fill="#FFB8B8"/>
<path d="M623.103 230.793C624.419 230.138 625.575 229.202 626.491 228.052C627.406 226.902 628.058 225.565 628.401 224.135C628.744 222.706 628.769 221.218 628.475 219.778C628.181 218.338 627.575 216.979 626.699 215.799L646.832 186.275L628.265 185.987L611.992 214.067C610.106 215.67 608.874 217.909 608.529 220.36C608.183 222.811 608.749 225.303 610.118 227.365C611.488 229.427 613.566 230.914 615.959 231.546C618.352 232.178 620.894 231.91 623.103 230.793Z" fill="#FFB8B8"/>
<path d="M559.557 85.1247C573.122 85.1247 584.118 74.1284 584.118 60.5637C584.118 46.999 573.122 36.0026 559.557 36.0026C545.992 36.0026 534.996 46.999 534.996 60.5637C534.996 74.1284 545.992 85.1247 559.557 85.1247Z" fill="#FFB8B8"/>
<path d="M612.665 98.7541C611.729 95.0099 595.816 95.9459 595.816 95.9459C595.816 95.9459 577.897 91.8264 578.067 92.3415C562.967 91.1792 544.547 96.8481 541.865 97.7079C536.376 99.2221 525.889 103.854 518.327 107.261C517.274 107.735 516.451 108.606 516.037 109.684C515.623 110.762 515.652 111.959 516.116 113.016L539.184 165.682L542.461 199.848L618.281 176.447C599.56 168.958 613.601 102.498 612.665 98.7541Z" fill="#536DFE"/>
<path d="M606.114 99.69L612.337 98.127L646.364 165.214L648.236 203.593L626.707 186.744V171.767L604.242 142.749L606.114 99.69Z" fill="#536DFE"/>
<path d="M524.209 104.838L517.003 108.041C516.628 108.208 516.299 108.464 516.047 108.788C515.794 109.111 515.625 109.492 515.554 109.897L501.275 191.424L487.234 232.61L505.956 241.971L527.485 190.488L534.973 153.045L524.209 104.838Z" fill="#536DFE"/>
<path d="M533.801 48.9854C538.786 47.3485 544.044 49.9146 548.914 51.8681C553.713 53.7933 558.841 55.1806 564.003 54.8773C569.165 54.5741 574.386 52.394 577.507 48.271C580.627 44.148 581.177 37.9687 578.087 33.822C576.054 31.0921 572.809 29.5346 569.559 28.5204C562.616 26.3534 554.846 26.2785 548.246 29.3357C541.647 32.3929 536.472 38.8514 535.928 46.1043" fill="#2F2E41"/>
<path d="M558.094 29.4214C556.42 18.0854 562.629 6.31545 571.104 2.09324C579.579 -2.12897 589.522 0.361749 597.157 6.64915C604.792 12.9365 610.357 22.5984 614.5 32.869C618.642 43.1396 621.511 54.1402 624.886 64.8517C627.883 74.3648 631.402 83.8836 637.095 91.1593C642.788 98.435 651.067 103.169 659 101.17C652.483 109.933 640.493 108.416 633.055 100.921C625.617 93.4255 621.75 81.7105 618.706 70.3071C615.663 58.9036 613.014 46.9719 607.126 37.5221C596.651 20.7106 576.095 15.6599 561.415 26.2906" fill="#2F2E41"/>
<path d="M813 421.804H0V423.804H813V421.804Z" fill="#3F3D56"/>
<path d="M426.54 229.912H71.7162C68.875 229.909 66.1511 228.779 64.1421 226.77C62.1331 224.761 61.0031 222.037 61 219.196V134.657C61.0031 131.816 62.1331 129.092 64.1421 127.083C66.1511 125.074 68.875 123.944 71.7162 123.941H426.54C429.381 123.944 432.105 125.074 434.114 127.083C436.123 129.092 437.253 131.816 437.256 134.657V219.196C437.253 222.037 436.123 224.761 434.114 226.77C432.105 228.779 429.381 229.909 426.54 229.912ZM71.7162 126.322C69.5065 126.325 67.388 127.204 65.8255 128.767C64.263 130.329 63.3841 132.447 63.3814 134.657V219.196C63.3841 221.405 64.263 223.524 65.8255 225.086C67.388 226.649 69.5065 227.528 71.7162 227.531H426.54C428.75 227.528 430.868 226.649 432.431 225.086C433.993 223.524 434.872 221.405 434.875 219.196V134.657C434.872 132.447 433.993 130.329 432.431 128.767C430.868 127.204 428.75 126.325 426.54 126.322H71.7162Z" fill="#3F3D56"/>
<path d="M409.273 212.052H88.9793C88.8226 212.052 88.6674 212.022 88.5226 211.962C88.3777 211.902 88.246 211.815 88.1351 211.704C88.0242 211.593 87.9362 211.462 87.8761 211.317C87.8161 211.173 87.7852 211.018 87.7852 210.861C87.7852 210.704 87.8161 210.549 87.8761 210.404C87.9362 210.26 88.0242 210.128 88.1351 210.018C88.246 209.907 88.3777 209.82 88.5226 209.76C88.6674 209.7 88.8226 209.67 88.9793 209.67H409.273C409.43 209.67 409.585 209.7 409.73 209.76C409.875 209.82 410.007 209.907 410.117 210.018C410.228 210.128 410.316 210.26 410.376 210.404C410.436 210.549 410.467 210.704 410.467 210.861C410.467 211.018 410.436 211.173 410.376 211.317C410.316 211.462 410.228 211.593 410.117 211.704C410.007 211.815 409.875 211.902 409.73 211.962C409.585 212.022 409.43 212.052 409.273 212.052Z" fill="#E6E6E6"/>
<path d="M122.917 172.759H96.7224C96.4072 172.76 96.1052 172.886 95.8827 173.109C95.6601 173.332 95.5352 173.635 95.5352 173.95C95.5352 174.265 95.6601 174.567 95.8827 174.79C96.1052 175.014 96.4072 175.14 96.7224 175.14H108.629V196.195C108.608 197.721 109.17 199.197 110.2 200.324C111.23 201.45 112.65 202.141 114.172 202.256C114.247 202.26 114.323 202.261 114.401 202.261C115.337 202.244 116.255 201.998 117.075 201.547C117.895 201.095 118.592 200.45 119.107 199.668C119.296 199.415 119.377 199.098 119.332 198.786C119.287 198.474 119.12 198.192 118.868 198.003C118.615 197.814 118.298 197.733 117.986 197.777C117.674 197.821 117.392 197.988 117.202 198.24C116.899 198.745 116.469 199.161 115.955 199.448C115.441 199.736 114.861 199.883 114.272 199.877C113.362 199.793 112.519 199.365 111.913 198.681C111.307 197.997 110.985 197.108 111.011 196.195V175.14H122.917C123.074 175.141 123.229 175.11 123.374 175.051C123.519 174.991 123.651 174.904 123.762 174.793C123.873 174.682 123.961 174.551 124.021 174.406C124.081 174.261 124.112 174.106 124.112 173.95C124.112 173.793 124.081 173.638 124.021 173.493C123.961 173.349 123.873 173.217 123.762 173.107C123.651 172.996 123.519 172.908 123.374 172.849C123.229 172.789 123.074 172.759 122.917 172.759Z" fill="#536DFE"/>
<path d="M212.217 276.349C217.478 276.349 221.742 272.084 221.742 266.823C221.742 261.562 217.478 257.298 212.217 257.298C206.956 257.298 202.691 261.562 202.691 266.823C202.691 272.084 206.956 276.349 212.217 276.349Z" fill="#E6E6E6"/>
<path d="M249.127 276.349C254.388 276.349 258.653 272.084 258.653 266.823C258.653 261.562 254.388 257.298 249.127 257.298C243.866 257.298 239.602 261.562 239.602 266.823C239.602 272.084 243.866 276.349 249.127 276.349Z" fill="#536DFE"/>
<path d="M286.041 276.349C291.302 276.349 295.567 272.084 295.567 266.823C295.567 261.562 291.302 257.298 286.041 257.298C280.78 257.298 276.516 261.562 276.516 266.823C276.516 272.084 280.78 276.349 286.041 276.349Z" fill="#E6E6E6"/>
<path d="M128.476 201.373C128.865 201.359 129.234 201.195 129.504 200.916C129.774 200.636 129.925 200.262 129.925 199.873C129.925 199.484 129.774 199.11 129.504 198.83C129.234 198.55 128.865 198.386 128.476 198.373C128.087 198.386 127.719 198.55 127.449 198.83C127.178 199.11 127.027 199.484 127.027 199.873C127.027 200.262 127.178 200.636 127.449 200.916C127.719 201.195 128.087 201.359 128.476 201.373Z" fill="#3F3D56"/>
<path d="M138 201.373C138.389 201.359 138.757 201.195 139.027 200.916C139.298 200.636 139.449 200.262 139.449 199.873C139.449 199.484 139.298 199.11 139.027 198.83C138.757 198.55 138.389 198.386 138 198.373C137.611 198.386 137.242 198.55 136.972 198.83C136.702 199.11 136.551 199.484 136.551 199.873C136.551 200.262 136.702 200.636 136.972 200.916C137.242 201.195 137.611 201.359 138 201.373Z" fill="#3F3D56"/>
<path d="M147.527 201.373C147.916 201.359 148.284 201.195 148.555 200.916C148.825 200.636 148.976 200.262 148.976 199.873C148.976 199.484 148.825 199.11 148.555 198.83C148.284 198.55 147.916 198.386 147.527 198.373C147.138 198.386 146.77 198.55 146.5 198.83C146.229 199.11 146.078 199.484 146.078 199.873C146.078 200.262 146.229 200.636 146.5 200.916C146.77 201.195 147.138 201.359 147.527 201.373Z" fill="#3F3D56"/>
</g>
<defs>
<clipPath id="clip0_616_2">
<rect width="813" height="423.804" fill="white"/>
</clipPath>
</defs>
</svg>
