<svg width="829" height="771" viewBox="0 0 829 771" fill="none" xmlns="http://www.w3.org/2000/svg">
<g clip-path="url(#clip0_21_188)">
<path d="M303.71 438.158C330.338 374.296 381.131 325.261 434.9 329.985C395.239 388.787 372.111 464.82 369.61 544.632C368.727 575.417 370.096 609.783 355.103 632.834C345.775 647.177 331.516 654.124 317.497 655.581C303.476 657.038 289.459 653.584 275.626 650.146L272.271 651.55C270.993 578.111 277.082 502.02 303.71 438.158Z" fill="#F0F0F0"/>
<path d="M434.98 331.522C395.219 357.619 361.315 401.203 340.502 454.356C336.003 465.848 332.172 478.039 330.501 490.93C328.829 503.825 329.997 516.101 333.227 528.35C336.181 539.547 340.153 550.535 341.059 562.516C342.013 575.145 338.605 586.953 332.47 596.325C324.964 607.791 314.883 614.897 304.848 621.378C293.705 628.575 282.048 635.809 274.156 649.24C273.2 650.867 271.404 648.749 272.359 647.124C286.089 623.756 309.593 619.364 325.891 600.54C333.496 591.756 339.205 579.795 338.845 565.779C338.53 553.523 334.441 542.188 331.378 530.886C328.163 519.018 326.559 507.085 327.712 494.432C328.892 481.489 332.381 469.068 336.646 457.47C346.263 431.313 359.425 407.299 374.502 386.541C391.83 362.68 412.024 343.036 434.211 328.459C435.585 327.557 436.345 330.627 434.98 331.522Z" fill="white"/>
<path d="M346.599 436.592C340.503 430.516 336.191 421.683 334.431 411.671C332.671 401.66 333.579 391.121 336.992 381.938C337.688 380.083 339.834 381.469 339.138 383.326C335.948 391.87 335.103 401.687 336.756 411.005C338.409 420.323 342.45 428.529 348.151 434.141C349.388 435.363 347.83 437.807 346.599 436.592Z" fill="white"/>
<path d="M331.181 522.941C346.455 519.898 360.327 509.118 370.03 492.751C370.991 491.128 372.787 493.246 371.828 494.867C361.707 511.873 347.255 523.051 331.355 526.17C329.84 526.466 329.674 523.235 331.181 522.941V522.941Z" fill="white"/>
<path d="M393.003 366.664C395.002 369.685 397.521 371.982 400.332 373.348C403.143 374.715 406.159 375.108 409.109 374.492C410.621 374.17 410.785 377.401 409.283 377.721C406.021 378.38 402.691 377.941 399.582 376.44C396.474 374.94 393.682 372.425 391.452 369.114C391.222 368.826 391.082 368.43 391.059 368.006C391.036 367.582 391.132 367.162 391.329 366.831C391.535 366.508 391.827 366.309 392.141 366.278C392.454 366.247 392.764 366.385 393.003 366.664Z" fill="white"/>
<path d="M541.884 531.446C540.944 531.683 540.004 531.921 539.056 532.183C526.43 535.467 514.021 540.143 501.951 546.167C501.013 546.612 500.066 547.083 499.139 547.564C470.173 562.498 443.493 584.635 420.454 612.848C411.294 624.086 402.775 636.258 394.969 649.258C384.19 667.213 373.551 687.85 359.465 699.557C358.006 700.8 356.491 701.92 354.93 702.908L273.788 657.022C273.642 656.792 273.487 656.586 273.34 656.355L270.039 654.725C270.407 654.016 270.8 653.292 271.169 652.583C271.381 652.17 271.611 651.768 271.824 651.356C271.971 651.084 272.119 650.813 272.241 650.556C272.29 650.466 272.339 650.375 272.38 650.31C272.502 650.053 272.635 649.832 272.749 649.601C274.938 645.544 277.151 641.5 279.39 637.471C279.397 637.446 279.397 637.446 279.423 637.431C296.536 606.787 315.676 577.823 337.432 553.74C338.087 553.015 338.748 552.265 339.44 551.562C349.291 540.781 359.772 531.115 370.777 522.662C376.815 518.059 383.019 513.877 389.367 510.129C405.781 500.491 423.206 494.432 441.002 492.175C476.478 487.684 512.613 498.711 539.822 529.096C540.518 529.874 541.196 530.642 541.884 531.446Z" fill="#F0F0F0"/>
<path d="M541.275 532.747C498.003 520.945 451.686 527.915 411.595 553.271C402.928 558.753 394.485 565.343 387.458 574.263C380.428 583.188 375.94 593.948 373.11 606.379C370.524 617.744 368.843 629.778 364.275 640.087C359.461 650.955 351.525 657.585 342.488 660.032C331.43 663.026 320.244 660.424 309.369 657.362C297.294 653.962 284.792 650.17 272.56 654.416C271.078 654.93 270.579 651.765 272.059 651.251C293.341 643.864 314.047 659.649 335.373 657.997C345.324 657.226 355.165 652.362 361.067 640.876C366.228 630.832 367.968 618.425 370.514 606.887C373.188 594.771 377.177 583.927 383.685 574.771C390.343 565.405 398.614 558.352 407.141 552.592C426.371 539.601 447.484 531.231 468.69 527.033C493.062 522.205 517.861 523.096 542.014 529.669C543.508 530.077 542.76 533.152 541.275 532.747V532.747Z" fill="white"/>
<path d="M424.308 544.092C422.124 534.237 422.581 523.644 425.597 514.206C428.613 504.768 433.992 497.099 440.773 492.568C442.147 491.658 443.249 494.527 441.873 495.438C435.553 499.641 430.543 506.786 427.748 515.582C424.953 524.379 424.556 534.248 426.629 543.409C427.078 545.4 424.754 546.072 424.308 544.092Z" fill="white"/>
<path d="M373.865 600.381C387.404 610.489 403.241 613.269 418.216 608.165C419.7 607.658 420.199 610.823 418.717 611.33C403.126 616.601 386.65 613.663 372.578 603.102C371.237 602.094 372.532 599.379 373.865 600.381Z" fill="white"/>
<path d="M492.24 526.348C492.502 530.402 493.498 534.303 495.139 537.701C496.78 541.1 499.015 543.889 501.642 545.819C502.992 546.804 501.696 549.518 500.355 548.54C497.46 546.389 494.995 543.305 493.175 539.555C491.356 535.806 490.238 531.506 489.918 527.032C489.862 526.613 489.925 526.182 490.094 525.824C490.263 525.467 490.526 525.211 490.828 525.108C491.136 525.019 491.457 525.1 491.721 525.332C491.985 525.565 492.172 525.93 492.24 526.348Z" fill="white"/>
<path d="M387.314 607.149C375.95 532.238 361.745 507.262 361.745 507.262L356.318 501.525L349.793 494.614L349.824 493.726L348.276 493.008L347.913 492.623L347.317 491.999L347.221 492.14L347.019 492.425L317.488 478.74L280.024 461.391L262.676 430.648C259.85 425.641 256.213 421.594 252.048 418.824C247.883 416.055 243.305 414.638 238.672 414.685L183.267 415.244C175.775 415.319 168.575 419.213 163.083 426.159L126.666 472.212L69.9214 509.16L69.8256 509.03L69.2298 509.61L60.4622 515.326L60.824 517.893L55.3975 523.232C55.3975 523.232 41.1927 546.471 29.8289 616.175C26.9381 633.911 25.5151 671.957 25.0015 718.839C24.9757 721.211 25.296 723.566 25.9437 725.767C26.5914 727.969 27.5537 729.973 28.7745 731.662C29.9954 733.352 31.4504 734.694 33.0551 735.611C34.6598 736.527 36.3821 736.999 38.1218 737H341.206V737H379.034C380.773 736.999 382.494 736.527 384.097 735.612C385.701 734.696 387.155 733.356 388.376 731.668C389.597 729.98 390.559 727.979 391.208 725.78C391.857 723.581 392.178 721.228 392.155 718.858C391.653 667.842 390.231 626.383 387.314 607.149Z" fill="#3F3D56"/>
<path d="M426.201 98.3286C414.409 98.3286 403.1 104.715 394.762 116.083C386.424 127.45 381.74 142.868 381.74 158.945C381.74 175.021 386.424 190.439 394.762 201.807C403.1 213.174 414.409 219.561 426.201 219.561H757.539C769.331 219.561 780.64 213.174 788.978 201.807C797.316 190.439 802 175.021 802 158.945C802 142.868 797.316 127.45 788.978 116.083C780.64 104.715 769.331 98.3286 757.539 98.3286H426.201Z" fill="#E5E5E5"/>
<path d="M426.2 110.596C416.795 110.596 407.775 115.69 401.125 124.757C394.474 133.824 390.738 146.122 390.738 158.945C390.738 171.768 394.474 184.065 401.125 193.132C407.775 202.199 416.795 207.293 426.2 207.293H757.539C766.945 207.293 775.965 202.199 782.615 193.132C789.266 184.065 793.002 171.768 793.002 158.945C793.002 146.122 789.266 133.824 782.615 124.757C775.965 115.69 766.945 110.596 757.539 110.596H426.2Z" fill="white"/>
<path d="M219.67 386.307C259.758 386.307 292.256 342.001 292.256 287.346C292.256 232.691 259.758 188.385 219.67 188.385C179.582 188.385 147.084 232.691 147.084 287.346C147.084 342.001 179.582 386.307 219.67 386.307Z" fill="#9E616A"/>
<path d="M201.101 381.462C200.791 380.531 200.482 379.597 200.173 378.659C200.292 378.665 200.41 378.688 200.529 378.692L201.101 381.462Z" fill="#2F2E41"/>
<path d="M145.065 192.885C148.737 188.893 153.027 185.219 157.721 185.425C162.415 185.632 167.174 191.411 166.202 197.675C174.823 176.863 188.546 160.857 204.961 152.465C221.377 144.073 239.435 143.832 255.968 151.784C267.634 157.396 279.074 168.622 281.754 185.087C282.442 189.313 282.589 193.948 284.525 197.38C286.966 201.707 291.635 202.686 295.48 201.164C295.519 201.149 295.557 201.133 295.596 201.118C296.245 200.815 296.946 200.786 297.608 201.032C298.27 201.279 298.863 201.791 299.309 202.502C299.756 203.213 300.035 204.09 300.112 205.02C300.189 205.95 300.059 206.89 299.74 207.718L296.439 216.111C300.6 217.376 304.923 217.25 309.041 215.746C309.725 215.501 310.448 215.551 311.11 215.889C311.772 216.226 312.342 216.835 312.741 217.631C313.139 218.428 313.347 219.373 313.336 220.337C313.325 221.301 313.096 222.237 312.68 223.016C301.795 243.389 283.612 256.545 265.056 256.39C251.867 256.281 238.543 250.084 225.707 254.218C220.742 255.818 216.102 258.913 212.128 263.276C208.154 267.64 204.948 273.16 202.743 279.434C200.538 285.707 199.392 292.574 199.388 299.53C199.383 306.486 200.521 313.355 202.718 319.634C198.775 313.754 191.153 315.146 187.119 320.911C183.086 326.676 182.042 335.281 182.448 343.229C183.07 355.386 186.563 366.84 190.246 377.989C159.369 376.663 130.164 347.133 120.334 307.192C110.462 267.085 120.808 219.268 145.065 192.885Z" fill="#2F2E41"/>
<path opacity="0.2" d="M96.4434 584.533L116.802 735.55L129.018 737L96.4434 584.533Z" fill="black"/>
<path opacity="0.2" d="M320.699 573.143L300.34 735.441L288.125 737L320.699 573.143Z" fill="black"/>
<path d="M162.43 142.061C158.526 144.283 154.453 141.848 152.745 136.27C151.011 130.608 152.63 124.86 156.596 122.602C160.563 120.344 164.563 122.785 166.326 128.539C168.062 134.206 166.459 139.767 162.43 142.061ZM154.952 111.456L151.848 113.223C151.073 113.659 150.206 113.682 149.418 113.289C148.631 112.895 147.981 112.113 147.596 111.096L147.442 110.687C144.103 102.476 143.72 92.496 146.312 81.0409C148.713 70.765 149.71 63.538 147.704 56.9907C145.386 49.4209 140.435 47.0496 134.122 50.4847C131.673 51.8786 130.894 51.8564 128.967 54.4626C128.548 55.0364 128.048 55.4892 127.498 55.7941C126.948 56.0989 126.358 56.2496 125.764 56.2371C125.19 56.2279 124.623 56.0611 124.097 55.7468C123.571 55.4324 123.097 54.9769 122.703 54.4074C121.944 53.3098 121.519 51.8606 121.514 50.3522C121.508 48.8438 121.922 47.3887 122.673 46.2808C125.912 41.6583 129.819 38.0014 134.146 35.5407C147.711 27.8184 154.54 39.2193 157.664 49.422C160.721 59.4014 159.002 68.6606 156.239 80.6522C153.924 90.6165 154.059 97.9999 156.689 105.341C156.878 105.896 156.984 106.498 156.999 107.11C157.014 107.722 156.938 108.332 156.776 108.903C156.614 109.474 156.369 109.995 156.055 110.433C155.742 110.872 155.367 111.22 154.952 111.456L154.952 111.456Z" fill="#536DFE"/>
<path d="M499.389 187.854H433.465C433.255 187.856 433.048 187.802 432.854 187.694C432.66 187.586 432.484 187.427 432.335 187.226C432.187 187.024 432.069 186.785 431.988 186.521C431.908 186.258 431.866 185.975 431.866 185.69C431.866 185.404 431.908 185.121 431.988 184.858C432.069 184.594 432.187 184.355 432.335 184.154C432.484 183.952 432.66 183.793 432.854 183.685C433.048 183.577 433.255 183.523 433.465 183.525H499.389C499.808 183.529 500.209 183.758 500.505 184.164C500.8 184.57 500.966 185.118 500.966 185.69C500.966 186.261 500.8 186.81 500.505 187.215C500.209 187.621 499.808 187.851 499.389 187.854Z" fill="#536DFE"/>
<path d="M583.018 188.576H517.093C516.884 188.578 516.676 188.523 516.482 188.415C516.289 188.308 516.112 188.148 515.964 187.947C515.815 187.746 515.697 187.507 515.617 187.243C515.536 186.979 515.495 186.697 515.495 186.411C515.495 186.126 515.536 185.843 515.617 185.579C515.697 185.316 515.815 185.076 515.964 184.875C516.112 184.674 516.289 184.515 516.482 184.407C516.676 184.299 516.884 184.244 517.093 184.246H583.018C583.227 184.244 583.435 184.299 583.629 184.407C583.822 184.515 583.999 184.674 584.147 184.875C584.296 185.076 584.414 185.316 584.494 185.579C584.575 185.843 584.616 186.126 584.616 186.411C584.616 186.697 584.575 186.979 584.494 187.243C584.414 187.507 584.296 187.746 584.147 187.947C583.999 188.148 583.822 188.308 583.629 188.415C583.435 188.523 583.227 188.578 583.018 188.576Z" fill="#536DFE"/>
<path d="M666.646 189.298H600.722C600.303 189.294 599.902 189.064 599.606 188.658C599.311 188.253 599.145 187.704 599.145 187.133C599.145 186.561 599.311 186.013 599.606 185.607C599.902 185.202 600.303 184.972 600.722 184.968H666.646C666.856 184.966 667.063 185.021 667.257 185.128C667.451 185.236 667.627 185.396 667.776 185.597C667.925 185.798 668.043 186.037 668.123 186.301C668.204 186.565 668.245 186.847 668.245 187.133C668.245 187.418 668.204 187.701 668.123 187.965C668.043 188.228 667.925 188.468 667.776 188.669C667.627 188.87 667.451 189.029 667.257 189.137C667.063 189.245 666.856 189.3 666.646 189.298H666.646Z" fill="#536DFE"/>
<path d="M750.275 190.019H684.351C683.932 190.015 683.53 189.786 683.235 189.38C682.94 188.974 682.774 188.426 682.774 187.854C682.774 187.283 682.94 186.734 683.235 186.329C683.53 185.923 683.932 185.693 684.351 185.69H750.275C750.694 185.693 751.095 185.923 751.391 186.329C751.686 186.734 751.852 187.283 751.852 187.854C751.852 188.426 751.686 188.974 751.391 189.38C751.095 189.786 750.694 190.015 750.275 190.019Z" fill="#536DFE"/>
<path d="M466.282 167.931C473.049 167.931 478.534 160.452 478.534 151.226C478.534 142.001 473.049 134.522 466.282 134.522C459.515 134.522 454.029 142.001 454.029 151.226C454.029 160.452 459.515 167.931 466.282 167.931Z" fill="#536DFE"/>
<path d="M550.416 167.931C557.182 167.931 562.668 160.452 562.668 151.226C562.668 142.001 557.182 134.522 550.416 134.522C543.649 134.522 538.163 142.001 538.163 151.226C538.163 160.452 543.649 167.931 550.416 167.931Z" fill="#536DFE"/>
<path d="M634.549 167.931C641.316 167.931 646.802 160.452 646.802 151.226C646.802 142.001 641.316 134.522 634.549 134.522C627.783 134.522 622.297 142.001 622.297 151.226C622.297 160.452 627.783 167.931 634.549 167.931Z" fill="#536DFE"/>
<path d="M718.683 167.931C725.45 167.931 730.936 160.452 730.936 151.226C730.936 142.001 725.45 134.522 718.683 134.522C711.916 134.522 706.431 142.001 706.431 151.226C706.431 160.452 711.916 167.931 718.683 167.931Z" fill="#536DFE"/>
</g>
<defs>
<clipPath id="clip0_21_188">
<rect width="777" height="704" fill="white" transform="translate(25 33)"/>
</clipPath>
</defs>
</svg>
