<svg width="293" height="292" viewBox="0 0 293 292" fill="none" xmlns="http://www.w3.org/2000/svg">
<g clip-path="url(#clip0_603_2)">
<path d="M93.5827 40.3197C91.2274 25.7232 94.9355 9.11706 105.242 0.281738C104.658 16.4156 109.021 32.2687 117.559 45.0361C120.867 49.9462 124.989 55.0085 124.861 61.2344C124.781 65.1083 122.972 68.7173 120.587 71.4361C118.203 74.155 115.266 76.1152 112.364 78.045L111.912 78.8587C103.405 67.7474 95.938 54.9163 93.5827 40.3197Z" fill="#F0F0F0"/>
<path d="M105.431 0.504923C101.1 11.7266 99.934 24.2428 102.097 36.2759C102.523 38.8759 103.3 41.3819 104.4 43.7017C105.534 45.9214 107.161 47.7488 109.112 48.9941C110.91 50.1976 112.87 51.1873 114.385 52.8761C115.149 53.7538 115.745 54.8087 116.132 55.9716C116.52 57.1345 116.69 58.3791 116.633 59.6238C116.561 62.7294 115.529 65.6197 114.435 68.4055C113.22 71.4986 111.916 74.6891 111.995 78.1666C112.005 78.588 111.44 78.5805 111.43 78.1598C111.293 72.1095 115.07 67.2504 115.912 61.4449C116.305 58.736 115.995 55.8735 114.35 53.7737C112.912 51.9375 110.892 50.9148 109.061 49.7146C107.143 48.532 105.504 46.8236 104.287 44.7385C103.089 42.4911 102.23 40.0239 101.747 37.4426C100.578 31.6514 100.203 25.6836 100.636 19.7576C101.097 12.9912 102.555 6.36599 104.946 0.168697C105.094 -0.214805 105.578 0.123929 105.431 0.504923Z" fill="white"/>
<path d="M101.203 32.4488C99.4104 32.5949 97.6311 31.9983 96.1832 30.7656C94.7352 29.5329 93.7128 27.7444 93.2985 25.7194C93.2159 25.3093 93.7623 25.1414 93.8451 25.552C94.2278 27.4385 95.1803 29.1045 96.5307 30.2492C97.8811 31.3939 99.5404 31.9419 101.209 31.7944C101.572 31.7628 101.564 32.4174 101.203 32.4488Z" fill="white"/>
<path d="M108.13 48.523C110.564 45.3362 111.871 41.2043 111.79 36.9512C111.782 36.5299 112.347 36.5372 112.355 36.9581C112.432 41.3841 111.064 45.6808 108.525 48.9906C108.283 49.3059 107.889 48.8366 108.13 48.523Z" fill="white"/>
<path d="M101.759 13.3976C102.463 13.5085 103.18 13.4151 103.845 13.126C104.51 12.837 105.102 12.3611 105.569 11.7413C105.808 11.4226 106.202 11.8923 105.964 12.2089C105.446 12.8909 104.791 13.4155 104.057 13.7368C103.323 14.0581 102.532 14.1663 101.753 14.0521C101.679 14.0484 101.609 14.0122 101.557 13.9508C101.505 13.8894 101.475 13.8074 101.474 13.7214C101.475 13.6348 101.505 13.5522 101.559 13.4915C101.612 13.4309 101.684 13.3972 101.759 13.3976Z" fill="white"/>
<path d="M147.39 12.3553C147.246 12.5592 147.102 12.7631 146.959 12.9723C145.034 15.7252 143.305 18.6545 141.79 21.7316C141.669 21.9673 141.55 22.2083 141.436 22.4476C137.853 29.9059 135.498 38.0696 134.488 46.5238C134.09 49.8883 133.912 53.2831 133.958 56.6787C134.022 61.3683 134.413 66.447 133.172 70.7601C133.047 71.2118 132.898 71.654 132.725 72.0843L112.805 79.4337C112.752 79.4241 112.701 79.4198 112.648 79.4103L111.864 79.7458C111.851 79.5709 111.841 79.3891 111.828 79.2142C111.82 79.1127 111.817 79.0097 111.809 78.9082C111.805 78.8401 111.802 78.7718 111.795 78.7106C111.793 78.6879 111.792 78.6652 111.792 78.6477C111.786 78.5865 111.785 78.5287 111.779 78.4728C111.72 77.457 111.665 76.4395 111.62 75.4186C111.618 75.4133 111.618 75.4133 111.621 75.4065C111.28 67.6312 111.495 59.7545 112.736 52.1662C112.774 51.9379 112.81 51.7044 112.856 51.4728C113.432 48.0559 114.248 44.6993 115.296 41.4364C115.875 39.6518 116.532 37.9024 117.263 36.1947C119.161 31.7866 121.646 27.7516 124.627 24.2376C130.57 17.2335 138.381 12.5082 146.751 12.3594C146.965 12.3558 147.175 12.3537 147.39 12.3553Z" fill="#F0F0F0"/>
<path d="M147.426 12.6647C138.134 18.6058 130.695 27.786 126.166 38.9016C125.154 41.2744 124.471 43.8172 124.143 46.4361C123.895 48.9993 124.244 51.5927 125.154 53.9469C125.964 56.1617 127.015 58.3185 127.346 60.7228C127.5 61.9565 127.427 63.2138 127.131 64.4125C126.836 65.6111 126.325 66.7239 125.633 67.6779C123.96 70.107 121.633 71.6953 119.311 73.157C116.733 74.7799 114.033 76.4183 112.288 79.2498C112.077 79.5929 111.629 79.1929 111.84 78.8503C114.877 73.9239 120.419 72.6778 124.11 68.6293C125.832 66.7401 127.073 64.2386 126.851 61.4154C126.658 58.9466 125.576 56.7214 124.739 54.487C123.822 52.2055 123.402 49.6988 123.515 47.1858C123.726 44.5559 124.323 41.987 125.279 39.589C127.358 34.1505 130.161 29.1242 133.588 24.6943C137.474 19.6133 142.083 15.3396 147.214 12.0581C147.532 11.8552 147.742 12.4631 147.426 12.6647Z" fill="white"/>
<path d="M127.442 35.223C125.935 34.0898 124.824 32.373 124.309 30.3793C123.794 28.3856 123.908 26.2447 124.63 24.3391C124.777 23.9541 125.301 24.2009 125.153 24.5865C124.478 26.3596 124.372 28.3538 124.855 30.2092C125.338 32.0646 126.378 33.659 127.787 34.7046C128.093 34.9322 127.746 35.4493 127.442 35.223Z" fill="white"/>
<path d="M124.614 52.8865C128.215 52.0387 131.407 49.6508 133.554 46.199C133.766 45.8568 134.214 46.2567 134.001 46.5985C131.761 50.1857 128.435 52.6629 124.687 53.5356C124.33 53.6185 124.259 52.9689 124.614 52.8865Z" fill="white"/>
<path d="M137.791 20.3993C138.296 20.9785 138.916 21.4036 139.598 21.6363C140.279 21.8691 140.999 21.9023 141.694 21.733C142.051 21.6449 142.121 22.2945 141.767 22.382C140.998 22.5649 140.203 22.5272 139.449 22.2719C138.696 22.0167 138.009 21.5517 137.446 20.9177C137.389 20.8631 137.352 20.7852 137.342 20.7C137.333 20.6147 137.352 20.5285 137.395 20.4587C137.441 20.3904 137.508 20.3458 137.583 20.3346C137.657 20.3235 137.732 20.3468 137.791 20.3993Z" fill="white"/>
<path d="M207.295 110.651C207.347 110.919 207.382 111.191 207.397 111.465L225.796 123.755L230.268 120.774L235.036 128.001L227.562 134.17C226.958 134.668 226.231 134.926 225.489 134.905C224.748 134.884 224.033 134.585 223.451 134.054L204.479 116.722C203.622 117.089 202.69 117.146 201.805 116.884C200.921 116.622 200.126 116.055 199.526 115.258C198.927 114.46 198.552 113.47 198.45 112.42C198.348 111.369 198.525 110.308 198.957 109.376C199.389 108.445 200.056 107.688 200.868 107.206C201.681 106.724 202.601 106.54 203.506 106.679C204.411 106.817 205.259 107.271 205.935 107.981C206.612 108.69 207.086 109.622 207.295 110.651Z" fill="#FFB6B6"/>
<path d="M226.051 122.398C226.11 122.085 226.226 121.789 226.392 121.533C226.558 121.276 226.769 121.063 227.013 120.91L235.507 115.551C236.638 114.562 238.062 114.133 239.466 114.358C240.869 114.583 242.139 115.444 242.996 116.751C243.852 118.058 244.226 119.706 244.036 121.332C243.845 122.958 243.105 124.43 241.978 125.426L235.17 133.434C234.976 133.663 234.741 133.84 234.483 133.954C234.224 134.068 233.947 134.116 233.67 134.095C233.394 134.074 233.125 133.985 232.881 133.832C232.637 133.68 232.425 133.468 232.258 133.212L226.397 124.213C226.23 123.957 226.112 123.663 226.053 123.349C225.993 123.036 225.993 122.712 226.051 122.398Z" fill="#3F3D56"/>
<path d="M240.842 91.6768C242.064 87.1666 244.844 83.0301 248.687 81.5054C252.531 79.9807 258.159 82.3033 261.049 85.6381C266.335 91.7382 266.498 99.2057 262.866 105.828C262.144 105.784 259.651 105.751 258.92 105.719L257.886 101.728V105.68C252.18 105.476 246.239 105.604 240.295 105.736C239.762 101.047 239.62 96.187 240.842 91.6768Z" fill="#2F2E41"/>
<path d="M239.591 280.556H234.386L231.91 257.31L239.592 257.31L239.591 280.556Z" fill="#FFB6B6"/>
<path d="M271.669 280.556H266.464L263.988 257.31L271.67 257.31L271.669 280.556Z" fill="#FFB6B6"/>
<path d="M256.471 137.779L257.651 141.33L257.415 144.881L234.334 154.138L235.479 138.599L238.074 135.049L256.471 137.779Z" fill="#FFB6B6"/>
<path d="M249.173 105.828C253.726 105.828 257.417 101.555 257.417 96.2827C257.417 91.0109 253.726 86.7372 249.173 86.7372C244.62 86.7372 240.93 91.0109 240.93 96.2827C240.93 101.555 244.62 105.828 249.173 105.828Z" fill="#FFB7B7"/>
<path d="M261.639 154.071V160.138C261.639 160.138 267.771 169.366 264.469 176.467L273.93 270.97H264.024L247.487 191.216L240.438 269.331H231.947L230.934 207.204C230.668 190.863 233.024 174.606 237.883 159.261L261.639 154.071Z" fill="#2F2E41"/>
<path d="M243.509 83.8527C245.093 82.7346 246.908 82.1297 248.763 82.1014C250.618 82.0731 252.445 82.6223 254.054 83.6917C255.663 84.7611 256.994 86.3114 257.908 88.1805C258.822 90.0495 259.286 92.1687 259.251 94.3164C254.643 94.5618 249.803 94.6256 244.895 94.6367L243.735 91.3493L243.051 94.6391C241.555 94.6389 240.057 94.6366 238.556 94.6323C238.494 92.4906 238.92 90.3679 239.789 88.4762C240.658 86.5845 241.941 84.9903 243.509 83.8527Z" fill="#2F2E41"/>
<path d="M241.92 292H238.227L237.568 287.962L235.879 292H226.084C225.614 292 225.157 291.826 224.779 291.504C224.401 291.182 224.121 290.728 223.982 290.209C223.842 289.69 223.849 289.133 224.002 288.619C224.155 288.105 224.446 287.661 224.833 287.352L232.655 281.097V277.015L240.883 277.583L241.92 292Z" fill="#2F2E41"/>
<path d="M274.469 292H270.776L270.116 287.962L268.428 292H258.633C258.163 292 257.706 291.826 257.328 291.504C256.95 291.182 256.67 290.728 256.53 290.209C256.391 289.69 256.398 289.133 256.551 288.619C256.704 288.105 256.995 287.661 257.381 287.352L265.204 281.097V277.015L273.431 277.583L274.469 292Z" fill="#2F2E41"/>
<path d="M265.389 173.528C265.847 166.237 265.375 158.908 263.988 151.777C262.237 142.776 260.012 131.324 259.969 131.028C259.968 131.022 259.968 131.016 259.968 131.01L259.289 114.235C259.288 114.186 259.27 114.14 259.24 114.106C259.21 114.072 259.17 114.052 259.128 114.05L254.437 113.868C254.394 113.866 254.353 113.845 254.323 113.809C254.293 113.773 254.276 113.724 254.276 113.674C254.276 113.269 254.207 112.869 254.073 112.495C253.939 112.121 253.743 111.781 253.496 111.495C253.249 111.209 252.956 110.982 252.633 110.827C252.31 110.673 251.964 110.593 251.615 110.593H242.247C241.64 110.593 241.054 110.85 240.599 111.315C240.144 111.78 239.851 112.421 239.776 113.118C239.772 113.166 239.752 113.211 239.721 113.242C239.69 113.274 239.649 113.292 239.607 113.29L235.962 113.149C235.926 113.147 235.89 113.16 235.86 113.184C235.83 113.209 235.808 113.244 235.797 113.284L235.543 114.217C231.863 127.94 230.841 142.433 232.551 156.665C232.992 160.452 232.792 166.147 232.625 169.319C232.608 169.63 232.645 169.94 232.733 170.234C232.82 170.528 232.957 170.799 233.135 171.031C233.313 171.263 233.529 171.453 233.771 171.588C234.012 171.724 234.275 171.802 234.543 171.82C241.319 172.272 260.508 183.022 265.101 177.89C265.112 177.877 265.235 175.984 265.389 173.528Z" fill="#3F3D56"/>
<path d="M227.807 110.651C227.859 110.919 227.893 111.191 227.909 111.465L246.308 123.755L250.78 120.774L255.547 128.001L248.073 134.17C247.47 134.668 246.742 134.926 246.001 134.905C245.26 134.884 244.545 134.585 243.962 134.054L224.99 116.722C224.134 117.089 223.202 117.146 222.317 116.884C221.432 116.622 220.638 116.055 220.038 115.258C219.439 114.46 219.063 113.47 218.962 112.42C218.86 111.369 219.037 110.308 219.469 109.376C219.901 108.445 220.568 107.688 221.38 107.206C222.193 106.724 223.113 106.54 224.018 106.679C224.923 106.817 225.77 107.271 226.447 107.981C227.124 108.69 227.598 109.622 227.807 110.651Z" fill="#FFB6B6"/>
<path d="M246.563 122.398C246.622 122.085 246.738 121.789 246.903 121.533C247.069 121.276 247.281 121.063 247.524 120.91L256.019 115.551C257.15 114.563 258.573 114.134 259.977 114.359C261.381 114.584 262.65 115.445 263.506 116.752C264.363 118.059 264.737 119.706 264.546 121.332C264.356 122.958 263.616 124.43 262.49 125.426L255.682 133.434C255.488 133.663 255.253 133.84 254.994 133.954C254.735 134.068 254.458 134.116 254.182 134.095C253.906 134.074 253.636 133.985 253.393 133.832C253.149 133.68 252.937 133.468 252.77 133.212L246.908 124.213C246.741 123.957 246.624 123.663 246.565 123.349C246.505 123.036 246.505 122.712 246.563 122.398Z" fill="#3F3D56"/>
<path d="M21.4653 258.884C33.3203 258.884 42.9306 247.756 42.9306 234.028C42.9306 220.301 33.3203 209.173 21.4653 209.173C9.61034 209.173 0 220.301 0 234.028C0 247.756 9.61034 258.884 21.4653 258.884Z" fill="#F0F0F0"/>
<path d="M211.148 147.776L55.5926 230.475C53.3784 231.649 50.8526 231.758 48.5693 230.778C46.286 229.797 44.4316 227.809 43.4131 225.247L5.02572 128.43C4.01219 125.866 3.91833 122.941 4.76474 120.297C5.61114 117.653 7.32871 115.506 9.5406 114.327L165.096 31.6273C167.311 30.4537 169.836 30.345 172.12 31.3251C174.403 32.3052 176.257 34.2941 177.276 36.8553L215.663 133.673C216.677 136.236 216.771 139.161 215.924 141.805C215.078 144.449 213.36 146.596 211.148 147.776Z" fill="white"/>
<path d="M12.1274 120.852C11.4088 121.235 10.8509 121.933 10.5759 122.792C10.3009 123.651 10.3314 124.601 10.6607 125.434L49.0481 222.251C49.379 223.083 49.9814 223.729 50.7231 224.048C51.4649 224.366 52.2855 224.331 53.0048 223.95L208.561 141.25C209.279 140.867 209.837 140.17 210.112 139.311C210.387 138.452 210.357 137.502 210.027 136.669L171.64 39.8513C171.309 39.0193 170.707 38.3732 169.965 38.0548C169.223 37.7364 168.403 37.7717 167.683 38.153L12.1274 120.852Z" fill="#E4E4E4"/>
<path d="M211.148 147.776L55.5926 230.475C53.3784 231.649 50.8526 231.758 48.5693 230.778C46.286 229.797 44.4316 227.809 43.4131 225.247L5.02572 128.43C4.01219 125.866 3.91833 122.941 4.76474 120.297C5.61114 117.653 7.32871 115.506 9.5406 114.327L165.096 31.6273C167.311 30.4537 169.836 30.345 172.12 31.3251C174.403 32.3052 176.257 34.2941 177.276 36.8553L215.663 133.673C216.677 136.236 216.771 139.161 215.924 141.805C215.078 144.449 213.36 146.596 211.148 147.776ZM9.9386 115.331C7.95644 116.388 6.41728 118.312 5.65879 120.681C4.9003 123.05 4.98443 125.671 5.89271 127.969L44.2801 224.786C45.1928 227.082 46.8546 228.864 48.9007 229.742C50.9469 230.62 53.2104 230.523 55.1946 229.471L210.75 146.772C212.733 145.715 214.272 143.791 215.03 141.421C215.789 139.052 215.705 136.431 214.796 134.133L176.409 37.3163C175.496 35.021 173.834 33.2388 171.788 32.3605C169.742 31.4822 167.479 31.5796 165.494 32.6313L9.9386 115.331Z" fill="#CACACA"/>
<path d="M172.279 103.842L48.6991 169.541C47.7038 170.069 46.5922 170.227 45.5161 169.996C44.44 169.764 43.4518 169.154 42.6865 168.247L6.5296 125.312C5.93661 124.608 5.49828 123.749 5.25145 122.808C5.00462 121.867 4.9565 120.871 5.11115 119.904C5.26579 118.937 5.61868 118.027 6.14014 117.25C6.66161 116.474 7.3364 115.854 8.10781 115.442L166.483 30.9025C167.244 30.4963 168.078 30.3048 168.915 30.3436C169.753 30.3824 170.571 30.6504 171.301 31.1257C172.032 31.601 172.656 32.2701 173.12 33.078C173.585 33.886 173.877 34.8099 173.974 35.7741L173.995 35.7735L175.369 98.1015C175.397 99.3037 175.118 100.489 174.569 101.509C174.019 102.53 173.223 103.341 172.279 103.842ZM166.887 31.9028L8.50704 116.445C7.87434 116.783 7.32087 117.292 6.89317 117.928C6.46547 118.565 6.17603 119.311 6.04919 120.105C5.92235 120.898 5.96181 121.715 6.16425 122.487C6.36669 123.258 6.72621 123.963 7.21257 124.54L43.3694 167.476C43.9971 168.219 44.8076 168.72 45.6903 168.91C46.5729 169.1 47.4847 168.97 48.3011 168.537L171.881 102.838C172.655 102.427 173.308 101.762 173.759 100.925C174.21 100.088 174.438 99.1157 174.416 98.1296L173.054 36.3539C173.035 35.5203 172.839 34.705 172.481 33.9811C172.124 33.2572 171.617 32.6474 171.005 32.2062C170.394 31.7651 169.698 31.5064 168.979 31.4535C168.261 31.4005 167.542 31.5549 166.887 31.9028Z" fill="#CACACA"/>
<path d="M94.7835 192.722L56.2812 213.191C56.0018 213.34 55.6998 213.424 55.3925 213.438C55.0851 213.451 54.7785 213.395 54.49 213.271C54.2016 213.147 53.937 212.959 53.7115 212.717C53.4859 212.475 53.3037 212.184 53.1754 211.86C53.0471 211.537 52.9751 211.187 52.9636 210.831C52.952 210.475 53.0012 210.12 53.1082 209.786C53.2153 209.452 53.3781 209.146 53.5874 208.885C53.7967 208.624 54.0483 208.413 54.328 208.265L92.8303 187.796C93.3943 187.497 94.0379 187.469 94.6195 187.719C95.2011 187.969 95.6731 188.476 95.932 189.129C96.1908 189.782 96.2153 190.527 95.9999 191.201C95.7846 191.875 95.3471 192.422 94.7835 192.722Z" fill="white"/>
<path d="M122.951 129.459C123.612 131.122 123.983 132.919 124.044 134.748C124.105 136.577 123.854 138.402 123.305 140.119C122.756 141.836 121.921 143.41 120.846 144.753C119.771 146.095 118.479 147.179 117.042 147.943C115.606 148.707 114.053 149.135 112.473 149.204C110.894 149.272 109.318 148.98 107.836 148.343C106.354 147.706 104.995 146.737 103.837 145.491C102.678 144.246 101.743 142.748 101.085 141.084" fill="#CACACA"/>
<path d="M209.761 279.463H38.5941C36.159 279.46 33.8243 278.339 32.1024 276.345C30.3805 274.351 29.4119 271.648 29.4092 268.828V162.294C29.412 159.474 30.3806 156.771 32.1025 154.777C33.8244 152.783 36.159 151.661 38.5941 151.658H209.761C212.197 151.661 214.531 152.783 216.253 154.777C217.975 156.771 218.944 159.474 218.946 162.294V268.828C218.944 271.648 217.975 274.351 216.253 276.345C214.531 278.339 212.197 279.46 209.761 279.463Z" fill="white"/>
<path d="M38.5942 158.839C37.8031 158.84 37.0447 159.204 36.4853 159.852C35.9259 160.5 35.6112 161.378 35.6104 162.294V268.828C35.6112 269.744 35.9259 270.622 36.4853 271.27C37.0447 271.917 37.8031 272.282 38.5942 272.283H209.761C210.553 272.282 211.311 271.917 211.87 271.27C212.43 270.622 212.744 269.744 212.745 268.828V162.294C212.744 161.378 212.43 160.5 211.87 159.852C211.311 159.204 210.553 158.84 209.761 158.839H38.5942Z" fill="#536DFE"/>
<path d="M209.761 279.463H38.5941C36.159 279.46 33.8243 278.339 32.1024 276.345C30.3805 274.351 29.4119 271.648 29.4092 268.828V162.294C29.412 159.474 30.3806 156.771 32.1025 154.777C33.8244 152.783 36.159 151.661 38.5941 151.658H209.761C212.197 151.661 214.531 152.783 216.253 154.777C217.975 156.771 218.944 159.474 218.946 162.294V268.828C218.944 271.648 217.975 274.351 216.253 276.345C214.531 278.339 212.197 279.46 209.761 279.463ZM38.5941 152.763C36.4119 152.766 34.3198 153.771 32.7767 155.558C31.2336 157.344 30.3657 159.767 30.3632 162.294V268.828C30.3657 271.355 31.2336 273.777 32.7767 275.564C34.3198 277.351 36.4119 278.356 38.5941 278.359H209.761C211.944 278.356 214.036 277.351 215.579 275.564C217.122 273.777 217.99 271.355 217.992 268.828V162.294C217.99 159.767 217.122 157.344 215.579 155.558C214.036 153.771 211.944 152.766 209.761 152.763H38.5941Z" fill="#3F3D56"/>
<path d="M190.267 220.757H54.2849C53.1904 220.755 52.1231 220.362 51.2286 219.631C50.3341 218.901 49.656 217.869 49.287 216.676L31.8988 160.187C31.6136 159.26 31.5247 158.268 31.6395 157.294C31.7543 156.319 32.0694 155.391 32.5584 154.587C33.0475 153.782 33.6961 153.126 34.4497 152.672C35.2034 152.219 36.0401 151.981 36.8894 151.98L211.282 151.669C212.12 151.668 212.947 151.897 213.694 152.337C214.441 152.777 215.088 153.415 215.581 154.2C216.074 154.986 216.399 155.895 216.53 156.853C216.661 157.812 216.594 158.793 216.335 159.716L216.354 159.726L195.144 217.033C194.736 218.139 194.056 219.081 193.189 219.743C192.321 220.405 191.306 220.758 190.267 220.757ZM211.289 152.774L36.8907 153.084C36.1941 153.086 35.5078 153.28 34.8897 153.652C34.2716 154.024 33.7396 154.563 33.3385 155.222C32.9374 155.882 32.6789 156.643 32.5848 157.443C32.4906 158.242 32.5636 159.056 32.7974 159.816L50.1855 216.305C50.4882 217.283 51.0443 218.13 51.778 218.729C52.5117 219.328 53.3872 219.65 54.2849 219.652H190.267C191.119 219.653 191.952 219.364 192.663 218.821C193.374 218.278 193.932 217.505 194.267 216.598L215.289 159.798C215.573 159.032 215.688 158.196 215.624 157.365C215.56 156.535 215.319 155.736 214.922 155.039C214.526 154.343 213.986 153.772 213.352 153.376C212.718 152.981 212.009 152.774 211.289 152.774Z" fill="#3F3D56"/>
<path d="M87.8135 264.088H45.4471C44.8263 264.088 44.2309 263.803 43.792 263.295C43.353 262.786 43.1064 262.097 43.1064 261.378C43.1064 260.659 43.353 259.97 43.792 259.462C44.2309 258.953 44.8263 258.668 45.4471 258.668H87.8135C88.4342 258.668 89.0296 258.953 89.4685 259.462C89.9075 259.97 90.1541 260.659 90.1541 261.378C90.1541 262.097 89.9075 262.786 89.4685 263.295C89.0296 263.803 88.4342 264.088 87.8135 264.088Z" fill="white"/>
<path d="M136.208 220.204C136.208 223.899 134.94 227.442 132.684 230.055C130.428 232.667 127.368 234.135 124.178 234.135C120.987 234.135 117.927 232.667 115.671 230.055C113.415 227.442 112.147 223.899 112.147 220.204" fill="#3F3D56"/>
<path d="M60.1026 60.0379C62.4736 60.0379 64.3957 57.8123 64.3957 55.0668C64.3957 52.3213 62.4736 50.0956 60.1026 50.0956C57.7316 50.0956 55.8096 52.3213 55.8096 55.0668C55.8096 57.8123 57.7316 60.0379 60.1026 60.0379Z" fill="#F0F0F0"/>
<path d="M4.29306 179.346C6.66405 179.346 8.58612 177.12 8.58612 174.374C8.58612 171.629 6.66405 169.403 4.29306 169.403C1.92207 169.403 0 171.629 0 174.374C0 177.12 1.92207 179.346 4.29306 179.346Z" fill="#F0F0F0"/>
<path d="M218.946 85.9985C221.317 85.9985 223.239 83.7728 223.239 81.0273C223.239 78.2818 221.317 76.0562 218.946 76.0562C216.575 76.0562 214.653 78.2818 214.653 81.0273C214.653 83.7728 216.575 85.9985 218.946 85.9985Z" fill="#F0F0F0"/>
<path d="M292.432 292H210.723C210.573 292 210.428 291.931 210.322 291.807C210.215 291.684 210.155 291.517 210.155 291.342C210.155 291.168 210.215 291.001 210.322 290.877C210.428 290.754 210.573 290.685 210.723 290.685H292.432C292.582 290.685 292.726 290.755 292.832 290.878C292.938 291.001 292.998 291.168 292.998 291.342C292.998 291.516 292.938 291.683 292.832 291.807C292.726 291.93 292.582 291.999 292.432 292Z" fill="#CACACA"/>
</g>
<defs>
<clipPath id="clip0_603_2">
<rect width="293" height="292" fill="white"/>
</clipPath>
</defs>
</svg>
