<svg width="48" height="48" viewBox="0 0 48 48" fill="none" xmlns="http://www.w3.org/2000/svg">
<path d="M2 40V34.4C2 33.2667 2.292 32.2247 2.876 31.274C3.45867 30.3247 4.23333 29.6 5.2 29.1C7.26667 28.0667 9.36667 27.2913 11.5 26.774C13.6333 26.258 15.8 26 18 26C20.2 26 22.3667 26.258 24.5 26.774C26.6333 27.2913 28.7333 28.0667 30.8 29.1C31.7667 29.6 32.5413 30.3247 33.124 31.274C33.708 32.2247 34 33.2667 34 34.4V40H2ZM38 40V34C38 32.5333 37.592 31.1247 36.776 29.774C35.9587 28.4247 34.8 27.2667 33.3 26.3C35 26.5 36.6 26.8413 38.1 27.324C39.6 27.808 41 28.4 42.3 29.1C43.5 29.7667 44.4167 30.508 45.05 31.324C45.6833 32.1413 46 33.0333 46 34V40H38ZM18 24C15.8 24 13.9167 23.2167 12.35 21.65C10.7833 20.0833 10 18.2 10 16C10 13.8 10.7833 11.9167 12.35 10.35C13.9167 8.78333 15.8 8 18 8C20.2 8 22.0833 8.78333 23.65 10.35C25.2167 11.9167 26 13.8 26 16C26 18.2 25.2167 20.0833 23.65 21.65C22.0833 23.2167 20.2 24 18 24ZM38 16C38 18.2 37.2167 20.0833 35.65 21.65C34.0833 23.2167 32.2 24 30 24C29.6333 24 29.1667 23.9587 28.6 23.876C28.0333 23.792 27.5667 23.7 27.2 23.6C28.1 22.5333 28.7913 21.35 29.274 20.05C29.758 18.75 30 17.4 30 16C30 14.6 29.758 13.25 29.274 11.95C28.7913 10.65 28.1 9.46667 27.2 8.4C27.6667 8.23333 28.1333 8.12467 28.6 8.074C29.0667 8.02467 29.5333 8 30 8C32.2 8 34.0833 8.78333 35.65 10.35C37.2167 11.9167 38 13.8 38 16Z" fill="black" fill-opacity="0.5"/>
</svg>

