<svg width="56" height="50" viewBox="0 0 56 50" fill="none" xmlns="http://www.w3.org/2000/svg">
<path d="M15.2727 37.5C17.3939 37.5 19.197 36.2847 20.6818 33.8542C22.1667 31.4236 22.9091 28.4722 22.9091 25C22.9091 21.5278 22.1667 18.5764 20.6818 16.1458C19.197 13.7153 17.3939 12.5 15.2727 12.5C13.1515 12.5 11.3485 13.7153 9.86364 16.1458C8.37879 18.5764 7.63636 21.5278 7.63636 25C7.63636 28.4722 8.37879 31.4236 9.86364 33.8542C11.3485 36.2847 13.1515 37.5 15.2727 37.5ZM15.2727 50C11.0303 50 7.42424 47.5694 4.45455 42.7083C1.48485 37.8472 0 31.9444 0 25C0 18.0556 1.48485 12.1528 4.45455 7.29167C7.42424 2.43056 11.0303 0 15.2727 0C18.7091 0 21.711 1.59722 24.2785 4.79167C26.8444 7.98611 28.6364 11.9444 29.6545 16.6667H50.9727L56 24.8958L47.0909 41.5625L40.7273 33.3333L35.6364 41.6667L30.5455 33.3333H29.6545C28.5939 38.3333 26.7485 42.3611 24.1182 45.4167C21.4879 48.4722 18.5394 50 15.2727 50Z" fill="black" fill-opacity="0.5"/>
</svg>
