<svg width="56" height="56" viewBox="0 0 56 56" fill="none" xmlns="http://www.w3.org/2000/svg">
<path d="M28 42.6667C29.8565 42.6667 31.637 42.1048 32.9497 41.1046C34.2625 40.1044 35 38.7478 35 37.3333C35 35.9188 34.2625 34.5623 32.9497 33.5621C31.637 32.5619 29.8565 32 28 32C26.1435 32 24.363 32.5619 23.0503 33.5621C21.7375 34.5623 21 35.9188 21 37.3333C21 38.7478 21.7375 40.1044 23.0503 41.1046C24.363 42.1048 26.1435 42.6667 28 42.6667ZM49 18.6667C50.8565 18.6667 52.637 19.2286 53.9497 20.2288C55.2625 21.229 56 22.5855 56 24V50.6667C56 52.0812 55.2625 53.4377 53.9497 54.4379C52.637 55.4381 50.8565 56 49 56H7C5.14348 56 3.36301 55.4381 2.05025 54.4379C0.737498 53.4377 0 52.0812 0 50.6667V24C0 22.5855 0.737498 21.229 2.05025 20.2288C3.36301 19.2286 5.14348 18.6667 7 18.6667H10.5V13.3333C10.5 9.79711 12.3437 6.40573 15.6256 3.90524C18.9075 1.40476 23.3587 0 28 0C30.2981 0 32.5738 0.344877 34.697 1.01494C36.8202 1.685 38.7493 2.66713 40.3744 3.90524C41.9994 5.14336 43.2884 6.61321 44.1679 8.23089C45.0474 9.84856 45.5 11.5824 45.5 13.3333V18.6667H49ZM28 5.33333C25.2152 5.33333 22.5445 6.17619 20.5754 7.67648C18.6062 9.17677 17.5 11.2116 17.5 13.3333V18.6667H38.5V13.3333C38.5 11.2116 37.3938 9.17677 35.4246 7.67648C33.4555 6.17619 30.7848 5.33333 28 5.33333Z" fill="#151414" fill-opacity="0.5"/>
</svg>
