<svg width="829" height="771" viewBox="0 0 829 771" fill="none" xmlns="http://www.w3.org/2000/svg">
<g clip-path="url(#clip0_21_62)">
<path d="M179.812 737C265.312 737 334.624 730.145 334.624 721.688C334.624 713.232 265.312 706.376 179.812 706.376C94.3117 706.376 25 713.232 25 721.688C25 730.145 94.3117 737 179.812 737Z" fill="#E6E6E6"/>
<path d="M143.335 189.205C170.277 174.282 203.834 183.737 236.606 190.299C236.911 182.353 240.607 172.681 236.735 167.137C232.031 160.401 232.464 153.324 235.295 146.206C242.533 128.004 232.162 108.636 221.691 92.532C219.33 88.9104 216.347 86.0649 212.984 84.2265C209.621 82.3882 205.972 81.6088 202.334 81.9518L182.936 83.7562C178.215 84.1953 173.711 86.5012 170.024 90.3654C166.338 94.2297 163.645 99.4679 162.308 105.379C157.676 113.583 155.197 121.764 156.757 129.902C149.82 136.076 148.654 143.529 151.772 151.931C154.415 157.221 154.387 162.37 151.651 167.377C148.059 173.761 145.307 180.879 143.509 188.439L143.335 189.205Z" fill="#2F2E41"/>
<path d="M783.588 641.597H234.478C229.594 641.597 224.911 639.071 221.458 634.574C218.005 630.077 216.066 623.979 216.066 617.62C415.118 587.493 610.429 587.493 802 617.62C802 623.979 800.06 630.077 796.607 634.574C793.154 639.071 788.471 641.597 783.588 641.597Z" fill="#2F2E41"/>
<path d="M802 619.03L216.066 617.62L283.973 468.82L284.298 468.115V140.178C284.298 136.197 284.9 132.256 286.069 128.578C287.239 124.901 288.953 121.559 291.115 118.745C293.276 115.93 295.842 113.698 298.666 112.174C301.49 110.651 304.517 109.868 307.573 109.868H707.243C710.3 109.868 713.326 110.651 716.15 112.174C718.974 113.698 721.54 115.93 723.702 118.745C725.863 121.559 727.577 124.901 728.747 128.578C729.917 132.256 730.518 136.197 730.518 140.178V470.372L802 619.03Z" fill="#3F3D56"/>
<path d="M307.042 131.024C305.032 131.027 303.105 132.068 301.684 133.919C300.263 135.77 299.463 138.28 299.461 140.897V439.907C299.463 442.524 300.263 445.033 301.684 446.884C303.105 448.735 305.032 449.776 307.042 449.779H711.023C713.033 449.776 714.96 448.735 716.381 446.884C717.803 445.033 718.602 442.524 718.605 439.907V140.897C718.602 138.28 717.803 135.77 716.381 133.919C714.96 132.069 713.033 131.027 711.023 131.024H307.042Z" fill="white"/>
<path d="M308.735 489.271C308.114 489.273 307.506 489.505 306.983 489.942C306.46 490.378 306.044 491 305.783 491.734L284.859 550.972C284.631 551.616 284.531 552.325 284.569 553.033C284.607 553.741 284.781 554.425 285.075 555.023C285.368 555.62 285.773 556.112 286.251 556.452C286.729 556.793 287.265 556.971 287.81 556.971H727.841C728.395 556.971 728.94 556.787 729.423 556.436C729.907 556.085 730.314 555.578 730.605 554.964C730.896 554.351 731.062 553.651 731.087 552.93C731.111 552.21 730.994 551.493 730.747 550.848L708.002 491.61C707.734 490.906 707.32 490.313 706.806 489.9C706.293 489.487 705.701 489.269 705.097 489.271H308.735Z" fill="#2F2E41"/>
<path d="M507.408 126.088C510.1 126.088 512.282 123.246 512.282 119.741C512.282 116.236 510.1 113.394 507.408 113.394C504.716 113.394 502.534 116.236 502.534 119.741C502.534 123.246 504.716 126.088 507.408 126.088Z" fill="white"/>
<path d="M464.157 568.255C463.443 568.256 462.748 568.563 462.181 569.129C461.615 569.695 461.206 570.488 461.02 571.386L455.771 596.773C455.641 597.4 455.624 598.058 455.721 598.695C455.818 599.332 456.026 599.932 456.329 600.447C456.632 600.963 457.023 601.381 457.47 601.668C457.917 601.955 458.409 602.105 458.908 602.105H558.727C559.245 602.105 559.755 601.944 560.215 601.634C560.676 601.325 561.073 600.877 561.373 600.328C561.673 599.778 561.869 599.143 561.942 598.475C562.016 597.808 561.966 597.127 561.796 596.489L555.048 571.102C554.827 570.271 554.412 569.55 553.862 569.04C553.312 568.529 552.653 568.255 551.978 568.255H464.157Z" fill="#2F2E41"/>
<path d="M730.518 463.179V468.82H283.973L284.309 468.115V463.179H730.518Z" fill="#2F2E41"/>
<path d="M718.063 230.459C759.934 230.459 793.877 186.256 793.877 131.729C793.877 77.2027 759.934 33 718.063 33C676.192 33 642.249 77.2027 642.249 131.729C642.249 186.256 676.192 230.459 718.063 230.459Z" fill="#536DFE"/>
<path d="M749.472 174.747H686.654C685.506 174.746 684.404 174.151 683.592 173.093C682.78 172.036 682.323 170.601 682.322 169.106V119.741C682.323 118.245 682.78 116.811 683.592 115.753C684.404 114.696 685.506 114.101 686.654 114.099H749.472C750.62 114.101 751.721 114.696 752.534 115.753C753.346 116.811 753.803 118.245 753.804 119.741V169.106C753.803 170.601 753.346 172.036 752.534 173.093C751.721 174.151 750.62 174.746 749.472 174.747ZM686.654 119.741V169.106H749.475L749.472 119.741L686.654 119.741Z" fill="white"/>
<path d="M737.558 119.741H698.568V97.1741C698.568 80.829 706.767 68.9657 718.063 68.9657C729.359 68.9657 737.558 80.829 737.558 97.1741L737.558 119.741ZM702.9 114.099H733.226V97.1741C733.226 83.8873 726.991 74.6074 718.063 74.6074C709.135 74.6074 702.9 83.8874 702.9 97.1741L702.9 114.099Z" fill="white"/>
<path d="M718.063 148.655C720.456 148.655 722.395 146.129 722.395 143.013C722.395 139.897 720.456 137.371 718.063 137.371C715.67 137.371 713.731 139.897 713.731 143.013C713.731 146.129 715.67 148.655 718.063 148.655Z" fill="white"/>
<path d="M665.138 348.359H352.927C351.395 348.356 349.925 347.562 348.841 346.151C347.757 344.739 347.148 342.825 347.146 340.829V239.974C347.148 237.978 347.757 236.064 348.841 234.653C349.925 233.241 351.395 232.447 352.927 232.445H665.138C666.671 232.447 668.141 233.241 669.224 234.653C670.308 236.064 670.918 237.978 670.92 239.974V340.829C670.918 342.825 670.308 344.739 669.224 346.151C668.141 347.562 666.671 348.356 665.138 348.359ZM352.927 235.457C352.008 235.458 351.126 235.935 350.476 236.781C349.825 237.628 349.459 238.777 349.458 239.974V340.829C349.459 342.027 349.825 343.175 350.476 344.022C351.126 344.869 352.008 345.346 352.927 345.347H665.138C666.058 345.346 666.94 344.869 667.59 344.022C668.24 343.175 668.606 342.027 668.607 340.829V239.974C668.606 238.777 668.24 237.628 667.59 236.781C666.94 235.934 666.058 235.458 665.138 235.457L352.927 235.457Z" fill="#E6E6E6"/>
<path d="M401.439 317.202C414.446 317.202 424.99 303.471 424.99 286.532C424.99 269.593 414.446 255.862 401.439 255.862C388.431 255.862 377.887 269.593 377.887 286.532C377.887 303.471 388.431 317.202 401.439 317.202Z" fill="#E6E6E6"/>
<path d="M455.831 266.085C455.315 266.084 454.804 266.216 454.327 266.472C453.85 266.728 453.417 267.105 453.052 267.58C452.687 268.054 452.397 268.618 452.199 269.239C452.002 269.86 451.9 270.525 451.9 271.197C451.9 271.869 452.002 272.534 452.199 273.155C452.397 273.776 452.687 274.34 453.052 274.814C453.417 275.289 453.85 275.665 454.327 275.922C454.804 276.178 455.315 276.31 455.831 276.309H640.879C641.92 276.309 642.918 275.77 643.654 274.811C644.39 273.853 644.804 272.553 644.804 271.197C644.804 269.841 644.39 268.541 643.654 267.582C642.918 266.624 641.92 266.085 640.879 266.085H455.831Z" fill="#E6E6E6"/>
<path d="M455.831 296.755C454.79 296.755 453.792 297.294 453.056 298.253C452.32 299.211 451.906 300.511 451.906 301.867C451.906 303.223 452.32 304.523 453.056 305.482C453.792 306.44 454.79 306.979 455.831 306.979H535.458C536.499 306.979 537.497 306.44 538.233 305.482C538.969 304.523 539.383 303.223 539.383 301.867C539.383 300.511 538.969 299.211 538.233 298.253C537.497 297.294 536.499 296.755 535.458 296.755H455.831Z" fill="#E6E6E6"/>
<path d="M283.205 298.823L225.49 338.781L224.76 305.483C243.598 301.388 261.52 294.258 278.091 282.65L284.127 263.229C284.785 261.113 285.854 259.256 287.229 257.84C288.605 256.425 290.239 255.499 291.972 255.154C293.705 254.81 295.477 255.058 297.114 255.875C298.751 256.691 300.197 258.048 301.31 259.812C302.938 262.393 303.752 265.684 303.586 269.017C303.421 272.35 302.289 275.477 300.42 277.764L283.205 298.823Z" fill="#FFB8B8"/>
<path d="M142.185 529.527C141.764 527.516 141.675 525.412 141.923 523.353C142.171 521.293 142.751 519.326 143.625 517.58L156.303 492.242C159.302 486.248 163.903 481.92 169.214 480.095C174.525 478.27 180.167 479.08 185.046 482.366C179.718 494.177 180.461 504.539 186.886 513.543C176.911 519.885 167.692 528.07 159.514 537.844C158.021 539.17 156.306 540.011 154.513 540.299C152.72 540.587 150.9 540.313 149.204 539.499C147.509 538.685 145.987 537.355 144.766 535.621C143.545 533.886 142.66 531.797 142.185 529.527Z" fill="#2F2E41"/>
<path d="M285.834 496.397C283.915 500.561 281.207 504.013 277.969 506.421C274.731 508.83 271.072 510.114 267.344 510.151L183.118 510.982L179.465 483.392L216.724 469.121L185.309 437.725L219.646 385.399L282.012 461.096C285.657 465.52 288.025 471.44 288.721 477.865C289.416 484.291 288.397 490.832 285.834 496.397Z" fill="#2F2E41"/>
<path d="M169.967 685.085H150.242C132.532 526.993 114.504 368.46 167.776 309.288L230.604 322.608L222.568 392.059L187.501 444.385L169.967 685.085Z" fill="#2F2E41"/>
<path d="M187.307 720.897C185.763 721.446 184.147 721.562 182.566 721.239C180.985 720.916 179.474 720.161 178.133 719.023L156.715 715.274C152.113 711.37 148.789 705.378 147.387 698.461C145.986 691.545 146.607 684.197 149.13 677.844C158.2 684.782 166.157 683.814 173.071 675.446C177.956 688.292 186.006 687.508 193.693 698.33C194.711 700.275 195.357 702.507 195.578 704.843C195.799 707.178 195.589 709.548 194.964 711.756C194.339 713.964 193.318 715.946 191.986 717.536C190.655 719.126 189.05 720.278 187.307 720.897Z" fill="#2F2E41"/>
<path d="M216.724 203.685L180.195 192.268C186.262 176.097 186.762 158.102 183.848 138.991L208.687 138.039C209.466 161.805 211.82 184.008 216.724 203.685Z" fill="#FFB8B8"/>
<path d="M226.763 351.253C200.172 374.85 181.383 352.061 167.045 316.899C169.038 295.384 165.812 269.636 159.837 241.659C157.18 229.32 158.172 216.131 162.617 204.697C167.062 193.263 174.638 184.415 183.848 179.9L215.262 197.025C241.937 225.34 247.187 256.01 237.179 288.358L226.763 351.253Z" fill="#536DFE"/>
<path d="M150.242 227.469L121.02 247.448L172.89 287.407L180.107 310.591C180.589 312.138 180.823 313.797 180.797 315.466C180.77 317.136 180.483 318.78 179.952 320.3C179.421 321.82 178.658 323.184 177.71 324.307C176.761 325.431 175.647 326.291 174.435 326.835C173.057 327.454 171.588 327.649 170.142 327.405C168.697 327.16 167.314 326.484 166.103 325.428C164.892 324.372 163.885 322.965 163.161 321.318C162.437 319.67 162.016 317.827 161.931 315.932L161.201 299.775L95.2744 271.443C93.0532 270.489 91.0279 268.888 89.3519 266.763C87.676 264.639 86.3932 262.045 85.601 259.179C84.4461 255.001 84.3873 250.443 85.4338 246.217C86.4803 241.992 88.573 238.337 91.3845 235.825L144.398 188.463L150.242 227.469Z" fill="#FFB8B8"/>
<path d="M179.465 231.275C167.277 224.319 156.195 231.875 142.206 237.935L140.014 187.511C153.905 177.87 167.148 175.271 179.465 182.754L179.465 231.275Z" fill="#536DFE"/>
<path d="M194.044 163.016C206.924 163.016 217.366 149.418 217.366 132.645C217.366 115.871 206.924 102.274 194.044 102.274C181.164 102.274 170.722 115.871 170.722 132.645C170.722 149.418 181.164 163.016 194.044 163.016Z" fill="#FFB8B8"/>
<path d="M221.945 128.813C198.854 131.758 181.259 126.84 170.014 112.837V101.56H219.985L221.945 128.813Z" fill="#2F2E41"/>
</g>
<defs>
<clipPath id="clip0_21_62">
<rect width="777" height="704" fill="white" transform="translate(25 33)"/>
</clipPath>
</defs>
</svg>
