<svg width="48" height="48" viewBox="0 0 48 48" fill="none" xmlns="http://www.w3.org/2000/svg">
<path d="M12 4H30C31.0609 4 32.0783 4.42143 32.8284 5.17157C33.5786 5.92172 34 6.93913 34 8V12H30V8H12V40H30V36H34V40C34 41.0609 33.5786 42.0783 32.8284 42.8284C32.0783 43.5786 31.0609 44 30 44H12C10.9391 44 9.92172 43.5786 9.17157 42.8284C8.42143 42.0783 8 41.0609 8 40V8C8 6.93913 8.42143 5.92172 9.17157 5.17157C9.92172 4.42143 10.9391 4 12 4Z" fill="white"/>
<path d="M32.18 31.18L35 34L45 24L35 14L32.18 16.82L37.34 22H18V26H37.34L32.18 31.18Z" fill="white"/>
</svg>
