<svg width="48" height="56" viewBox="0 0 48 56" fill="none" xmlns="http://www.w3.org/2000/svg">
<path d="M31.3018 33.9102C30.9594 33.7982 28.7948 32.8225 30.1474 28.7108H30.128C33.6538 25.0794 36.3483 19.236 36.3483 13.4831C36.3483 4.63723 30.4662 0 23.6298 0C16.7892 0 10.9394 4.63508 10.9394 13.4831C10.9394 19.2597 13.6188 25.1268 17.1662 28.7495C18.5489 32.3766 16.0763 33.7228 15.5594 33.9123C8.4 36.5012 0 41.2203 0 45.8791V47.6258C0 53.9732 12.3071 55.4163 23.6966 55.4163C35.1034 55.4163 47.2554 53.9732 47.2554 47.6258V45.8791C47.2554 41.0803 38.8145 36.3978 31.3018 33.9102Z" fill="black" fill-opacity="0.5"/>
</svg>
