<svg width="948" height="604" viewBox="0 0 948 604" fill="none" xmlns="http://www.w3.org/2000/svg">
<g clip-path="url(#clip0_423_26)">
<path d="M326.281 565.12L297.281 581.96L325.871 575.06C325.65 577.42 325.351 579.74 324.951 582.01C324.84 582.64 324.721 583.26 324.59 583.88C323.613 589.092 321.843 594.124 319.34 598.8C318.86 599.66 318.38 600.5 317.88 601.31C317.4 602.13 316.9 602.92 316.391 603.69H239.52C238.88 602.92 238.27 602.12 237.71 601.31C232.229 593.595 230.009 584.031 231.531 574.69C231.81 572.79 232.211 570.909 232.73 569.06C233.234 567.17 233.845 565.31 234.561 563.49C235.809 560.274 237.283 557.149 238.971 554.14C242.491 547.8 247.98 542.08 254.451 537C257.583 534.555 260.848 532.285 264.23 530.2C264.871 529.79 265.521 529.39 266.181 529C267.19 528.4 268.201 527.81 269.221 527.24C271.25 526.08 273.3 524.98 275.351 523.94C275.891 523.66 276.42 523.39 276.951 523.13C281.4 520.91 285.831 518.92 290.05 517.17C290.581 516.95 291.121 516.73 291.65 516.52C300.045 513.086 308.633 510.144 317.371 507.71C317.371 507.71 317.4 507.79 317.451 507.96C317.581 508.42 317.911 509.53 318.36 511.17C319.61 515.72 321.811 524.4 323.581 534.88C323.681 535.45 323.77 536.03 323.87 536.61C325.349 545.474 326.168 554.435 326.32 563.42C326.33 563.98 326.33 564.53 326.33 565.09L326.281 565.12Z" fill="#F2F2F2"/>
<path d="M319.49 506.69C319.48 506.72 319.38 507.21 319.15 508.11C318.96 508.86 318.7 509.89 318.36 511.17C317.19 515.64 315.11 523.13 312.15 532.15C311.98 532.67 311.8 533.21 311.62 533.75C309.56 539.92 307.11 546.74 304.28 553.75C303.57 555.51 302.86 557.24 302.13 558.93C301.91 559.46 301.69 559.98 301.46 560.49C298.36 567.67 295.17 574.24 291.89 580.2L291.06 581.69C287.248 588.604 282.834 595.17 277.87 601.31C277.2 602.13 276.52 602.92 275.83 603.69H273.51C274.21 602.92 274.91 602.12 275.59 601.31C280.839 594.957 285.483 588.128 289.46 580.91C289.74 580.42 290.02 579.93 290.29 579.43C293.82 573.02 297.03 566.32 299.9 559.68C300.13 559.17 300.35 558.65 300.57 558.12C304.32 549.34 307.47 540.71 310.01 533.11C310.19 532.57 310.37 532.03 310.54 531.5C314.24 520.28 316.56 511.48 317.45 507.96C317.57 507.44 317.67 507.03 317.74 506.75C317.81 506.49 317.84 506.34 317.85 506.31L318.66 506.5H318.67L319.49 506.69Z" fill="white"/>
<path d="M325.109 535.01C324.6 534.98 324.089 534.93 323.58 534.88C319.667 534.474 315.824 533.556 312.149 532.15C311.62 531.94 311.08 531.73 310.54 531.5C309.077 530.871 307.648 530.167 306.259 529.39C300.514 526.21 295.528 521.819 291.649 516.52C291.52 516.35 291.39 516.17 291.27 516C290.75 516.22 290.22 516.44 289.68 516.66C289.799 516.83 289.919 517 290.049 517.17C294.097 522.824 299.355 527.504 305.439 530.87C306.922 531.696 308.448 532.444 310.009 533.11C310.54 533.33 311.08 533.55 311.62 533.75C315.556 535.249 319.676 536.211 323.87 536.61C324.37 536.66 324.879 536.7 325.379 536.73C325.29 536.14 325.2 535.57 325.109 535.01Z" fill="white"/>
<path d="M326.321 563.42C317.998 564.18 309.627 562.626 302.131 558.93C301.601 558.68 301.081 558.41 300.571 558.12C300.409 558.047 300.252 557.963 300.101 557.87C293.754 554.342 288.342 549.349 284.315 543.306C280.288 537.263 277.764 530.346 276.951 523.13C276.931 522.96 276.911 522.78 276.891 522.61C276.351 522.89 275.811 523.16 275.281 523.44C275.301 523.61 275.321 523.77 275.351 523.94C276.275 531.308 278.923 538.354 283.081 544.507C287.239 550.659 292.789 555.745 299.281 559.35C299.481 559.46 299.691 559.58 299.901 559.68C300.421 559.96 300.941 560.23 301.461 560.49C309.158 564.266 317.741 565.867 326.281 565.12C326.731 565.08 327.181 565.03 327.631 564.98C327.631 564.41 327.641 563.85 327.641 563.28C327.201 563.33 326.761 563.38 326.321 563.42Z" fill="white"/>
<path d="M324.951 582.01C315.948 584.965 306.247 585.038 297.201 582.22C295.39 581.661 293.616 580.986 291.891 580.2C291.351 579.96 290.82 579.7 290.291 579.43C289.721 579.15 289.161 578.85 288.61 578.55C281.131 574.386 274.973 568.204 270.837 560.709C266.701 553.214 264.755 544.708 265.221 536.16C265.343 533.751 265.664 531.356 266.181 529C266.211 528.84 266.241 528.68 266.281 528.52C265.621 528.93 264.961 529.34 264.311 529.76C264.281 529.91 264.251 530.05 264.231 530.2C263.644 533.429 263.4 536.71 263.501 539.99C263.722 548.197 266.077 556.204 270.335 563.224C274.592 570.243 280.605 576.032 287.781 580.02C288.34 580.33 288.9 580.63 289.461 580.91C289.991 581.18 290.531 581.44 291.061 581.69C301.59 586.511 313.524 587.29 324.59 583.88C324.961 583.78 325.331 583.66 325.701 583.54C325.851 582.9 325.981 582.26 326.101 581.62C325.721 581.76 325.34 581.89 324.951 582.01Z" fill="white"/>
<path d="M256.25 246.52H200.25V302.52H256.25V246.52Z" fill="#9E616A"/>
<path d="M165.326 581.214L176.36 581.213L181.608 538.656L165.324 538.657L165.326 581.214Z" fill="#9E616A"/>
<path d="M195.61 593.65L179.031 582.2V574.73L177.15 574.84L165.331 575.55L161.59 575.77L159.46 601.31L159.391 602.16H167.221L167.38 601.31L168.621 594.77L171.791 601.31L172.201 602.16H192.96C194.197 602.158 195.381 601.666 196.256 600.793C197.131 599.92 197.625 598.736 197.63 597.5C197.631 596.743 197.448 595.996 197.096 595.326C196.744 594.655 196.234 594.08 195.61 593.65Z" fill="#2F2E41"/>
<path d="M229.854 574.209L240.458 577.258L257.266 537.81L241.616 533.309L229.854 574.209Z" fill="#9E616A"/>
<path d="M255.52 594.54L242.75 578.95L244.819 571.77L242.979 571.36L232.729 569.06L231.419 568.77L227.77 567.95L218.359 592.7L225.879 594.87L229.27 588.15L230.66 596.24L235.399 597.6L248.29 601.31L250.62 601.98C251.576 602.257 252.596 602.221 253.531 601.877C254.465 601.532 255.265 600.898 255.812 600.066C256.36 599.235 256.627 598.249 256.574 597.255C256.522 596.261 256.152 595.309 255.52 594.54Z" fill="#2F2E41"/>
<path d="M943.98 -1.90735e-06H359.52C358.652 0.00264498 357.82 0.349384 357.207 0.964216C356.594 1.57905 356.25 2.41182 356.25 3.28V22.53C356.25 23.3982 356.594 24.231 357.207 24.8458C357.82 25.4606 358.652 25.8074 359.52 25.81H943.98C944.848 25.8075 945.68 25.4608 946.293 24.8459C946.906 24.231 947.25 23.3982 947.25 22.53V3.28C947.25 2.41179 946.906 1.57898 946.293 0.964125C945.68 0.349273 944.848 0.00255533 943.98 -1.90735e-06Z" fill="#E4E4E4"/>
<path d="M375.249 16.6127C377.816 16.6127 379.897 14.5318 379.897 11.9648C379.897 9.39789 377.816 7.31698 375.249 7.31698C372.682 7.31698 370.602 9.39789 370.602 11.9648C370.602 14.5318 372.682 16.6127 375.249 16.6127Z" fill="white"/>
<path d="M392.89 16.6127C395.457 16.6127 397.538 14.5318 397.538 11.9648C397.538 9.39789 395.457 7.31698 392.89 7.31698C390.323 7.31698 388.242 9.39789 388.242 11.9648C388.242 14.5318 390.323 16.6127 392.89 16.6127Z" fill="white"/>
<path d="M410.533 16.6127C413.1 16.6127 415.18 14.5318 415.18 11.9648C415.18 9.39789 413.1 7.31698 410.533 7.31698C407.966 7.31698 405.885 9.39789 405.885 11.9648C405.885 14.5318 407.966 16.6127 410.533 16.6127Z" fill="white"/>
<path d="M926.69 5.75999H906.38C905.981 5.75999 905.598 5.91856 905.316 6.2008C905.034 6.48305 904.875 6.86585 904.875 7.265C904.875 7.66415 905.034 8.04695 905.316 8.32919C905.598 8.61143 905.981 8.77 906.38 8.77H926.69C927.089 8.77 927.472 8.61143 927.754 8.32919C928.037 8.04695 928.195 7.66415 928.195 7.265C928.195 6.86585 928.037 6.48305 927.754 6.2008C927.472 5.91856 927.089 5.75999 926.69 5.75999Z" fill="white"/>
<path d="M926.69 11.4H906.38C906.182 11.4 905.987 11.4389 905.804 11.5146C905.621 11.5902 905.456 11.7011 905.316 11.8408C905.176 11.9806 905.065 12.1465 904.99 12.3291C904.914 12.5116 904.875 12.7074 904.875 12.905C904.875 13.1026 904.914 13.2983 904.99 13.4809C905.065 13.6635 905.176 13.8294 905.316 13.9692C905.456 14.1089 905.621 14.2198 905.804 14.2954C905.987 14.3711 906.182 14.41 906.38 14.41H926.69C926.888 14.41 927.083 14.3711 927.266 14.2954C927.449 14.2198 927.615 14.1089 927.754 13.9692C927.894 13.8294 928.005 13.6635 928.08 13.4809C928.156 13.2983 928.195 13.1026 928.195 12.905C928.195 12.7074 928.156 12.5116 928.08 12.3291C928.005 12.1465 927.894 11.9806 927.754 11.8408C927.615 11.7011 927.449 11.5902 927.266 11.5146C927.083 11.4389 926.888 11.4 926.69 11.4Z" fill="white"/>
<path d="M926.69 17.04H906.38C905.981 17.04 905.598 17.1986 905.316 17.4808C905.034 17.763 904.875 18.1458 904.875 18.545C904.875 18.9441 905.034 19.3269 905.316 19.6092C905.598 19.8914 905.981 20.05 906.38 20.05H926.69C927.089 20.05 927.472 19.8914 927.754 19.6092C928.037 19.3269 928.195 18.9441 928.195 18.545C928.195 18.1458 928.037 17.763 927.754 17.4808C927.472 17.1986 927.089 17.04 926.69 17.04Z" fill="white"/>
<path d="M924.38 81.49H772.951C771.896 81.4927 770.885 81.9129 770.139 82.6587C769.394 83.4045 768.973 84.4153 768.971 85.47V146.92C768.973 147.975 769.394 148.986 770.139 149.731C770.885 150.477 771.896 150.897 772.951 150.9H924.38C925.436 150.899 926.447 150.479 927.193 149.733C927.94 148.987 928.359 147.975 928.36 146.92V85.47C928.359 84.4148 927.94 83.403 927.193 82.6568C926.447 81.9107 925.436 81.491 924.38 81.49Z" fill="#E4E4E4"/>
<path d="M909.961 170.82H787.371C786.104 170.82 784.89 171.323 783.994 172.219C783.099 173.114 782.596 174.329 782.596 175.595C782.596 176.861 783.099 178.076 783.994 178.971C784.89 179.867 786.104 180.37 787.371 180.37H909.961C916.181 180.46 916.121 170.73 909.961 170.82Z" fill="#E4E4E4"/>
<path d="M909.961 192.71H787.371C786.104 192.71 784.89 193.213 783.994 194.109C783.099 195.004 782.596 196.219 782.596 197.485C782.596 198.751 783.099 199.966 783.994 200.861C784.89 201.757 786.104 202.26 787.371 202.26H909.961C916.181 202.35 916.121 192.62 909.961 192.71Z" fill="#E4E4E4"/>
<path d="M909.961 214.6H787.371C786.104 214.6 784.89 215.103 783.994 215.999C783.099 216.894 782.596 218.109 782.596 219.375C782.596 220.641 783.099 221.856 783.994 222.751C784.89 223.647 786.104 224.15 787.371 224.15H909.961C916.181 224.24 916.121 214.51 909.961 214.6Z" fill="#E4E4E4"/>
<path d="M725.38 81.49H573.951C572.896 81.4927 571.885 81.9129 571.139 82.6587C570.394 83.4045 569.973 84.4153 569.971 85.47V146.92C569.973 147.975 570.394 148.986 571.139 149.731C571.885 150.477 572.896 150.897 573.951 150.9H725.38C726.436 150.899 727.447 150.479 728.194 149.733C728.94 148.987 729.359 147.975 729.36 146.92V85.47C729.359 84.4148 728.94 83.403 728.194 82.6568C727.447 81.9107 726.436 81.491 725.38 81.49Z" fill="#E4E4E4"/>
<path d="M710.961 170.82H588.371C587.104 170.82 585.89 171.323 584.994 172.219C584.099 173.114 583.596 174.329 583.596 175.595C583.596 176.861 584.099 178.076 584.994 178.971C585.89 179.867 587.104 180.37 588.371 180.37H710.961C717.181 180.46 717.121 170.73 710.961 170.82Z" fill="#E4E4E4"/>
<path d="M710.961 192.71H588.371C587.104 192.71 585.89 193.213 584.994 194.109C584.099 195.004 583.596 196.219 583.596 197.485C583.596 198.751 584.099 199.966 584.994 200.861C585.89 201.757 587.104 202.26 588.371 202.26H710.961C717.181 202.35 717.121 192.62 710.961 192.71Z" fill="#E4E4E4"/>
<path d="M710.961 214.6H588.371C587.104 214.6 585.89 215.103 584.994 215.999C584.099 216.894 583.596 218.109 583.596 219.375C583.596 220.641 584.099 221.856 584.994 222.751C585.89 223.647 587.104 224.15 588.371 224.15H710.961C717.181 224.24 717.121 214.51 710.961 214.6Z" fill="#E4E4E4"/>
<path d="M345.667 197.707C345.474 198.276 345.332 198.861 345.244 199.455L283.239 188.495L229.832 159.696C226.472 157.884 222.551 157.413 218.858 158.379C215.165 159.345 211.976 161.676 209.934 164.901C207.891 168.125 207.148 172.005 207.854 175.756C208.559 179.507 210.661 182.851 213.735 185.114C223.697 192.446 234.742 198.18 246.471 202.109L285.191 215.079L353.012 210.732C354.895 211.138 356.856 210.991 358.658 210.309C360.46 209.628 362.027 208.44 363.169 206.888C364.312 205.337 364.982 203.489 365.099 201.566C365.216 199.643 364.775 197.727 363.828 196.048C362.882 194.37 361.47 193.001 359.764 192.106C358.058 191.211 356.13 190.828 354.211 191.004C352.292 191.179 350.465 191.905 348.949 193.094C347.434 194.283 346.294 195.885 345.667 197.707Z" fill="#9E616A"/>
<path d="M498.18 197.9H305.16C303.813 197.902 302.522 198.438 301.57 199.39C300.618 200.342 300.082 201.633 300.08 202.98V281.29C300.082 282.637 300.618 283.928 301.57 284.88C302.522 285.832 303.813 286.368 305.16 286.37H498.18C499.525 286.366 500.814 285.829 501.764 284.877C502.714 283.925 503.249 282.635 503.25 281.29V202.98C503.249 201.635 502.714 200.345 501.764 199.393C500.814 198.441 499.525 197.904 498.18 197.9Z" fill="#536DFE"/>
<path d="M479.799 311.76H323.539C321.924 311.76 320.375 312.402 319.233 313.544C318.091 314.686 317.449 316.235 317.449 317.85C317.449 319.465 318.091 321.014 319.233 322.156C320.375 323.298 321.924 323.94 323.539 323.94H479.799C487.729 324.05 487.649 311.65 479.799 311.76Z" fill="#536DFE"/>
<path d="M479.799 339.66H323.539C321.924 339.66 320.375 340.302 319.233 341.444C318.091 342.586 317.449 344.135 317.449 345.75C317.449 347.365 318.091 348.914 319.233 350.056C320.375 351.198 321.924 351.84 323.539 351.84H479.799C487.729 351.95 487.649 339.55 479.799 339.66Z" fill="#536DFE"/>
<path d="M479.8 367.57H323.54C322.741 367.57 321.95 367.727 321.211 368.033C320.473 368.339 319.802 368.787 319.237 369.352C318.672 369.917 318.224 370.588 317.918 371.326C317.612 372.065 317.455 372.856 317.455 373.655C317.455 374.454 317.612 375.245 317.918 375.984C318.224 376.722 318.672 377.393 319.237 377.958C319.802 378.523 320.473 378.971 321.211 379.277C321.95 379.583 322.741 379.74 323.54 379.74H479.8C487.73 379.85 487.65 367.46 479.8 367.57Z" fill="#536DFE"/>
<path d="M257.364 131.897C265.24 117.491 259.945 99.4274 245.538 91.552C231.132 83.6766 213.069 88.9713 205.193 103.378C197.318 117.785 202.612 135.848 217.019 143.723C231.426 151.599 249.489 146.304 257.364 131.897Z" fill="#9E616A"/>
<path d="M236.251 81.52H217.047C204.457 81.52 194.251 93.0019 194.251 107.166C184.751 116.705 187.602 128.655 195.14 141.52C208.743 143.212 222.049 146.771 234.681 152.096L236.473 144.441L240.009 154.522C243.153 156.046 246.271 157.712 249.362 159.52C245.754 142.569 244.269 125.657 246.747 112.52H253.251V105.402L255.459 112.52H267.251C267.251 108.449 266.449 104.418 264.891 100.657C263.333 96.8957 261.05 93.4783 258.171 90.5996C255.293 87.721 251.875 85.4376 248.114 83.8797C244.353 82.3218 240.322 81.52 236.251 81.52Z" fill="#2F2E41"/>
<path d="M234.249 155.52L198.294 153.961L197.327 157.635C189.372 187.857 188.144 219.456 193.728 250.205C194.796 251.21 195.576 252.482 195.988 253.889C196.4 255.297 196.429 256.789 196.073 258.211L195.556 260.27L195.604 260.346C197.299 263.021 197.874 266.255 197.205 269.35L199.004 279.252L257.249 253.52L270.249 208.52L234.249 155.52Z" fill="#CACACA"/>
<path d="M323.356 250.364C322.952 250.808 322.589 251.288 322.272 251.798L269.768 217.041L232.258 169.347C229.898 166.346 226.489 164.352 222.717 163.767C218.945 163.181 215.092 164.048 211.934 166.192C208.776 168.336 206.548 171.598 205.701 175.32C204.853 179.042 205.448 182.946 207.367 186.247C213.582 196.941 221.428 206.601 230.62 214.878L260.966 242.201L324.903 265.236C326.469 266.359 328.326 267.006 330.25 267.099C332.174 267.191 334.085 266.726 335.751 265.758C337.417 264.791 338.768 263.363 339.642 261.645C340.515 259.928 340.874 257.995 340.674 256.079C340.475 254.162 339.726 252.344 338.518 250.844C337.309 249.343 335.693 248.223 333.863 247.62C332.034 247.016 330.069 246.954 328.205 247.44C326.34 247.927 324.657 248.943 323.356 250.364Z" fill="#9E616A"/>
<path d="M437.534 150.665C431.851 150.665 426.295 148.98 421.57 145.822C416.844 142.665 413.161 138.177 410.986 132.926C408.811 127.675 408.242 121.898 409.351 116.323C410.46 110.749 413.197 105.629 417.215 101.61C421.234 97.5918 426.354 94.855 431.928 93.7462C437.502 92.6374 443.28 93.2065 448.531 95.3814C453.782 97.5563 458.269 101.239 461.427 105.965C464.584 110.69 466.27 116.246 466.27 121.929C466.27 129.551 463.242 136.86 457.853 142.248C452.464 147.637 445.155 150.665 437.534 150.665Z" fill="#E4E4E4"/>
<path d="M448.871 119.095H440.367V110.591C440.367 109.839 440.069 109.119 439.537 108.587C439.006 108.055 438.285 107.757 437.533 107.757C436.781 107.757 436.06 108.055 435.529 108.587C434.997 109.119 434.698 109.839 434.698 110.591V119.095H426.195C425.444 119.096 424.724 119.396 424.194 119.927C423.663 120.459 423.365 121.179 423.365 121.93C423.365 122.68 423.663 123.401 424.194 123.932C424.724 124.463 425.444 124.763 426.195 124.764H434.698V133.268C434.698 134.02 434.997 134.741 435.529 135.272C436.06 135.804 436.781 136.102 437.533 136.102C438.285 136.102 439.006 135.804 439.537 135.272C440.069 134.741 440.367 134.02 440.367 133.268V124.764H448.871C449.244 124.765 449.613 124.692 449.957 124.55C450.302 124.408 450.615 124.199 450.879 123.936C451.143 123.673 451.352 123.36 451.495 123.016C451.637 122.671 451.711 122.302 451.711 121.93C451.711 121.557 451.637 121.188 451.495 120.844C451.352 120.499 451.143 120.187 450.879 119.923C450.615 119.66 450.302 119.451 449.957 119.309C449.613 119.167 449.244 119.094 448.871 119.095Z" fill="white"/>
<path d="M294.239 471.459C295.173 468.996 295.518 466.348 295.245 463.729C294.972 461.109 294.09 458.589 292.669 456.371L267.25 324.52L257.25 274.52H197.25C197.25 274.52 159.75 316.02 167.75 369.02L165.511 443.66C163.387 448.78 162.863 454.423 164.007 459.846L164.898 464.068L164.555 464.704C162.918 467.733 162.038 471.114 161.991 474.557C161.945 478 162.732 481.404 164.286 484.476L161.75 569.02L179.75 568.02L206.25 469.52L223.75 381.02L253.25 449.52L254.25 465.52L253.765 479.623L230.75 562.02L250.25 569.52L294.239 471.459Z" fill="#2F2E41"/>
<path d="M439.68 602.5C439.679 602.815 439.554 603.118 439.331 603.341C439.108 603.564 438.806 603.689 438.49 603.69H1.19C0.874395 603.69 0.57171 603.565 0.348541 603.341C0.125373 603.118 0 602.816 0 602.5C0 602.184 0.125373 601.882 0.348541 601.659C0.57171 601.435 0.874395 601.31 1.19 601.31H438.49C438.647 601.31 438.802 601.34 438.946 601.4C439.091 601.459 439.222 601.547 439.333 601.658C439.443 601.768 439.531 601.899 439.591 602.044C439.65 602.189 439.681 602.344 439.68 602.5Z" fill="#CACACA"/>
</g>
<defs>
<clipPath id="clip0_423_26">
<rect width="947.25" height="603.69" fill="white"/>
</clipPath>
</defs>
</svg>
