<svg width="676" height="632" viewBox="0 0 676 632" fill="none" xmlns="http://www.w3.org/2000/svg">
<g clip-path="url(#clip0_468_2)">
<path d="M624.592 483.458L654.903 488.195C665.163 475.772 672.236 461.033 675.507 445.256C653.343 463.399 619.638 453.758 592.763 463.663C584.404 466.816 576.862 471.81 570.696 478.275C564.53 484.739 559.898 492.508 557.142 501.006L542.329 516.944C555.738 522.252 570.139 524.591 584.539 523.798C598.938 523.005 612.995 519.1 625.74 512.351C632.853 508.495 639.452 503.758 645.38 498.252C634.775 491.574 624.592 483.458 624.592 483.458Z" fill="#F2F2F2"/>
<path d="M613.831 434.981L643.074 425.702C646.717 410.007 646.474 393.661 642.365 378.081C630.619 404.204 596.152 410.607 576.515 431.458C570.44 438.009 565.917 445.842 563.281 454.378C560.645 462.914 559.964 471.933 561.287 480.768L555.137 501.639C569.506 500.41 583.438 496.081 595.973 488.95C608.508 481.818 619.348 472.054 627.745 460.329C632.391 453.705 636.185 446.523 639.036 438.951C626.565 437.703 613.831 434.981 613.831 434.981Z" fill="#F2F2F2"/>
<path d="M675.67 526.598C675.671 526.755 675.64 526.91 675.58 527.054C675.521 527.199 675.433 527.33 675.323 527.441C675.212 527.551 675.081 527.639 674.936 527.699C674.791 527.758 674.636 527.789 674.48 527.788H1.19C0.874395 527.788 0.57171 527.663 0.348541 527.44C0.125373 527.216 0 526.914 0 526.598C0 526.283 0.125373 525.98 0.348541 525.757C0.57171 525.534 0.874395 525.408 1.19 525.408H674.48C674.636 525.408 674.791 525.438 674.936 525.498C675.08 525.558 675.212 525.645 675.323 525.756C675.433 525.866 675.521 525.998 675.58 526.142C675.64 526.287 675.671 526.442 675.67 526.598Z" fill="#CCCCCC"/>
<path d="M278.998 475.866C397.739 475.866 493.998 379.607 493.998 260.866C493.998 142.125 397.739 45.8659 278.998 45.8659C160.257 45.8659 63.998 142.125 63.998 260.866C63.998 379.607 160.257 475.866 278.998 475.866Z" fill="#E6E6E6"/>
<path d="M463.998 260.866C464.02 289.733 457.276 318.203 444.309 343.993C431.342 369.784 412.512 392.177 389.328 409.376C387.778 410.536 386.198 411.666 384.608 412.766C353.606 434.316 316.754 445.866 278.998 445.866C241.242 445.866 204.39 434.316 173.388 412.766C171.798 411.666 170.218 410.536 168.668 409.376C145.501 392.161 126.682 369.765 113.716 343.979C100.751 318.192 93.998 289.729 93.998 260.866C93.998 232.003 100.751 203.54 113.716 177.753C126.682 151.966 145.501 129.57 168.668 112.356C170.218 111.196 171.798 110.066 173.388 108.966C204.39 87.4161 241.242 75.8659 278.998 75.8659C316.754 75.8659 353.606 87.4161 384.608 108.966C386.198 110.066 387.778 111.196 389.328 112.356C412.512 129.555 431.342 151.948 444.309 177.738C457.276 203.529 464.02 231.999 463.998 260.866Z" fill="white"/>
<path d="M278.998 429.866C372.334 429.866 447.998 354.202 447.998 260.866C447.998 167.53 372.334 91.8659 278.998 91.8659C185.662 91.8659 109.998 167.53 109.998 260.866C109.998 354.202 185.662 429.866 278.998 429.866Z" fill="#536DFE"/>
<path opacity="0.2" d="M279.438 92.3383C276.876 92.3383 274.33 92.4053 271.796 92.5181C314.51 96.2715 354.2 116.121 382.825 148.045C411.45 179.97 426.87 221.582 425.96 264.45C425.05 307.319 407.878 348.239 377.925 378.92C347.971 409.601 307.474 427.748 264.64 429.686C269.517 430.109 274.451 430.338 279.438 430.338C324.26 430.338 367.246 412.533 398.939 380.839C430.633 349.146 448.438 306.16 448.438 261.338C448.438 216.517 430.633 173.531 398.939 141.837C367.246 110.144 324.26 92.3383 279.438 92.3383Z" fill="black"/>
<path d="M279.498 79.8659C278.04 79.8685 276.643 80.4487 275.612 81.4796C274.581 82.5105 274.001 83.908 273.998 85.3659V109.366C273.998 110.825 274.577 112.224 275.609 113.255C276.64 114.286 278.039 114.866 279.498 114.866C280.957 114.866 282.356 114.286 283.387 113.255C284.419 112.224 284.998 110.825 284.998 109.366V85.3659C284.995 83.908 284.415 82.5105 283.384 81.4796C282.353 80.4487 280.956 79.8685 279.498 79.8659Z" fill="white"/>
<path d="M389.328 112.356C387.778 111.196 386.198 110.066 384.608 108.966C383.654 108.904 382.7 109.091 381.841 109.511C380.981 109.93 380.246 110.566 379.708 111.356L366.198 131.186C365.377 132.391 365.069 133.873 365.341 135.306C365.613 136.739 366.443 138.005 367.648 138.826C368.853 139.647 370.335 139.955 371.768 139.683C373.201 139.411 374.467 138.581 375.288 137.376L388.798 117.546C389.312 116.794 389.63 115.925 389.722 115.018C389.815 114.112 389.679 113.197 389.328 112.356Z" fill="white"/>
<path d="M450.708 202.776C450.436 202.107 450.035 201.499 449.528 200.985C449.021 200.471 448.418 200.063 447.753 199.782C447.088 199.502 446.375 199.355 445.653 199.351C444.931 199.346 444.216 199.484 443.548 199.756L421.308 208.786C419.958 209.336 418.881 210.399 418.315 211.742C417.749 213.085 417.739 214.598 418.287 215.949C418.836 217.299 419.898 218.377 421.241 218.944C422.584 219.512 424.097 219.523 425.448 218.976L447.688 209.946C449.037 209.393 450.112 208.328 450.678 206.985C451.244 205.641 451.255 204.127 450.708 202.776Z" fill="white"/>
<path d="M191.798 131.186L178.288 111.356C177.749 110.566 177.014 109.93 176.155 109.511C175.296 109.091 174.342 108.904 173.388 108.966C171.798 110.066 170.218 111.196 168.668 112.356C168.316 113.197 168.181 114.112 168.273 115.018C168.366 115.925 168.684 116.794 169.198 117.546L182.708 137.376C183.529 138.581 184.795 139.411 186.227 139.683C187.66 139.955 189.142 139.647 190.348 138.826C191.553 138.005 192.383 136.739 192.655 135.306C192.927 133.873 192.619 132.391 191.798 131.186Z" fill="white"/>
<path d="M136.687 208.786L114.447 199.756C113.096 199.207 111.582 199.218 110.239 199.785C108.895 200.352 107.832 201.43 107.283 202.781C106.734 204.132 106.745 205.646 107.312 206.99C107.879 208.333 108.956 209.397 110.307 209.946L132.547 218.976C133.898 219.523 135.411 219.512 136.754 218.944C138.097 218.377 139.159 217.299 139.708 215.949C140.256 214.598 140.246 213.085 139.68 211.742C139.114 210.399 138.037 209.336 136.687 208.786Z" fill="white"/>
<path d="M279.498 406.866C278.04 406.868 276.643 407.449 275.612 408.48C274.581 409.511 274.001 410.908 273.998 412.366V436.366C273.998 437.825 274.577 439.224 275.609 440.255C276.64 441.286 278.039 441.866 279.498 441.866C280.957 441.866 282.356 441.286 283.387 440.255C284.419 439.224 284.998 437.825 284.998 436.366V412.366C284.995 410.908 284.415 409.511 283.384 408.48C282.353 407.449 280.956 406.868 279.498 406.866Z" fill="white"/>
<path d="M388.798 404.186L375.288 384.356C374.881 383.759 374.361 383.248 373.758 382.852C373.154 382.456 372.478 382.183 371.768 382.049C371.059 381.914 370.33 381.92 369.623 382.067C368.916 382.215 368.245 382.499 367.648 382.906C367.051 383.312 366.54 383.832 366.144 384.436C365.748 385.04 365.475 385.716 365.341 386.426C365.206 387.135 365.212 387.864 365.359 388.571C365.507 389.278 365.791 389.949 366.198 390.546L379.708 410.376C380.246 411.166 380.981 411.802 381.841 412.221C382.7 412.64 383.654 412.828 384.608 412.766C386.198 411.666 387.778 410.536 389.328 409.376C389.679 408.535 389.815 407.62 389.722 406.714C389.63 405.807 389.312 404.938 388.798 404.186Z" fill="white"/>
<path d="M447.687 311.786L425.447 302.756C424.096 302.207 422.582 302.218 421.239 302.785C419.895 303.352 418.832 304.43 418.283 305.781C417.734 307.132 417.745 308.646 418.312 309.99C418.879 311.333 419.956 312.397 421.307 312.946L443.547 321.976C444.898 322.523 446.411 322.512 447.754 321.944C449.097 321.377 450.159 320.299 450.708 318.949C451.256 317.598 451.246 316.085 450.68 314.742C450.114 313.399 449.037 312.336 447.687 311.786Z" fill="white"/>
<path d="M190.348 382.906C189.142 382.085 187.66 381.777 186.228 382.049C184.795 382.321 183.529 383.151 182.708 384.356L169.198 404.186C168.684 404.938 168.366 405.807 168.273 406.714C168.181 407.62 168.316 408.535 168.668 409.376C170.218 410.536 171.798 411.666 173.388 412.766C174.342 412.828 175.296 412.64 176.155 412.221C177.014 411.802 177.749 411.166 178.288 410.376L191.798 390.546C192.204 389.949 192.489 389.278 192.636 388.571C192.783 387.864 192.79 387.135 192.655 386.426C192.521 385.716 192.247 385.04 191.852 384.436C191.456 383.832 190.945 383.312 190.348 382.906Z" fill="white"/>
<path d="M139.708 305.776C139.436 305.107 139.035 304.499 138.528 303.985C138.021 303.471 137.418 303.063 136.753 302.782C136.088 302.502 135.375 302.355 134.653 302.351C133.931 302.346 133.216 302.484 132.548 302.756L110.308 311.786C108.958 312.336 107.881 313.399 107.315 314.742C106.749 316.085 106.739 317.598 107.287 318.949C107.836 320.299 108.898 321.377 110.241 321.944C111.584 322.512 113.097 322.523 114.448 321.976L136.688 312.946C138.037 312.393 139.112 311.328 139.678 309.985C140.244 308.641 140.255 307.127 139.708 305.776Z" fill="white"/>
<path d="M286.634 258.137C287.141 261.143 286.436 264.228 284.672 266.715C282.908 269.202 280.23 270.888 277.225 271.402L179.627 288.004C178.138 288.257 176.614 288.214 175.141 287.879C173.669 287.543 172.277 286.92 171.045 286.047C169.813 285.173 168.766 284.065 167.962 282.787C167.158 281.508 166.614 280.084 166.361 278.595C166.108 277.106 166.15 275.582 166.486 274.11C166.822 272.637 167.444 271.245 168.318 270.014C169.192 268.782 170.299 267.734 171.578 266.93C172.857 266.127 174.281 265.583 175.77 265.329L273.368 248.728C276.374 248.22 279.459 248.926 281.946 250.689C284.433 252.453 286.119 255.132 286.634 258.137Z" fill="#3F3D56"/>
<path d="M389.353 366.268C387.951 367.678 386.047 368.474 384.058 368.482C382.07 368.49 380.16 367.708 378.746 366.31L273.683 262.071C272.274 260.669 271.478 258.765 271.471 256.777C271.464 254.789 272.246 252.88 273.647 251.469C275.047 250.058 276.95 249.26 278.938 249.251C280.926 249.243 282.836 250.023 284.248 251.422L389.311 355.661C390.721 357.063 391.518 358.967 391.525 360.956C391.533 362.944 390.752 364.855 389.353 366.268Z" fill="#3F3D56"/>
<path d="M278.998 273.866C286.178 273.866 291.998 268.046 291.998 260.866C291.998 253.686 286.178 247.866 278.998 247.866C271.818 247.866 265.998 253.686 265.998 260.866C265.998 268.046 271.818 273.866 278.998 273.866Z" fill="#CCCCCC"/>
<path d="M189.454 35.4447C169.499 66.8172 139.053 87.6374 101.505 101.315C100.763 101.871 99.9184 102.275 99.0203 102.504C98.1221 102.734 97.1876 102.784 96.27 102.652C95.3524 102.521 94.4697 102.21 93.6724 101.737C92.875 101.264 92.1786 100.639 91.6229 99.8968C71.227 72.6643 75.8324 33.7436 102.751 12.9349C109.259 7.91277 116.699 4.23342 124.641 2.11045C132.582 -0.0125322 140.866 -0.536859 149.012 0.567919C157.158 1.6727 165.003 4.38456 172.092 8.54608C179.182 12.7076 185.373 18.2359 190.309 24.81L190.873 25.5632C191.428 26.3052 191.833 27.1493 192.062 28.0474C192.291 28.9456 192.342 29.8801 192.21 30.7977C192.078 31.7153 191.767 32.598 191.294 33.3953C190.821 34.1926 190.196 34.889 189.454 35.4447Z" fill="#E6E6E6"/>
<path d="M367.687 24.81C372.622 18.2359 378.814 12.7076 385.903 8.54607C392.992 4.38455 400.837 1.6727 408.983 0.567923C417.129 -0.536855 425.413 -0.0125432 433.355 2.11043C441.296 4.23341 448.737 7.91276 455.245 12.9349C482.163 33.7436 486.768 72.6643 466.373 99.8968C465.817 100.639 465.121 101.264 464.323 101.737C463.526 102.21 462.643 102.521 461.726 102.652C460.808 102.784 459.873 102.734 458.975 102.504C458.077 102.275 457.233 101.871 456.491 101.315C421.634 87.9698 393.049 64.8757 368.541 35.4447C367.043 34.3224 366.052 32.6508 365.786 30.7977C365.52 28.9445 366.001 27.0616 367.123 25.5631L367.687 24.81Z" fill="#E6E6E6"/>
<path d="M358.941 447.134C357.67 447.848 356.733 449.037 356.337 450.44C355.941 451.843 356.117 453.346 356.827 454.62L388.569 511.342C389.281 512.615 390.47 513.552 391.874 513.948C393.277 514.345 394.781 514.167 396.053 513.455C397.326 512.743 398.264 511.554 398.66 510.15C399.057 508.747 398.88 507.243 398.168 505.97L366.426 449.248C365.712 447.977 364.523 447.041 363.12 446.645C361.717 446.248 360.214 446.424 358.941 447.134Z" fill="#E6E6E6"/>
<path d="M191.569 449.248L159.827 505.97C159.115 507.243 158.938 508.747 159.334 510.15C159.731 511.554 160.668 512.743 161.941 513.455C163.214 514.167 164.717 514.345 166.121 513.948C167.525 513.552 168.713 512.615 169.426 511.342L201.168 454.62C201.521 453.989 201.746 453.296 201.831 452.578C201.916 451.861 201.858 451.134 201.662 450.439C201.466 449.743 201.135 449.094 200.687 448.526C200.24 447.959 199.685 447.486 199.055 447.133C198.424 446.78 197.731 446.555 197.013 446.47C196.296 446.386 195.569 446.443 194.874 446.64C194.178 446.836 193.529 447.168 192.962 447.615C192.395 448.063 191.921 448.617 191.569 449.248Z" fill="#E6E6E6"/>
<path d="M394.998 525.866C404.387 525.866 411.998 518.255 411.998 508.866C411.998 499.477 404.387 491.866 394.998 491.866C385.609 491.866 377.998 499.477 377.998 508.866C377.998 518.255 385.609 525.866 394.998 525.866Z" fill="#E6E6E6"/>
<path d="M406.998 90.8659C416.387 90.8659 423.998 83.2547 423.998 73.8659C423.998 64.4771 416.387 56.8659 406.998 56.8659C397.609 56.8659 389.998 64.4771 389.998 73.8659C389.998 83.2547 397.609 90.8659 406.998 90.8659Z" fill="#E6E6E6"/>
<path d="M277.998 50.8659C287.387 50.8659 294.998 43.2547 294.998 33.8659C294.998 24.4771 287.387 16.8659 277.998 16.8659C268.609 16.8659 260.998 24.4771 260.998 33.8659C260.998 43.2547 268.609 50.8659 277.998 50.8659Z" fill="#E6E6E6"/>
<path d="M154.998 88.8659C164.387 88.8659 171.998 81.2547 171.998 71.8659C171.998 62.4771 164.387 54.8659 154.998 54.8659C145.609 54.8659 137.998 62.4771 137.998 71.8659C137.998 81.2547 145.609 88.8659 154.998 88.8659Z" fill="#E6E6E6"/>
<path d="M165.998 525.866C175.387 525.866 182.998 518.255 182.998 508.866C182.998 499.477 175.387 491.866 165.998 491.866C156.609 491.866 148.998 499.477 148.998 508.866C148.998 518.255 156.609 525.866 165.998 525.866Z" fill="#E6E6E6"/>
<path d="M381.663 356.707C382.333 357.756 383.225 358.646 384.277 359.313C385.328 359.98 386.512 360.409 387.747 360.569C388.982 360.728 390.236 360.616 391.423 360.238C392.609 359.861 393.698 359.228 394.614 358.384L421.289 372.677L419.858 357.016L394.746 345.843C393.227 344.4 391.23 343.564 389.135 343.494C387.04 343.424 384.992 344.125 383.38 345.464C381.767 346.803 380.702 348.687 380.385 350.759C380.069 352.831 380.524 354.947 381.663 356.707Z" fill="#FFB7B7"/>
<path d="M401.1 362.172L411.553 347.743L461.913 371.549L524.58 359.791C527.678 359.21 530.865 359.318 533.916 360.107C536.968 360.896 539.808 362.348 542.235 364.358C544.662 366.369 546.617 368.889 547.961 371.739C549.305 374.59 550.004 377.702 550.01 380.854C550.015 386.546 547.761 392.008 543.743 396.041C539.725 400.073 534.271 402.347 528.579 402.364L456.763 402.497L401.1 362.172Z" fill="#3F3D56"/>
<path d="M384.999 611.399L374.422 606.341L388.951 562.133L404.56 569.599L384.999 611.399Z" fill="#FFB7B7"/>
<path d="M455.905 604.272C455.136 604.754 454.367 605.228 453.59 605.702C452.044 606.649 450.483 607.582 448.921 608.498C448.136 608.957 447.344 609.415 446.559 609.866V609.889L446.513 609.897L446.497 609.904L445.301 610.2L443.584 605.663L442.791 603.573L441.673 600.613L439.622 595.198L428.823 566.687L445.612 562.546L446.241 565.118H446.249L446.559 566.392L452.425 590.18L453.621 595.043L453.66 595.191L454.382 598.096L455.004 600.613L455.695 603.426L455.905 604.272Z" fill="#FFB7B7"/>
<path d="M556.054 504.147C554.989 505.856 553.902 507.558 552.806 509.243C550.771 512.382 548.681 515.474 546.537 518.519C546.537 518.527 546.529 518.527 546.521 518.535C545.27 519.694 543.889 520.703 542.404 521.541C542.342 521.588 542.272 521.619 542.21 521.658C541.116 522.262 539.953 522.729 538.745 523.049C538.31 523.157 537.867 523.266 537.432 523.375C535.863 523.748 534.309 524.066 532.763 524.346C530.013 524.835 527.294 525.185 524.59 525.402C524.373 525.426 524.155 525.441 523.938 525.457C512.821 526.272 501.999 524.96 490.703 522.808C485.125 521.751 479.431 520.485 473.534 519.172C471.608 518.737 469.673 518.31 467.715 517.882C467.568 517.851 467.412 517.812 467.257 517.781C464.46 517.168 461.617 516.562 458.704 515.963C455.037 515.21 451.253 514.48 447.323 513.788L447.602 519.327C447.835 523.588 448.721 527.788 450.228 531.781C451.906 536.69 453.234 540.575 450.43 548.662L449.078 552.577C449.779 554.522 450.019 556.602 449.781 558.655C449.542 560.708 448.831 562.677 447.703 564.409L447.431 564.821L458.704 593.34L459.434 595.189H453.662L446.561 595.197H434.527L417.164 560.362L416.333 558.699V558.614L418.128 491.671C418.151 491.08 418.198 490.482 418.275 489.892C418.592 487.207 419.44 484.613 420.769 482.26C422.099 479.908 423.884 477.843 426.021 476.188C428.068 474.588 430.412 473.411 432.918 472.725C435.424 472.04 438.042 471.859 440.618 472.194L446.561 472.964L458.704 474.533L467.257 475.644L467.428 475.667L492.653 478.93L494.463 471.55L494.797 471.425L505.417 467.533L542.148 454.07L542.241 454.039L544.657 453.153L544.944 453.619C545.03 453.759 545.115 453.899 545.193 454.039C547.581 458.32 549.525 462.834 550.996 467.51C553.469 475.149 555.505 482.922 557.095 490.793C557.165 491.135 557.227 491.445 557.281 491.725L557.304 491.81C557.328 491.943 557.343 492.028 557.351 492.051C558.198 495.578 557.607 499.882 556.054 504.147Z" fill="#2F2E41"/>
<path d="M557.604 479.477C557.487 478.979 557.34 478.474 557.184 477.985C555.951 474.278 554.514 470.642 552.88 467.093C551.047 463.054 548.848 458.726 546.23 454.042C544.964 451.773 543.602 449.414 542.144 446.965C541.414 445.737 540.655 444.486 539.868 443.212C539.837 443.154 539.803 443.097 539.767 443.041L539.542 442.668L503.199 447.532L489.666 449.342L488.858 456.085L488.664 457.755C488.656 457.755 488.656 457.755 488.664 457.763L488.12 462.316V462.323L487.398 468.336L487.336 468.329L467.253 465.726L446.558 463.046L435.44 461.609C432.864 461.273 430.247 461.453 427.741 462.139C425.235 462.824 422.89 464.001 420.843 465.602C418.707 467.258 416.922 469.322 415.593 471.675C414.263 474.028 413.415 476.622 413.098 479.306C413.028 479.85 412.981 480.409 412.958 480.961L402.47 505.813C396.194 520.676 392.197 536.4 390.615 552.456L382.924 577.044L384.019 577.145L400.318 578.66L404.622 579.064L414.1 565.228C415.18 563.651 416.205 562.027 417.161 560.365C418.734 557.65 420.132 554.837 421.348 551.943L441.85 503.156C443.435 503.428 445.004 503.687 446.557 503.933C453.744 505.098 460.642 506.048 467.253 506.784C488.749 509.184 507.363 509.371 523.934 507.335C528.588 506.768 533.086 506.023 537.428 505.098C539.021 504.764 540.593 504.404 542.144 504.018C542.509 503.933 542.866 503.847 543.224 503.754C546.435 502.926 549.386 501.306 551.809 499.042C554.231 496.778 556.048 493.943 557.091 490.796C558.337 487.149 558.515 483.222 557.604 479.477Z" fill="#2F2E41"/>
<path d="M388.378 604.18L376.935 598.696L375.14 597.833L372.273 604.872L352.261 609.277C351.271 609.494 350.377 610.021 349.709 610.783C349.041 611.544 348.634 612.499 348.547 613.508C348.46 614.518 348.698 615.528 349.227 616.392C349.755 617.256 350.546 617.929 351.484 618.312L371.038 626.29L377.245 620.704L375.723 628.201L383.087 631.208L391.159 605.517L388.378 604.18Z" fill="#2F2E41"/>
<path d="M458.703 593.34L459.434 595.189H458.703V593.34Z" fill="#2F2E41"/>
<path d="M454.718 595.584L442.728 599.738L440.846 600.388L443.761 607.407L432.64 624.618C432.09 625.468 431.826 626.472 431.887 627.484C431.947 628.495 432.33 629.46 432.978 630.238C433.627 631.016 434.507 631.567 435.491 631.809C436.474 632.051 437.51 631.973 438.446 631.585L457.954 623.495L458.434 615.159L462.627 621.557L469.976 618.512L457.635 594.577L454.718 595.584Z" fill="#2F2E41"/>
<path d="M554.614 490.732C553.902 490.731 553.201 490.557 552.571 490.225L489.296 457.163L488.565 454.17L487.188 444.698L487.206 444.609L493.224 416.866C493.114 416.628 492.883 416.237 492.623 415.796C489.936 411.244 481.761 397.39 497.364 378.315L524.76 346.376L548.272 345.364L548.54 345.702C554.827 353.593 559.067 362.915 560.883 372.84C562.699 382.765 562.035 392.984 558.95 402.59L556.502 446.807L559.128 455.737C560.663 460.985 560.409 466.594 558.406 471.681L559.008 486.14C559.032 486.733 558.936 487.324 558.726 487.879C558.515 488.434 558.196 488.94 557.786 489.369C557.376 489.797 556.883 490.139 556.338 490.373C555.793 490.607 555.207 490.73 554.614 490.732Z" fill="#3F3D56"/>
<path d="M499.728 527.198C500.8 526.565 501.72 525.704 502.423 524.677C503.126 523.65 503.596 522.481 503.799 521.252C504.001 520.024 503.932 518.766 503.596 517.567C503.26 516.368 502.666 515.258 501.854 514.314L517.067 488.151L501.365 489.036L489.326 513.745C487.83 515.213 486.925 517.18 486.783 519.271C486.64 521.362 487.269 523.433 488.551 525.091C489.833 526.75 491.679 527.88 493.739 528.268C495.799 528.657 497.93 528.276 499.728 527.198Z" fill="#FFB7B7"/>
<path d="M505.866 507.963L491.809 497.014L517.352 447.513L507.781 384.475C507.308 381.359 507.527 378.177 508.422 375.155C509.317 372.133 510.866 369.345 512.96 366.99C515.053 364.634 517.64 362.768 520.535 361.524C523.431 360.28 526.565 359.689 529.715 359.793C535.405 359.986 540.785 362.429 544.675 366.585C548.566 370.74 550.649 376.269 550.467 381.959L548.103 453.737L505.866 507.963Z" fill="#3F3D56"/>
<path d="M509.678 333.104V309.837C509.672 301.569 512.952 293.637 518.795 287.786C524.638 281.936 532.566 278.646 540.835 278.64C549.103 278.635 557.036 281.915 562.886 287.758C568.737 293.601 572.026 301.529 572.032 309.797V309.837C577.527 321.288 574.089 326.732 572.032 333.104C572.03 334.214 571.588 335.278 570.804 336.062C570.019 336.847 568.955 337.289 567.846 337.29H513.866C512.756 337.289 511.692 336.848 510.907 336.063C510.121 335.278 509.68 334.214 509.678 333.104Z" fill="#2F2E41"/>
<path d="M530.632 335.778C543.521 335.778 553.969 325.33 553.969 312.441C553.969 299.553 543.521 289.104 530.632 289.104C517.743 289.104 507.295 299.553 507.295 312.441C507.295 325.33 517.743 335.778 530.632 335.778Z" fill="#FFB7B7"/>
<path d="M555.055 318.559C554.844 318.526 554.633 318.481 554.421 318.448C550.781 317.802 547.14 317.168 543.511 316.511L543.177 308.284L538.78 315.654C528.75 318.982 519.366 317.101 510.538 312.949C507.626 311.566 504.8 310.009 502.077 308.284C502.819 303.734 504.568 299.408 507.197 295.621C509.826 291.834 513.269 288.683 517.273 286.398C517.607 286.209 517.929 286.042 518.263 285.875L518.268 285.874L518.271 285.872L518.274 285.868L518.275 285.864C518.842 285.597 519.421 285.341 520 285.107C524.532 283.336 529.474 282.887 534.25 283.813C539.027 284.74 543.443 287.002 546.985 290.339C554.109 297.141 557.315 308.373 555.055 318.559Z" fill="#2F2E41"/>
</g>
<defs>
<clipPath id="clip0_468_2">
<rect width="675.67" height="631.947" fill="white"/>
</clipPath>
</defs>
</svg>
