<svg width="829" height="771" viewBox="0 0 829 771" fill="none" xmlns="http://www.w3.org/2000/svg">
<g clip-path="url(#clip0_22_294)">
<path d="M776.887 292.476H49.4477C42.9661 292.47 36.752 290.467 32.1688 286.907C27.5856 283.347 25.0075 278.52 25 273.485V51.9911C25.0075 46.9561 27.5856 42.129 32.1688 38.5688C36.752 35.0085 42.9661 33.0058 49.4477 33H776.887C783.368 33.0058 789.582 35.0085 794.166 38.5688C798.749 42.129 801.327 46.9561 801.334 51.9911V273.485C801.327 278.52 798.749 283.347 794.166 286.907C789.582 290.467 783.368 292.47 776.887 292.476V292.476Z" fill="#F2F2F2"/>
<path d="M607.232 280.364H164.917C131.957 280.335 100.357 270.151 77.0501 252.046C53.7434 233.941 40.6334 209.394 40.5962 183.79V141.696C40.6333 116.092 53.7433 91.5448 77.05 73.4399C100.357 55.3351 131.957 45.1511 164.917 45.122H661.421C694.382 45.1511 725.982 55.3351 749.288 73.4399C772.595 91.5448 785.705 116.092 785.742 141.696C785.689 178.46 766.864 213.707 733.399 239.703C699.933 265.699 654.559 280.322 607.232 280.364Z" fill="white"/>
<path d="M493.132 108.528H200.757C199.085 108.528 197.482 108.012 196.299 107.094C195.117 106.175 194.452 104.929 194.452 103.63C194.452 102.331 195.117 101.086 196.299 100.167C197.482 99.2487 199.085 98.7327 200.757 98.7327H493.132C494.805 98.7327 496.408 99.2487 497.591 100.167C498.773 101.086 499.438 102.331 499.438 103.63C499.438 104.929 498.773 106.175 497.591 107.094C496.408 108.012 494.805 108.528 493.132 108.528V108.528Z" fill="#E6E6E6"/>
<path d="M641.138 160.785H200.757C199.085 160.785 197.482 160.269 196.299 159.35C195.117 158.432 194.452 157.186 194.452 155.887C194.452 154.588 195.117 153.342 196.299 152.424C197.482 151.505 199.085 150.989 200.757 150.989H641.138C642.81 150.989 644.414 151.505 645.596 152.424C646.779 153.342 647.443 154.588 647.443 155.887C647.443 157.186 646.779 158.432 645.596 159.35C644.414 160.269 642.81 160.785 641.138 160.785V160.785Z" fill="#E6E6E6"/>
<path d="M641.138 213.041H200.757C199.085 213.041 197.482 212.525 196.299 211.606C195.117 210.688 194.452 209.442 194.452 208.143C194.452 206.844 195.117 205.598 196.299 204.68C197.482 203.761 199.085 203.245 200.757 203.245H641.138C642.81 203.245 644.414 203.761 645.596 204.68C646.779 205.598 647.443 206.844 647.443 208.143C647.443 209.442 646.779 210.688 645.596 211.606C644.414 212.525 642.81 213.041 641.138 213.041V213.041Z" fill="#E6E6E6"/>
<path d="M641.138 213.041H200.757C199.085 213.041 197.482 212.525 196.299 211.606C195.117 210.688 194.452 209.442 194.452 208.143C194.452 206.844 195.117 205.598 196.299 204.68C197.482 203.761 199.085 203.245 200.757 203.245H641.138C642.81 203.245 644.414 203.761 645.596 204.68C646.779 205.598 647.443 206.844 647.443 208.143C647.443 209.442 646.779 210.688 645.596 211.606C644.414 212.525 642.81 213.041 641.138 213.041V213.041Z" fill="#E6E6E6"/>
<path d="M462.279 166.782C462.35 168.258 462.835 169.703 463.702 171.017C464.569 172.331 465.796 173.481 467.298 174.386C468.799 175.291 470.537 175.93 472.39 176.257C474.244 176.584 476.167 176.592 478.024 176.279L502.069 206.921L512.303 190.052L487.9 163.54C487.017 161.151 485.037 159.097 482.334 157.766C479.631 156.436 476.394 155.922 473.236 156.321C470.078 156.721 467.218 158.007 465.199 159.935C463.18 161.863 462.141 164.299 462.28 166.782H462.279Z" fill="#FFB6B6"/>
<path d="M642.723 254.6L559.859 219.685L533.721 200.636C533.721 200.636 522.359 198.273 526.541 195.403C530.723 192.533 518.805 189.765 518.805 189.765L504.774 179.54L484.836 190.498L490.607 197.446C490.607 197.446 490.209 208.949 498.321 206.736C506.433 204.523 504.406 214.063 504.406 214.063L552.823 272.364L642.723 254.6Z" fill="#3F3D56"/>
<path d="M398.117 221.705C442.818 221.705 479.055 193.555 479.055 158.832C479.055 124.108 442.818 95.9584 398.117 95.9584C353.416 95.9584 317.178 124.108 317.178 158.832C317.178 193.555 353.416 221.705 398.117 221.705Z" fill="#536DFE"/>
<path d="M642.979 712.555H626.15L618.141 662.131H642.979V712.555Z" fill="#FFB6B6"/>
<path d="M651.862 735.206H639.793L637.639 726.355L632.122 735.206H600.112C598.578 735.206 597.083 734.825 595.847 734.119C594.612 733.413 593.699 732.418 593.242 731.28C592.785 730.142 592.809 728.921 593.309 727.794C593.81 726.667 594.761 725.694 596.023 725.017L621.585 711.303V702.355L648.472 703.602L651.862 735.206Z" fill="#2F2E41"/>
<path d="M508.379 712.555H491.55L483.541 662.131H508.379V712.555Z" fill="#FFB6B6"/>
<path d="M517.262 735.206H505.193L503.039 726.355L497.521 735.206H465.512C463.977 735.206 462.483 734.825 461.247 734.119C460.011 733.413 459.099 732.418 458.642 731.28C458.185 730.142 458.209 728.921 458.709 727.794C459.21 726.667 460.16 725.694 461.423 725.017L486.985 711.303V702.355L513.872 703.602L517.262 735.206Z" fill="#2F2E41"/>
<path d="M625.122 331.201H540.18V406.32H625.122V331.201Z" fill="#FFB6B6"/>
<path d="M542.141 368.253L527.766 381.449L502.937 422.054L440.374 537.687L427.143 562.141L437.828 605.372C437.828 605.372 439.557 635.828 439.557 640.813C439.557 650.965 450.487 656.589 450.487 656.589L458.506 689.032L536.26 686.494C536.26 686.494 533.547 650.733 517.262 641.713C500.977 632.692 493.491 585.681 493.491 585.681L484.642 564.823L570.89 485.404L571.447 513.165L571.716 526.602C571.716 526.602 559.086 613.997 573.809 630.958C588.532 647.919 574.109 645.924 574.109 645.924L574.811 680.911L666.94 681.418L646.615 580.69C646.615 580.69 636.294 574.36 641.816 567.997C647.338 561.634 636.464 553.841 636.464 553.841L641.341 475.205C641.341 475.205 635.941 461.622 642.293 459.857C648.645 458.091 643.127 446.411 643.127 446.411L644.071 431.19L625.122 383.987L542.141 368.253Z" fill="#2F2E41"/>
<path d="M626.429 331.201L635.576 309.883L642.11 302.777L644.724 282.475C644.724 227.658 628.984 236.786 628.984 236.786L619.895 217.507L578.077 216.492L551.288 236.287L529.072 242.377L520.373 277.491L536.26 314.959L540.18 335.261C532.702 345.986 533.334 340.913 539.527 348.965L613.361 364.7C639.497 371.806 639.497 353.533 634.256 348.965C629.015 344.397 626.429 331.201 626.429 331.201Z" fill="#3F3D56"/>
<path d="M593.584 209.677C614.994 209.677 632.351 196.195 632.351 179.564C632.351 162.932 614.994 149.45 593.584 149.45C572.174 149.45 554.818 162.932 554.818 179.564C554.818 196.195 572.174 209.677 593.584 209.677Z" fill="#FFB6B6"/>
<path d="M645.338 219.76C645.703 220.239 645.925 220.776 645.986 221.33C646.047 221.885 645.947 222.443 645.692 222.963C645.437 223.483 645.034 223.951 644.513 224.334C643.993 224.716 643.368 225.002 642.685 225.171C637.484 226.511 634.283 230.419 630.545 233.546C626.821 236.662 620.823 239.251 616.066 237.129C611.322 235.018 610.996 229.627 607.023 226.704C603.155 223.862 596.725 224.207 592.178 226.369L592.042 226.434C591.257 226.831 590.339 227.041 589.402 227.038C588.465 227.035 587.55 226.818 586.769 226.415C585.989 226.012 585.378 225.44 585.012 224.77C584.645 224.1 584.54 223.361 584.708 222.645C586.302 216.063 587.894 209.481 589.486 202.899C585.303 210.726 579.231 217.859 571.596 223.912C569.493 225.797 566.828 227.254 563.833 228.155C561.115 228.825 558.475 226.643 555.836 227.039C562.396 222.582 584.455 194.017 580.508 174.922C575.869 175.328 571.23 175.734 566.591 176.141C566.089 174.435 565.016 172.863 563.48 171.583C563.668 173.242 563.396 174.914 562.683 176.486C560.749 176.658 558.802 176.821 556.868 176.993C554.176 177.227 551.249 177.43 548.936 176.333C545.081 174.506 544.963 170.182 546.061 166.771C549.276 156.853 559.024 148.56 570.955 144.215C582.886 139.88 586.415 149.534 598.986 146.448C623.815 140.357 642.842 150.773 649.546 170.101C655.178 186.312 651.088 203.518 645.338 219.76Z" fill="#2F2E41"/>
<path d="M752.661 735.861H705.193L704.989 735.573C704.382 734.718 703.796 733.812 703.248 732.881C698.358 724.75 696.292 715.45 694.468 707.245L693.095 701.06C692.929 700.311 693.054 699.54 693.455 698.847C693.856 698.153 694.514 697.568 695.345 697.167C696.176 696.766 697.142 696.567 698.12 696.595C699.098 696.622 700.043 696.876 700.834 697.324C708.048 701.401 715.264 705.475 722.484 709.545C725.218 711.09 728.34 712.878 731.329 714.811C731.618 713.722 731.92 712.631 732.221 711.554C732.429 710.811 732.918 710.133 733.625 709.607C734.332 709.081 735.225 708.731 736.19 708.601C737.155 708.471 738.148 708.568 739.041 708.88C739.934 709.191 740.688 709.702 741.205 710.348L746.759 717.279C750.81 722.341 754.385 727.329 753.656 732.709C753.66 732.774 753.654 732.84 753.638 732.904C753.492 733.788 753.222 734.656 752.832 735.494L752.661 735.861Z" fill="#F0F0F0"/>
<path d="M800.306 736.659L349.231 737C348.78 736.998 348.349 736.858 348.032 736.61C347.714 736.362 347.536 736.027 347.536 735.677C347.536 735.327 347.714 734.992 348.032 734.744C348.349 734.496 348.78 734.356 349.231 734.354L800.306 734.013C800.756 734.014 801.187 734.154 801.505 734.402C801.822 734.65 802 734.986 802 735.336C802 735.685 801.822 736.021 801.505 736.269C801.187 736.517 800.756 736.657 800.306 736.659V736.659Z" fill="#CACACA"/>
<path d="M390.759 243.454L341.143 210.906C339.447 209.791 338.39 208.199 338.203 206.479C338.016 204.759 338.716 203.052 340.147 201.732L349.279 193.332C350.715 192.014 352.764 191.193 354.978 191.048C357.192 190.903 359.39 191.446 361.089 192.558L410.706 225.107C412.401 226.222 413.459 227.814 413.645 229.534C413.832 231.254 413.133 232.961 411.701 234.281L402.569 242.681C401.134 243.998 399.084 244.82 396.87 244.965C394.656 245.11 392.458 244.566 390.759 243.454V243.454Z" fill="#3F3D56"/>
<path d="M343.746 202.409C342.975 203.12 342.598 204.04 342.699 204.967C342.799 205.894 343.369 206.752 344.283 207.353L393.899 239.901C394.815 240.501 395.999 240.793 397.192 240.715C398.386 240.637 399.49 240.195 400.264 239.485L409.396 231.085C410.167 230.373 410.544 229.453 410.443 228.527C410.343 227.6 409.773 226.742 408.859 226.141L359.243 193.592C358.327 192.993 357.143 192.7 355.95 192.779C354.757 192.857 353.652 193.299 352.878 194.009L343.746 202.409Z" fill="white"/>
<path d="M372.875 215.062C372.702 215.249 372.476 215.403 372.215 215.51C371.953 215.618 371.662 215.677 371.366 215.682L363.571 215.821C363.32 215.825 363.071 215.791 362.837 215.721C362.604 215.651 362.39 215.545 362.209 215.411C362.028 215.277 361.883 215.116 361.782 214.938C361.68 214.76 361.625 214.568 361.62 214.373C361.614 214.179 361.658 213.985 361.748 213.804C361.839 213.622 361.974 213.457 362.147 213.316C362.32 213.175 362.527 213.062 362.757 212.984C362.986 212.905 363.233 212.862 363.483 212.858L368.583 212.767L363.56 202.472C363.383 202.105 363.4 201.698 363.608 201.34C363.816 200.982 364.198 200.704 364.67 200.564C365.142 200.425 365.666 200.438 366.127 200.598C366.588 200.759 366.948 201.055 367.128 201.422L373.107 213.675C373.215 213.897 373.253 214.135 373.218 214.371C373.183 214.606 373.075 214.832 372.905 215.028L372.875 215.062Z" fill="#536DFE"/>
<path d="M373.874 217.649C375.755 217.864 377.552 218.396 379.139 219.208C380.725 220.021 382.064 221.093 383.059 222.351C384.055 223.609 384.683 225.02 384.9 226.487C385.117 227.954 384.918 229.44 384.315 230.84L420.913 252.739L398.213 258.807L366.94 237.081C363.978 236.139 361.565 234.387 360.156 232.155C358.747 229.923 358.441 227.368 359.296 224.972C360.151 222.577 362.107 220.509 364.794 219.159C367.481 217.809 370.712 217.272 373.874 217.649L373.874 217.649Z" fill="#FFB6B6"/>
<path d="M564.411 228.477L470.709 273.23C470.709 273.23 432.929 262.372 440.312 257.345C447.696 252.318 424.191 248.92 424.191 248.92L398.225 235.35L383.158 248.952C383.158 248.952 385.903 271.047 390.575 267.221C395.246 263.396 402.228 273.846 402.228 273.846C402.228 273.846 404.292 285.516 417.589 282.579C430.887 279.643 466.568 310.424 466.568 310.424L581.887 277.014L564.411 228.477Z" fill="#3F3D56"/>
<path d="M395.27 184.053C394.184 184.053 393.113 183.856 392.141 183.479C391.17 183.101 390.325 182.553 389.673 181.878L372.512 164.103C371.961 163.532 371.559 162.882 371.331 162.191C371.103 161.499 371.053 160.78 371.183 160.073C371.313 159.366 371.621 158.687 372.089 158.072C372.557 157.458 373.176 156.922 373.912 156.494C375.396 155.629 377.262 155.257 379.099 155.461C380.009 155.562 380.884 155.801 381.675 156.165C382.465 156.529 383.156 157.01 383.707 157.581L394.935 169.209L423.772 135.609C424.801 134.409 426.402 133.577 428.221 133.294C430.041 133.011 431.931 133.302 433.475 134.101C435.019 134.901 436.091 136.144 436.455 137.558C436.819 138.972 436.445 140.44 435.416 141.639L401.093 181.632C400.472 182.355 399.637 182.952 398.658 183.373C397.679 183.794 396.584 184.027 395.465 184.051C395.4 184.052 395.335 184.053 395.27 184.053Z" fill="white"/>
</g>
<defs>
<clipPath id="clip0_22_294">
<rect width="777" height="704" fill="white" transform="translate(25 33)"/>
</clipPath>
</defs>
</svg>
