<svg width="533" height="390" viewBox="0 0 533 390" fill="none" xmlns="http://www.w3.org/2000/svg">
<g clip-path="url(#clip0_511_1197)">
<path d="M323.869 184.247C322.217 184.245 320.627 183.615 319.422 182.484C318.217 181.354 317.487 179.808 317.379 178.16L316.412 163.401C316.299 161.677 316.876 159.979 318.015 158.68C319.154 157.382 320.762 156.588 322.486 156.475L438.113 148.903C441.792 148.665 445.416 149.897 448.187 152.33C450.958 154.762 452.65 158.195 452.891 161.874C453.132 165.553 451.902 169.178 449.472 171.95C447.042 174.723 443.61 176.418 439.931 176.661L324.304 184.233C324.159 184.242 324.013 184.247 323.869 184.247Z" fill="#536DFE"/>
<path d="M346.671 186.15C344.986 186.147 343.368 185.493 342.156 184.324C340.943 183.155 340.229 181.562 340.164 179.879L339.34 157.836C339.309 156.981 339.445 156.128 339.743 155.326C340.04 154.524 340.493 153.789 341.075 153.162C341.657 152.535 342.356 152.029 343.134 151.672C343.912 151.316 344.752 151.116 345.606 151.084L440.689 147.53C442.416 147.466 444.097 148.09 445.363 149.265C446.63 150.44 447.377 152.07 447.442 153.796L448.266 175.84C448.298 176.695 448.161 177.547 447.863 178.349C447.566 179.151 447.113 179.887 446.531 180.513C445.949 181.14 445.25 181.647 444.472 182.003C443.695 182.36 442.855 182.56 442 182.592L346.917 186.145C346.834 186.149 346.752 186.15 346.671 186.15Z" fill="#2F2E41"/>
<path d="M458.093 389.352H443.303C441.576 389.35 439.92 388.663 438.699 387.442C437.478 386.221 436.791 384.565 436.789 382.838V259.569C436.791 257.842 437.478 256.186 438.699 254.965C439.92 253.744 441.576 253.057 443.303 253.055H458.093C459.82 253.057 461.475 253.744 462.697 254.965C463.918 256.186 464.604 257.842 464.606 259.569V382.838C464.604 384.565 463.918 386.221 462.697 387.442C461.475 388.663 459.82 389.35 458.093 389.352Z" fill="#2F2E41"/>
<path d="M420.956 389.352H406.166C404.439 389.35 402.783 388.663 401.562 387.442C400.341 386.221 399.654 384.565 399.652 382.838V259.569C399.654 257.842 400.341 256.186 401.562 254.965C402.783 253.744 404.439 253.057 406.166 253.055H420.956C422.683 253.057 424.339 253.744 425.56 254.965C426.781 256.186 427.468 257.842 427.47 259.569V382.838C427.468 384.565 426.781 386.221 425.56 387.442C424.339 388.663 422.683 389.35 420.956 389.352Z" fill="#2F2E41"/>
<path d="M435.629 124.41C463.854 124.41 486.735 101.529 486.735 73.3044C486.735 45.0795 463.854 22.1986 435.629 22.1986C407.404 22.1986 384.523 45.0795 384.523 73.3044C384.523 101.529 407.404 124.41 435.629 124.41Z" fill="#536DFE"/>
<path d="M407.965 90.7538C406.321 90.2136 404.812 89.3277 403.539 88.1557C402.695 87.3189 402.045 86.3077 401.633 85.1931C401.222 84.0786 401.059 82.8875 401.156 81.7033C401.21 80.8596 401.458 80.0398 401.88 79.3077C402.303 78.5757 402.89 77.9514 403.594 77.4835C405.421 76.3112 407.866 76.3077 410.354 77.4045L410.26 57.4535L412.264 57.444L412.375 80.8985L410.831 79.9271C409.04 78.8027 406.483 78.0111 404.676 79.1705C404.23 79.4768 403.86 79.882 403.595 80.3546C403.331 80.8271 403.179 81.3543 403.151 81.8951C403.084 82.7772 403.207 83.6634 403.513 84.4936C403.818 85.3238 404.299 86.0784 404.923 86.706C407.136 88.8199 410.364 89.481 414.046 90.0717L413.729 92.0504C411.773 91.7912 409.843 91.3573 407.965 90.7538Z" fill="#2F2E41"/>
<path d="M389.602 56.4476L389.34 58.4343L400.041 59.8475L400.303 57.8609L389.602 56.4476Z" fill="#2F2E41"/>
<path d="M423.38 60.9051L423.117 62.8918L433.818 64.305L434.081 62.3184L423.38 60.9051Z" fill="#2F2E41"/>
<path d="M392.123 292.642C389.865 292.64 387.7 291.741 386.103 290.145C384.506 288.548 383.608 286.383 383.605 284.125C383.605 284.125 397.185 210.447 404.944 167.264C406.453 158.867 410.864 151.267 417.408 145.794C423.952 140.32 432.212 137.321 440.744 137.321C452.964 137.321 464.683 142.175 473.324 150.816C481.965 159.457 486.819 171.176 486.819 183.396V197.946C486.819 223.061 476.842 247.147 459.083 264.906C441.324 282.665 417.238 292.642 392.123 292.642Z" fill="#2F2E41"/>
<path d="M456.602 285.267C456.078 286.41 455.234 287.377 454.173 288.052C453.112 288.727 451.879 289.081 450.621 289.072L435.832 288.943C434.976 288.936 434.131 288.76 433.344 288.426C432.556 288.092 431.842 287.606 431.243 286.996C430.643 286.386 430.17 285.663 429.849 284.87C429.529 284.077 429.368 283.229 429.375 282.373L430.38 166.503C430.395 164.676 430.769 162.87 431.482 161.188C432.196 159.506 433.233 157.98 434.536 156.699C435.839 155.418 437.381 154.406 439.075 153.722C440.769 153.037 442.581 152.693 444.408 152.708C446.235 152.724 448.041 153.1 449.723 153.814C451.405 154.528 452.93 155.566 454.21 156.87C455.49 158.173 456.501 159.716 457.185 161.411C457.869 163.105 458.212 164.918 458.195 166.745L457.191 282.615C457.184 283.53 456.983 284.434 456.602 285.267Z" fill="#536DFE"/>
<path d="M463.136 254.334C462.612 255.477 461.769 256.445 460.708 257.12C459.647 257.795 458.413 258.149 457.156 258.139L431.894 257.92C430.167 257.903 428.518 257.202 427.307 255.97C426.097 254.739 425.425 253.077 425.438 251.35L426.263 156.204C426.27 155.349 426.446 154.503 426.78 153.716C427.114 152.929 427.6 152.215 428.21 151.615C428.82 151.016 429.542 150.542 430.336 150.222C431.129 149.901 431.977 149.74 432.832 149.748L458.094 149.966C458.949 149.974 459.795 150.15 460.582 150.484C461.369 150.818 462.083 151.304 462.683 151.914C463.282 152.524 463.756 153.246 464.076 154.039C464.397 154.832 464.558 155.681 464.55 156.536L463.726 251.682C463.718 252.598 463.518 253.502 463.136 254.334Z" fill="#2F2E41"/>
<path d="M420.876 43.1899C412.911 44.5416 404.02 46.0873 396.431 42.3942C390.458 39.4873 386.351 33.6816 387.806 26.8601C390.701 13.2844 406.243 7.28247 418.733 8.4937C426.079 9.17949 432.986 12.2939 438.364 17.3446C438.618 17.5862 438.938 17.7489 439.283 17.8128C439.629 17.8768 439.985 17.8393 440.31 17.7049C440.634 17.5704 440.913 17.3449 441.112 17.0554C441.311 16.766 441.422 16.4251 441.431 16.074C441.378 11.0645 445.126 6.88431 449.566 4.9973C455.126 2.63469 461.587 3.47898 467.301 4.7433C482.936 8.23022 497.136 16.4026 508.005 28.1698C518.875 39.9369 525.897 54.7392 528.135 70.6013C529.726 81.7679 528.873 93.1471 525.634 103.952C522.603 113.911 517.004 123.921 507.786 129.34C499.479 134.223 487.401 135.48 479.736 128.63C473.596 123.142 470.829 112.884 475.866 105.785C477.35 103.727 479.363 102.108 481.693 101.101C484.022 100.094 486.581 99.7358 489.097 100.065C491.477 100.441 493.699 101.492 495.499 103.093C497.3 104.695 498.603 106.779 499.254 109.098C499.732 111.326 499.585 113.642 498.828 115.791C498.072 117.94 496.735 119.838 494.967 121.274C493.645 122.224 492.144 122.894 490.555 123.245C488.965 123.596 487.321 123.62 485.722 123.314C484.124 123.009 482.604 122.382 481.255 121.47C479.907 120.558 478.758 119.382 477.879 118.012C476.659 116.053 473.548 117.855 474.776 119.826C476.186 122.031 478.118 123.855 480.401 125.136C482.684 126.416 485.248 127.114 487.865 127.167C490.473 127.215 493.048 126.568 495.324 125.294C497.6 124.019 499.497 122.162 500.819 119.913C502.237 117.618 503.026 114.99 503.105 112.293C503.185 109.597 502.553 106.927 501.273 104.552C499.874 102.13 497.88 100.105 495.48 98.6676C493.08 97.2306 490.354 96.4291 487.558 96.3388C484.658 96.3161 481.795 96.999 479.218 98.3288C476.641 99.6585 474.425 101.595 472.763 103.972C470.073 108.084 469.081 113.078 469.994 117.906C470.804 122.816 473.181 127.333 476.77 130.781C480.924 134.541 486.272 136.716 491.872 136.923C504.056 137.618 514.934 130.598 521.655 120.841C528.628 110.716 531.747 98.0102 532.375 85.8634C533.015 73.4829 530.855 61.1174 526.055 49.6874C521.254 38.2574 513.938 28.0573 504.65 19.8462C495.816 12.1144 485.456 6.32577 474.241 2.85561C463.139 -0.545043 447.64 -3.02385 440.143 8.31908C438.617 10.616 437.814 13.3169 437.837 16.0741L440.905 14.8035C430.058 4.43851 413.007 1.81942 399.463 8.19069C392.66 11.3908 386.763 17.3413 384.648 24.6783C382.454 32.291 385.627 39.7628 392.133 44.0803C400.988 49.956 411.97 48.329 421.831 46.6553C424.106 46.2692 423.141 42.8053 420.876 43.1899Z" fill="#2F2E41"/>
<path d="M308.5 264.084H17.5C12.8603 264.078 8.41221 262.233 5.13147 258.952C1.85073 255.671 0.0052934 251.223 0 246.584V72.5836C0.0052934 67.944 1.85073 63.4958 5.13147 60.2151C8.41221 56.9343 12.8603 55.0889 17.5 55.0836H308.5C313.14 55.0889 317.588 56.9343 320.869 60.2151C324.149 63.4958 325.995 67.944 326 72.5836V246.584C325.995 251.223 324.149 255.671 320.869 258.952C317.588 262.233 313.14 264.078 308.5 264.084ZM17.5 58.0836C13.6557 58.088 9.97015 59.6171 7.25183 62.3354C4.53351 65.0538 3.00442 68.7393 3 72.5836V246.584C3.00442 250.428 4.53351 254.113 7.25183 256.832C9.97015 259.55 13.6557 261.079 17.5 261.084H308.5C312.344 261.079 316.03 259.55 318.748 256.832C321.466 254.113 322.996 250.428 323 246.584V72.5836C322.996 68.7393 321.466 65.0538 318.748 62.3354C316.03 59.6171 312.344 58.088 308.5 58.0836H17.5Z" fill="#3F3D56"/>
<path d="M56.5 96.0836C54.0277 96.0836 51.611 95.3505 49.5554 93.977C47.4998 92.6035 45.8976 90.6512 44.9515 88.3671C44.0054 86.0831 43.7579 83.5697 44.2402 81.145C44.7225 78.7202 45.913 76.4929 47.6612 74.7448C49.4093 72.9966 51.6366 71.8061 54.0614 71.3238C56.4861 70.8415 58.9995 71.089 61.2836 72.0351C63.5676 72.9812 65.5199 74.5834 66.8934 76.639C68.2669 78.6946 69 81.1113 69 83.5836C68.9963 86.8977 67.6781 90.0749 65.3347 92.4183C62.9913 94.7617 59.8141 96.0799 56.5 96.0836ZM56.5 74.0836C54.6211 74.0836 52.7844 74.6408 51.2221 75.6847C49.6598 76.7285 48.4422 78.2122 47.7232 79.9481C47.0041 81.684 46.816 83.5942 47.1825 85.437C47.5491 87.2798 48.4539 88.9725 49.7825 90.3011C51.1111 91.6297 52.8038 92.5345 54.6467 92.9011C56.4895 93.2676 58.3996 93.0795 60.1355 92.3605C61.8714 91.6414 63.3551 90.4238 64.399 88.8615C65.4428 87.2993 66 85.4625 66 83.5836C65.9972 81.0649 64.9953 78.6502 63.2144 76.8693C61.4334 75.0883 59.0187 74.0865 56.5 74.0836Z" fill="#3F3D56"/>
<path d="M267.5 96.0836C265.028 96.0836 262.611 95.3505 260.555 93.977C258.5 92.6035 256.898 90.6512 255.951 88.3671C255.005 86.0831 254.758 83.5697 255.24 81.145C255.723 78.7202 256.913 76.4929 258.661 74.7448C260.409 72.9966 262.637 71.8061 265.061 71.3238C267.486 70.8415 269.999 71.089 272.284 72.0351C274.568 72.9812 276.52 74.5834 277.893 76.639C279.267 78.6946 280 81.1113 280 83.5836C279.996 86.8977 278.678 90.0749 276.335 92.4183C273.991 94.7617 270.814 96.0799 267.5 96.0836ZM267.5 74.0836C265.621 74.0836 263.784 74.6408 262.222 75.6847C260.66 76.7285 259.442 78.2122 258.723 79.9481C258.004 81.684 257.816 83.5942 258.183 85.437C258.549 87.2798 259.454 88.9725 260.782 90.3011C262.111 91.6297 263.804 92.5345 265.647 92.9011C267.489 93.2676 269.4 93.0795 271.136 92.3605C272.871 91.6414 274.355 90.4238 275.399 88.8615C276.443 87.2993 277 85.4625 277 83.5836C276.997 81.0649 275.995 78.6502 274.214 76.8693C272.433 75.0883 270.019 74.0865 267.5 74.0836Z" fill="#3F3D56"/>
<path d="M86 172.084H32C29.7465 172.081 27.586 171.185 25.9926 169.591C24.3991 167.998 23.5027 165.837 23.5 163.584V131.584C23.5027 129.33 24.3991 127.17 25.9926 125.576C27.586 123.983 29.7465 123.086 32 123.084H86C88.2535 123.086 90.414 123.983 92.0074 125.576C93.6009 127.17 94.4973 129.33 94.5 131.584V163.584C94.4973 165.837 93.6009 167.998 92.0074 169.591C90.414 171.185 88.2535 172.081 86 172.084Z" fill="#E6E6E6"/>
<path d="M190 172.084H136C133.746 172.081 131.586 171.185 129.993 169.591C128.399 167.998 127.503 165.837 127.5 163.584V131.584C127.503 129.33 128.399 127.17 129.993 125.576C131.586 123.983 133.746 123.086 136 123.084H190C192.254 123.086 194.414 123.983 196.007 125.576C197.601 127.17 198.497 129.33 198.5 131.584V163.584C198.497 165.837 197.601 167.998 196.007 169.591C194.414 171.185 192.254 172.081 190 172.084Z" fill="#E6E6E6"/>
<path d="M240 124.084C238.012 124.086 236.105 124.877 234.699 126.283C233.293 127.689 232.502 129.595 232.5 131.584V163.584C232.502 165.572 233.293 167.478 234.699 168.885C236.105 170.291 238.012 171.081 240 171.084H294C295.988 171.081 297.895 170.291 299.301 168.885C300.707 167.478 301.498 165.572 301.5 163.584V131.584C301.498 129.595 300.707 127.689 299.301 126.283C297.895 124.877 295.988 124.086 294 124.084H240Z" fill="#E6E6E6"/>
<path d="M86.5 236.084H32.5C30.2465 236.081 28.086 235.185 26.4926 233.591C24.8991 231.998 24.0027 229.837 24 227.584V195.584C24.0027 193.33 24.8991 191.17 26.4926 189.576C28.086 187.983 30.2465 187.086 32.5 187.084H86.5C88.7535 187.086 90.914 187.983 92.5074 189.576C94.1009 191.17 94.9973 193.33 95 195.584V227.584C94.9973 229.837 94.1009 231.998 92.5074 233.591C90.914 235.185 88.7535 236.081 86.5 236.084Z" fill="#E6E6E6"/>
<path d="M190.5 236.084H136.5C134.246 236.081 132.086 235.185 130.493 233.591C128.899 231.998 128.003 229.837 128 227.584V195.584C128.003 193.33 128.899 191.17 130.493 189.576C132.086 187.983 134.246 187.086 136.5 187.084H190.5C192.754 187.086 194.914 187.983 196.507 189.576C198.101 191.17 198.997 193.33 199 195.584V227.584C198.997 229.837 198.101 231.998 196.507 233.591C194.914 235.185 192.754 236.081 190.5 236.084Z" fill="#E6E6E6"/>
<path d="M294.5 236.084H240.5C238.246 236.081 236.086 235.185 234.493 233.591C232.899 231.998 232.003 229.837 232 227.584V195.584C232.003 193.33 232.899 191.17 234.493 189.576C236.086 187.983 238.246 187.086 240.5 187.084H294.5C296.754 187.086 298.914 187.983 300.507 189.576C302.101 191.17 302.997 193.33 303 195.584V227.584C302.997 229.837 302.101 231.998 300.507 233.591C298.914 235.185 296.754 236.081 294.5 236.084Z" fill="#E6E6E6"/>
<path d="M56.5 87.0836C55.5721 87.0825 54.6825 86.7134 54.0264 86.0573C53.3702 85.4011 53.0011 84.5115 53 83.5836V33.5836C53 32.6554 53.3687 31.7651 54.0251 31.1087C54.6815 30.4524 55.5717 30.0836 56.5 30.0836C57.4283 30.0836 58.3185 30.4524 58.9749 31.1087C59.6312 31.7651 60 32.6554 60 33.5836V83.5836C59.9989 84.5115 59.6298 85.4011 58.9736 86.0573C58.3175 86.7134 57.4279 87.0825 56.5 87.0836Z" fill="#3F3D56"/>
<path d="M267.5 87.0836C266.572 87.0825 265.683 86.7134 265.026 86.0573C264.37 85.4011 264.001 84.5115 264 83.5836V33.5836C264 32.6554 264.369 31.7651 265.025 31.1087C265.682 30.4524 266.572 30.0836 267.5 30.0836C268.428 30.0836 269.318 30.4524 269.975 31.1087C270.631 31.7651 271 32.6554 271 33.5836V83.5836C270.999 84.5115 270.63 85.4011 269.974 86.0573C269.317 86.7134 268.428 87.0825 267.5 87.0836Z" fill="#3F3D56"/>
<path d="M56.9598 160.555C55.4875 160.557 54.0543 160.081 52.8763 159.198L52.8033 159.143L37.4226 147.377C35.9839 146.274 35.0424 144.645 34.805 142.848C34.5676 141.051 35.0539 139.233 36.1568 137.794C37.2597 136.356 38.8889 135.414 40.6861 135.177C42.4833 134.939 44.3011 135.425 45.7398 136.528L55.7022 144.168L79.2438 113.455C79.7896 112.743 80.4704 112.146 81.2473 111.697C82.0241 111.248 82.8817 110.956 83.7712 110.839C84.6607 110.721 85.5646 110.78 86.4314 111.012C87.2981 111.244 88.1107 111.644 88.8228 112.19L88.8248 112.191L88.6787 112.394L88.8287 112.191C90.2653 113.296 91.2051 114.924 91.442 116.721C91.679 118.517 91.1936 120.334 90.0925 121.772L62.4024 157.881C61.7618 158.713 60.9381 159.386 59.9953 159.849C59.0525 160.311 58.0158 160.55 56.9658 160.547L56.9598 160.555Z" fill="#536DFE"/>
<path d="M163.96 223.555C162.487 223.557 161.054 223.081 159.876 222.198L159.803 222.143L144.423 210.377C142.984 209.274 142.042 207.645 141.805 205.848C141.568 204.051 142.054 202.233 143.157 200.794C144.26 199.356 145.889 198.414 147.686 198.177C149.483 197.939 151.301 198.425 152.74 199.528L162.702 207.168L186.244 176.455C186.79 175.743 187.47 175.146 188.247 174.697C189.024 174.248 189.882 173.956 190.771 173.839C191.661 173.721 192.565 173.78 193.431 174.012C194.298 174.244 195.111 174.644 195.823 175.19L195.825 175.191L195.679 175.394L195.829 175.191C197.265 176.296 198.205 177.924 198.442 179.721C198.679 181.517 198.194 183.334 197.093 184.772L169.402 220.881C168.762 221.713 167.938 222.386 166.995 222.849C166.052 223.311 165.016 223.55 163.966 223.547L163.96 223.555Z" fill="#536DFE"/>
<path d="M264.96 160.555C263.487 160.557 262.054 160.081 260.876 159.198L260.803 159.143L245.423 147.377C243.984 146.274 243.042 144.645 242.805 142.848C242.568 141.051 243.054 139.233 244.157 137.794C245.26 136.356 246.889 135.414 248.686 135.177C250.483 134.939 252.301 135.425 253.74 136.528L263.702 144.168L287.244 113.455C287.79 112.743 288.47 112.146 289.247 111.697C290.024 111.248 290.882 110.956 291.771 110.839C292.661 110.721 293.565 110.78 294.431 111.012C295.298 111.244 296.111 111.644 296.823 112.19L296.825 112.191L296.679 112.394L296.829 112.191C298.265 113.296 299.205 114.924 299.442 116.721C299.679 118.517 299.194 120.334 298.093 121.772L270.402 157.881C269.762 158.713 268.938 159.386 267.995 159.849C267.052 160.311 266.016 160.55 264.966 160.547L264.96 160.555Z" fill="#536DFE"/>
</g>
<defs>
<clipPath id="clip0_511_1197">
<rect width="532.485" height="389.352" fill="white"/>
</clipPath>
</defs>
</svg>
