<svg width="829" height="771" viewBox="0 0 829 771" fill="none" xmlns="http://www.w3.org/2000/svg">
<g clip-path="url(#clip0_22_626)">
<path d="M631.948 138.769H441.419V131.329H355.025V138.769H163.71C160.292 138.769 157.014 141.342 154.596 145.921C152.179 150.501 150.821 156.712 150.821 163.188V657.476C150.821 663.952 152.179 670.163 154.596 674.743C157.014 679.322 160.292 681.895 163.71 681.895H631.948C635.367 681.895 638.645 679.322 641.062 674.743C643.479 670.163 644.837 663.952 644.837 657.476V163.186C644.837 156.71 643.479 150.499 641.062 145.92C638.645 141.341 635.366 138.769 631.948 138.769Z" fill="#3F3D56"/>
<path d="M627.557 181.921H168.101V672.965H627.557V181.921Z" fill="#E6E6E6"/>
<path d="M608.229 207.889H187.586V632.335H608.229V207.889Z" fill="white"/>
<path d="M397.436 168.53C400.039 168.53 402.149 164.533 402.149 159.602C402.149 154.671 400.039 150.673 397.436 150.673C394.834 150.673 392.724 154.671 392.724 159.602C392.724 164.533 394.834 168.53 397.436 168.53Z" fill="#536DFE"/>
<path d="M657.736 664.037H612.897V657.915C612.897 657.593 612.829 657.285 612.709 657.057C612.589 656.829 612.426 656.701 612.256 656.701H596.882C596.712 656.701 596.549 656.829 596.429 657.057C596.309 657.285 596.241 657.593 596.241 657.915V664.037H586.633V657.915C586.633 657.593 586.566 657.285 586.446 657.057C586.325 656.829 586.162 656.701 585.992 656.701H570.619C570.449 656.701 570.286 656.829 570.166 657.057C570.045 657.285 569.978 657.593 569.978 657.915V664.037H560.37V657.915C560.37 657.593 560.302 657.285 560.182 657.057C560.062 656.829 559.899 656.701 559.729 656.701H544.355C544.185 656.701 544.022 656.829 543.902 657.057C543.782 657.285 543.714 657.593 543.714 657.915V664.037H534.106V657.915C534.106 657.593 534.039 657.285 533.919 657.057C533.798 656.829 533.635 656.701 533.466 656.701H518.092C517.923 656.701 517.76 656.829 517.639 657.057C517.519 657.285 517.452 657.593 517.452 657.915V664.037H507.843V657.915C507.843 657.593 507.775 657.285 507.655 657.057C507.535 656.829 507.372 656.701 507.202 656.701H491.829C491.659 656.701 491.496 656.829 491.376 657.057C491.256 657.285 491.188 657.593 491.188 657.915V664.037H481.579V657.915C481.579 657.593 481.512 657.285 481.392 657.057C481.272 656.829 481.109 656.701 480.939 656.701H465.568C465.398 656.701 465.236 656.829 465.115 657.057C464.995 657.285 464.928 657.593 464.928 657.915V664.037H455.316V657.915C455.316 657.593 455.248 657.285 455.128 657.057C455.008 656.829 454.845 656.701 454.675 656.701H334.248C334.078 656.701 333.915 656.829 333.795 657.057C333.675 657.285 333.607 657.593 333.607 657.915V664.037H323.999V657.915C323.999 657.593 323.932 657.285 323.812 657.057C323.691 656.829 323.528 656.701 323.358 656.701H307.985C307.815 656.701 307.652 656.829 307.532 657.057C307.411 657.285 307.344 657.593 307.344 657.915V664.037H297.736V657.915C297.736 657.593 297.668 657.285 297.548 657.057C297.428 656.829 297.265 656.701 297.095 656.701H281.722C281.552 656.701 281.389 656.829 281.269 657.057C281.149 657.285 281.081 657.593 281.081 657.915V664.037H271.472V657.915C271.472 657.593 271.405 657.285 271.285 657.057C271.164 656.829 271.001 656.701 270.831 656.701H255.458C255.288 656.701 255.125 656.829 255.005 657.057C254.885 657.285 254.818 657.593 254.818 657.915V664.037H245.211V657.915C245.211 657.593 245.143 657.285 245.023 657.057C244.903 656.829 244.74 656.701 244.57 656.701H229.195C229.025 656.701 228.862 656.829 228.742 657.057C228.622 657.285 228.554 657.593 228.554 657.915V664.037H218.946V657.915C218.946 657.593 218.879 657.285 218.758 657.057C218.638 656.829 218.475 656.701 218.305 656.701H202.931C202.762 656.701 202.599 656.829 202.478 657.057C202.358 657.285 202.291 657.593 202.291 657.915V664.037H192.683V657.915C192.683 657.593 192.615 657.285 192.495 657.057C192.375 656.829 192.212 656.701 192.042 656.701H176.665C176.495 656.701 176.332 656.829 176.212 657.057C176.092 657.285 176.024 657.593 176.024 657.915V664.037H146.561C142.484 664.037 138.574 667.106 135.69 672.568C132.807 678.031 131.188 685.439 131.188 693.164V706.334C131.188 714.059 132.807 721.468 135.69 726.93C138.574 732.393 142.484 735.461 146.561 735.461H657.736C661.814 735.461 665.724 732.393 668.607 726.931C671.49 721.469 673.11 714.06 673.11 706.336V693.166C673.11 685.441 671.49 678.032 668.607 672.57C665.724 667.107 661.814 664.038 657.736 664.038V664.037Z" fill="#3F3D56"/>
<path d="M490.914 237.658H304.902V608.113H490.914V237.658Z" fill="#E6E6E6"/>
<path d="M802 734.225H25V737H802V734.225Z" fill="#E6E6E6"/>
<path d="M726.538 637.289C737.066 658.692 737.61 690.152 737.61 690.152C737.61 690.152 721.085 686.908 710.557 665.505C700.029 644.102 699.485 612.642 699.485 612.642C699.485 612.642 716.01 615.886 726.538 637.289Z" fill="#536DFE"/>
<path d="M759.682 670.698C748.385 690.645 731.78 691.675 731.78 691.675C731.78 691.675 733.492 660.367 744.789 640.421C756.086 620.475 772.691 619.444 772.691 619.444C772.691 619.444 770.98 650.752 759.682 670.698Z" fill="#536DFE"/>
<path d="M756.874 734.224H715.323C714.525 734.224 713.744 733.8 713.068 732.999C712.392 732.197 711.849 731.052 711.501 729.694L702.454 694.461C702.138 693.234 701.992 691.874 702.03 690.511C702.068 689.147 702.289 687.824 702.671 686.666C703.053 685.509 703.585 684.554 704.216 683.893C704.846 683.232 705.555 682.886 706.276 682.887H765.921C766.642 682.886 767.351 683.232 767.982 683.893C768.613 684.554 769.144 685.509 769.526 686.666C769.909 687.824 770.129 689.147 770.167 690.511C770.205 691.874 770.059 693.234 769.743 694.461L760.697 729.695C760.348 731.054 759.805 732.199 759.129 733C758.453 733.801 757.672 734.226 756.875 734.225L756.874 734.224Z" fill="#E5E5E5"/>
<path d="M69.6403 637.289C80.1683 658.692 80.7124 690.152 80.7124 690.152C80.7124 690.152 64.1874 686.908 53.6595 665.505C43.1315 644.102 42.5874 612.642 42.5874 612.642C42.5874 612.642 59.1124 615.886 69.6403 637.289Z" fill="#E5E5E5"/>
<path d="M93.3849 734.224H51.8333C51.036 734.224 50.2548 733.8 49.5789 732.999C48.903 732.197 48.3597 731.052 48.0113 729.694L38.9648 694.461C38.6489 693.234 38.5031 691.874 38.5411 690.511C38.579 689.147 38.7995 687.824 39.1818 686.666C39.5641 685.509 40.0956 684.554 40.7263 683.893C41.357 683.232 42.0661 682.886 42.7869 682.887H102.432C103.153 682.886 103.862 683.232 104.493 683.893C105.123 684.554 105.655 685.509 106.037 686.666C106.419 687.824 106.64 689.147 106.678 690.511C106.716 691.874 106.57 693.234 106.254 694.461L97.2076 729.695C96.8592 731.054 96.3159 732.199 95.64 733C94.9641 733.801 94.1829 734.226 93.3856 734.225L93.3849 734.224Z" fill="#E5E5E5"/>
<path d="M420.352 342.528C434.005 342.528 445.073 321.558 445.073 295.691C445.073 269.823 434.005 248.854 420.352 248.854C406.699 248.854 395.631 269.823 395.631 295.691C395.631 321.558 406.699 342.528 420.352 342.528Z" fill="#A0616A"/>
<path d="M363.472 608.877L379.436 418.464C380.285 408.34 382.262 398.675 385.236 390.111C388.21 381.548 392.112 374.282 396.683 368.798C401.254 363.314 406.389 359.737 411.747 358.305C417.104 356.873 422.561 357.619 427.755 360.494C436.835 365.47 444.61 376.68 449.561 391.936C454.512 407.191 456.284 425.396 454.529 442.993L437.832 613.04L363.472 608.877Z" fill="#536DFE"/>
<path d="M427.177 642.946C428.412 641.401 429.453 639.362 430.226 636.973C431 634.583 431.488 631.901 431.656 629.116C431.823 626.331 431.666 623.51 431.196 620.852C430.726 618.194 429.954 615.763 428.935 613.731L445.438 553.183L426.853 556.941L414.03 613.863C412.349 617.337 411.398 621.857 411.356 626.57C411.314 631.282 412.184 635.86 413.802 639.44C415.42 643.02 417.674 645.353 420.138 645.999C422.602 646.645 425.106 645.56 427.176 642.947L427.177 642.946Z" fill="#A0616A"/>
<path d="M430.711 603.052C429.798 602.808 428.946 602.042 428.269 600.857L421.955 589.803C421.273 588.603 420.802 587.035 420.605 585.312C420.409 583.588 420.496 581.792 420.856 580.166L433.476 523.494L431.685 411.518C432.208 404.254 434.233 397.68 437.314 393.244C440.395 388.808 444.28 386.873 448.115 387.864C451.949 388.855 455.418 392.691 457.76 398.529C460.101 404.366 461.123 411.727 460.6 418.991L463.661 489.382C464.591 510.745 461.395 532.022 454.665 549.254L434.985 599.66C434.607 600.628 434.125 601.435 433.571 602.028C433.017 602.62 432.403 602.985 431.77 603.099C431.417 603.163 431.062 603.147 430.711 603.052Z" fill="#536DFE"/>
<path d="M277.989 270.172C278.259 272.929 278.844 275.54 279.703 277.821C280.563 280.103 281.676 282 282.965 283.379C284.253 284.757 285.685 285.584 287.16 285.8C288.636 286.016 290.118 285.617 291.503 284.631L314.498 337.03L319.917 303.14L297.25 258.576C296.216 254.291 294.39 250.872 292.117 248.963C289.843 247.055 287.28 246.789 284.91 248.216C282.54 249.643 280.528 252.664 279.253 256.709C277.978 260.754 277.529 265.543 277.99 270.172H277.989Z" fill="#A0616A"/>
<path d="M296.002 291.892C296.477 290.394 297.181 289.207 298.021 288.487L305.857 281.781C306.706 281.059 307.652 280.848 308.567 281.177C309.481 281.507 310.32 282.36 310.97 283.622L333.595 327.734L388.719 368.269C390.367 370.122 391.807 372.573 392.956 375.48C394.104 378.388 394.939 381.696 395.413 385.215C395.886 388.734 395.989 392.396 395.716 395.991C395.442 399.585 394.797 403.043 393.818 406.165C392.839 409.287 391.545 412.013 390.009 414.188C388.474 416.362 386.727 417.942 384.869 418.837C383.011 419.731 381.079 419.924 379.182 419.403C377.284 418.882 375.46 417.658 373.813 415.801L338.407 393.696C327.66 386.99 318.565 373.117 312.813 354.657L295.988 300.67C295.664 299.632 295.46 298.476 295.388 297.279C295.316 296.081 295.378 294.868 295.569 293.719C295.676 293.08 295.822 292.467 296.004 291.893L296.002 291.892Z" fill="#536DFE"/>
<path opacity="0.1" d="M440.403 458.098L439.397 519.121L420.855 580.17L436.338 512.142L440.403 458.098Z" fill="black"/>
<path d="M403.61 272.215C406.16 277.932 410.475 279.545 414.456 280.206C422.54 281.549 434.295 279.374 442.196 275.915C442.759 286.27 441.222 297.433 444.441 305.951C445.95 295.639 446.827 285.032 447.056 274.34C447.153 269.761 447.115 265.011 446.132 260.801C445.148 256.592 443.003 253.019 440.533 252.981C442.368 250.344 444.518 248.603 446.792 247.912L438.971 240.465L440.98 236.558L426.82 234.916L430.921 229.98C424.748 228.374 418.503 228.002 412.289 228.87C409.404 229.272 406.387 230.042 404.049 233.21C401.712 236.378 400.361 242.672 401.812 247.323C399.995 247.889 398.284 249.323 396.842 251.492C395.399 253.66 394.273 256.491 393.569 259.715C392.527 264.721 392.622 270.282 392.944 275.617C393.477 284.149 394.524 292.537 396.063 300.619" fill="#2F2E41"/>
<path d="M509.292 154.881L284.029 253.412C282.923 253.893 281.761 253.524 280.799 252.384C279.836 251.244 279.152 249.428 278.895 247.333L265.994 141.467C265.74 139.371 265.936 137.169 266.537 135.346C267.139 133.522 268.097 132.225 269.203 131.739L494.465 33.2078C495.572 32.7266 496.734 33.0963 497.696 34.2358C498.659 35.3754 499.343 37.1917 499.6 39.2865L512.5 145.153C512.754 147.249 512.559 149.451 511.958 151.274C511.356 153.098 510.398 154.395 509.292 154.881Z" fill="white"/>
<path d="M509.292 154.881L284.029 253.412C282.923 253.893 281.761 253.524 280.799 252.384C279.836 251.244 279.152 249.428 278.895 247.333L265.994 141.467C265.74 139.371 265.936 137.169 266.537 135.346C267.139 133.522 268.097 132.225 269.203 131.739L494.465 33.2078C495.572 32.7266 496.734 33.0963 497.696 34.2358C498.659 35.3754 499.343 37.1917 499.6 39.2865L512.5 145.153C512.754 147.249 512.559 149.451 511.958 151.274C511.356 153.098 510.398 154.395 509.292 154.881ZM269.588 134.901C268.925 135.192 268.349 135.971 267.988 137.065C267.628 138.159 267.51 139.48 267.663 140.738L280.563 246.605C280.717 247.862 281.128 248.952 281.706 249.636C282.283 250.32 282.981 250.542 283.644 250.253L508.907 151.722C509.571 151.43 510.146 150.652 510.507 149.558C510.868 148.463 510.985 147.142 510.832 145.884L497.932 40.0161C497.778 38.7589 497.367 37.6687 496.789 36.9848C496.212 36.3009 495.514 36.0793 494.851 36.3685L269.588 134.901Z" fill="#E6E6E6"/>
<path d="M347.752 134.573C347.38 134.735 347.028 135.033 346.717 135.452C346.406 135.871 346.141 136.402 345.938 137.015C345.735 137.627 345.598 138.31 345.534 139.023C345.471 139.736 345.482 140.466 345.567 141.171C345.652 141.876 345.81 142.543 346.031 143.132C346.252 143.722 346.533 144.223 346.856 144.607C347.18 144.991 347.54 145.251 347.916 145.372C348.293 145.492 348.678 145.471 349.05 145.309L349.06 145.305L482.572 86.9059C483.323 86.5754 483.973 85.6945 484.38 84.4566C484.788 83.2187 484.92 81.7249 484.746 80.3033C484.573 78.8816 484.109 77.6484 483.456 76.8742C482.804 76.1001 482.015 75.8484 481.265 76.1744L347.752 134.573Z" fill="#E6E6E6"/>
<path d="M351.676 166.769C351.303 166.93 350.952 167.229 350.64 167.648C350.329 168.067 350.065 168.598 349.862 169.21C349.659 169.823 349.521 170.506 349.458 171.219C349.394 171.932 349.405 172.662 349.49 173.367C349.576 174.072 349.733 174.738 349.955 175.328C350.176 175.918 350.456 176.419 350.779 176.803C351.103 177.187 351.463 177.447 351.84 177.568C352.216 177.688 352.601 177.667 352.973 177.505L352.983 177.501L410.434 152.371C411.185 152.045 411.837 151.167 412.247 149.93C412.656 148.692 412.789 147.198 412.617 145.775C412.445 144.351 411.982 143.116 411.329 142.339C410.676 141.563 409.888 141.31 409.136 141.636L409.126 141.64L351.676 166.769Z" fill="#E6E6E6"/>
<path d="M311.253 205.93C320.884 205.93 328.692 191.137 328.692 172.889C328.692 154.641 320.884 139.848 311.253 139.848C301.621 139.848 293.813 154.641 293.813 172.889C293.813 191.137 301.621 205.93 311.253 205.93Z" fill="#536DFE"/>
<path d="M310.762 191.95C310.191 192.201 309.593 192.094 309.057 191.645L309.024 191.617L302.006 185.581C301.681 185.301 301.387 184.903 301.143 184.408C300.898 183.913 300.708 183.332 300.582 182.697C300.456 182.063 300.398 181.388 300.41 180.711C300.422 180.033 300.504 179.367 300.652 178.75C300.8 178.133 301.011 177.578 301.273 177.115C301.534 176.653 301.841 176.293 302.176 176.055C302.511 175.818 302.868 175.708 303.225 175.732C303.583 175.756 303.934 175.913 304.26 176.194L308.807 180.116L315.186 153.56C315.485 152.317 316.032 151.349 316.707 150.87C317.382 150.391 318.13 150.44 318.787 151.005L318.748 151.179L318.789 151.004C319.445 151.572 319.955 152.609 320.207 153.888C320.46 155.167 320.435 156.584 320.137 157.828L312.634 189.068C312.46 189.787 312.201 190.422 311.877 190.921C311.553 191.42 311.172 191.772 310.765 191.947L310.762 191.95Z" fill="white"/>
</g>
<defs>
<clipPath id="clip0_22_626">
<rect width="777" height="704" fill="white" transform="translate(25 33)"/>
</clipPath>
</defs>
</svg>
