<svg width="48" height="48" viewBox="0 0 48 48" fill="none" xmlns="http://www.w3.org/2000/svg">
<g opacity="0.5">
<path d="M38 4H10C8.93995 4.00264 7.92406 4.42492 7.17449 5.17449C6.42492 5.92406 6.00264 6.93995 6 8V40C6.00264 41.0601 6.42492 42.0759 7.17449 42.8255C7.92406 43.5751 8.93995 43.9974 10 44H38C39.0601 43.9974 40.0759 43.5751 40.8255 42.8255C41.5751 42.0759 41.9974 41.0601 42 40V8C41.9974 6.93995 41.5751 5.92406 40.8255 5.17449C40.0759 4.42492 39.0601 4.00264 38 4ZM38 26.304V37.696L28 32L38 26.304ZM24 29.692L14 24H34L24 29.692ZM10 8H38V12H10V8ZM10 16H26V20H10V16ZM20 32L10 37.696V26.288L20 32ZM24 34.3L34 40H14L24 34.3Z" fill="black"/>
</g>
</svg>
