<svg width="836" height="646" viewBox="0 0 836 646" fill="none" xmlns="http://www.w3.org/2000/svg">
<g clip-path="url(#clip0_635_2)">
<path d="M800.842 564.765C797.524 538.087 780.99 511.801 755.547 503.119C765.581 530.579 765.579 560.702 755.541 588.16C751.632 598.735 746.182 610.09 749.86 620.749C752.148 627.38 757.745 632.454 764.002 635.627C770.259 638.8 777.204 640.312 784.061 641.794L785.411 642.91C796.296 618.329 804.159 591.443 800.842 564.765Z" fill="#F0F0F0"/>
<path d="M755.295 503.624C770.112 520.225 779.321 541.074 781.614 563.207C782.193 567.963 782.018 572.781 781.096 577.482C780.05 582.033 777.804 586.221 774.592 589.61C771.661 592.831 768.29 595.786 766.192 599.663C765.148 601.663 764.539 603.862 764.404 606.115C764.269 608.367 764.612 610.623 765.41 612.734C767.262 618.045 770.912 622.374 774.628 626.483C778.754 631.046 783.112 635.72 784.866 641.768C785.078 642.501 786.203 642.129 785.991 641.397C782.939 630.873 772.723 624.895 767.851 615.416C765.578 610.993 764.624 605.858 766.755 601.189C768.619 597.107 772.093 594.057 775.089 590.821C778.27 587.561 780.605 583.57 781.89 579.199C783.048 574.56 783.408 569.757 782.955 564.997C782.106 554.263 779.575 543.73 775.454 533.783C770.813 522.405 764.261 511.904 756.079 502.735C755.573 502.168 754.792 503.06 755.295 503.624Z" fill="white"/>
<path d="M781.294 556.037C784.955 555.148 788.181 552.986 790.396 549.939C792.611 546.891 793.67 543.155 793.385 539.398C793.324 538.638 792.141 538.696 792.201 539.457C792.473 542.955 791.486 546.435 789.418 549.269C787.35 552.103 784.337 554.104 780.922 554.912C780.181 555.088 780.557 556.212 781.294 556.037Z" fill="white"/>
<path d="M776.292 588.173C769.68 584.225 764.798 577.929 762.621 570.541C762.406 569.809 761.281 570.182 761.496 570.913C763.776 578.597 768.869 585.138 775.76 589.232C776.417 589.621 776.946 588.561 776.292 588.173Z" fill="white"/>
<path d="M769.711 523.527C768.366 524.166 766.884 524.461 765.397 524.386C763.909 524.311 762.464 523.867 761.191 523.095C760.539 522.697 760.011 523.758 760.658 524.153C762.069 524.999 763.665 525.487 765.308 525.575C766.951 525.662 768.591 525.345 770.083 524.652C770.229 524.599 770.349 524.492 770.419 524.353C770.489 524.214 770.504 524.053 770.46 523.904C770.41 523.755 770.303 523.632 770.163 523.562C770.023 523.491 769.861 523.479 769.711 523.527Z" fill="white"/>
<path d="M677.992 550.77C678.392 551.03 678.792 551.29 679.192 551.56C684.551 555.083 689.614 559.036 694.332 563.38C694.702 563.71 695.072 564.05 695.432 564.39C706.688 574.975 715.88 587.558 722.542 601.5C725.188 607.05 727.408 612.793 729.182 618.68C731.632 626.81 733.642 635.82 738.492 642.47C738.99 643.169 739.531 643.837 740.112 644.47H783.942C784.042 644.42 784.142 644.38 784.242 644.33L785.992 644.41C785.922 644.1 785.842 643.78 785.772 643.47C785.732 643.29 785.682 643.11 785.642 642.93C785.612 642.81 785.582 642.69 785.562 642.58C785.552 642.54 785.542 642.5 785.532 642.47C785.512 642.36 785.482 642.26 785.462 642.16C785.022 640.37 784.569 638.58 784.102 636.79C784.102 636.78 784.102 636.78 784.092 636.77C780.502 623.14 775.742 609.69 769.092 597.39C768.892 597.02 768.692 596.64 768.472 596.27C765.444 590.742 761.969 585.471 758.082 580.51C755.945 577.8 753.672 575.2 751.272 572.72C745.058 566.323 737.877 560.944 729.992 556.78C714.272 548.48 696.072 545.3 679.272 550.37C678.842 550.5 678.422 550.63 677.992 550.77Z" fill="#F0F0F0"/>
<path d="M678.092 551.326C699.918 555.661 719.823 566.762 734.98 583.054C738.305 586.503 741.066 590.455 743.16 594.764C745.065 599.028 745.794 603.723 745.27 608.363C744.868 612.7 743.956 617.089 744.615 621.447C744.986 623.673 745.823 625.795 747.072 627.675C748.32 629.555 749.952 631.149 751.86 632.354C756.536 635.48 762.057 636.739 767.498 637.783C773.54 638.942 779.833 640.05 784.875 643.823C785.486 644.281 786.16 643.306 785.55 642.849C776.777 636.284 765.021 637.661 755.424 633.026C750.946 630.864 747.093 627.338 745.984 622.327C745.013 617.945 745.951 613.418 746.395 609.031C746.973 604.512 746.435 599.921 744.828 595.657C742.96 591.256 740.356 587.204 737.128 583.676C729.988 575.617 721.625 568.731 712.346 563.27C701.79 556.979 690.236 552.54 678.183 550.144C677.437 549.996 677.351 551.179 678.092 551.326Z" fill="white"/>
<path d="M730.406 577.521C732.795 574.607 734.069 570.939 734.002 567.172C733.936 563.405 732.532 559.784 730.042 556.956C729.537 556.386 728.626 557.145 729.133 557.716C731.456 560.345 732.763 563.718 732.818 567.226C732.873 570.734 731.672 574.146 729.432 576.846C728.946 577.434 729.923 578.105 730.406 577.521Z" fill="white"/>
<path d="M745.764 606.192C738.106 607.02 730.418 604.933 724.232 600.345C723.62 599.89 722.946 600.864 723.557 601.319C730.004 606.081 738.009 608.237 745.975 607.357C746.734 607.273 746.519 606.108 745.764 606.192Z" fill="white"/>
<path d="M701.588 558.537C700.899 559.857 699.893 560.985 698.66 561.82C697.427 562.655 696.006 563.171 694.524 563.321C693.764 563.396 693.981 564.561 694.736 564.487C696.372 564.314 697.941 563.742 699.305 562.822C700.669 561.903 701.787 560.663 702.562 559.211C702.646 559.081 702.678 558.923 702.65 558.77C702.622 558.617 702.537 558.48 702.412 558.387C702.283 558.298 702.124 558.264 701.969 558.292C701.815 558.32 701.678 558.408 701.588 558.537Z" fill="white"/>
<path d="M607.422 95.9805L84.3385 0.144507C83.2736 -0.0602207 82.1783 -0.0472926 81.1185 0.182509C80.1573 0.393029 79.2549 0.814515 78.4765 1.4165C77.7157 2.00995 77.1035 2.77242 76.6885 3.64351C76.247 4.58431 76.0225 5.61229 76.0316 6.6515V475.274C76.0218 476.314 76.2457 477.342 76.6866 478.284C77.1009 479.155 77.7123 479.918 78.4725 480.511C79.2504 481.114 80.1525 481.536 81.1135 481.747C82.1732 481.978 83.2685 481.992 84.3335 481.787L607.422 385.951C607.855 385.861 608.257 385.658 608.585 385.36C608.967 385.018 609.288 384.612 609.532 384.16C609.815 383.645 610.029 383.095 610.169 382.523C610.324 381.902 610.402 381.264 610.403 380.624V101.324C610.403 100.681 610.325 100.042 610.17 99.4185C610.03 98.847 609.815 98.2963 609.533 97.7805C609.289 97.3287 608.968 96.9227 608.586 96.5805C608.258 96.2832 607.856 96.0791 607.423 95.9895L607.422 95.9805Z" fill="#E4E4E4"/>
<path d="M615.422 95.9805L92.3385 0.144507C91.2736 -0.0602207 90.1783 -0.0472926 89.1185 0.182509C88.1573 0.393029 87.2549 0.814515 86.4765 1.4165C85.7157 2.00995 85.1035 2.77242 84.6885 3.64351C84.247 4.58431 84.0225 5.61229 84.0316 6.6515V475.274C84.0218 476.314 84.2457 477.342 84.6866 478.284C85.1009 479.155 85.7123 479.918 86.4725 480.511C87.2504 481.114 88.1525 481.536 89.1135 481.747C90.1732 481.978 91.2685 481.992 92.3335 481.787L615.422 385.951C615.855 385.861 616.257 385.658 616.585 385.36C616.967 385.018 617.288 384.612 617.532 384.16C617.815 383.645 618.029 383.095 618.169 382.523C618.324 381.902 618.402 381.264 618.403 380.624V101.324C618.403 100.681 618.325 100.042 618.17 99.4185C618.03 98.847 617.815 98.2963 617.533 97.7805C617.289 97.3287 616.968 96.9227 616.586 96.5805C616.258 96.2832 615.856 96.0791 615.423 95.9895L615.422 95.9805Z" fill="white"/>
<path d="M615.422 95.9805L92.3385 0.144507C91.2736 -0.0602207 90.1783 -0.0472926 89.1185 0.182509C88.1573 0.393029 87.2549 0.814515 86.4765 1.4165C85.7157 2.00995 85.1035 2.77242 84.6885 3.64351C84.247 4.58431 84.0225 5.61229 84.0316 6.6515V475.274C84.0218 476.314 84.2457 477.342 84.6866 478.284C85.1009 479.155 85.7123 479.918 86.4725 480.511C87.2504 481.114 88.1525 481.536 89.1135 481.747C90.1732 481.978 91.2685 481.992 92.3335 481.787L615.422 385.951C615.855 385.861 616.257 385.658 616.585 385.36C616.967 385.018 617.288 384.612 617.532 384.16C617.815 383.645 618.029 383.095 618.169 382.523C618.324 381.902 618.402 381.264 618.403 380.624V101.324C618.403 100.681 618.325 100.042 618.17 99.4185C618.03 98.847 617.815 98.2963 617.533 97.7805C617.289 97.3287 616.968 96.9227 616.586 96.5805C616.258 96.2832 615.856 96.0791 615.423 95.9895L615.422 95.9805ZM617.412 380.792C617.412 381.221 617.359 381.648 617.256 382.064C617.162 382.446 617.019 382.813 616.831 383.158C616.668 383.459 616.454 383.73 616.199 383.957C615.98 384.155 615.712 384.29 615.424 384.349L92.3435 479.122C91.6338 479.257 90.9042 479.247 90.1985 479.092C89.559 478.951 88.9589 478.669 88.4415 478.268C87.9358 477.872 87.5291 477.364 87.2535 476.784C86.9607 476.158 86.8117 475.474 86.8175 474.784V7.1495C86.8115 6.45873 86.9601 5.77536 87.2525 5.1495C87.5276 4.56882 87.934 4.06009 88.4395 3.66351C88.9565 3.26158 89.5563 2.97946 90.1955 2.83751C90.9011 2.68246 91.6308 2.6719 92.3405 2.8065L615.424 97.5825C615.712 97.6415 615.98 97.7769 616.199 97.9745C616.454 98.2025 616.668 98.4732 616.831 98.7745C617.02 99.1183 617.163 99.4855 617.257 99.8665C617.36 100.283 617.413 100.71 617.413 101.139V380.792L617.412 380.792Z" fill="#CACACA"/>
<path d="M0.00067737 146.269C-0.0244861 143.072 0.651732 139.908 1.98168 137.001C3.22464 134.315 5.06153 131.946 7.35367 130.075C9.66097 128.203 12.3547 126.867 15.2407 126.162C18.363 125.408 21.6076 125.311 24.7697 125.875C28.0862 126.452 31.2686 127.633 34.1587 129.36C37.0139 131.058 39.5697 133.216 41.7237 135.745C43.8595 138.239 45.5661 141.07 46.7737 144.124C47.9771 147.153 48.6019 150.382 48.6157 153.641C48.6381 156.724 48.0105 159.777 46.7737 162.602C45.6121 165.226 43.8881 167.563 41.7237 169.447C39.5298 171.346 36.948 172.742 34.1587 173.54C31.1071 174.401 27.9097 174.618 24.7697 174.178C21.4248 173.717 18.1951 172.637 15.2457 170.994C12.2824 169.349 9.61711 167.218 7.36167 164.689C5.09668 162.164 3.27955 159.272 1.98867 156.136C0.694304 153.006 0.0191816 149.655 0.00067737 146.269Z" fill="#E4E4E4"/>
<path d="M0.00067737 243.269C-0.0244861 240.071 0.651732 236.908 1.98168 234C3.22464 231.315 5.06153 228.946 7.35367 227.075C9.66097 225.203 12.3547 223.867 15.2407 223.162C18.363 222.408 21.6076 222.311 24.7697 222.874C28.0862 223.452 31.2686 224.633 34.1587 226.36C37.0139 228.058 39.5697 230.216 41.7237 232.745C43.8595 235.239 45.5661 238.07 46.7737 241.124C47.9771 244.153 48.6019 247.382 48.6157 250.641C48.6381 253.724 48.0105 256.777 46.7737 259.602C45.6121 262.226 43.8881 264.563 41.7237 266.447C39.5298 268.346 36.948 269.742 34.1587 270.54C31.1071 271.401 27.9097 271.618 24.7697 271.178C21.4248 270.717 18.1951 269.637 15.2457 267.994C12.2824 266.349 9.61711 264.218 7.36167 261.689C5.09668 259.164 3.27955 256.272 1.98867 253.136C0.694304 250.006 0.0191816 246.655 0.00067737 243.269Z" fill="#E4E4E4"/>
<path d="M0.00067737 340.269C-0.0244861 337.072 0.651732 333.908 1.98168 331.001C3.22464 328.315 5.06153 325.946 7.35367 324.075C9.66097 322.203 12.3547 320.867 15.2407 320.162C18.363 319.408 21.6076 319.311 24.7697 319.875C28.0862 320.452 31.2686 321.633 34.1587 323.36C37.0139 325.058 39.5697 327.216 41.7237 329.746C43.8595 332.239 45.5661 335.07 46.7737 338.124C47.9771 341.153 48.6019 344.382 48.6157 347.642C48.6381 350.724 48.0105 353.777 46.7737 356.602C45.6121 359.226 43.8881 361.563 41.7237 363.448C39.5298 365.346 36.948 366.742 34.1587 367.54C31.1071 368.401 27.9097 368.618 24.7697 368.178C21.4248 367.717 18.1951 366.637 15.2457 364.994C12.2824 363.349 9.61711 361.218 7.36167 358.689C5.09668 356.164 3.27955 353.272 1.98867 350.136C0.694304 347.006 0.0191816 343.655 0.00067737 340.269Z" fill="#E4E4E4"/>
<path d="M6.00068 146.269C5.97551 143.072 6.65173 139.908 7.98168 137.001C9.22464 134.315 11.0615 131.946 13.3537 130.075C15.661 128.203 18.3547 126.867 21.2407 126.162C24.363 125.408 27.6076 125.311 30.7697 125.875C34.0862 126.452 37.2686 127.633 40.1587 129.36C43.0139 131.058 45.5697 133.216 47.7237 135.745C49.8595 138.239 51.5661 141.07 52.7737 144.124C53.9771 147.153 54.6019 150.382 54.6157 153.641C54.6381 156.724 54.0105 159.777 52.7737 162.602C51.6121 165.226 49.8881 167.563 47.7237 169.447C45.5298 171.346 42.948 172.742 40.1587 173.54C37.1071 174.401 33.9097 174.618 30.7697 174.178C27.4248 173.717 24.1951 172.637 21.2457 170.994C18.2824 169.349 15.6171 167.218 13.3617 164.689C11.0967 162.164 9.27955 159.272 7.98867 156.136C6.6943 153.006 6.01918 149.655 6.00068 146.269Z" fill="#536DFE"/>
<path d="M6.00025 242.607C5.98495 239.363 6.66024 236.153 7.98126 233.189C9.23571 230.398 11.0664 227.903 13.3533 225.869C15.6406 223.837 18.3268 222.305 21.2402 221.369C24.3153 220.391 27.5586 220.053 30.7693 220.378C34.0486 220.7 37.2359 221.647 40.1583 223.169C43.0041 224.65 45.5652 226.623 47.7232 228.996C49.8666 231.343 51.5764 234.052 52.7733 236.996C53.9855 239.98 54.6106 243.169 54.6143 246.39C54.6281 249.517 54.0012 252.614 52.7723 255.489C51.5939 258.226 49.8663 260.692 47.6964 262.733C45.5264 264.775 42.9604 266.35 40.1573 267.36C37.1513 268.439 33.956 268.892 30.7682 268.69C27.4631 268.487 24.2287 267.645 21.2443 266.21C15.2861 263.346 10.5744 258.41 7.98925 252.325C6.68639 249.251 6.01019 245.947 6.00025 242.607Z" fill="#536DFE"/>
<path d="M6.00002 338.947C5.99592 335.719 6.64527 332.524 7.90897 329.554C9.17267 326.584 11.0245 323.901 13.353 321.666C16.2163 318.924 19.704 316.921 23.5148 315.829C27.3256 314.738 31.3449 314.59 35.2255 315.4C39.106 316.209 42.7311 317.952 45.7875 320.476C48.8439 323 51.2397 326.231 52.768 329.889C54.2702 333.529 54.8579 337.481 54.4798 341.401C54.1016 345.32 52.7691 349.088 50.5988 352.373C48.4284 355.659 45.4862 358.363 42.0295 360.249C38.5727 362.135 34.7065 363.146 30.769 363.193C25.9485 363.263 21.2146 361.908 17.1617 359.297C13.1088 356.686 9.91771 352.936 7.98902 348.518C6.67722 345.497 6.00021 342.239 6.00002 338.947Z" fill="#536DFE"/>
<path d="M21.1099 146.158L28.372 147.275V140.115C28.3685 139.805 28.4319 139.498 28.5579 139.214C28.6758 138.953 28.8512 138.721 29.0709 138.537C29.2929 138.351 29.5532 138.218 29.8329 138.145C30.1378 138.068 30.4555 138.054 30.7659 138.106C31.0948 138.159 31.4111 138.272 31.6989 138.44C31.9859 138.606 32.2434 138.819 32.4609 139.07C32.6781 139.318 32.8521 139.601 32.9759 139.907C33.0994 140.21 33.1642 140.534 33.1669 140.862V148.012L40.2909 149.105C40.6146 149.156 40.9259 149.267 41.2089 149.432C41.7765 149.761 42.2178 150.271 42.4629 150.88C42.5838 151.181 42.6466 151.502 42.648 151.826C42.6503 152.133 42.5872 152.437 42.4629 152.718C42.3481 152.976 42.1773 153.207 41.9629 153.392C41.7453 153.576 41.4896 153.711 41.2139 153.786C40.9146 153.865 40.6019 153.882 40.2959 153.834L33.1619 152.767V159.901C33.1643 160.21 33.1002 160.517 32.9739 160.801C32.8558 161.063 32.681 161.296 32.4619 161.484C32.2407 161.671 31.9814 161.807 31.702 161.884C31.3984 161.966 31.081 161.984 30.7699 161.938C30.4415 161.89 30.1247 161.781 29.8359 161.618C29.5487 161.455 29.2908 161.245 29.0729 160.998C28.8554 160.751 28.6812 160.47 28.5579 160.166C28.4354 159.861 28.3722 159.536 28.372 159.209V152.049L21.1099 150.959C20.7763 150.907 20.455 150.795 20.1619 150.628C19.8704 150.462 19.6085 150.248 19.387 149.997C19.1668 149.749 18.9899 149.465 18.8639 149.158C18.7384 148.852 18.6732 148.523 18.6719 148.192C18.6695 147.879 18.735 147.569 18.8639 147.285C18.9849 147.02 19.1636 146.786 19.387 146.601C19.6128 146.412 19.8774 146.275 20.1619 146.201C20.4717 146.121 20.7944 146.107 21.1099 146.158Z" fill="white"/>
<path d="M26.207 250.932L46.373 252.394H46.447L36.99 235.224C36.9314 235.117 36.8473 235.025 36.745 234.956C36.6949 234.923 36.6408 234.896 36.584 234.875C36.527 234.855 36.4675 234.842 36.407 234.836C36.3483 234.831 36.2891 234.834 36.231 234.844C36.1751 234.855 36.1209 234.873 36.07 234.898C35.9682 234.949 35.8831 235.028 35.825 235.125L29.39 245.703L29.08 246.212L26.207 250.932Z" fill="white"/>
<path d="M14.6992 250.098L32.4912 251.387L29.0812 246.211L28.8352 245.838L24.3632 239.049C24.284 238.943 24.1852 238.854 24.0722 238.787C24.0173 238.754 23.9594 238.726 23.8992 238.705C23.837 238.682 23.7727 238.667 23.7072 238.658C23.644 238.649 23.58 238.646 23.5162 238.65C23.4543 238.655 23.3929 238.665 23.3332 238.683C23.2745 238.7 23.2178 238.723 23.1642 238.753C23.1104 238.782 23.06 238.818 23.0142 238.858L22.9992 238.877L22.9802 238.895L22.9652 238.913L22.9502 238.933L14.6992 250.098Z" fill="white"/>
<path d="M28.1541 232.398C28.5643 232.434 28.9639 232.548 29.3311 232.734C29.6911 232.918 30.0158 233.163 30.2901 233.459C30.5638 233.754 30.7826 234.096 30.9361 234.467C31.0917 234.844 31.1722 235.246 31.1731 235.653C31.1749 236.048 31.0942 236.438 30.9361 236.799C30.786 237.141 30.566 237.448 30.2901 237.699C30.0128 237.951 29.6863 238.143 29.3311 238.262C28.9524 238.389 28.5518 238.436 28.1541 238.401C27.7434 238.367 27.3431 238.254 26.9751 238.068C26.6134 237.886 26.287 237.641 26.0111 237.344C25.7354 237.049 25.5149 236.707 25.3601 236.334C25.2031 235.957 25.1219 235.552 25.1211 235.142C25.1194 234.747 25.2008 234.355 25.3601 233.992C25.5117 233.65 25.7334 233.344 26.0111 233.092C26.2904 232.842 26.6186 232.652 26.9751 232.534C27.3547 232.409 27.7559 232.363 28.1541 232.398Z" fill="white"/>
<path d="M245.766 300.844L445.446 111.387L446.302 112.887L247.014 302.447L245.766 300.844Z" fill="#E6E6E6"/>
<path d="M245.797 86.1105L247.049 84.6105L446.283 291.436L445.424 292.861L245.797 86.1105Z" fill="#E6E6E6"/>
<path d="M443.422 108.621L249.322 81.9545C248.425 81.8263 247.51 81.9043 246.647 82.1825C245.826 82.4533 245.076 82.9059 244.454 83.5065C243.811 84.1279 243.305 84.8774 242.969 85.7065C242.602 86.6213 242.416 87.5988 242.422 88.5845V297.525C242.419 298.524 242.605 299.514 242.969 300.445C243.308 301.31 243.812 302.1 244.453 302.773C245.071 303.42 245.818 303.931 246.646 304.273C247.493 304.619 248.407 304.772 249.321 304.721L443.422 294.031C444.077 293.988 444.712 293.781 445.267 293.43C445.855 293.059 446.365 292.577 446.767 292.01C447.211 291.389 447.552 290.701 447.777 289.973C448.024 289.181 448.149 288.356 448.148 287.527V115.507C448.147 114.667 448.022 113.832 447.777 113.03C447.549 112.276 447.209 111.561 446.767 110.91C446.364 110.308 445.856 109.785 445.267 109.365C444.719 108.974 444.087 108.719 443.422 108.621ZM249.322 302.571C248.67 302.606 248.017 302.495 247.413 302.247C246.823 302.001 246.29 301.636 245.849 301.173C245.391 300.691 245.032 300.125 244.791 299.507C244.531 298.843 244.399 298.136 244.401 297.424V88.8435C244.397 88.1411 244.53 87.4445 244.791 86.7925C245.03 86.1996 245.39 85.6634 245.849 85.2185C246.293 84.7901 246.827 84.4671 247.413 84.2735C248.028 84.0736 248.681 84.0164 249.322 84.1065L443.422 110.412C443.898 110.482 444.35 110.664 444.741 110.944C445.162 111.243 445.526 111.615 445.815 112.044C446.131 112.509 446.375 113.02 446.538 113.559C446.714 114.132 446.803 114.729 446.804 115.33V287.597C446.805 288.19 446.715 288.78 446.538 289.347C446.377 289.868 446.133 290.359 445.815 290.803C445.527 291.207 445.162 291.552 444.741 291.817C444.344 292.065 443.89 292.211 443.422 292.24L249.322 302.571Z" fill="#E6E6E6"/>
<path d="M242.894 326.785C242.378 326.842 241.886 327.033 241.467 327.34C241.005 327.679 240.612 328.103 240.309 328.591C239.965 329.134 239.705 329.727 239.537 330.349C239.352 331.027 239.262 331.727 239.27 332.431C239.274 333.104 239.375 333.773 239.57 334.418C239.74 334.984 240.003 335.518 240.35 335.997C240.652 336.419 241.044 336.768 241.497 337.021C241.925 337.255 242.41 337.364 242.897 337.336L582.701 309.199C582.971 309.176 583.225 309.059 583.419 308.869C583.666 308.633 583.866 308.352 584.009 308.041C584.19 307.659 584.324 307.256 584.409 306.841C584.51 306.362 584.562 305.874 584.565 305.384C584.571 304.899 584.527 304.414 584.433 303.938C584.356 303.534 584.227 303.141 584.049 302.769C583.914 302.473 583.719 302.207 583.475 301.991C583.279 301.816 583.024 301.722 582.761 301.726H582.701L242.894 326.785Z" fill="#E6E6E6"/>
<path d="M242.894 358.806C242.375 358.877 241.884 359.081 241.467 359.399C241.005 359.749 240.613 360.182 240.309 360.677C239.966 361.228 239.706 361.828 239.537 362.456C239.351 363.138 239.261 363.843 239.27 364.551C239.274 365.221 239.375 365.888 239.57 366.53C239.739 367.09 240.003 367.617 240.35 368.089C240.652 368.501 241.043 368.84 241.495 369.08C241.926 369.303 242.412 369.399 242.895 369.357L582.701 331.871C582.973 331.84 583.227 331.716 583.419 331.522C583.666 331.278 583.866 330.992 584.009 330.677C584.19 330.288 584.324 329.88 584.409 329.461C584.51 328.979 584.562 328.489 584.565 327.998C584.571 327.514 584.527 327.03 584.433 326.556C584.356 326.154 584.227 325.765 584.049 325.398C583.913 325.106 583.717 324.847 583.472 324.638C583.274 324.468 583.019 324.38 582.758 324.393H582.698L242.894 358.806Z" fill="#E6E6E6"/>
<path d="M242.894 390.308C242.373 390.394 241.882 390.612 241.467 390.94C241.005 391.303 240.613 391.747 240.309 392.25C239.966 392.809 239.706 393.415 239.537 394.05C239.352 394.734 239.262 395.441 239.27 396.151C239.273 396.818 239.374 397.482 239.57 398.121C239.738 398.675 240.002 399.196 240.35 399.659C240.652 400.063 241.044 400.392 241.495 400.619C241.929 400.831 242.415 400.914 242.895 400.858L582.701 354.175C582.975 354.135 583.228 354.006 583.419 353.807C583.666 353.557 583.865 353.265 584.009 352.946C584.19 352.553 584.324 352.142 584.409 351.719C584.51 351.236 584.562 350.744 584.565 350.252C584.571 349.769 584.527 349.287 584.433 348.814C584.356 348.416 584.227 348.03 584.049 347.666C583.914 347.378 583.717 347.124 583.472 346.922C583.272 346.757 583.016 346.676 582.758 346.696H582.698L242.894 390.308Z" fill="#E6E6E6"/>
<path d="M40.4643 328.801L21.0663 328.569C20.7429 328.557 20.4199 328.603 20.1123 328.704C19.8149 328.801 19.5365 328.949 19.2893 329.141C19.043 329.332 18.8318 329.564 18.6653 329.828C18.4947 330.098 18.3744 330.397 18.3103 330.711C18.2463 331.085 18.2658 331.469 18.3673 331.835C18.418 332.017 18.4884 332.194 18.5773 332.362C18.7586 332.703 19.0121 333.001 19.3203 333.235C19.7825 333.585 20.3454 333.777 20.9253 333.782L26.7593 333.835C27.0344 333.836 27.303 333.918 27.5322 334.071C27.7613 334.223 27.9411 334.439 28.0493 334.692C28.1221 334.863 28.1595 335.047 28.1593 335.233V346.677C28.1449 347.308 28.3554 347.925 28.7533 348.416C29.1515 348.908 29.7106 349.244 30.3323 349.366C30.8958 349.46 31.4747 349.367 31.9804 349.101C32.4861 348.836 32.8907 348.411 33.1323 347.894C33.2914 347.553 33.374 347.181 33.3743 346.805V335.265C33.3744 335.084 33.41 334.906 33.479 334.74C33.548 334.574 33.6491 334.423 33.7765 334.295C33.9039 334.168 34.0551 334.067 34.2215 333.998C34.3879 333.93 34.5662 333.894 34.7463 333.894L34.7593 333.895L40.3323 333.939C40.9545 333.959 41.5636 333.757 42.0513 333.37C42.5389 332.983 42.8735 332.436 42.9953 331.826C43.0565 331.456 43.0371 331.078 42.9385 330.716C42.8399 330.355 42.6644 330.019 42.4241 329.732C42.1838 329.445 41.8843 329.213 41.546 329.052C41.2078 328.891 40.8388 328.806 40.4643 328.801Z" fill="white"/>
<path d="M40.4644 344.219C41.0175 344.218 41.556 344.396 42.0001 344.726C42.4441 345.056 42.7702 345.52 42.93 346.049C43.0897 346.579 43.0747 347.146 42.8871 347.666C42.6995 348.187 42.3494 348.633 41.8885 348.938C41.4275 349.244 40.8804 349.393 40.3281 349.364C39.7758 349.335 39.2476 349.128 38.8218 348.775C38.396 348.422 38.0953 347.941 37.9641 347.404C37.8329 346.866 37.8783 346.301 38.0934 345.792C38.2895 345.325 38.6192 344.926 39.041 344.646C39.4629 344.367 39.9581 344.218 40.4644 344.219Z" fill="white"/>
<path d="M495.113 192.56C495.023 193.258 494.879 193.948 494.68 194.624L535.116 243.039L550.218 240.437L557.124 262.715L530.837 269.92C528.713 270.502 526.458 270.38 524.41 269.571C522.362 268.762 520.631 267.311 519.478 265.435L481.897 204.296C479.186 204.304 476.536 203.486 474.301 201.951C472.066 200.416 470.351 198.237 469.385 195.704C468.418 193.17 468.246 190.403 468.891 187.769C469.536 185.136 470.967 182.761 472.994 180.961C475.022 179.16 477.549 178.02 480.24 177.691C482.932 177.362 485.659 177.86 488.061 179.12C490.462 180.379 492.423 182.339 493.683 184.74C494.942 187.141 495.442 189.869 495.113 192.56Z" fill="#FFB6B6"/>
<path d="M536.906 240.34C537.338 239.64 537.916 239.042 538.6 238.585C539.285 238.129 540.06 237.826 540.872 237.697L569.241 233.173C573.255 231.906 577.606 232.283 581.342 234.221C585.078 236.158 587.893 239.498 589.171 243.507C590.448 247.517 590.083 251.87 588.156 255.611C586.229 259.352 582.897 262.177 578.891 263.465L552.971 276.067C552.231 276.427 551.423 276.622 550.6 276.641C549.778 276.66 548.961 276.502 548.206 276.177C547.45 275.851 546.774 275.367 546.222 274.757C545.671 274.147 545.257 273.425 545.01 272.64L536.316 245.07C536.069 244.286 535.993 243.457 536.095 242.641C536.196 241.824 536.473 241.04 536.906 240.34Z" fill="#3F3D56"/>
<path d="M538.487 632.518H526.227L520.395 585.23L538.489 585.231L538.487 632.518Z" fill="#FFB6B6"/>
<path d="M541.613 644.402L502.082 644.401V643.901C502.082 639.82 503.704 635.907 506.589 633.021C509.474 630.136 513.388 628.515 517.469 628.515L541.614 628.516L541.613 644.402Z" fill="#2F2E41"/>
<path d="M666.487 632.518H654.227L648.395 585.23L666.489 585.231L666.487 632.518Z" fill="#FFB6B6"/>
<path d="M669.613 644.402L630.082 644.401V643.901C630.082 639.82 631.704 635.907 634.589 633.021C637.474 630.136 641.388 628.515 645.469 628.515L669.614 628.516L669.613 644.402Z" fill="#2F2E41"/>
<path d="M543.274 344.47L596.399 329.118C615.752 342.844 629.114 370.358 624.787 405.957C617.813 463.325 658.186 537.087 675.598 611.826L645.489 612.772L579.56 454.992L540.907 616.057L514.012 616.902L531.997 395.133L543.274 344.47Z" fill="#2F2E41"/>
<path d="M566.931 204.956C582.109 204.956 594.413 192.652 594.413 177.474C594.413 162.296 582.109 149.992 566.931 149.992C551.753 149.992 539.449 162.296 539.449 177.474C539.449 192.652 551.753 204.956 566.931 204.956Z" fill="#FFB6B6"/>
<path d="M538.969 299.677C532.894 289.014 529.893 276.064 535.18 264.99C536.511 262.202 540.141 259.566 542.041 257.129L563.275 225.47L587.251 221.613C608 239.015 590.275 298.47 607.275 337.47L536.275 375.47C541.35 356.088 548.2 315.881 538.969 299.677Z" fill="#3F3D56"/>
<path d="M539.273 166.47C539.273 166.47 541.134 163.023 552.273 167.47C556.172 169.026 558 168.668 558.253 172.055C559.157 184.801 563.819 196.992 571.65 207.089L571.734 207.199L577.304 202.117L584.464 207.834L614.698 208.469C614.698 208.469 619.472 184.965 603.559 158.283C587.647 131.602 555.026 146.213 555.026 146.213C532.749 147.484 539.273 166.47 539.273 166.47Z" fill="#2F2E41"/>
<path d="M469.113 131.342L275.013 104.676C274.116 104.548 273.201 104.626 272.338 104.904C271.517 105.175 270.768 105.628 270.145 106.228C269.502 106.85 268.996 107.599 268.66 108.428C268.293 109.343 268.107 110.32 268.113 111.306V320.246C268.111 321.245 268.296 322.236 268.66 323.166C268.999 324.031 269.503 324.822 270.144 325.494C270.763 326.142 271.51 326.652 272.337 326.994C273.185 327.341 274.099 327.494 275.012 327.442L469.113 316.752C469.769 316.709 470.403 316.503 470.958 316.152C471.546 315.781 472.056 315.298 472.458 314.731C472.902 314.111 473.244 313.423 473.468 312.694C473.715 311.902 473.84 311.078 473.839 310.248V138.228C473.839 137.389 473.714 136.554 473.468 135.751C473.241 134.998 472.9 134.283 472.458 133.631C472.055 133.03 471.547 132.507 470.958 132.086C470.411 131.696 469.779 131.441 469.113 131.342Z" fill="#536DFE"/>
<path opacity="0.2" d="M469.113 131.342L275.013 104.676C274.116 104.548 273.201 104.626 272.338 104.904C271.517 105.175 270.768 105.628 270.145 106.228C269.502 106.85 268.996 107.599 268.66 108.428C268.293 109.343 268.107 110.32 268.113 111.306V320.246C268.111 321.245 268.296 322.236 268.66 323.166C268.999 324.031 269.503 324.822 270.144 325.494C270.763 326.142 271.51 326.652 272.337 326.994C273.185 327.341 274.099 327.494 275.012 327.442L469.113 316.752C469.769 316.709 470.403 316.503 470.958 316.152C471.546 315.781 472.056 315.298 472.458 314.731C472.902 314.111 473.244 313.423 473.468 312.694C473.715 311.902 473.84 311.078 473.839 310.248V138.228C473.839 137.389 473.714 136.554 473.468 135.751C473.241 134.998 472.9 134.283 472.458 133.631C472.055 133.03 471.547 132.507 470.958 132.086C470.411 131.696 469.779 131.441 469.113 131.342Z" fill="black"/>
<path d="M477.113 131.342L283.013 104.676C282.116 104.548 281.201 104.626 280.338 104.904C279.517 105.175 278.768 105.628 278.145 106.228C277.502 106.85 276.996 107.599 276.66 108.428C276.293 109.343 276.107 110.32 276.113 111.306V320.246C276.111 321.245 276.296 322.236 276.66 323.166C276.999 324.031 277.503 324.822 278.144 325.494C278.763 326.142 279.51 326.652 280.337 326.994C281.185 327.341 282.099 327.494 283.012 327.442L477.113 316.752C477.769 316.709 478.403 316.503 478.958 316.152C479.546 315.781 480.056 315.298 480.458 314.731C480.902 314.111 481.244 313.423 481.468 312.694C481.715 311.902 481.84 311.078 481.839 310.248V138.228C481.839 137.389 481.714 136.554 481.468 135.751C481.241 134.998 480.9 134.283 480.458 133.631C480.055 133.03 479.547 132.507 478.958 132.086C478.411 131.696 477.779 131.441 477.113 131.342Z" fill="#536DFE"/>
<path d="M476.28 298.383C476.809 298.848 477.299 299.354 477.748 299.897L540.501 293.482L546.797 279.51L569.124 286.255L560.384 312.072C559.677 314.158 558.314 315.958 556.497 317.203C554.681 318.448 552.51 319.07 550.31 318.976L478.61 315.904C477.099 318.155 474.938 319.893 472.415 320.886C469.892 321.879 467.127 322.081 464.486 321.464C461.846 320.847 459.456 319.441 457.635 317.433C455.813 315.425 454.646 312.91 454.288 310.222C453.931 307.534 454.4 304.801 455.634 302.387C456.868 299.973 458.807 297.991 461.195 296.706C463.582 295.421 466.304 294.893 468.999 295.192C471.694 295.492 474.234 296.605 476.28 298.383Z" fill="#FFB6B6"/>
<path d="M539.268 290.488C538.929 289.738 538.757 288.924 538.762 288.102C538.767 287.279 538.949 286.467 539.297 285.722L551.424 259.679C552.621 255.644 555.368 252.248 559.065 250.236C562.761 248.224 567.105 247.76 571.143 248.946C575.181 250.131 578.584 252.87 580.606 256.561C582.628 260.252 583.104 264.594 581.929 268.636L577.866 297.169C577.75 297.983 577.46 298.763 577.016 299.455C576.571 300.147 575.983 300.735 575.29 301.179C574.598 301.623 573.818 301.913 573.004 302.029C572.189 302.144 571.36 302.083 570.571 301.849L542.858 293.624C542.069 293.39 541.34 292.989 540.72 292.448C540.101 291.906 539.605 291.238 539.268 290.488Z" fill="#3F3D56"/>
<path d="M834.457 645.47H453.457C453.192 645.47 452.937 645.364 452.75 645.177C452.562 644.989 452.457 644.735 452.457 644.47C452.457 644.204 452.562 643.95 452.75 643.763C452.937 643.575 453.192 643.47 453.457 643.47H834.457C834.722 643.47 834.977 643.575 835.164 643.763C835.352 643.95 835.457 644.204 835.457 644.47C835.457 644.735 835.352 644.989 835.164 645.177C834.977 645.364 834.722 645.47 834.457 645.47Z" fill="#CACACA"/>
</g>
<defs>
<clipPath id="clip0_635_2">
<rect width="835.459" height="645.47" fill="white"/>
</clipPath>
</defs>
</svg>
