<svg width="24" height="24" viewBox="0 0 24 24" fill="none" xmlns="http://www.w3.org/2000/svg">
<path d="M19 23L17.6 21.6L19.175 20H15V18H19.175L17.575 16.4L19 15L23 19L19 23ZM4 20C3.45 20 2.97933 19.8043 2.588 19.413C2.196 19.021 2 18.55 2 18V6C2 5.45 2.196 4.97933 2.588 4.588C2.97933 4.196 3.45 4 4 4H20C20.55 4 21.021 4.196 21.413 4.588C21.8043 4.97933 22 5.45 22 6V13.8C21.55 13.5333 21.0707 13.3333 20.562 13.2C20.054 13.0667 19.5333 13 19 13C17.3333 13 15.9167 13.5833 14.75 14.75C13.5833 15.9167 13 17.3333 13 19V20H4ZM12 13L20 8V6L12 11L4 6V8L12 13Z" fill="black" fill-opacity="0.5"/>
</svg>
